<?xml version="1.0" standalone="no"?>
<!DOCTYPE svg PUBLIC "-//W3C//DTD SVG 20010904//EN"
 "http://www.w3.org/TR/2001/REC-SVG-20010904/DTD/svg10.dtd">
<svg version="1.0" xmlns="http://www.w3.org/2000/svg"
 width="3000.000000pt" height="3000.000000pt" viewBox="0 0 3000.000000 3000.000000"
 preserveAspectRatio="xMidYMid meet">
<metadata>
Created by potrace 1.11, written by Peter Selinger 2001-2013
</metadata>
<g transform="translate(0.000000,3000.000000) scale(0.100000,-0.100000)"
fill="#000000" stroke="none">
<path d="M15022 25294 c-23 -44 -53 -97 -66 -119 -13 -22 -83 -143 -156 -270
-73 -126 -147 -255 -165 -285 -18 -30 -54 -94 -82 -141 -27 -48 -53 -93 -57
-100 -3 -8 -14 -27 -24 -44 -18 -29 -306 -526 -343 -592 -10 -17 -29 -50 -43
-72 -15 -22 -26 -43 -26 -46 0 -2 -27 -50 -60 -106 -33 -55 -60 -103 -60 -106
0 -3 -13 -25 -30 -50 -16 -24 -30 -45 -30 -47 0 -2 -28 -52 -63 -112 -35 -60
-66 -116 -70 -124 -4 -8 -15 -28 -26 -45 -19 -31 -155 -267 -190 -329 -11 -19
-31 -53 -45 -75 -15 -22 -26 -45 -26 -51 0 -27 -20 -5 -30 33 -6 23 -18 67
-27 97 -8 30 -17 63 -18 72 -2 9 -34 128 -70 264 -37 137 -69 255 -70 264 -2
8 -15 56 -29 105 -13 50 -36 135 -51 190 -15 55 -40 150 -56 210 -17 61 -32
117 -34 125 -10 44 -108 405 -125 465 -11 39 -22 79 -25 90 -4 21 -51 196 -80
300 -9 33 -18 67 -20 75 -17 76 -66 245 -72 251 -10 8 -491 -111 -688 -171
-77 -23 -150 -44 -162 -47 -13 -3 -23 -8 -23 -10 0 -6 43 -167 86 -328 14 -49
27 -98 29 -108 2 -10 23 -86 46 -170 22 -84 49 -183 59 -222 10 -38 60 -223
110 -410 137 -508 141 -525 145 -543 2 -9 11 -42 20 -72 9 -30 17 -62 19 -70
3 -8 14 -51 26 -95 12 -44 23 -87 25 -95 2 -8 17 -67 35 -130 17 -63 33 -122
35 -131 2 -9 13 -54 25 -98 22 -82 22 -103 -2 -83 -7 5 -128 76 -268 157 -140
81 -295 171 -345 200 -102 60 -579 335 -640 369 -22 13 -101 58 -175 101 -372
216 -639 370 -677 391 -80 46 -268 154 -283 164 -8 6 -22 13 -30 17 -8 3 -39
21 -68 40 -29 18 -54 33 -57 33 -2 0 -42 22 -87 49 -46 27 -99 58 -119 69
l-36 20 -59 -36 c-276 -164 -784 -502 -784 -521 0 -7 14 -16 95 -61 58 -32
353 -202 485 -280 36 -21 182 -106 325 -188 143 -82 276 -159 295 -170 19 -12
46 -27 60 -35 14 -7 126 -72 250 -144 124 -71 333 -192 465 -268 132 -76 260
-150 285 -165 25 -15 65 -39 90 -52 50 -28 390 -224 515 -298 44 -26 100 -58
125 -72 25 -14 74 -42 110 -63 36 -21 79 -45 95 -55 17 -9 116 -66 220 -127
105 -61 267 -154 360 -208 94 -54 197 -114 230 -133 143 -83 217 -122 246
-127 11 -2 23 -7 29 -10 16 -10 152 -7 204 5 134 30 240 117 321 265 6 11 40
71 75 132 36 62 72 125 80 140 8 16 30 52 48 81 17 29 32 54 32 57 0 3 16 29
35 59 19 30 35 58 35 61 0 3 20 38 44 78 24 39 54 92 68 117 14 25 81 142 150
260 68 118 189 328 268 465 79 138 150 258 158 268 8 9 12 17 8 17 -4 0 1 12
12 28 11 15 113 189 227 387 114 198 242 419 283 490 41 72 117 203 169 293
51 89 126 218 165 285 39 67 81 140 94 163 56 99 305 530 314 544 29 44 102
182 98 185 -2 2 -39 7 -83 10 -44 3 -98 8 -120 10 -22 2 -80 7 -130 10 -49 4
-115 8 -145 10 -30 3 -163 7 -295 11 l-240 6 -43 -78z"/>
<path d="M19219 24458 c0 -7 0 -1100 -1 -2428 0 -1741 3 -2428 11 -2463 38
-162 181 -304 342 -338 40 -9 680 -12 2477 -13 1332 0 2422 2 2422 6 0 8 -72
174 -89 205 -5 10 -50 99 -99 198 -97 196 -166 329 -218 416 -19 31 -34 61
-34 67 0 5 -6 12 -12 14 -7 2 -739 4 -1625 4 -887 -1 -1613 1 -1613 4 0 3 421
426 935 940 l935 935 -41 45 c-79 86 -377 386 -490 493 l-113 108 -936 -936
c-514 -514 -937 -935 -940 -935 -3 0 -5 728 -5 1618 l1 1617 -61 36 c-183 107
-806 419 -839 419 -3 0 -6 -6 -7 -12z"/>
<path d="M6585 21062 c-112 -151 -320 -464 -444 -666 l-90 -148 31 -57 c17
-31 37 -63 45 -72 7 -8 13 -18 13 -21 0 -3 61 -110 135 -238 74 -128 135 -235
135 -236 0 -2 32 -55 70 -120 39 -64 70 -118 70 -119 0 -2 39 -70 86 -152 82
-140 298 -514 334 -578 10 -16 50 -86 90 -155 71 -122 88 -151 131 -227 12
-21 25 -42 29 -48 4 -5 21 -35 37 -65 17 -30 63 -111 103 -180 41 -69 83 -143
96 -165 50 -91 197 -341 206 -353 17 -20 2 -25 -39 -14 -40 10 -267 71 -293
77 -8 3 -55 15 -105 29 -379 102 -1003 269 -1015 271 -8 2 -82 22 -165 45 -82
23 -157 43 -165 45 -8 1 -76 19 -150 40 -200 54 -323 87 -340 90 -8 2 -40 10
-71 19 -31 9 -65 19 -75 21 -11 2 -45 11 -78 20 -32 9 -60 14 -62 12 -4 -4
-123 -414 -129 -445 -2 -10 -15 -64 -30 -122 -15 -58 -29 -113 -31 -123 -2
-10 -5 -26 -8 -35 -3 -9 -7 -28 -10 -42 -2 -14 -9 -44 -14 -67 l-9 -41 41 -11
c46 -12 265 -71 281 -75 6 -2 24 -6 40 -10 17 -4 71 -19 120 -33 50 -14 97
-26 105 -28 8 -2 134 -35 280 -75 146 -39 272 -73 280 -75 25 -6 259 -68 580
-155 168 -45 413 -111 545 -147 132 -35 248 -66 259 -68 20 -5 32 -13 25 -18
-4 -3 -203 -117 -269 -154 -19 -11 -213 -123 -430 -248 -217 -126 -406 -235
-420 -242 -14 -8 -46 -26 -71 -41 -25 -15 -110 -64 -190 -110 -79 -46 -151
-88 -159 -93 -22 -13 -117 -67 -170 -97 -25 -14 -57 -32 -72 -41 -168 -98
-572 -332 -610 -352 -26 -14 -53 -31 -60 -36 -7 -6 -35 -23 -63 -38 -27 -14
-75 -41 -105 -58 -30 -18 -84 -48 -118 -67 l-63 -35 6 -235 c7 -283 15 -431
30 -590 3 -25 7 -74 10 -110 4 -36 10 -69 14 -73 4 -4 118 56 252 134 134 78
264 153 289 167 25 14 78 44 117 68 40 24 75 44 77 44 3 0 46 25 96 55 50 30
92 55 95 55 2 0 52 29 112 65 59 36 113 65 120 65 6 0 13 4 15 8 2 4 50 34
108 67 117 67 111 64 415 240 121 70 236 136 255 147 19 11 51 29 70 40 19 11
181 105 360 208 179 103 397 229 485 280 88 51 176 102 195 113 19 11 109 62
200 115 91 52 192 111 225 130 33 19 80 46 105 60 25 14 57 33 72 43 14 11 28
19 31 19 13 0 498 287 533 316 86 69 152 206 155 320 4 128 -13 175 -161 429
-51 88 -152 264 -225 390 -72 127 -179 311 -237 410 -57 99 -116 200 -130 225
-14 25 -72 126 -130 225 -57 99 -107 187 -111 195 -4 8 -17 31 -28 50 -12 19
-64 109 -117 200 -52 91 -125 217 -162 280 -37 63 -79 135 -92 160 -28 49
-113 196 -128 220 -5 8 -41 69 -78 135 -101 176 -629 1091 -707 1225 -37 63
-81 140 -97 170 -42 75 -52 90 -58 90 -3 0 -14 -13 -25 -28z"/>
<path d="M13681 20544 c-46 -7 -95 -16 -110 -20 -14 -4 -32 -8 -40 -10 -93
-19 -294 -107 -410 -181 -298 -190 -523 -513 -606 -870 -25 -106 -30 -161 -30
-308 0 -257 45 -444 157 -655 86 -162 232 -342 348 -429 19 -14 37 -28 40 -32
3 -3 34 -25 69 -49 146 -98 375 -192 524 -214 20 -3 53 -9 73 -12 20 -3 46 -7
58 -8 34 -3 44 -13 51 -49 4 -17 15 -61 25 -97 30 -108 80 -295 85 -316 2 -10
16 -61 30 -113 14 -52 24 -95 23 -97 -2 -1 -52 -30 -113 -64 -197 -112 -355
-234 -508 -390 -164 -168 -295 -344 -386 -520 -23 -44 -43 -80 -45 -80 -5 0
-528 140 -561 150 -16 5 -48 14 -70 19 -33 9 -41 15 -42 33 -1 57 -19 160 -48
268 -81 308 -301 609 -585 796 -111 73 -337 170 -441 188 -19 4 -68 12 -109
20 -71 12 -355 14 -421 3 -221 -40 -409 -115 -589 -235 -109 -73 -289 -253
-362 -362 -108 -162 -181 -339 -224 -540 -27 -129 -25 -390 4 -533 89 -431
361 -787 748 -981 150 -75 288 -116 479 -143 80 -11 282 -5 380 12 344 58 681
262 887 538 35 46 56 66 67 63 25 -8 168 -47 188 -51 10 -2 45 -12 78 -21 33
-9 67 -17 75 -19 8 -2 81 -22 162 -44 81 -23 148 -41 150 -41 2 0 3 -78 3
-173 0 -151 10 -310 20 -326 1 -4 6 -28 9 -56 32 -236 176 -613 316 -826 l37
-57 -246 -245 -246 -246 -67 29 c-251 108 -570 142 -821 89 -27 -6 -54 -12
-60 -13 -24 -5 -103 -27 -132 -37 -508 -179 -874 -638 -932 -1169 -12 -114 -5
-383 12 -410 2 -3 6 -22 9 -42 19 -123 119 -360 206 -489 197 -292 489 -497
831 -583 247 -63 533 -53 769 25 447 147 783 490 916 932 13 43 26 96 29 120
4 23 8 44 10 48 7 10 18 160 19 234 0 113 -15 223 -49 372 -8 32 -52 155 -75
205 l-19 43 242 243 c133 133 246 242 252 242 6 0 35 -17 65 -37 75 -50 285
-153 400 -196 164 -61 352 -108 535 -133 17 -2 120 -7 230 -10 110 -3 203 -9
206 -13 4 -4 43 -144 66 -236 1 -5 14 -53 28 -105 14 -52 27 -103 30 -112 3
-15 38 -144 51 -189 3 -11 -18 -33 -63 -67 -73 -54 -172 -148 -225 -214 -18
-22 -38 -46 -45 -53 -74 -78 -224 -389 -247 -511 -11 -62 -17 -89 -21 -101
-16 -47 -23 -283 -11 -390 14 -124 77 -360 105 -398 5 -5 13 -25 20 -44 17
-51 107 -197 170 -276 191 -239 470 -421 756 -491 17 -4 32 -8 35 -9 3 -1 25
-5 50 -9 25 -5 54 -10 65 -13 40 -9 301 -11 360 -2 33 5 80 11 105 15 25 3 53
10 63 15 9 6 17 8 17 5 0 -3 39 9 88 25 368 124 654 370 822 707 69 137 99
232 130 402 26 145 21 374 -10 514 -110 493 -436 865 -910 1036 -44 16 -80 27
-80 25 0 -2 -18 2 -41 10 -22 8 -62 17 -87 21 -26 3 -65 9 -88 13 -22 4 -48 7
-57 5 -12 -1 -20 9 -27 34 -5 21 -19 71 -30 112 -11 41 -25 91 -30 110 -6 19
-26 96 -45 170 -19 74 -42 158 -50 186 -8 28 -15 53 -15 56 0 3 48 32 106 64
108 59 243 150 352 239 73 59 251 238 307 310 22 28 43 52 46 55 14 12 151
222 185 285 22 39 44 78 50 88 9 16 20 15 160 -24 82 -22 162 -43 177 -45 16
-2 32 -6 37 -9 5 -3 53 -17 107 -31 191 -49 199 -52 200 -77 1 -77 33 -230 69
-336 142 -412 454 -727 862 -871 159 -57 275 -75 472 -75 155 1 215 7 325 35
416 106 741 368 929 748 44 88 101 250 110 309 2 17 6 35 9 40 20 32 29 342
14 458 -46 352 -236 689 -512 908 -33 26 -64 51 -70 55 -25 20 -166 101 -217
125 -74 35 -251 93 -308 102 -24 4 -47 8 -50 10 -9 6 -146 18 -218 19 -429 11
-868 -205 -1134 -557 -38 -50 -56 -66 -69 -62 -9 3 -26 8 -36 10 -10 2 -45 12
-78 21 -33 9 -67 17 -75 19 -8 2 -115 31 -237 64 -123 34 -225 61 -229 61 -3
0 -3 4 1 9 6 11 7 243 0 316 -35 393 -154 760 -341 1053 -19 29 -34 56 -34 60
0 4 109 116 243 249 l242 242 70 -31 c207 -90 453 -127 691 -104 69 6 91 10
144 21 14 3 36 7 49 10 60 11 194 60 276 100 294 145 510 361 650 650 38 79
80 189 90 235 2 8 10 44 19 80 41 174 41 405 1 595 -33 160 -114 350 -205 486
-105 155 -238 288 -398 395 -147 98 -321 168 -527 210 -164 34 -465 19 -620
-30 -5 -1 -23 -6 -40 -11 -16 -4 -52 -16 -80 -27 -445 -175 -751 -519 -870
-976 -71 -278 -41 -631 76 -891 l29 -65 -242 -243 c-133 -134 -247 -243 -253
-243 -6 0 -33 15 -60 34 -183 122 -480 241 -740 296 -189 39 -276 48 -493 49
-105 1 -144 4 -147 14 -2 6 -20 75 -41 152 -20 77 -58 220 -85 319 -38 139
-46 181 -36 190 7 6 30 25 52 41 274 204 477 534 540 880 23 128 23 359 0 475
-22 110 -32 147 -63 235 -172 485 -582 825 -1112 920 -68 12 -335 12 -419 -1z"/>
<path d="M25245 16048 c-27 -17 -138 -81 -245 -143 -107 -62 -251 -145 -320
-185 -69 -40 -226 -131 -350 -202 -124 -71 -232 -134 -240 -138 -42 -25 -245
-143 -315 -183 -44 -25 -163 -93 -265 -152 -320 -186 -653 -377 -700 -403 -25
-14 -56 -33 -70 -42 -14 -9 -30 -19 -35 -21 -9 -3 -200 -113 -318 -183 -18
-10 -126 -72 -242 -139 -115 -66 -241 -139 -280 -162 -38 -23 -77 -45 -85 -48
-8 -4 -33 -18 -55 -32 -22 -14 -49 -30 -60 -35 -11 -6 -41 -23 -66 -38 -25
-15 -144 -83 -264 -152 -241 -138 -310 -195 -357 -291 -36 -74 -50 -138 -50
-224 1 -85 23 -148 94 -272 28 -48 60 -104 71 -123 10 -19 36 -64 57 -100 21
-36 48 -83 61 -106 63 -108 276 -478 291 -503 9 -16 51 -89 93 -162 43 -74
145 -251 228 -394 187 -325 519 -899 690 -1195 71 -124 178 -308 237 -410 59
-102 118 -205 132 -230 14 -25 76 -132 138 -239 61 -107 124 -215 138 -240 14
-25 43 -74 64 -109 21 -34 38 -65 38 -68 0 -3 8 -18 19 -32 18 -27 62 -103 88
-154 8 -16 18 -28 22 -28 7 0 45 52 212 294 42 60 41 59 173 268 166 263 166
264 166 282 0 9 -29 67 -65 127 -36 60 -65 112 -65 115 0 3 -13 25 -30 49 -16
24 -30 46 -30 49 0 2 -45 82 -100 176 -55 94 -100 173 -100 175 0 1 -17 32
-38 66 -22 35 -51 85 -65 111 -14 26 -66 116 -115 200 -141 242 -572 988 -600
1038 -14 25 -62 109 -108 187 -46 78 -84 144 -84 147 0 3 -18 35 -41 73 -22
37 -45 75 -49 83 -5 8 -35 60 -68 116 l-58 101 125 -34 c69 -18 178 -47 241
-64 122 -33 264 -71 445 -119 61 -16 196 -52 300 -80 105 -29 197 -53 205 -55
36 -8 548 -147 576 -156 17 -5 40 -11 51 -13 11 -3 124 -32 249 -66 329 -89
376 -101 379 -98 10 9 161 557 190 688 35 153 42 190 37 190 -4 0 -65 16 -137
36 -71 19 -137 36 -145 38 -27 7 -464 125 -497 135 -18 5 -33 8 -33 5 0 -3 -8
0 -18 5 -11 6 -30 12 -43 15 -32 7 -46 10 -174 45 -214 57 -310 83 -325 87 -8
2 -116 30 -240 64 -124 33 -265 72 -315 85 -442 118 -574 153 -597 159 -25 6
-40 26 -20 26 5 0 161 88 348 196 186 108 428 248 536 310 108 62 212 123 230
134 18 11 42 24 53 30 11 5 45 24 75 42 48 29 98 57 325 188 24 14 309 178
634 365 l592 340 -6 235 c-3 129 -7 264 -9 300 -4 59 -7 98 -22 285 -13 178
-17 196 -32 194 -4 0 -29 -14 -57 -31z"/>
<path d="M5546 10782 c-12 -3 -15 -9 -10 -25 15 -47 238 -504 311 -637 16 -30
49 -91 73 -135 24 -44 49 -87 56 -95 11 -13 201 -15 1621 -14 884 0 1612 -2
1617 -4 4 -3 -413 -426 -928 -941 l-937 -937 118 -124 c124 -130 366 -370 468
-465 l60 -55 936 936 c515 515 938 932 941 928 2 -5 4 -733 4 -1617 -1 -1419
1 -1610 14 -1621 8 -7 51 -32 95 -56 44 -24 104 -56 133 -72 83 -46 478 -241
570 -282 46 -21 86 -35 89 -32 4 3 6 1096 6 2428 -1 1789 -4 2436 -12 2473
-17 71 -68 161 -123 216 -61 61 -170 116 -248 125 -58 6 -4820 12 -4854 6z"/>
<path d="M16651 9069 c-107 -14 -220 -75 -285 -153 -28 -34 -206 -329 -206
-341 0 -2 -17 -32 -38 -66 -22 -35 -50 -84 -64 -109 -14 -25 -126 -218 -248
-430 -123 -212 -233 -403 -245 -425 -13 -22 -59 -102 -104 -179 -44 -76 -81
-140 -81 -141 0 -2 -30 -54 -67 -117 -72 -122 -340 -585 -380 -658 -14 -25
-47 -81 -73 -125 -26 -44 -117 -201 -203 -350 -85 -148 -164 -286 -175 -305
-28 -48 -95 -163 -133 -230 -17 -30 -48 -84 -69 -120 -21 -36 -47 -81 -58
-100 -22 -39 -215 -374 -268 -464 -19 -32 -31 -63 -27 -67 10 -10 57 -15 313
-34 137 -10 211 -14 460 -20 l235 -7 23 44 c12 23 30 57 40 73 28 48 178 307
200 345 11 19 86 150 167 290 81 140 156 271 167 290 11 19 39 67 61 105 23
39 51 86 62 106 11 19 43 74 70 122 28 48 57 100 65 115 9 15 41 70 72 122 30
52 66 113 78 135 12 22 44 77 71 123 27 45 49 85 49 88 0 3 16 30 35 60 19 30
35 57 35 59 0 3 11 22 23 43 13 20 95 161 182 312 86 151 172 298 189 327 l32
51 49 -181 c70 -265 146 -550 194 -727 23 -85 57 -211 75 -280 19 -69 45 -169
60 -222 14 -54 38 -142 52 -195 14 -54 54 -204 89 -333 34 -129 66 -248 71
-265 11 -42 11 -45 14 -47 1 -2 3 -10 5 -18 8 -41 67 -258 75 -277 8 -19 13
-20 42 -13 18 5 125 32 238 59 185 45 589 157 598 165 3 4 -37 160 -85 331
-14 50 -27 99 -29 109 -2 10 -8 33 -13 50 -9 27 -67 247 -76 286 -2 8 -26 98
-54 200 -27 102 -108 406 -181 675 -72 270 -135 504 -141 521 -5 17 -11 40
-13 50 -4 19 -24 96 -66 248 -11 43 -20 82 -18 87 2 4 109 -53 238 -128 129
-74 260 -149 290 -166 30 -16 60 -33 65 -37 9 -7 139 -83 243 -142 65 -36 99
-57 222 -128 68 -40 140 -82 160 -93 83 -47 157 -90 190 -109 19 -11 240 -138
490 -283 250 -144 516 -297 590 -340 74 -43 144 -83 155 -89 11 -6 31 -18 45
-27 14 -9 46 -28 71 -42 l46 -26 164 100 c288 178 679 443 679 461 0 5 -8 12
-17 15 -10 4 -52 27 -93 51 -41 25 -95 56 -120 70 -25 14 -139 80 -255 147
-115 67 -230 133 -255 147 -25 14 -155 89 -290 168 -135 78 -270 156 -300 172
-30 17 -67 39 -82 49 -14 11 -28 19 -31 19 -5 0 -127 69 -177 100 -20 12 -342
198 -403 233 -54 30 -211 122 -267 156 -19 12 -48 28 -65 36 -16 9 -46 25 -65
36 -42 26 -518 301 -650 377 -123 70 -131 75 -285 164 -71 42 -146 85 -165 96
-97 55 -618 355 -635 366 -69 43 -190 66 -284 55z"/>
</g>
</svg>
