<svg xmlns="http://www.w3.org/2000/svg" xmlns:xlink="http://www.w3.org/1999/xlink" width="32" height="32" viewBox="0 0 32 32">
  <defs>
    <path id="blog-a" d="M28.0947571,4.78104858 C29.1361552,5.82244669 29.1361552,7.51088664 28.0947571,8.55228475 L17.6094757,19.0375661 L13.8382395,15.26633 L24.3235209,4.78104858 C25.364919,3.73965047 27.053359,3.73965047 28.0947571,4.78104858 Z M10.1813853,18.9231842 L12.0670034,17.0375661 L15.8382395,20.8088023 L13.9526215,22.6944204 L9.23857625,23.6372294 L10.1813853,18.9231842 Z M26.6666667,18.209139 L26.6666667,26.209139 C26.6666667,27.6818983 25.4727593,28.8758057 24,28.8758057 L6.66666667,28.8758057 C5.19390733,28.8758057 4,27.6818983 4,26.209139 L4,7.54247233 C4,6.069713 5.19390733,4.87580567 6.66666667,4.87580567 L15.9449185,4.87580567 L15.9449185,7.54247233 L6.66666667,7.54247233 L6.66666667,26.209139 L24,26.209139 L24,18.209139 L26.6666667,18.209139 Z"/>
  </defs>
  <g fill="none" fill-rule="evenodd">
    <mask id="blog-b" fill="#fff">
      <use xlink:href="#blog-a"/>
    </mask>
    <use fill="#282850" xlink:href="#blog-a"/>
    <g fill="#00C8FF" fill-rule="nonzero" mask="url(#blog-b)">
      <rect width="32" height="32"/>
    </g>
  </g>
</svg>
