<svg xmlns="http://www.w3.org/2000/svg" xmlns:xlink="http://www.w3.org/1999/xlink" width="32" height="32" viewBox="0 0 32 32">
  <defs>
    <path id="careers-a" d="M12.5,16 C9.92166667,16 7.83333333,13.9116667 7.83333333,11.3333333 C7.83333333,8.755 9.92166667,6.66666667 12.5,6.66666667 C15.0783333,6.66666667 17.1666667,8.755 17.1666667,11.3333333 C17.1666667,13.9116667 15.0783333,16 12.5,16 Z M23,16 C21.06625,16 19.5,14.43375 19.5,12.5 C19.5,10.56625 21.06625,9 23,9 C24.93375,9 26.5,10.56625 26.5,12.5 C26.5,14.43375 24.93375,16 23,16 Z M12.5,17.1666667 C15.615,17.1666667 21.8333333,18.73 21.8333333,21.8333333 L21.8333333,23.3333333 C21.8333333,24.4379028 20.9379028,25.3333333 19.8333333,25.3333333 L5.16666667,25.3333333 C4.06209717,25.3333333 3.16666667,24.4379028 3.16666667,23.3333333 L3.16666667,21.8333333 C3.16666667,18.73 9.385,17.1666667 12.5,17.1666667 Z M21.8333333,18.3333333 C24.9483333,18.3333333 27.6666667,18.73 27.6666667,21.8333333 L27.6666667,23.3333333 C27.6666667,24.4379028 26.7712362,25.3333333 25.6666667,25.3333333 L24.1666667,25.3333333 L24.1666667,21.8333333 C24.1666667,19.5 21.8333333,18.3333333 21.8333333,18.3333333 Z"/>
  </defs>
  <g fill="none" fill-rule="evenodd">
    <mask id="careers-b" fill="#fff">
      <use xlink:href="#careers-a"/>
    </mask>
    <use fill="#282850" xlink:href="#careers-a"/>
    <g fill="#00C8FF" fill-rule="nonzero" mask="url(#careers-b)">
      <rect width="32" height="32"/>
    </g>
  </g>
</svg>
