<svg xmlns="http://www.w3.org/2000/svg" xmlns:xlink="http://www.w3.org/1999/xlink" width="32" height="32" viewBox="0 0 32 32">
  <defs>
    <path id="events-a" d="M8,13.3333333 L8,25.3333333 L24,25.3333333 L24,13.3333333 L8,13.3333333 Z M22.6666667,6.66666667 L24,6.66666667 C25.4727593,6.66666667 26.6666667,7.860574 26.6666667,9.33333333 L26.6666667,25.3333333 C26.6666667,26.8060927 25.4727593,28 24,28 L8,28 C6.52724067,28 5.33333333,26.8060927 5.33333333,25.3333333 L5.33333333,9.33333333 C5.33333333,7.860574 6.52724067,6.66666667 8,6.66666667 L9.33333333,6.66666667 L9.33333333,4 L12,4 L12,6.66666667 L20,6.66666667 L20,4 L22.6666667,4 L22.6666667,6.66666667 Z M12,20 C11.2636203,20 10.6666667,19.4030463 10.6666667,18.6666667 C10.6666667,17.930287 11.2636203,17.3333333 12,17.3333333 C12.7363797,17.3333333 13.3333333,17.930287 13.3333333,18.6666667 C13.3333333,19.4030463 12.7363797,20 12,20 Z M16,20 C15.2636203,20 14.6666667,19.4030463 14.6666667,18.6666667 C14.6666667,17.930287 15.2636203,17.3333333 16,17.3333333 C16.7363797,17.3333333 17.3333333,17.930287 17.3333333,18.6666667 C17.3333333,19.4030463 16.7363797,20 16,20 Z M20,20 C19.2636203,20 18.6666667,19.4030463 18.6666667,18.6666667 C18.6666667,17.930287 19.2636203,17.3333333 20,17.3333333 C20.7363797,17.3333333 21.3333333,17.930287 21.3333333,18.6666667 C21.3333333,19.4030463 20.7363797,20 20,20 Z"/>
  </defs>
  <g fill="none" fill-rule="evenodd">
    <mask id="events-b" fill="#fff">
      <use xlink:href="#events-a"/>
    </mask>
    <use fill="#282850" fill-rule="nonzero" xlink:href="#events-a"/>
    <g fill="#00C8FF" fill-rule="nonzero" mask="url(#events-b)">
      <rect width="32" height="32"/>
    </g>
  </g>
</svg>
