<svg xmlns="http://www.w3.org/2000/svg" xmlns:xlink="http://www.w3.org/1999/xlink" width="32" height="32" viewBox="0 0 32 32">
  <defs>
    <path id="news-a" d="M13,20.8461538 L13,25.6666667 L11,25.6666667 C9.8954305,25.6666667 9,24.7712362 9,23.6666667 L9,19.9230769 L6.55028099,19.3577572 C5.64281881,19.1483428 5,18.3402867 5,17.4089748 L5,12.5910252 C5,11.6597133 5.64281881,10.8516572 6.55028099,10.6422428 L22.3333333,7 L22.3333333,23 L13,20.8461538 Z M23.6666667,12.3333333 L25.6666667,12.3333333 C26.7712362,12.3333333 27.6666667,13.2287638 27.6666667,14.3333333 L27.6666667,15.6666667 C27.6666667,16.7712362 26.7712362,17.6666667 25.6666667,17.6666667 L23.6666667,17.6666667 L23.6666667,12.3333333 Z"/>
  </defs>
  <g fill="none" fill-rule="evenodd">
    <mask id="news-b" fill="#fff">
      <use xlink:href="#news-a"/>
    </mask>
    <use fill="#282850" xlink:href="#news-a"/>
    <g fill="#00C8FF" fill-rule="nonzero" mask="url(#news-b)">
      <rect width="32" height="32"/>
    </g>
  </g>
</svg>
