<svg xmlns="http://www.w3.org/2000/svg" xmlns:xlink="http://www.w3.org/1999/xlink" width="32" height="32" viewBox="0 0 32 32">
  <defs>
    <path id="product-a" d="M6.2524531,15.942809 L3.19526215,12.8856181 L5.08088023,11 L8.88561808,14.8047379 L12.3022951,14.8047379 C12.666148,13.576524 13.603839,12.5948735 14.8047379,12.1704167 L14.8047379,8.49509379 L11.1952621,4.88561808 L13.0808802,3 L16.1380712,6.05719096 L19.1952621,3 L21.0808802,4.88561808 L17.4714045,8.49509379 L17.4714045,12.1704167 C18.6723034,12.5948735 19.6099944,13.576524 19.9738473,14.8047379 L23.3905243,14.8047379 L27.1952621,11 L29.0808802,12.8856181 L25.8284271,16.1380712 L28.8856181,19.1952621 L27,21.0808802 L23.3905243,17.4714045 L19.8356079,17.4714045 C19.403502,18.5154717 18.5420588,19.3367795 17.4714045,19.7152014 L17.4714045,23.3905243 L21.0808802,27 L19.1952621,28.8856181 L16.1380712,25.8284271 L13.0808802,28.8856181 L11.1952621,27 L14.8047379,23.3905243 L14.8047379,19.7152014 C13.7340836,19.3367795 12.8726404,18.5154717 12.4405345,17.4714045 L8.49509379,17.4714045 L4.88561808,21.0808802 L3,19.1952621 L6.2524531,15.942809 Z M9.47140452,11.942809 C7.99864519,11.942809 6.80473785,10.7489017 6.80473785,9.27614237 C6.80473785,7.80338304 7.99864519,6.60947571 9.47140452,6.60947571 C10.9441639,6.60947571 12.1380712,7.80338304 12.1380712,9.27614237 C12.1380712,10.7489017 10.9441639,11.942809 9.47140452,11.942809 Z M22.8047379,25.2761424 C21.3319785,25.2761424 20.1380712,24.082235 20.1380712,22.6094757 C20.1380712,21.1367164 21.3319785,19.942809 22.8047379,19.942809 C24.2774972,19.942809 25.4714045,21.1367164 25.4714045,22.6094757 C25.4714045,24.082235 24.2774972,25.2761424 22.8047379,25.2761424 Z M22.8047379,11.942809 C21.3319785,11.942809 20.1380712,10.7489017 20.1380712,9.27614237 C20.1380712,7.80338304 21.3319785,6.60947571 22.8047379,6.60947571 C24.2774972,6.60947571 25.4714045,7.80338304 25.4714045,9.27614237 C25.4714045,10.7489017 24.2774972,11.942809 22.8047379,11.942809 Z M9.47140452,25.2761424 C7.99864519,25.2761424 6.80473785,24.082235 6.80473785,22.6094757 C6.80473785,21.1367164 7.99864519,19.942809 9.47140452,19.942809 C10.9441639,19.942809 12.1380712,21.1367164 12.1380712,22.6094757 C12.1380712,24.082235 10.9441639,25.2761424 9.47140452,25.2761424 Z"/>
  </defs>
  <g fill="none" fill-rule="evenodd">
    <mask id="product-b" fill="#fff">
      <use xlink:href="#product-a"/>
    </mask>
    <use fill="#282850" fill-rule="nonzero" xlink:href="#product-a"/>
    <g fill="#00C8FF" fill-rule="nonzero" mask="url(#product-b)">
      <rect width="32" height="32"/>
    </g>
  </g>
</svg>
