<svg xmlns="http://www.w3.org/2000/svg" xmlns:xlink="http://www.w3.org/1999/xlink" width="32" height="32" viewBox="0 0 32 32">
  <defs>
    <path id="social_facebook_filled-a" d="M16,29 C8.82029825,29 3,23.1797017 3,16 C3,8.82029825 8.82029825,3 16,3 C23.1797017,3 29,8.82029825 29,16 C29,23.1797017 23.1797017,29 16,29 Z M17.3223261,22.5909091 L17.3218858,22.5909091 L17.3218858,15.7945968 L19.2450721,15.7945968 L19.5,13.4528155 L17.3218858,13.4528155 L17.3258484,12.2806382 C17.3258484,11.6698879 17.3852875,11.342639 18.2847998,11.342639 L19.4867913,11.342639 L19.4867913,9 L17.563605,9 C15.2529635,9 14.4401883,10.1365788 14.4401883,12.046889 L14.4401883,13.4528155 L13,13.4528155 L13,15.7945968 L14.4401883,15.7945968 L14.4401883,22.5909091 L17.3223261,22.5909091 Z"/>
  </defs>
  <g fill="none" fill-rule="evenodd">
    <mask id="social_facebook_filled-b" fill="#fff">
      <use xlink:href="#social_facebook_filled-a"/>
    </mask>
    <use fill="#282850" xlink:href="#social_facebook_filled-a"/>
    <g fill="#00C8FF" fill-rule="nonzero" mask="url(#social_facebook_filled-b)">
      <rect width="32" height="32"/>
    </g>
  </g>
</svg>
