<svg xmlns="http://www.w3.org/2000/svg" xmlns:xlink="http://www.w3.org/1999/xlink" width="32" height="32" viewBox="0 0 32 32">
  <defs>
    <path id="social_linkedin_filled-a" d="M16,29 C8.82029825,29 3,23.1797017 3,16 C3,8.82029825 8.82029825,3 16,3 C23.1797017,3 29,8.82029825 29,16 C29,23.1797017 23.1797017,29 16,29 Z M10.298095,13.7895668 L10.298095,21.8174251 L12.6015565,21.8174251 L12.6015565,13.7895668 L10.298095,13.7895668 Z M11.3911101,12.7854224 C12.2569058,12.7854224 12.7961173,12.1694665 12.7961173,11.3923329 C12.7794407,10.6000652 12.2569058,10 11.4070918,10 C10.556583,10 10,10.6015786 10,11.394603 C10,12.1717366 10.5406012,12.7854224 11.3744334,12.7854224 L11.3911101,12.7854224 Z M21.8181818,21.8181818 L21.8181818,17.3536362 C21.8181818,14.8678681 20.5319956,13.7123831 18.8949051,13.7123831 C17.5753656,13.7123831 16.748482,14.4985972 16.5956128,15.0494767 L16.5956128,13.7895668 L14.0079535,13.7895668 C14.0413068,14.4584919 14.0079535,21.8181818 14.0079535,21.8181818 L16.5956128,21.8181818 L16.5956128,17.473952 C16.5956128,17.2318071 16.5851899,16.990419 16.6518964,16.8178908 C16.8297806,16.3343578 17.2119537,15.8341773 17.8991704,15.8341773 C18.7976246,15.8341773 19.2062024,16.5757459 19.2062024,17.6631276 L19.2062024,21.8181818 L21.8181818,21.8181818 Z"/>
  </defs>
  <g fill="none" fill-rule="evenodd">
    <mask id="social_linkedin_filled-b" fill="#fff">
      <use xlink:href="#social_linkedin_filled-a"/>
    </mask>
    <use fill="#282850" xlink:href="#social_linkedin_filled-a"/>
    <g fill="#00C8FF" fill-rule="nonzero" mask="url(#social_linkedin_filled-b)">
      <rect width="32" height="32"/>
    </g>
  </g>
</svg>
