<svg xmlns="http://www.w3.org/2000/svg" xmlns:xlink="http://www.w3.org/1999/xlink" width="32" height="32" viewBox="0 0 32 32">
  <defs>
    <path id="social_twitter_filled-a" d="M16,29 C8.82029825,29 3,23.1797017 3,16 C3,8.82029825 8.82029825,3 16,3 C23.1797017,3 29,8.82029825 29,16 C29,23.1797017 23.1797017,29 16,29 Z M20.9472698,12.6815687 C21.4731467,12.3497105 21.8766588,11.8235001 22.0660328,11.1966567 C21.5736605,11.5047011 21.0295747,11.7274763 20.4490707,11.8480822 C19.985833,11.3257127 19.3237526,11 18.5910211,11 C17.1852839,11 16.0461269,12.2022179 16.0461269,13.6848253 C16.0461269,13.8953094 16.0672494,14.1004163 16.110951,14.2963048 C13.9957899,14.184149 12.1202596,13.1163644 10.8638365,11.4908736 C10.6445997,11.8887962 10.5193216,12.3497105 10.5193216,12.8413523 C10.5193216,13.772399 10.9687205,14.5943627 11.6519234,15.0767862 C11.2345723,15.0629588 10.8419856,14.9408165 10.4981991,14.741087 L10.4981991,14.7741192 C10.4981991,16.0754337 11.3751461,17.1608866 12.5412525,17.4067075 C12.3271142,17.4696992 12.102779,17.501195 11.8697034,17.501195 C11.7058221,17.501195 11.5455826,17.485063 11.39117,17.4535672 C11.7145624,18.5198154 12.6548768,19.297224 13.7692696,19.3179651 C12.8974211,20.0385277 11.7997807,20.4671779 10.6074533,20.4671779 C10.4020554,20.4671779 10.1988426,20.4556551 10,20.4303048 C11.1267749,21.1915814 12.4647745,21.6363636 13.9025597,21.6363636 C18.5859226,21.6363636 21.1453841,17.5449818 21.1453841,13.9967106 C21.1453841,13.8799456 21.1439274,13.7639489 21.1388289,13.6494885 C21.6362996,13.2707707 22.0689462,12.7975654 22.4090909,12.259064 C21.9524084,12.4726209 21.4614929,12.6170407 20.9472698,12.6815687 Z"/>
  </defs>
  <g fill="none" fill-rule="evenodd">
    <mask id="social_twitter_filled-b" fill="#fff">
      <use xlink:href="#social_twitter_filled-a"/>
    </mask>
    <use fill="#282850" xlink:href="#social_twitter_filled-a"/>
    <g fill="#00C8FF" fill-rule="nonzero" mask="url(#social_twitter_filled-b)">
      <rect width="32" height="32"/>
    </g>
  </g>
</svg>
