<svg xmlns="http://www.w3.org/2000/svg" xmlns:xlink="http://www.w3.org/1999/xlink" width="32" height="32" viewBox="0 0 32 32">
  <defs>
    <path id="team-a" d="M16,29 C8.82029825,29 3,23.1797017 3,16 C3,8.82029825 8.82029825,3 16,3 C23.1797017,3 29,8.82029825 29,16 C29,23.1797017 23.1797017,29 16,29 Z M21.5,15 C22.3284271,15 23,14.3284271 23,13.5 C23,12.6715729 22.3284271,12 21.5,12 C20.6715729,12 20,12.6715729 20,13.5 C20,14.3284271 20.6715729,15 21.5,15 Z M10.5,15 C11.3284271,15 12,14.3284271 12,13.5 C12,12.6715729 11.3284271,12 10.5,12 C9.67157288,12 9,12.6715729 9,13.5 C9,14.3284271 9.67157288,15 10.5,15 Z M10,20.2762608 C13.9534392,23.9079131 18.0465608,23.9079131 22,20.2762608 L20.9792564,19 C17.6131913,22.0920869 14.3868087,22.0920869 11.0207436,19 L10,20.2762608 Z"/>
  </defs>
  <g fill="none" fill-rule="evenodd">
    <mask id="team-b" fill="#fff">
      <use xlink:href="#team-a"/>
    </mask>
    <use fill="#282850" fill-rule="nonzero" xlink:href="#team-a"/>
    <g fill="#00C8FF" fill-rule="nonzero" mask="url(#team-b)">
      <rect width="32" height="32"/>
    </g>
  </g>
</svg>
