<svg xmlns="http://www.w3.org/2000/svg" viewBox="0 0 258.24 67.84"><defs><style>.cls-1{fill:#00c8ff;}.cls-2{fill:none;}</style></defs><title>logo_text2_blue</title><g id="Layer_2" data-name="Layer 2"><g id="Layer_1-2" data-name="Layer 1"><path d="M91,42.76l-1.35-5H83.5l-1.35,5h-3.3l5.62-19.21h4.34l5.62,19.21Zm-3.66-13-.6-3.06h-.39l-.6,3.06L84.33,35h4.54Z"/><path d="M96.79,42.76V28.39h3.33v2.95h.39a3.88,3.88,0,0,1,1-2.19,2.85,2.85,0,0,1,2-.76h.71v3.42h-1.1a4.31,4.31,0,0,0-2.32.49,1.91,1.91,0,0,0-.76,1.74v8.72Z"/><path d="M111.68,43.09a5.49,5.49,0,0,1-4.45-1.82q-1.52-1.82-1.52-5.69t1.52-5.7a5.49,5.49,0,0,1,4.45-1.82,5.42,5.42,0,0,1,3.37,1,5.35,5.35,0,0,1,1.8,2.64l-2.72,1.21a3,3,0,0,0-.79-1.58,2.3,2.3,0,0,0-1.66-.54c-1.65,0-2.48,1-2.48,3v3.69c0,2,.83,3,2.48,3a2.51,2.51,0,0,0,1.76-.55,3.42,3.42,0,0,0,.91-1.71l2.58,1.24A5.06,5.06,0,0,1,111.68,43.09Z"/><path d="M123.32,42.76a3.47,3.47,0,0,1-2.51-.77,3.38,3.38,0,0,1-.77-2.45V31.06h-1.89V28.39h1a1.18,1.18,0,0,0,1-.33,1.62,1.62,0,0,0,.26-1V24.49h3v3.9H126v2.67h-2.59v9h2.37v2.67Z"/><path d="M130.2,26.14a2.09,2.09,0,0,1-1.52-.46,1.62,1.62,0,0,1-.46-1.22v-.55a1.62,1.62,0,0,1,.46-1.22,2.72,2.72,0,0,1,3,0,1.63,1.63,0,0,1,.47,1.22v.55a1.63,1.63,0,0,1-.47,1.22A2.08,2.08,0,0,1,130.2,26.14Zm-1.65,2.25h3.33V42.76h-3.33Z"/><path d="M140.57,43.09a5.47,5.47,0,0,1-4.44-1.82q-1.53-1.82-1.53-5.69t1.53-5.7a5.47,5.47,0,0,1,4.44-1.82,5.4,5.4,0,0,1,3.37,1,5.29,5.29,0,0,1,1.8,2.64L143,32.88a3,3,0,0,0-.79-1.58,2.3,2.3,0,0,0-1.66-.54c-1.65,0-2.48,1-2.48,3v3.69c0,2,.83,3,2.48,3a2.51,2.51,0,0,0,1.76-.55,3.42,3.42,0,0,0,.91-1.71l2.59,1.24A5.08,5.08,0,0,1,140.57,43.09Z"/><path d="M159.67,43.09a8.56,8.56,0,0,1-3.79-.79A7.71,7.71,0,0,1,153.06,40l2.26-2.18a5.67,5.67,0,0,0,1.92,1.72,5.11,5.11,0,0,0,2.48.6c2.05,0,3.08-.94,3.08-2.81a2.51,2.51,0,0,0-.55-1.76,3.38,3.38,0,0,0-1.81-.88l-1.68-.33a7.21,7.21,0,0,1-3.86-1.87,5.21,5.21,0,0,1-1.23-3.69,5.2,5.2,0,0,1,1.63-4.16,7,7,0,0,1,4.67-1.4,8.42,8.42,0,0,1,3.53.68A6.47,6.47,0,0,1,166,26l-2.26,2.12a4.91,4.91,0,0,0-1.62-1.45,4.71,4.71,0,0,0-2.23-.48,3.3,3.3,0,0,0-2.14.58,2.32,2.32,0,0,0-.69,1.87,2.35,2.35,0,0,0,.53,1.65,3.38,3.38,0,0,0,1.75.86l1.68.35a12,12,0,0,1,2.38.75,5,5,0,0,1,1.6,1.1,4.08,4.08,0,0,1,.9,1.55,6.68,6.68,0,0,1,.29,2.11,5.81,5.81,0,0,1-1.69,4.52A6.91,6.91,0,0,1,159.67,43.09Z"/><path d="M174.52,43.09a6.91,6.91,0,0,1-2.57-.46,5.12,5.12,0,0,1-2-1.37,6.42,6.42,0,0,1-1.28-2.34,10.78,10.78,0,0,1-.46-3.34q0-3.88,1.56-5.7a6.33,6.33,0,0,1,8.88,0q1.56,1.82,1.56,5.7v.79h-8.5v.94a3.13,3.13,0,0,0,.79,2.26,2.94,2.94,0,0,0,2.21.82,3.68,3.68,0,0,0,2-.51,4.38,4.38,0,0,0,1.39-1.47l1.82,1.9a6,6,0,0,1-2.15,2A6.48,6.48,0,0,1,174.52,43.09Zm-.3-12.47c-1.67,0-2.5,1-2.5,3v.72h5v-.72C176.72,31.61,175.89,30.62,174.22,30.62Z"/><path d="M188.09,43.09a5.49,5.49,0,0,1-4.45-1.82q-1.51-1.82-1.52-5.69t1.52-5.7a5.49,5.49,0,0,1,4.45-1.82,5.42,5.42,0,0,1,3.37,1,5.35,5.35,0,0,1,1.8,2.64l-2.72,1.21a3,3,0,0,0-.79-1.58,2.3,2.3,0,0,0-1.66-.54c-1.65,0-2.48,1-2.48,3v3.69c0,2,.83,3,2.48,3a2.51,2.51,0,0,0,1.76-.55,3.42,3.42,0,0,0,.91-1.71l2.58,1.24A5.06,5.06,0,0,1,188.09,43.09Z"/><path d="M203.47,40.36h-.39a3.4,3.4,0,0,1-3.49,2.73,3.55,3.55,0,0,1-3-1.31,5.92,5.92,0,0,1-1-3.75V28.39h3.33V37.5c0,1.89.7,2.84,2.09,2.84a2.59,2.59,0,0,0,1.73-.61,2.08,2.08,0,0,0,.72-1.68V28.39h3.33V42.76h-3.33Z"/><path d="M210.43,42.76V28.39h3.33v2.95h.38a3.89,3.89,0,0,1,1-2.19,2.83,2.83,0,0,1,2-.76h.71v3.42h-1.1a4.31,4.31,0,0,0-2.32.49,1.91,1.91,0,0,0-.76,1.74v8.72Z"/><path d="M221.9,26.14a2.08,2.08,0,0,1-1.51-.46,1.63,1.63,0,0,1-.47-1.22v-.55a1.63,1.63,0,0,1,.47-1.22,2.72,2.72,0,0,1,3,0,1.63,1.63,0,0,1,.47,1.22v.55a1.63,1.63,0,0,1-.47,1.22A2.09,2.09,0,0,1,221.9,26.14Zm-1.65,2.25h3.33V42.76h-3.33Z"/><path d="M231.15,42.76a3.43,3.43,0,0,1-2.5-.77,3.34,3.34,0,0,1-.78-2.45V31.06H226V28.39h1a1.18,1.18,0,0,0,1-.33,1.62,1.62,0,0,0,.26-1V24.49h3v3.9h2.59v2.67H231.2v9h2.37v2.67Z"/><path d="M244.44,28.39h3.33l-5.48,17.37a3.43,3.43,0,0,1-1.32,2,4.56,4.56,0,0,1-2.39.52h-2.26V45.59h2.84l.57-2L235,28.39h3.38l2.15,7.76.77,3.77h.33l.77-3.79Z"/><path class="cls-1" d="M24.38,44.48a1,1,0,0,0-1-1H12.5v0c.31.69.66,1.37,1,2h7.35l-4.25,4.26c.46.5.94,1,1.45,1.45L22.33,47V54.3a21.47,21.47,0,0,0,2,1h0Z"/><path class="cls-1" d="M43.46,23.35a1,1,0,0,0,1,1H55.33v0a21.47,21.47,0,0,0-1-2H47l4.26-4.25c-.46-.51-1-1-1.45-1.45L45.5,20.88V13.53c-.65-.37-1.33-.72-2-1h0Z"/><path class="cls-1" d="M38.3,47.46a1,1,0,0,0-.78-.1,1,1,0,0,0-.62.47l-5.43,9.4,0,0c.74.07,1.5.11,2.26.12L37.43,51,39,56.81c.67-.15,1.33-.32,2-.52l-1.56-5.82,6.37,3.68c.66-.39,1.29-.81,1.9-1.25h0Z"/><path class="cls-1" d="M29.54,20.38a1,1,0,0,0,.51.13,1,1,0,0,0,.89-.51l5.42-9.4h0a21.25,21.25,0,0,0-2.26-.12L30.4,16.84,28.84,11c-.67.15-1.33.32-2,.53l1.56,5.81-6.36-3.67a20.22,20.22,0,0,0-1.91,1.25h0Z"/><path class="cls-1" d="M51,37.43l6.37-3.67c0-.76,0-1.52-.12-2.26l0,0-9.4,5.43a1,1,0,0,0-.37,1.4l5.42,9.39h0c.44-.61.86-1.24,1.25-1.9l-3.68-6.37L56.29,41c.2-.65.37-1.31.52-2Z"/><path class="cls-1" d="M20,30.94a1,1,0,0,0,.38-1.4L15,20.14h0a20.22,20.22,0,0,0-1.25,1.91l3.68,6.36-5.82-1.56c-.21.65-.38,1.31-.53,2l5.81,1.56-6.36,3.68a21.25,21.25,0,0,0,.12,2.26v0Z"/><path class="cls-1" d="M44.13,33.36a3.16,3.16,0,0,0-3.45,1.31l-1.53-.41A5.18,5.18,0,0,0,38.28,31l1.12-1.11A3.18,3.18,0,1,0,38,28.44l-1.12,1.11a5.26,5.26,0,0,0-3.25-.87l-.41-1.52a3.18,3.18,0,1,0-2,.53l.41,1.52a5.07,5.07,0,0,0-2.39,2.39l-1.52-.41a3.17,3.17,0,1,0-.53,2l1.52.41a5.26,5.26,0,0,0,.87,3.25L28.44,38a3.17,3.17,0,1,0,1.45,1.45L31,38.28a5.18,5.18,0,0,0,3.26.87l.41,1.53a3.16,3.16,0,0,0-1.31,3.45,3.18,3.18,0,1,0,6.14-1.65,3.15,3.15,0,0,0-2.85-2.33l-.41-1.53a5.15,5.15,0,0,0,2.38-2.38l1.53.41a3.15,3.15,0,0,0,2.33,2.85,3.18,3.18,0,1,0,1.65-6.14Z"/><rect class="cls-2" width="258.24" height="67.84"/></g></g></svg>