<svg xmlns="http://www.w3.org/2000/svg" viewBox="0 0 67.84 67.84"><defs><style>.cls-1{fill:#00c8ff;}.cls-2{fill:none;}</style></defs><title>logo_blue</title><g id="Layer_2" data-name="Layer 2"><g id="Layer_1-2" data-name="Layer 1"><path class="cls-1" d="M43.46,23.36a1,1,0,0,0,1,1H55.33v0a21.47,21.47,0,0,0-1-2H47l4.26-4.25c-.46-.51-1-1-1.45-1.45L45.5,20.88V13.53c-.65-.37-1.33-.72-2-1h0Z"/><path class="cls-1" d="M24.38,44.48a1,1,0,0,0-1-1H12.5v0c.31.69.66,1.37,1,2h7.35l-4.25,4.26c.46.5.94,1,1.45,1.45L22.33,47V54.3a21.47,21.47,0,0,0,2,1h0Z"/><path class="cls-1" d="M29.54,20.38a1.05,1.05,0,0,0,.78.1,1,1,0,0,0,.62-.48l5.42-9.4h0a21.25,21.25,0,0,0-2.26-.12L30.4,16.83,28.84,11c-.67.15-1.33.32-2,.53l1.56,5.81-6.36-3.67a20.22,20.22,0,0,0-1.91,1.25h0Z"/><path class="cls-1" d="M38.3,47.46a1.1,1.1,0,0,0-.52-.14,1,1,0,0,0-.88.51l-5.43,9.4,0,0c.74.07,1.5.11,2.26.12L37.43,51,39,56.81c.67-.15,1.33-.32,2-.52l-1.56-5.82,6.37,3.68c.66-.39,1.29-.81,1.91-1.25v0Z"/><path class="cls-1" d="M16.83,30.4l-6.36,3.67a21.29,21.29,0,0,0,.12,2.27v0L20,30.94a1,1,0,0,0,.38-1.4L15,20.14h0a20.22,20.22,0,0,0-1.25,1.91l3.68,6.36-5.82-1.56c-.21.65-.38,1.31-.53,2Z"/><path class="cls-1" d="M47.83,36.9a1,1,0,0,0-.37,1.4l5.42,9.39h0c.44-.61.86-1.24,1.25-1.9l-3.68-6.37L56.29,41c.2-.65.37-1.31.52-2L51,37.43l6.37-3.67c0-.76,0-1.52-.12-2.26l0,0Z"/><path class="cls-1" d="M23.71,34.47a3.18,3.18,0,0,0,3.45-1.3l1.52.41a5.26,5.26,0,0,0,.87,3.25L28.44,38a3.17,3.17,0,1,0,1.45,1.45L31,38.28a5.18,5.18,0,0,0,3.26.87l.41,1.53a3.16,3.16,0,0,0-1.31,3.45,3.18,3.18,0,1,0,6.14-1.65,3.15,3.15,0,0,0-2.85-2.33l-.41-1.53a5.15,5.15,0,0,0,2.38-2.38l1.53.41a3.15,3.15,0,0,0,2.33,2.85,3.18,3.18,0,1,0-1.8-4.83l-1.53-.41A5.18,5.18,0,0,0,38.28,31l1.12-1.11A3.18,3.18,0,1,0,38,28.44l-1.12,1.11a5.26,5.26,0,0,0-3.25-.87l-.41-1.52a3.18,3.18,0,1,0-2,.53l.41,1.52a5.07,5.07,0,0,0-2.39,2.39l-1.52-.41a3.17,3.17,0,1,0-4,3.28Z"/><rect class="cls-2" width="67.84" height="67.84"/></g></g></svg>