<?xml version="1.0" encoding="UTF-8"?>
<svg width="230px" height="120px" viewBox="0 0 230 120" version="1.1" xmlns="http://www.w3.org/2000/svg" xmlns:xlink="http://www.w3.org/1999/xlink">
    <!-- Generator: Sketch 52.2 (67145) - http://www.bohemiancoding.com/sketch -->
    <title>1</title>
    <desc>Created with Sketch.</desc>
    <g id="Desktop" stroke="none" stroke-width="1" fill="none" fill-rule="evenodd">
        <g id="Frontpage" transform="translate(-127.000000, -1044.000000)">
            <rect fill="#FFFFFF" x="0" y="0" width="1440" height="5954"></rect>
            <g id="connected1" transform="translate(127.000000, 1044.000000)">
                <g id="Group-105" transform="translate(1.000000, 1.000000)">
                    <path d="M159.0852,53.5049 L136.5992,53.5049 C133.5312,53.5049 131.0452,55.9909 131.0452,59.0589 L131.0452,111.7189 C131.0452,114.7869 133.5312,117.2729 136.5992,117.2729 L159.0852,117.2729 C162.1522,117.2729 164.6392,114.7869 164.6392,111.7189 L164.6392,59.0589 C164.6392,55.9909 162.1522,53.5049 159.0852,53.5049" id="Fill-1" fill="#FFCFCF"></path>
                    <path d="M159.0852,53.5049 L136.5992,53.5049 C133.5312,53.5049 131.0452,55.9909 131.0452,59.0589 L131.0452,111.7189 C131.0452,114.7869 133.5312,117.2729 136.5992,117.2729 L159.0852,117.2729 C162.1522,117.2729 164.6392,114.7869 164.6392,111.7189 L164.6392,59.0589 C164.6392,55.9909 162.1522,53.5049 159.0852,53.5049 Z" id="Stroke-3" stroke="#FF7D7D" stroke-width="1.5"></path>
                    <path d="M115.7903,30.7866 L69.8433,30.7866 C67.6073,30.7866 65.7963,32.5986 65.7963,34.8346 L65.7963,113.2246 C65.7963,115.4606 67.6073,117.2726 69.8433,117.2726 L115.7903,117.2726 C118.0253,117.2726 119.8383,115.4606 119.8383,113.2246 L119.8383,34.8346 C119.8383,32.5986 118.0253,30.7866 115.7903,30.7866" id="Fill-5" fill="#FFCFCF"></path>
                    <path d="M115.7903,30.7866 L69.8433,30.7866 C67.6073,30.7866 65.7963,32.5986 65.7963,34.8346 L65.7963,113.2246 C65.7963,115.4606 67.6073,117.2726 69.8433,117.2726 L115.7903,117.2726 C118.0253,117.2726 119.8383,115.4606 119.8383,113.2246 L119.8383,34.8346 C119.8383,32.5986 118.0253,30.7866 115.7903,30.7866 Z" id="Stroke-7" stroke="#FF7D7D" stroke-width="1.5"></path>
                    <path d="M110.4407,41.9072 L75.1927,41.9072 C73.7727,41.9072 72.6227,43.0572 72.6227,44.4772 L72.6227,50.9352 C72.6227,52.3542 73.7727,53.5052 75.1927,53.5052 L110.4407,53.5052 C111.8607,53.5052 113.0107,52.3542 113.0107,50.9352 L113.0107,44.4772 C113.0107,43.0572 111.8607,41.9072 110.4407,41.9072 Z" id="Stroke-9" stroke="#FF7D7D" stroke-width="1.5"></path>
                    <path d="M155.1711,53.5049 L140.5131,53.5049 L140.5131,55.0239 C140.5131,57.1299 142.2211,58.8379 144.3271,58.8379 L151.3571,58.8379 C153.4631,58.8379 155.1711,57.1299 155.1711,55.0239 L155.1711,53.5049 Z" id="Stroke-11" stroke="#FF7D7D" stroke-width="1.5"></path>
                    <path d="M191.3479,73.0679 C191.3479,72.6309 190.9939,72.2759 190.5559,72.2759 C190.1189,72.2759 189.7649,72.6309 189.7649,73.0679 C189.7649,73.5049 190.1189,73.8599 190.5559,73.8599 C190.9939,73.8599 191.3479,73.5049 191.3479,73.0679" id="Fill-13" fill="#FFCFCF"></path>
                    <path d="M191.3479,73.0679 C191.3479,72.6309 190.9939,72.2759 190.5559,72.2759 C190.1189,72.2759 189.7649,72.6309 189.7649,73.0679 C189.7649,73.5049 190.1189,73.8599 190.5559,73.8599 C190.9939,73.8599 191.3479,73.5049 191.3479,73.0679 Z" id="Stroke-15" stroke="#FF7D7D" stroke-width="1.5"></path>
                    <path d="M196.4055,71.4844 C196.4055,71.0474 196.0515,70.6924 195.6135,70.6924 C195.1765,70.6924 194.8215,71.0474 194.8215,71.4844 C194.8215,71.9214 195.1765,72.2764 195.6135,72.2764 C196.0515,72.2764 196.4055,71.9214 196.4055,71.4844" id="Fill-17" fill="#FFCFCF"></path>
                    <path d="M196.4055,71.4844 C196.4055,71.0474 196.0515,70.6924 195.6135,70.6924 C195.1765,70.6924 194.8215,71.0474 194.8215,71.4844 C194.8215,71.9214 195.1765,72.2764 195.6135,72.2764 C196.0515,72.2764 196.4055,71.9214 196.4055,71.4844 Z" id="Stroke-19" stroke="#FF7D7D" stroke-width="1.5"></path>
                    <path d="M206.5198,71.4844 C206.5198,71.0474 206.1658,70.6924 205.7288,70.6924 C205.2908,70.6924 204.9368,71.0474 204.9368,71.4844 C204.9368,71.9214 205.2908,72.2764 205.7288,72.2764 C206.1658,72.2764 206.5198,71.9214 206.5198,71.4844" id="Fill-21" fill="#FFCFCF"></path>
                    <path d="M206.5198,71.4844 C206.5198,71.0474 206.1658,70.6924 205.7288,70.6924 C205.2908,70.6924 204.9368,71.0474 204.9368,71.4844 C204.9368,71.9214 205.2908,72.2764 205.7288,72.2764 C206.1658,72.2764 206.5198,71.9214 206.5198,71.4844 Z" id="Stroke-23" stroke="#FF7D7D" stroke-width="1.5"></path>
                    <path d="M201.4631,73.0679 C201.4631,72.6309 201.1091,72.2759 200.6711,72.2759 C200.2341,72.2759 199.8791,72.6309 199.8791,73.0679 C199.8791,73.5049 200.2341,73.8599 200.6711,73.8599 C201.1091,73.8599 201.4631,73.5049 201.4631,73.0679" id="Fill-25" fill="#FFCFCF"></path>
                    <path d="M201.4631,73.0679 C201.4631,72.6309 201.1091,72.2759 200.6711,72.2759 C200.2341,72.2759 199.8791,72.6309 199.8791,73.0679 C199.8791,73.5049 200.2341,73.8599 200.6711,73.8599 C201.1091,73.8599 201.4631,73.5049 201.4631,73.0679 Z" id="Stroke-27" stroke="#FF7D7D" stroke-width="1.5"></path>
                    <path d="M211.5774,73.0679 C211.5774,72.6309 211.2234,72.2759 210.7864,72.2759 C210.3484,72.2759 209.9944,72.6309 209.9944,73.0679 C209.9944,73.5049 210.3484,73.8599 210.7864,73.8599 C211.2234,73.8599 211.5774,73.5049 211.5774,73.0679" id="Fill-29" fill="#FFCFCF"></path>
                    <path d="M211.5774,73.0679 C211.5774,72.6309 211.2234,72.2759 210.7864,72.2759 C210.3484,72.2759 209.9944,72.6309 209.9944,73.0679 C209.9944,73.5049 210.3484,73.8599 210.7864,73.8599 C211.2234,73.8599 211.5774,73.5049 211.5774,73.0679 Z" id="Stroke-31" stroke="#FF7D7D" stroke-width="1.5"></path>
                    <path d="M222.5461,80.959 L178.7961,80.959 C176.1951,80.959 174.0881,83.067 174.0881,85.667 L174.0881,112.565 C174.0881,115.165 176.1951,117.273 178.7961,117.273 L222.5461,117.273 C225.1471,117.273 227.2541,115.165 227.2541,112.565 L227.2541,85.667 C227.2541,83.067 225.1471,80.959 222.5461,80.959" id="Fill-33" fill="#FFCFCF"></path>
                    <path d="M222.5461,80.959 L178.7961,80.959 C176.1951,80.959 174.0881,83.067 174.0881,85.667 L174.0881,112.565 C174.0881,115.165 176.1951,117.273 178.7961,117.273 L222.5461,117.273 C225.1471,117.273 227.2541,115.165 227.2541,112.565 L227.2541,85.667 C227.2541,83.067 225.1471,80.959 222.5461,80.959 Z" id="Stroke-35" stroke="#FF7D7D" stroke-width="1.5"></path>
                    <path d="M78.1829,44.8872 L78.1829,50.5252" id="Stroke-37" stroke="#FF7D7D" stroke-width="1.5"></path>
                    <path d="M140.5129,73.0679 L140.5129,80.0679" id="Stroke-39" stroke="#FF7D7D" stroke-width="1.5"></path>
                    <path d="M155.1711,73.0679 L155.1711,80.0679" id="Stroke-41" stroke="#FF7D7D" stroke-width="1.5"></path>
                    <path d="M142.7571,95.792 C142.7571,90.171 147.3061,85.623 152.9271,85.623" id="Stroke-43" stroke="#FF7D7D" stroke-width="1.5"></path>
                    <path d="M75.0676,71.419 C84.8786,61.608 100.7546,61.608 110.5656,71.419" id="Stroke-45" stroke="#FF7D7D" stroke-width="1.5"></path>
                    <path d="M140.5129,68.5679 L143.4099,71.4649" id="Stroke-47" stroke="#FF7D7D" stroke-width="1.5"></path>
                    <path d="M155.1711,68.5679 L152.2741,71.4649" id="Stroke-49" stroke="#FF7D7D" stroke-width="1.5"></path>
                    <path d="M107.6311,36.0738 L104.7341,38.9708" id="Stroke-51" stroke="#FF7D7D" stroke-width="1.5"></path>
                    <path d="M108.5012,47.7061 C108.5012,46.4251 107.4632,45.3871 106.1832,45.3871 C104.9012,45.3871 103.8632,46.4251 103.8632,47.7061 C103.8632,48.9871 104.9012,50.0251 106.1832,50.0251 C107.4632,50.0251 108.5012,48.9871 108.5012,47.7061 Z" id="Stroke-53" stroke="#FF7D7D" stroke-width="1.5"></path>
                    <path d="M185.3967,89.5762 C184.1077,89.5762 183.0637,90.6212 183.0637,91.9092 L183.0637,97.4122 C183.0637,98.7012 184.1077,99.7452 185.3967,99.7452 C186.6857,99.7452 187.7297,98.7012 187.7297,97.4122 L187.7297,91.9092 C187.7297,90.6212 186.6857,89.5762 185.3967,89.5762 Z" id="Stroke-55" stroke="#FF7D7D" stroke-width="1.5"></path>
                    <path d="M217.342,89.5762 C216.053,89.5762 215.008,90.6212 215.008,91.9092 L215.008,97.4122 C215.008,98.7012 216.053,99.7452 217.342,99.7452 C218.63,99.7452 219.675,98.7012 219.675,97.4122 L219.675,91.9092 C219.675,90.6212 218.63,89.5762 217.342,89.5762 Z" id="Stroke-57" stroke="#FF7D7D" stroke-width="1.5"></path>
                    <path d="M185.3967,105.2344 L217.3417,105.2344" id="Stroke-59" stroke="#FF7D7D" stroke-width="1.5"></path>
                    <path d="M183.0637,93.6094 L187.7297,96.2764" id="Stroke-61" stroke="#FF7D7D" stroke-width="1.5"></path>
                    <path d="M215.0081,93.6094 L219.6751,96.2764" id="Stroke-63" stroke="#FF7D7D" stroke-width="1.5"></path>
                    <path d="M161.1243,48.1231 L162.6633,41.6511" id="Stroke-65" stroke="#FF7D7D" stroke-width="1.5"></path>
                    <path d="M135.2717,47.7197 L131.7847,42.0547" id="Stroke-67" stroke="#FF7D7D" stroke-width="1.5"></path>
                    <path d="M147.842,46.0952 L147.842,39.9082" id="Stroke-69" stroke="#FF7D7D" stroke-width="1.5"></path>
                    <polygon id="Stroke-71" stroke="#FF7D7D" stroke-width="1.5" points="59.6731 29.9419 47.1511 26.5879 52.3471 23.5879 44.1511 21.3919 52.0881 16.8079"></polygon>
                    <path d="M128.7307,13.3335 C131.9347,17.2355 130.6037,21.5455 125.7547,22.9595 C121.8767,24.0915 116.6547,22.4775 114.0897,19.3545 C112.0397,16.8575 112.8917,14.0995 115.9947,13.1935 C118.4767,12.4705 121.8187,13.5025 123.4597,15.5005 C124.7727,17.0995 124.2267,18.8655 122.2417,19.4445 C120.6527,19.9075 118.5137,19.2465 117.4627,17.9675" id="Stroke-73" stroke="#FF7D7D" stroke-width="1.5"></path>
                    <path d="M106.1829,22.0679 L107.4329,10.8179" id="Stroke-75" stroke="#FF7D7D" stroke-width="1.5"></path>
                    <path d="M67.6711,25.4278 L64.2661,14.3448" id="Stroke-77" stroke="#FF7D7D" stroke-width="1.5"></path>
                    <path d="M59.8684,38.9741 L48.2824,35.2821" id="Stroke-79" stroke="#FF7D7D" stroke-width="1.5"></path>
                    <path d="M126.9563,32.2959 L137.1833,24.5679" id="Stroke-81" stroke="#FF7D7D" stroke-width="1.5"></path>
                    <polyline id="Stroke-83" stroke="#FF7D7D" stroke-width="1.5" points="8.2727 50.625 12.8557 46.042 17.3557 50.542"></polyline>
                    <path d="M146.9055,0.75 L146.9055,32.358" id="Stroke-85" stroke="#FF7D7D" stroke-width="1.5"></path>
                    <path d="M144.0852,32.2178 C144.0852,33.7748 145.3482,35.0378 146.9052,35.0378 C148.4622,35.0378 149.7252,33.7748 149.7252,32.2178 C149.7252,30.6608 148.4622,29.3978 146.9052,29.3978 C145.3482,29.3978 144.0852,30.6608 144.0852,32.2178" id="Fill-87" fill="#FF7D7D"></path>
                    <path d="M199.7346,59.3311 L199.7346,15.5301 C199.7346,7.3671 193.1166,0.7501 184.9546,0.7501 L146.9056,0.7501 L91.8806,0.7501 L91.8806,12.4981" id="Stroke-89" stroke="#FF7D7D" stroke-width="1.5"></path>
                    <path d="M202.554,59.19 C202.554,60.747 201.291,62.01 199.735,62.01 C198.177,62.01 196.914,60.747 196.914,59.19 C196.914,57.633 198.177,56.37 199.735,56.37 C201.291,56.37 202.554,57.633 202.554,59.19" id="Fill-91" fill="#FF7D7D"></path>
                    <path d="M89.0598,12.357 C89.0598,13.914 90.3228,15.177 91.8798,15.177 C93.4368,15.177 94.6998,13.914 94.6998,12.357 C94.6998,10.8 93.4368,9.537 91.8798,9.537 C90.3228,9.537 89.0598,10.8 89.0598,12.357" id="Fill-93" fill="#FF7D7D"></path>
                    <path d="M91.8801,0.75 L27.5951,0.75 C19.4321,0.75 12.8151,7.367 12.8151,15.53 L12.8151,62.809" id="Stroke-95" stroke="#FF7D7D" stroke-width="1.5"></path>
                    <path d="M18.0647,85.1944 C17.1897,85.1944 16.4807,83.6644 16.4807,81.7774 C16.4807,79.8904 17.1897,78.3614 18.0647,78.3614 C18.9387,78.3614 19.6477,79.8904 19.6477,81.7774 C19.6477,83.6644 18.9387,85.1944 18.0647,85.1944 M7.6747,85.1944 C6.8007,85.1944 6.0917,83.6644 6.0917,81.7774 C6.0917,79.8904 6.8007,78.3614 7.6747,78.3614 C8.5487,78.3614 9.2577,79.8904 9.2577,81.7774 C9.2577,83.6644 8.5487,85.1944 7.6747,85.1944 M24.8787,82.7394 C24.8787,76.0764 19.4767,70.6754 12.8147,70.6754 C6.1517,70.6754 0.7507,76.0764 0.7507,82.7394 C0.7507,86.7234 4.3767,89.2034 7.7047,90.5534 C7.6167,90.8164 7.5567,91.0914 7.5567,91.3834 C7.5567,92.8234 8.7237,93.9904 10.1637,93.9904 C10.6407,93.9904 11.0827,93.8524 11.4667,93.6294 C11.8517,93.8524 12.2937,93.9904 12.7697,93.9904 C13.2477,93.9904 13.6887,93.8524 14.0737,93.6294 C14.4587,93.8524 14.8987,93.9904 15.3767,93.9904 C16.8157,93.9904 17.9827,92.8234 17.9827,91.3834 C17.9827,91.1034 17.9267,90.8384 17.8447,90.5854 C21.1937,89.2414 24.8787,86.7554 24.8787,82.7394" id="Fill-97" fill="#FFCFCF"></path>
                    <path d="M18.0647,85.1944 C17.1897,85.1944 16.4807,83.6644 16.4807,81.7774 C16.4807,79.8904 17.1897,78.3614 18.0647,78.3614 C18.9387,78.3614 19.6477,79.8904 19.6477,81.7774 C19.6477,83.6644 18.9387,85.1944 18.0647,85.1944 Z M7.6747,85.1944 C6.8007,85.1944 6.0917,83.6644 6.0917,81.7774 C6.0917,79.8904 6.8007,78.3614 7.6747,78.3614 C8.5487,78.3614 9.2577,79.8904 9.2577,81.7774 C9.2577,83.6644 8.5487,85.1944 7.6747,85.1944 Z M24.8787,82.7394 C24.8787,76.0764 19.4767,70.6754 12.8147,70.6754 C6.1517,70.6754 0.7507,76.0764 0.7507,82.7394 C0.7507,86.7234 4.3767,89.2034 7.7047,90.5534 C7.6167,90.8164 7.5567,91.0914 7.5567,91.3834 C7.5567,92.8234 8.7237,93.9904 10.1637,93.9904 C10.6407,93.9904 11.0827,93.8524 11.4667,93.6294 C11.8517,93.8524 12.2937,93.9904 12.7697,93.9904 C13.2477,93.9904 13.6887,93.8524 14.0737,93.6294 C14.4587,93.8524 14.8987,93.9904 15.3767,93.9904 C16.8157,93.9904 17.9827,92.8234 17.9827,91.3834 C17.9827,91.1034 17.9267,90.8384 17.8447,90.5854 C21.1937,89.2414 24.8787,86.7554 24.8787,82.7394 Z" id="Stroke-99" stroke="#FF7D7D" stroke-width="1.5"></path>
                    <path d="M17.7122,75.479 L15.3372,77.854" id="Stroke-101" stroke="#FF7D7D" stroke-width="1.5"></path>
                    <path d="M10.2913,77.854 L7.9163,75.479" id="Stroke-103" stroke="#FF7D7D" stroke-width="1.5"></path>
                </g>
                <rect id="Rectangle" fill-rule="nonzero" x="0" y="0" width="230" height="120"></rect>
            </g>
        </g>
    </g>
</svg>