<?xml version="1.0" encoding="UTF-8"?>
<svg width="279px" height="120px" viewBox="0 0 279 120" version="1.1" xmlns="http://www.w3.org/2000/svg" xmlns:xlink="http://www.w3.org/1999/xlink">
    <!-- Generator: Sketch 52.2 (67145) - http://www.bohemiancoding.com/sketch -->
    <title>2</title>
    <desc>Created with Sketch.</desc>
    <g id="Desktop" stroke="none" stroke-width="1" fill="none" fill-rule="evenodd">
        <g id="Frontpage" transform="translate(-760.000000, -1044.000000)">
            <rect fill="#FFFFFF" x="0" y="0" width="1440" height="5954"></rect>
            <g id="know1" transform="translate(760.000000, 1044.000000)">
                <g id="Group-77" transform="translate(8.000000, 1.000000)">
                    <path d="M10.7549,56.6778 C13.9539,56.9918 15.2949,59.5318 13.7489,62.3498 C12.5129,64.6048 9.4359,66.2288 6.8759,65.9778 C4.8279,65.7768 3.9709,64.1518 4.9599,62.3468 C5.7509,60.9048 7.7209,59.8648 9.3589,60.0258 C10.6689,60.1548 11.2179,61.1948 10.5849,62.3488 C10.0779,63.2728 8.8179,63.9378 7.7699,63.8348" id="Stroke-1" stroke="#FF7D7D" stroke-width="1.5"></path>
                    <path d="M148.1905,53.5049 L125.7045,53.5049 C122.6365,53.5049 120.1505,55.9909 120.1505,59.0589 L120.1505,111.7189 C120.1505,114.7869 122.6365,117.2729 125.7045,117.2729 L148.1905,117.2729 C151.2575,117.2729 153.7445,114.7869 153.7445,111.7189 L153.7445,59.0589 C153.7445,55.9909 151.2575,53.5049 148.1905,53.5049" id="Fill-3" fill="#CAFFF5"></path>
                    <path d="M148.1905,53.5049 L125.7045,53.5049 C122.6365,53.5049 120.1505,55.9909 120.1505,59.0589 L120.1505,111.7189 C120.1505,114.7869 122.6365,117.2729 125.7045,117.2729 L148.1905,117.2729 C151.2575,117.2729 153.7445,114.7869 153.7445,111.7189 L153.7445,59.0589 C153.7445,55.9909 151.2575,53.5049 148.1905,53.5049 Z" id="Stroke-5" stroke="#5DD8C1" stroke-width="1.5"></path>
                    <path d="M104.8955,30.7866 L58.9495,30.7866 C56.7125,30.7866 54.9015,32.5986 54.9015,34.8346 L54.9015,113.2246 C54.9015,115.4606 56.7125,117.2726 58.9495,117.2726 L104.8955,117.2726 C107.1305,117.2726 108.9435,115.4606 108.9435,113.2246 L108.9435,34.8346 C108.9435,32.5986 107.1305,30.7866 104.8955,30.7866" id="Fill-7" fill="#CAFFF5"></path>
                    <path d="M104.8955,30.7866 L58.9495,30.7866 C56.7125,30.7866 54.9015,32.5986 54.9015,34.8346 L54.9015,113.2246 C54.9015,115.4606 56.7125,117.2726 58.9495,117.2726 L104.8955,117.2726 C107.1305,117.2726 108.9435,115.4606 108.9435,113.2246 L108.9435,34.8346 C108.9435,32.5986 107.1305,30.7866 104.8955,30.7866 Z" id="Stroke-9" stroke="#5DD8C1" stroke-width="1.5"></path>
                    <path d="M99.5459,41.9072 L64.2979,41.9072 C62.8789,41.9072 61.7279,43.0572 61.7279,44.4772 L61.7279,50.9352 C61.7279,52.3542 62.8789,53.5052 64.2979,53.5052 L99.5459,53.5052 C100.9659,53.5052 102.1159,52.3542 102.1159,50.9352 L102.1159,44.4772 C102.1159,43.0572 100.9659,41.9072 99.5459,41.9072 Z" id="Stroke-11" stroke="#5DD8C1" stroke-width="1.5"></path>
                    <path d="M144.2764,53.5049 L129.6184,53.5049 L129.6184,55.0239 C129.6184,57.1299 131.3264,58.8379 133.4324,58.8379 L140.4624,58.8379 C142.5684,58.8379 144.2764,57.1299 144.2764,55.0239 L144.2764,53.5049 Z" id="Stroke-13" stroke="#5DD8C1" stroke-width="1.5"></path>
                    <path d="M211.6514,80.959 L167.9014,80.959 C165.3004,80.959 163.1934,83.067 163.1934,85.667 L163.1934,112.565 C163.1934,115.165 165.3004,117.273 167.9014,117.273 L211.6514,117.273 C214.2524,117.273 216.3594,115.165 216.3594,112.565 L216.3594,85.667 C216.3594,83.067 214.2524,80.959 211.6514,80.959" id="Fill-15" fill="#CAFFF5"></path>
                    <path d="M211.6514,80.959 L167.9014,80.959 C165.3004,80.959 163.1934,83.067 163.1934,85.667 L163.1934,112.565 C163.1934,115.165 165.3004,117.273 167.9014,117.273 L211.6514,117.273 C214.2524,117.273 216.3594,115.165 216.3594,112.565 L216.3594,85.667 C216.3594,83.067 214.2524,80.959 211.6514,80.959 Z" id="Stroke-17" stroke="#5DD8C1" stroke-width="1.5"></path>
                    <path d="M67.2881,44.8872 L67.2881,50.5252" id="Stroke-19" stroke="#5DD8C1" stroke-width="1.5"></path>
                    <path d="M129.6182,73.0679 L129.6182,80.0679" id="Stroke-21" stroke="#5DD8C1" stroke-width="1.5"></path>
                    <path d="M144.2764,73.0679 L144.2764,80.0679" id="Stroke-23" stroke="#5DD8C1" stroke-width="1.5"></path>
                    <path d="M142.0323,85.6226 C142.0323,91.2436 137.4833,95.7916 131.8633,95.7916" id="Stroke-25" stroke="#5DD8C1" stroke-width="1.5"></path>
                    <path d="M99.6709,64.3804 C89.8599,74.1914 73.9839,74.1914 64.1729,64.3804" id="Stroke-27" stroke="#5DD8C1" stroke-width="1.5"></path>
                    <path d="M97.6065,47.7061 C97.6065,46.4251 96.5685,45.3871 95.2885,45.3871 C94.0065,45.3871 92.9685,46.4251 92.9685,47.7061 C92.9685,48.9871 94.0065,50.0251 95.2885,50.0251 C96.5685,50.0251 97.6065,48.9871 97.6065,47.7061 Z" id="Stroke-29" stroke="#5DD8C1" stroke-width="1.5"></path>
                    <path d="M174.502,89.5762 C173.213,89.5762 172.169,90.6212 172.169,91.9092 L172.169,97.4122 C172.169,98.7012 173.213,99.7452 174.502,99.7452 C175.791,99.7452 176.835,98.7012 176.835,97.4122 L176.835,91.9092 C176.835,90.6212 175.791,89.5762 174.502,89.5762 Z" id="Stroke-31" stroke="#5DD8C1" stroke-width="1.5"></path>
                    <path d="M206.4473,89.5762 C205.1583,89.5762 204.1133,90.6212 204.1133,91.9092 L204.1133,97.4122 C204.1133,98.7012 205.1583,99.7452 206.4473,99.7452 C207.7353,99.7452 208.7803,98.7012 208.7803,97.4122 L208.7803,91.9092 C208.7803,90.6212 207.7353,89.5762 206.4473,89.5762 Z" id="Stroke-33" stroke="#5DD8C1" stroke-width="1.5"></path>
                    <polyline id="Stroke-35" stroke="#5DD8C1" stroke-width="1.5" points="174.502 105.2344 190.568 109.2784 206.447 105.2344"></polyline>
                    <path d="M172.169,93.6094 L176.835,96.2764" id="Stroke-37" stroke="#5DD8C1" stroke-width="1.5"></path>
                    <path d="M208.7803,96.2764 L204.1133,93.6094" id="Stroke-39" stroke="#5DD8C1" stroke-width="1.5"></path>
                    <path d="M136.9473,0.75 L136.9473,43.417" id="Stroke-41" stroke="#00C8FF" stroke-width="1.5"></path>
                    <path d="M134.128,43.2754 C134.128,44.8324 135.391,46.0954 136.947,46.0954 C138.505,46.0954 139.768,44.8324 139.768,43.2754 C139.768,41.7184 138.505,40.4554 136.947,40.4554 C135.391,40.4554 134.128,41.7184 134.128,43.2754" id="Fill-43" fill="#00C8FF"></path>
                    <path d="M189.7764,70.3892 L189.7764,0.7502 L136.9474,0.7502 L96.7024,0.7502 C88.5394,0.7502 81.9224,7.3672 81.9224,15.5302 L81.9224,23.5562" id="Stroke-45" stroke="#00C8FF" stroke-width="1.5"></path>
                    <path d="M192.5967,70.2481 C192.5967,71.8051 191.3337,73.0681 189.7767,73.0681 C188.2197,73.0681 186.9567,71.8051 186.9567,70.2481 C186.9567,68.6911 188.2197,67.4281 189.7767,67.4281 C191.3337,67.4281 192.5967,68.6911 192.5967,70.2481" id="Fill-47" fill="#00C8FF"></path>
                    <path d="M79.1026,23.4146 C79.1026,24.9716 80.3656,26.2346 81.9216,26.2346 C83.4796,26.2346 84.7426,24.9716 84.7426,23.4146 C84.7426,21.8576 83.4796,20.5946 81.9216,20.5946 C80.3656,20.5946 79.1026,21.8576 79.1026,23.4146" id="Fill-49" fill="#00C8FF"></path>
                    <polyline id="Stroke-51" stroke="#00C8FF" stroke-width="1.5" points="244.7842 35.7842 249.3672 31.2012 253.8672 35.7012"></polyline>
                    <path d="M263.1319,59.2793 L249.3249,54.1383 L235.5199,59.2793 L235.5199,78.1913 C235.5199,85.8163 241.6999,91.9973 249.3249,91.9973 C256.9509,91.9973 263.1319,85.8163 263.1319,78.1913 L263.1319,59.2793 Z" id="Fill-53" fill="#DCFAFF"></path>
                    <path d="M263.1319,59.2793 L249.3249,54.1383 L235.5199,59.2793 L235.5199,78.1913 C235.5199,85.8163 241.6999,91.9973 249.3249,91.9973 C256.9509,91.9973 263.1319,85.8163 263.1319,78.1913 L263.1319,59.2793 Z" id="Stroke-55" stroke="#00C8FF" stroke-width="1.5"></path>
                    <g id="Group-60" transform="translate(241.000000, 69.023000)">
                        <polyline id="Fill-57" fill="#DCFAFF" points="0.2432 4.5791 6.1392 10.4761 16.4082 0.2071"></polyline>
                        <polyline id="Stroke-59" stroke="#00C8FF" stroke-width="1.5" points="0.2432 4.5791 6.1392 10.4761 16.4082 0.2071"></polyline>
                    </g>
                    <path d="M108.9434,0.75 L234.5454,0.75 C242.7084,0.75 249.3254,7.367 249.3254,15.53 L249.3254,47.706" id="Stroke-61" stroke="#00C8FF" stroke-width="1.5"></path>
                    <path d="M26.7842,84.5244 C25.9102,84.5244 25.2012,82.9944 25.2012,81.1074 C25.2012,79.2214 25.9102,77.6914 26.7842,77.6914 C27.6592,77.6914 28.3682,79.2214 28.3682,81.1074 C28.3682,82.9944 27.6592,84.5244 26.7842,84.5244 M16.3952,84.5244 C15.5202,84.5244 14.8112,82.9944 14.8112,81.1074 C14.8112,79.2214 15.5202,77.6914 16.3952,77.6914 C17.2692,77.6914 17.9782,79.2214 17.9782,81.1074 C17.9782,82.9944 17.2692,84.5244 16.3952,84.5244 M33.5982,82.0694 C33.5982,75.4064 28.1972,70.0054 21.5342,70.0054 C14.8712,70.0054 9.4702,75.4064 9.4702,82.0694 C9.4702,86.0534 13.0972,88.5334 16.4252,89.8844 C16.3362,90.1464 16.2772,90.4224 16.2772,90.7144 C16.2772,92.1534 17.4442,93.3204 18.8842,93.3204 C19.3602,93.3204 19.8022,93.1834 20.1862,92.9594 C20.5712,93.1834 21.0132,93.3204 21.4902,93.3204 C21.9672,93.3204 22.4082,93.1834 22.7932,92.9594 C23.1782,93.1834 23.6192,93.3204 24.0962,93.3204 C25.5362,93.3204 26.7032,92.1534 26.7032,90.7144 C26.7032,90.4334 26.6472,90.1684 26.5652,89.9154 C29.9132,88.5714 33.5982,86.0854 33.5982,82.0694" id="Fill-63" fill="#FFCFCF"></path>
                    <path d="M26.7842,84.5244 C25.9102,84.5244 25.2012,82.9944 25.2012,81.1074 C25.2012,79.2214 25.9102,77.6914 26.7842,77.6914 C27.6592,77.6914 28.3682,79.2214 28.3682,81.1074 C28.3682,82.9944 27.6592,84.5244 26.7842,84.5244 Z M16.3952,84.5244 C15.5202,84.5244 14.8112,82.9944 14.8112,81.1074 C14.8112,79.2214 15.5202,77.6914 16.3952,77.6914 C17.2692,77.6914 17.9782,79.2214 17.9782,81.1074 C17.9782,82.9944 17.2692,84.5244 16.3952,84.5244 Z M33.5982,82.0694 C33.5982,75.4064 28.1972,70.0054 21.5342,70.0054 C14.8712,70.0054 9.4702,75.4064 9.4702,82.0694 C9.4702,86.0534 13.0972,88.5334 16.4252,89.8844 C16.3362,90.1464 16.2772,90.4224 16.2772,90.7144 C16.2772,92.1534 17.4442,93.3204 18.8842,93.3204 C19.3602,93.3204 19.8022,93.1834 20.1862,92.9594 C20.5712,93.1834 21.0132,93.3204 21.4902,93.3204 C21.9672,93.3204 22.4082,93.1834 22.7932,92.9594 C23.1782,93.1834 23.6192,93.3204 24.0962,93.3204 C25.5362,93.3204 26.7032,92.1534 26.7032,90.7144 C26.7032,90.4334 26.6472,90.1684 26.5652,89.9154 C29.9132,88.5714 33.5982,86.0854 33.5982,82.0694 Z" id="Stroke-65" stroke="#FF7D7D" stroke-width="1.5"></path>
                    <path d="M26.4317,74.8096 L24.0567,77.1846" id="Stroke-67" stroke="#FF7D7D" stroke-width="1.5"></path>
                    <path d="M19.0117,77.1846 L16.6367,74.8096" id="Stroke-69" stroke="#FF7D7D" stroke-width="1.5"></path>
                    <path d="M31.9785,66.6485 L35.5785,58.9815" id="Stroke-71" stroke="#FF7D7D" stroke-width="1.5"></path>
                    <path d="M7.4366,74.1109 L0.4366,69.1029" id="Stroke-73" stroke="#FF7D7D" stroke-width="1.5"></path>
                    <polyline id="Stroke-75" stroke="#FF7D7D" stroke-width="1.5" points="22.0625 65.815 20.7285 60.148 24.8125 61.565 22.7705 54.398"></polyline>
                </g>
                <rect id="Rectangle" fill-rule="nonzero" x="0" y="0" width="279" height="120"></rect>
            </g>
        </g>
    </g>
</svg>