<svg xmlns="http://www.w3.org/2000/svg" width="267" height="121" viewBox="0 0 267 121">
  <g fill="none" fill-rule="evenodd">
    <path fill="#FFCFCF" d="M122.374387,63.8542185 L102.846655,61.5722017 C101.594218,61.4259832 100.697748,60.2915294 100.842958,59.0401008 L102.143798,47.9164034 C102.290017,46.6639664 103.423462,45.7664874 104.675899,45.9137143 L124.20363,48.1967395 C125.457076,48.342958 126.352538,49.4764034 126.207328,50.7288403 L124.906487,61.8525378 C124.760269,63.1049748 123.625815,64.0014454 122.374387,63.8542185"/>
    <path stroke="#FF7D7D" stroke-width="1.5" d="M122.374387,63.8542185 L102.846655,61.5722017 C101.594218,61.4259832 100.697748,60.2915294 100.842958,59.0401008 L102.143798,47.9164034 C102.290017,46.6639664 103.423462,45.7664874 104.675899,45.9137143 L124.20363,48.1967395 C125.457076,48.342958 126.352538,49.4764034 126.207328,50.7288403 L124.906487,61.8525378 C124.760269,63.1049748 123.625815,64.0014454 122.374387,63.8542185 Z"/>
    <g transform="translate(102.857 46.023)">
      <polyline fill="#FFCFCF" points=".308 .256 10.668 8.861 22.738 2.873"/>
      <polyline stroke="#FF7D7D" stroke-width="1.5" points=".308 .256 10.668 8.861 22.738 2.873"/>
    </g>
    <g transform="translate(102.857 38.964)">
      <polyline fill="#FFCFCF" points=".308 7.314 12.431 .832 22.738 9.932"/>
      <polyline stroke="#FF7D7D" stroke-width="1.5" points=".308 7.314 12.431 .832 22.738 9.932"/>
    </g>
    <path stroke="#FF7D7D" stroke-width="1.5" d="M162.529311,53.4560672 C166.927966,56.4137143 166.888639,61.1471597 162.44158,64.0301849 C158.883933,66.3374118 153.147126,66.2900168 149.628807,63.9243025 C146.813345,62.0325378 146.837546,59.0022857 149.685277,57.1569076 C151.962252,55.680605 155.63284,55.7108571 157.885613,57.2244706 C159.68763,58.435563 159.670487,60.3747227 157.848303,61.555563 C156.392168,62.5014454 154.042588,62.4812773 152.600571,61.5122017"/>
    <path fill="#FFCFCF" d="M164.030118,106.411059 C162.760538,105.727361 162.926924,102.952235 164.402218,100.213412 C165.877513,97.4745882 168.10205,95.8076975 169.37163,96.491395 C170.64121,97.1750924 170.474824,99.9502185 168.999529,102.69005 C167.524235,105.427866 165.299697,107.094756 164.030118,106.411059 M148.948437,98.2893782 C147.678857,97.6066891 147.845244,94.831563 149.320538,92.0927395 C150.795832,89.3529076 153.02037,87.6870252 154.28995,88.3697143 C155.559529,89.0534118 155.393143,91.8285378 153.917849,94.5673613 C152.442555,97.3071933 150.218017,98.9730756 148.948437,98.2893782 M175.840538,108.174756 C181.04995,98.5021513 177.43079,86.4386218 167.758185,81.2302185 C158.08558,76.0218151 146.023059,79.6399664 140.814655,89.3125714 C137.700706,95.0957647 141.027429,101.531395 144.801882,106.09442 C144.468101,106.405008 144.166588,106.758958 143.937681,107.183496 C142.813311,109.272908 143.594824,111.878622 145.685244,113.004 C146.377008,113.377109 147.125244,113.522319 147.859361,113.498118 C148.242555,114.123328 148.774992,114.667866 149.468773,115.041983 C150.160538,115.415092 150.908773,115.559294 151.642891,115.536101 C152.026084,116.161311 152.558521,116.705849 153.252303,117.078958 C155.341714,118.204336 157.948437,117.422824 159.072807,115.333412 C159.292639,114.925008 159.418689,114.497445 159.497345,114.065849 C165.407597,114.732403 172.702387,114.003328 175.840538,108.174756"/>
    <path stroke="#FF7D7D" stroke-width="1.5" d="M164.030118 106.411059C162.760538 105.727361 162.926924 102.952235 164.402218 100.213412 165.877513 97.4745882 168.10205 95.8076975 169.37163 96.491395 170.64121 97.1750924 170.474824 99.9502185 168.999529 102.69005 167.524235 105.427866 165.299697 107.094756 164.030118 106.411059zM148.948437 98.2893782C147.678857 97.6066891 147.845244 94.831563 149.320538 92.0927395 150.795832 89.3529076 153.02037 87.6870252 154.28995 88.3697143 155.559529 89.0534118 155.393143 91.8285378 153.917849 94.5673613 152.442555 97.3071933 150.218017 98.9730756 148.948437 98.2893782zM175.840538 108.174756C181.04995 98.5021513 177.43079 86.4386218 167.758185 81.2302185 158.08558 76.0218151 146.023059 79.6399664 140.814655 89.3125714 137.700706 95.0957647 141.027429 101.531395 144.801882 106.09442 144.468101 106.405008 144.166588 106.758958 143.937681 107.183496 142.813311 109.272908 143.594824 111.878622 145.685244 113.004 146.377008 113.377109 147.125244 113.522319 147.859361 113.498118 148.242555 114.123328 148.774992 114.667866 149.468773 115.041983 150.160538 115.415092 150.908773 115.559294 151.642891 115.536101 152.026084 116.161311 152.558521 116.705849 153.252303 117.078958 155.341714 118.204336 157.948437 117.422824 159.072807 115.333412 159.292639 114.925008 159.418689 114.497445 159.497345 114.065849 165.407597 114.732403 172.702387 114.003328 175.840538 108.174756zM171.112639 92.032437L165.808437 93.6236975M158.483899 89.6798319L156.893647 84.3756303M185.545412 84.5215462L196.762891 76.2062521M144.083597 76.1697479L137.837546 63.4265546"/>
    <polyline stroke="#FF7D7D" stroke-width="1.5" points="171.801 75.56 174.296 66.292 179.115 71.541 181.754 59.541"/>
    <path fill="#FFCFCF" d="M209.080336,55.2945882 L205.78084,55.1493782 L205.447059,62.7204706 L208.747563,62.8656807 L209.080336,55.2945882 Z M210.091765,68.9544202 L203.573445,68.6680336 C199.637647,68.4945882 196.587227,65.1628235 196.760672,61.2270252 L197.309244,48.7470252 L218.081345,49.6606387 L217.531765,62.1406387 C217.359328,66.076437 214.027563,69.1278655 210.091765,68.9544202 Z"/>
    <path stroke="#FF7D7D" stroke-width="1.5" d="M209.080336,55.2945882 L205.78084,55.1493782 L205.447059,62.7204706 L208.747563,62.8656807 L209.080336,55.2945882 Z M210.091765,68.9544202 L203.573445,68.6680336 C199.637647,68.4945882 196.587227,65.1628235 196.760672,61.2270252 L197.309244,48.7470252 L218.081345,49.6606387 L217.531765,62.1406387 C217.359328,66.076437 214.027563,69.1278655 210.091765,68.9544202 Z"/>
    <path fill="#FFCFCF" d="M180.517109,45.7719328 L180.418286,48.0045378 L184.29963,48.174958 L184.393412,46.0331092 C184.551731,42.4401681 187.592067,39.6559664 191.185008,39.8142857 C194.77795,39.9715966 197.561143,43.0129412 197.403832,46.6048739 L197.309042,48.7467227 L201.190387,48.9181513 L201.288202,46.6855462 C201.541311,40.9497479 197.095261,36.0952941 191.359462,35.8421849 C185.622655,35.590084 180.76921,40.0361345 180.517109,45.7719328"/>
    <path stroke="#FF7D7D" stroke-width="1.5" d="M180.517109,45.7719328 L180.418286,48.0045378 L184.29963,48.174958 L184.393412,46.0331092 C184.551731,42.4401681 187.592067,39.6559664 191.185008,39.8142857 C194.77795,39.9715966 197.561143,43.0129412 197.403832,46.6048739 L197.309042,48.7467227 L201.190387,48.9181513 L201.288202,46.6855462 C201.541311,40.9497479 197.095261,36.0952941 191.359462,35.8421849 C185.622655,35.590084 180.76921,40.0361345 180.517109,45.7719328 Z"/>
    <path fill="#FFCFCF" d="M7.35146218,99.6880336 C5.90944538,99.2957647 5.05936134,97.8093782 5.45062185,96.3673613 C5.84289076,94.9253445 7.32927731,94.0742521 8.77129412,94.4655126 C10.2133109,94.8577815 11.0644034,96.3451765 10.6721345,97.7861849 C10.2798655,99.2292101 8.79448739,100.080303 7.35146218,99.6880336 Z M15.3602017,96.8776134 C15.2765042,93.7404706 13.1618824,90.8947563 9.97734454,90.0295462 C6.08389916,88.9717311 2.07146218,91.2688739 1.01364706,95.1623193 C-0.0441680672,99.0537479 2.25398319,103.067193 6.14642017,104.124 C9.53465546,105.044672 13.0126387,103.422151 14.5554958,100.419126 L24.0697815,103.004672 L25.290958,106.489714 L27.9238992,104.051395 L28.3232269,102.58316 L28.8758319,100.550218 L15.3602017,96.8776134 Z"/>
    <path stroke="#FF7D7D" stroke-width="1.5" d="M7.35146218,99.6880336 C5.90944538,99.2957647 5.05936134,97.8093782 5.45062185,96.3673613 C5.84289076,94.9253445 7.32927731,94.0742521 8.77129412,94.4655126 C10.2133109,94.8577815 11.0644034,96.3451765 10.6721345,97.7861849 C10.2798655,99.2292101 8.79448739,100.080303 7.35146218,99.6880336 Z M15.3602017,96.8776134 C15.2765042,93.7404706 13.1618824,90.8947563 9.97734454,90.0295462 C6.08389916,88.9717311 2.07146218,91.2688739 1.01364706,95.1623193 C-0.0441680672,99.0537479 2.25398319,103.067193 6.14642017,104.124 C9.53465546,105.044672 13.0126387,103.422151 14.5554958,100.419126 L24.0697815,103.004672 L25.290958,106.489714 L27.9238992,104.051395 L28.3232269,102.58316 L28.8758319,100.550218 L15.3602017,96.8776134 Z"/>
    <polygon fill="#FFCFCF" points="162.885 40.014 173.377 30.654 167.718 17.782 153.727 19.186 150.74 32.927"/>
    <polygon stroke="#FF7D7D" stroke-width="1.5" points="162.885 40.014 173.377 30.654 167.718 17.782 153.727 19.186 150.74 32.927"/>
    <g transform="translate(153.277 18.796)">
      <path fill="#FFCFCF" d="M0.449142857,0.390957983 C1.17418487,1.18255462 9.11334454,8.45919328 9.11334454,8.45919328 L20.0998992,11.858521"/>
      <path stroke="#FF7D7D" stroke-width="1.5" d="M0.449142857,0.390957983 C1.17418487,1.18255462 9.11334454,8.45919328 9.11334454,8.45919328 L20.0998992,11.858521"/>
    </g>
    <g transform="translate(156.303 16.779)">
      <path fill="#FFCFCF" d="M11.4155294,1.00295798 L0.701243697,19.8046387"/>
      <path stroke="#FF7D7D" stroke-width="1.5" d="M11.4155294,1.00295798 L0.701243697,19.8046387"/>
    </g>
    <polyline stroke="#FF7D7D" stroke-width="1.5" points="140.26 35.656 146.888 27.552 150.74 32.927 145.41 39.446"/>
    <polyline stroke="#FF7D7D" stroke-width="1.5" points="165.191 48.705 168.005 40 162.885 40.014 159.888 47.155"/>
    <path fill="#FFCFCF" d="M240.897277,100.591059 L220.610218,96.013916 L219.592739,100.522487 L239.879798,105.09963 L240.897277,100.591059 Z M238.695933,109.769546 L218.655933,105.246857 C213.711731,104.131563 210.607866,99.2196303 211.72316,94.2744202 L213.745008,85.3167731 C214.861311,80.371563 219.773244,77.2687059 224.717445,78.384 L244.757445,82.9056807 C249.701647,84.0209748 252.806521,88.933916 251.690218,93.8791261 L249.66837,102.836773 C248.553076,107.780975 243.641143,110.88484 238.695933,109.769546 Z"/>
    <path stroke="#FF7D7D" stroke-width="1.5" d="M240.897277 100.591059L220.610218 96.013916 219.592739 100.522487 239.879798 105.09963 240.897277 100.591059zM238.695933 109.769546L218.655933 105.246857C213.711731 104.131563 210.607866 99.2196303 211.72316 94.2744202L213.745008 85.3167731C214.861311 80.371563 219.773244 77.2687059 224.717445 78.384L244.757445 82.9056807C249.701647 84.0209748 252.806521 88.933916 251.690218 93.8791261L249.66837 102.836773C248.553076 107.780975 243.641143 110.88484 238.695933 109.769546zM227.335966 87.2001681L223.408235 84.7416807M238.850924 89.797916L243.452269 89.2644706M224.62195 89.2996639L224.059261 91.7914286M240.400941 92.8606387L239.838252 95.351395"/>
    <polygon fill="#FFCFCF" points="236.751 71.722 231.889 80.001 237.586 81.287"/>
    <polygon stroke="#FF7D7D" stroke-width="1.5" points="236.751 71.722 231.889 80.001 237.586 81.287"/>
    <path fill="#FFCFCF" d="M240.24242,69.5156975 C240.598387,67.9415798 239.610151,66.379563 238.036034,66.0235966 C236.462924,65.6696471 234.899899,66.6568739 234.544941,68.2309916 C234.189983,69.8030924 235.178218,71.3671261 236.751328,71.722084 C238.324437,72.077042 239.887462,71.0898151 240.24242,69.5156975"/>
    <path stroke="#FF7D7D" stroke-width="1.5" d="M240.24242,69.5156975 C240.598387,67.9415798 239.610151,66.379563 238.036034,66.0235966 C236.462924,65.6696471 234.899899,66.6568739 234.544941,68.2309916 C234.189983,69.8030924 235.178218,71.3671261 236.751328,71.722084 C238.324437,72.077042 239.887462,71.0898151 240.24242,69.5156975 Z"/>
    <polygon fill="#FFCFCF" points="259.127 54.913 264.651 62.017 254.14 60.701 257.885 65.518 244.363 63.826 257.884 53.312"/>
    <polygon stroke="#FF7D7D" stroke-width="1.5" points="259.127 54.913 264.651 62.017 254.14 60.701 257.885 65.518 244.363 63.826 257.884 53.312"/>
    <polygon fill="#FFCFCF" points="245.904 48.846 240.1 45.315 241.992 53.086 238.057 50.692 240.491 60.687 247.212 49.641"/>
    <polygon stroke="#FF7D7D" stroke-width="1.5" points="245.904 48.846 240.1 45.315 241.992 53.086 238.057 50.692 240.491 60.687 247.212 49.641"/>
    <path fill="#FFCFCF" d="M117.907462,98.1172437 C116.65805,98.2543866 115.533681,97.3528739 115.397546,96.1034622 C115.107126,93.4695126 117.638218,92.2564034 119.555193,91.3801008 C117.494017,90.940437 114.759227,90.3081681 114.469815,87.6732101 C114.180403,85.0402689 116.706454,83.8291765 118.621412,82.9538824 C116.561244,82.5152269 113.833513,81.8809412 113.544101,79.2510252 C113.248639,76.5636303 115.888639,75.3585882 117.816706,74.4782521 C118.315866,74.2493445 119.094353,73.8943866 119.489647,73.6352269 C119.682252,72.6923697 120.463765,71.9390924 121.470151,71.8291765 C122.719563,71.6910252 123.843933,72.5925378 123.981076,73.8419496 C124.270487,76.4718655 121.746454,77.682958 119.830487,78.5592605 C121.890655,78.997916 124.617378,79.6311933 124.90679,82.2611092 C125.19721,84.8960672 122.667126,86.1071597 120.750151,86.9824538 C122.811328,87.4231261 125.543092,88.055395 125.833513,90.6903529 C126.128975,93.3787563 123.487966,94.5848067 121.560908,95.4661513 C121.060739,95.6950588 120.284269,96.0500168 119.888975,96.3091765 C119.69637,97.253042 118.914857,98.0063193 117.907462,98.1172437"/>
    <path stroke="#FF7D7D" stroke-width="1.5" d="M117.907462,98.1172437 C116.65805,98.2543866 115.533681,97.3528739 115.397546,96.1034622 C115.107126,93.4695126 117.638218,92.2564034 119.555193,91.3801008 C117.494017,90.940437 114.759227,90.3081681 114.469815,87.6732101 C114.180403,85.0402689 116.706454,83.8291765 118.621412,82.9538824 C116.561244,82.5152269 113.833513,81.8809412 113.544101,79.2510252 C113.248639,76.5636303 115.888639,75.3585882 117.816706,74.4782521 C118.315866,74.2493445 119.094353,73.8943866 119.489647,73.6352269 C119.682252,72.6923697 120.463765,71.9390924 121.470151,71.8291765 C122.719563,71.6910252 123.843933,72.5925378 123.981076,73.8419496 C124.270487,76.4718655 121.746454,77.682958 119.830487,78.5592605 C121.890655,78.997916 124.617378,79.6311933 124.90679,82.2611092 C125.19721,84.8960672 122.667126,86.1071597 120.750151,86.9824538 C122.811328,87.4231261 125.543092,88.055395 125.833513,90.6903529 C126.128975,93.3787563 123.487966,94.5848067 121.560908,95.4661513 C121.060739,95.6950588 120.284269,96.0500168 119.888975,96.3091765 C119.69637,97.253042 118.914857,98.0063193 117.907462,98.1172437 Z"/>
    <g transform="translate(42.353 81.317)">
      <path fill="#FFCFCF" d="M14.0232605,2.12853782 C13.877042,2.20921008 11.0091429,0.543327731 8.34695798,0.619966387 C2.89754622,0.778285714 -2.71119328,10.3288739 2.55973109,20.6145882 C2.55973109,20.6145882 5.96208403,6.7147563 8.21788235,8.84954622"/>
      <path stroke="#FF7D7D" stroke-width="1.5" d="M14.0232605,2.12853782 C13.877042,2.20921008 11.0091429,0.543327731 8.34695798,0.619966387 C2.89754622,0.778285714 -2.71119328,10.3288739 2.55973109,20.6145882 C2.55973109,20.6145882 5.96208403,6.7147563 8.21788235,8.84954622"/>
    </g>
    <path fill="#FFCFCF" d="M89.8169748,89.7063529 C90.4522689,83.0418151 97.9890756,78.8892101 101.170588,78.7984538 C103.836807,78.7197983 106.38605,77.1234958 106.347731,75.7934118 C106.308403,74.4623193 105.691261,73.0979496 102.845546,71.8233277 C99.7608403,70.4418151 99.3957983,68.3453445 96.2021849,68.4391261 C93.007563,68.5318992 92.3006723,70.4952605 91.1127731,71.4028235 C89.5245378,72.6159328 82.0129412,81.3053445 80.0364706,81.3628235 C78.0589916,81.4192941 62.1211765,81.8821513 62.1211765,81.8821513 C55.1036975,82.0858487 49.5806723,87.9396303 49.7843697,94.9561008 L49.8247059,96.3466891 L49.9164706,99.4908908 L50.3047059,112.901647 L54.8677311,112.769546 C54.8677311,112.769546 54.6781513,106.251227 54.6277311,104.527866 C54.5863866,103.105008 57.5833613,101.729546 58.5736134,99.2397983 L79.1168067,98.6438319 L79.505042,112.054588 L84.0690756,111.921479 C84.0690756,111.921479 83.8794958,105.404168 83.830084,103.680807 C83.7796639,101.956437 88.0714286,100.308706 88.0905882,96.6572773 C88.1006723,94.8169412 89.642521,91.5386218 89.8169748,89.7063529"/>
    <path stroke="#FF7D7D" stroke-width="1.5" d="M89.8169748,89.7063529 C90.4522689,83.0418151 97.9890756,78.8892101 101.170588,78.7984538 C103.836807,78.7197983 106.38605,77.1234958 106.347731,75.7934118 C106.308403,74.4623193 105.691261,73.0979496 102.845546,71.8233277 C99.7608403,70.4418151 99.3957983,68.3453445 96.2021849,68.4391261 C93.007563,68.5318992 92.3006723,70.4952605 91.1127731,71.4028235 C89.5245378,72.6159328 82.0129412,81.3053445 80.0364706,81.3628235 C78.0589916,81.4192941 62.1211765,81.8821513 62.1211765,81.8821513 C55.1036975,82.0858487 49.5806723,87.9396303 49.7843697,94.9561008 L49.8247059,96.3466891 L49.9164706,99.4908908 L50.3047059,112.901647 L54.8677311,112.769546 C54.8677311,112.769546 54.6781513,106.251227 54.6277311,104.527866 C54.5863866,103.105008 57.5833613,101.729546 58.5736134,99.2397983 L79.1168067,98.6438319 L79.505042,112.054588 L84.0690756,111.921479 C84.0690756,111.921479 83.8794958,105.404168 83.830084,103.680807 C83.7796639,101.956437 88.0714286,100.308706 88.0905882,96.6572773 C88.1006723,94.8169412 89.642521,91.5386218 89.8169748,89.7063529 Z"/>
    <path fill="#FFCFCF" d="M74.8415798,112.189613 C74.7296471,108.302218 77.7901513,105.058185 81.6775462,104.944235 C85.566958,104.832303 88.8099832,107.892807 88.9229244,111.78121 C89.0348571,115.669613 85.9753613,118.912639 82.086958,119.02558 C78.1985546,119.139529 74.954521,116.078017 74.8415798,112.189613"/>
    <path stroke="#FF7D7D" stroke-width="1.5" d="M74.8415798,112.189613 C74.7296471,108.302218 77.7901513,105.058185 81.6775462,104.944235 C85.566958,104.832303 88.8099832,107.892807 88.9229244,111.78121 C89.0348571,115.669613 85.9753613,118.912639 82.086958,119.02558 C78.1985546,119.139529 74.954521,116.078017 74.8415798,112.189613 Z"/>
    <path fill="#FFCFCF" d="M45.2354622,113.049378 C45.122521,109.160975 48.1830252,105.916941 52.0714286,105.804 C55.9598319,105.691059 59.2038655,108.751563 59.3168067,112.640975 C59.4287395,116.52837 56.3682353,119.772403 52.4808403,119.884336 C48.5914286,119.998286 45.347395,116.936773 45.2354622,113.049378"/>
    <path stroke="#FF7D7D" stroke-width="1.5" d="M45.2354622,113.049378 C45.122521,109.160975 48.1830252,105.916941 52.0714286,105.804 C55.9598319,105.691059 59.2038655,108.751563 59.3168067,112.640975 C59.4287395,116.52837 56.3682353,119.772403 52.4808403,119.884336 C48.5914286,119.998286 45.347395,116.936773 45.2354622,113.049378 Z"/>
    <path fill="#FFCFCF" d="M49.6886723,112.919395 C49.6473277,111.490487 50.7716975,110.298555 52.200605,110.25721 C53.6295126,110.215866 54.8214454,111.341244 54.8637983,112.770151 C54.9051429,114.199059 53.7807731,115.389983 52.3508571,115.431328 C50.9219496,115.473681 49.7300168,114.348303 49.6886723,112.919395"/>
    <path stroke="#FF7D7D" stroke-width="1.5" d="M49.6886723,112.919395 C49.6473277,111.490487 50.7716975,110.298555 52.200605,110.25721 C53.6295126,110.215866 54.8214454,111.341244 54.8637983,112.770151 C54.9051429,114.199059 53.7807731,115.389983 52.3508571,115.431328 C50.9219496,115.473681 49.7300168,114.348303 49.6886723,112.919395 Z"/>
    <path fill="#FFCFCF" d="M79.2946891,112.060639 C79.2533445,110.631731 80.3777143,109.43879 81.8066218,109.397445 C83.2355294,109.356101 84.4284706,110.481479 84.4698151,111.910387 C84.5111597,113.340303 83.3867899,114.531227 81.9578824,114.572571 C80.5289748,114.613916 79.3360336,113.489546 79.2946891,112.060639"/>
    <path stroke="#FF7D7D" stroke-width="1.5" d="M79.2946891 112.060639C79.2533445 110.631731 80.3777143 109.43879 81.8066218 109.397445 83.2355294 109.356101 84.4284706 110.481479 84.4698151 111.910387 84.5111597 113.340303 83.3867899 114.531227 81.9578824 114.572571 80.5289748 114.613916 79.3360336 113.489546 79.2946891 112.060639zM98.5115294 73.2804706L98.5639664 75.0673613"/>
    <polyline stroke="#FF7D7D" stroke-width="1.5" points="93.682 69.076 93.871 75.585 79.805 90.491 79.54 81.377"/>
    <path stroke="#FF7D7D" stroke-width="1.5" d="M98.9851765,72.4463193 L95.896437,70.6957311"/>
    <path fill="#FFCFCF" d="M78.7216134,17.3371765 L32.2765714,76.3449076 L29.6547227,74.2807059 L74.035563,17.8958319 C75.1750588,16.4477647 77.2735462,16.1976807 78.7216134,17.3371765"/>
    <path stroke="#FF7D7D" stroke-width="1.5" d="M78.7216134 17.3371765L32.2765714 76.3449076 29.6547227 74.2807059 74.035563 17.8958319C75.1750588 16.4477647 77.2735462 16.1976807 78.7216134 17.3371765zM38.2790924 63.323395L40.7002689 65.6427227"/>
    <path fill="#FFCFCF" d="M37.962958,63.2673277 C38.2503529,61.2716975 36.8658151,59.4212773 34.8711933,59.1318655 C32.875563,58.8444706 31.0241345,60.2290084 30.7367395,62.2246387 C30.4483361,64.2202689 31.8328739,66.0706891 33.8285042,66.3590924 C35.8241345,66.6474958 37.675563,65.262958 37.962958,63.2673277"/>
    <path stroke="#FF7D7D" stroke-width="1.5" d="M37.962958,63.2673277 C38.2503529,61.2716975 36.8658151,59.4212773 34.8711933,59.1318655 C32.875563,58.8444706 31.0241345,60.2290084 30.7367395,62.2246387 C30.4483361,64.2202689 31.8328739,66.0706891 33.8285042,66.3590924 C35.8241345,66.6474958 37.675563,65.262958 37.962958,63.2673277 Z"/>
    <path fill="#FFCFCF" d="M35.4124034,62.898958 C35.4971092,62.3120672 35.0907227,61.7675294 34.5038319,61.6828235 C33.9159328,61.5981176 33.371395,62.0055126 33.2866891,62.5924034 C33.2019832,63.1792941 33.6093782,63.7238319 34.1962689,63.8085378 C34.7831597,63.8932437 35.3276975,63.4858487 35.4124034,62.898958"/>
    <path stroke="#FF7D7D" stroke-width="1.5" d="M35.4124034 62.898958C35.4971092 62.3120672 35.0907227 61.7675294 34.5038319 61.6828235 33.9159328 61.5981176 33.371395 62.0055126 33.2866891 62.5924034 33.2019832 63.1792941 33.6093782 63.7238319 34.1962689 63.8085378 34.7831597 63.8932437 35.3276975 63.4858487 35.4124034 62.898958zM78.7216134 17.3371765C78.7034622 18.1277647 79.4698487 26.686084 85.0947227 30.5008739 89.4268235 33.4383529 94.6896807 32.4370084 96.6096807 32.070958 101.47321 31.1452437 101.585143 29.1062521 105.286992 28.8965042 110.931025 28.5768403 112.429513 33.218521 117.355563 32.8948235 123.575395 32.4864202 127.623126 24.6561681 127.809681 24.2870924 130.596908 18.7247395 127.939765 16.1311261 130.761277 9.44843697 131.684975 7.26020168 134.273546 1.13415126 138.244639.773142857 143.534723.293142857 145.644303 10.5536471 152.074891 10.716 156.136739 10.8178487 156.512874 6.7549916 162.854723 4.86423529 167.40363 3.50692437 174.415059 3.45045378 178.312538 7.27431933 181.151193 10.0595294 180.129681 12.7368403 183.648 16.6232269 185.945143 19.1623866 188.622454 20.4975126 190.480941 21.2225546"/>
    <path fill="#FFCFCF" d="M206.51405,27.8072269 C207.865311,24.5168067 205.371529,20.3752941 200.944639,18.5571429 C196.517748,16.7379832 191.832706,17.9319328 190.481445,21.2223529 C189.130185,24.5117647 191.622958,28.6532773 196.050857,30.472437 C200.477748,32.2905882 205.161782,31.0976471 206.51405,27.8072269"/>
    <path stroke="#FF7D7D" stroke-width="1.5" d="M206.51405,27.8072269 C207.865311,24.5168067 205.371529,20.3752941 200.944639,18.5571429 C196.517748,16.7379832 191.832706,17.9319328 190.481445,21.2223529 C189.130185,24.5117647 191.622958,28.6532773 196.050857,30.472437 C200.477748,32.2905882 205.161782,31.0976471 206.51405,27.8072269 Z"/>
    <path fill="#FFCFCF" d="M214.114487,24.6323697 C211.139697,23.4101849 207.736336,24.8310252 206.514151,27.8068235 C205.290958,30.7836303 206.712807,34.1859832 209.688605,35.4081681 L214.114487,24.6323697 Z"/>
    <path stroke="#FF7D7D" stroke-width="1.5" d="M214.114487 24.6323697C211.139697 23.4101849 207.736336 24.8310252 206.514151 27.8068235 205.290958 30.7836303 206.712807 34.1859832 209.688605 35.4081681L214.114487 24.6323697zM190.481042 21.2220504L195.460538 23.2670924M196.439899 20.2890756L198.425445 21.1048739"/>
  </g>
</svg>
