<?xml version="1.0" encoding="UTF-8"?>
<svg width="269px" height="120px" viewBox="0 0 269 120" version="1.1" xmlns="http://www.w3.org/2000/svg" xmlns:xlink="http://www.w3.org/1999/xlink">
    <!-- Generator: Sketch 52.2 (67145) - http://www.bohemiancoding.com/sketch -->
    <title>3</title>
    <desc>Created with Sketch.</desc>
    <g id="Desktop" stroke="none" stroke-width="1" fill="none" fill-rule="evenodd">
        <g id="Frontpage" transform="translate(-127.000000, -1929.000000)">
            <rect fill="#FFFFFF" x="0" y="0" width="1440" height="5954"></rect>
            <g id="capability" transform="translate(127.000000, 1929.000000)">
                <g id="Group-94" transform="translate(0.000000, 57.000000)">
                    <polygon id="Fill-1" fill="#FFCFCF" points="86.99 17.212 116.427 17.212 116.427 2.623 86.99 2.623"></polygon>
                    <polygon id="Stroke-2" stroke="#FF7D7D" stroke-width="1.5" points="86.99 17.212 116.427 17.212 116.427 2.623 86.99 2.623"></polygon>
                    <polygon id="Fill-3" fill="#FFCFCF" points="116.427 17.212 145.864 17.212 145.864 2.623 116.427 2.623"></polygon>
                    <polygon id="Stroke-4" stroke="#FF7D7D" stroke-width="1.5" points="116.427 17.212 145.864 17.212 145.864 2.623 116.427 2.623"></polygon>
                    <polygon id="Fill-5" fill="#FFCFCF" points="145.863 17.212 175.299 17.212 175.299 2.623 145.863 2.623"></polygon>
                    <polygon id="Stroke-6" stroke="#FF7D7D" stroke-width="1.5" points="145.863 17.212 175.299 17.212 175.299 2.623 145.863 2.623"></polygon>
                    <polygon id="Fill-7" fill="#FFCFCF" points="57.555 31.802 72.273 31.802 72.273 17.212 57.555 17.212"></polygon>
                    <polygon id="Stroke-8" stroke="#FF7D7D" stroke-width="1.5" points="57.555 31.802 72.273 31.802 72.273 17.212 57.555 17.212"></polygon>
                    <polygon id="Fill-9" fill="#FFCFCF" points="72.272 31.802 101.709 31.802 101.709 17.212 72.272 17.212"></polygon>
                    <polygon id="Stroke-10" stroke="#FF7D7D" stroke-width="1.5" points="72.272 31.802 101.709 31.802 101.709 17.212 72.272 17.212"></polygon>
                    <polygon id="Fill-11" fill="#FFCFCF" points="101.709 31.802 131.145 31.802 131.145 17.212 101.709 17.212"></polygon>
                    <polygon id="Stroke-12" stroke="#FF7D7D" stroke-width="1.5" points="101.709 31.802 131.145 31.802 131.145 17.212 101.709 17.212"></polygon>
                    <polygon id="Fill-13" fill="#FFCFCF" points="131.144 31.802 160.581 31.802 160.581 17.212 131.144 17.212"></polygon>
                    <polygon id="Stroke-14" stroke="#FF7D7D" stroke-width="1.5" points="131.144 31.802 160.581 31.802 160.581 17.212 131.144 17.212"></polygon>
                    <polygon id="Fill-15" fill="#FFCFCF" points="160.581 31.802 190.017 31.802 190.017 17.212 160.581 17.212"></polygon>
                    <polygon id="Stroke-16" stroke="#FF7D7D" stroke-width="1.5" points="160.581 31.802 190.017 31.802 190.017 17.212 160.581 17.212"></polygon>
                    <polygon id="Fill-17" fill="#FFCFCF" points="57.555 60.981 72.273 60.981 72.273 46.391 57.555 46.391"></polygon>
                    <polygon id="Stroke-18" stroke="#FF7D7D" stroke-width="1.5" points="57.555 60.981 72.273 60.981 72.273 46.391 57.555 46.391"></polygon>
                    <polygon id="Fill-20" fill="#FFCFCF" points="72.272 60.981 101.709 60.981 101.709 46.391 72.272 46.391"></polygon>
                    <polygon id="Stroke-21" stroke="#FF7D7D" stroke-width="1.5" points="72.272 60.981 101.709 60.981 101.709 46.391 72.272 46.391"></polygon>
                    <polygon id="Fill-23" fill="#FFCFCF" points="101.709 60.981 131.145 60.981 131.145 46.391 101.709 46.391"></polygon>
                    <polygon id="Stroke-24" stroke="#FF7D7D" stroke-width="1.5" points="101.709 60.981 131.145 60.981 131.145 46.391 101.709 46.391"></polygon>
                    <polygon id="Fill-26" fill="#FFCFCF" points="131.144 60.981 160.581 60.981 160.581 46.391 131.144 46.391"></polygon>
                    <polygon id="Stroke-27" stroke="#FF7D7D" stroke-width="1.5" points="131.144 60.981 160.581 60.981 160.581 46.391 131.144 46.391"></polygon>
                    <polygon id="Fill-29" fill="#FFCFCF" points="160.581 60.981 190.017 60.981 190.017 46.391 160.581 46.391"></polygon>
                    <polygon id="Stroke-30" stroke="#FF7D7D" stroke-width="1.5" points="160.581 60.981 190.017 60.981 190.017 46.391 160.581 46.391"></polygon>
                    <polygon id="Fill-32" fill="#FFCFCF" points="57.555 46.391 86.991 46.391 86.991 31.802 57.555 31.802"></polygon>
                    <polygon id="Stroke-33" stroke="#FF7D7D" stroke-width="1.5" points="57.555 46.391 86.991 46.391 86.991 31.802 57.555 31.802"></polygon>
                    <g id="Group-36" transform="translate(198.000000, 31.016000)">
                        <polyline id="Fill-34" fill="#FFCFCF" points="29.5302 13.6655 29.5302 15.3745 0.0932 15.3745 0.0932 0.7855 13.7412 0.7855"></polyline>
                        <polyline id="Stroke-35" stroke="#FF7D7D" stroke-width="1.5" points="29.5302 13.6655 29.5302 15.3745 0.0932 15.3745 0.0932 0.7855 13.7412 0.7855"></polyline>
                    </g>
                    <polygon id="Fill-37" fill="#FFCFCF" points="211.7831 23.3065 237.9851 23.3065 237.9851 44.6815 224.8841 44.6815 211.4731 31.2705"></polygon>
                    <polygon id="Stroke-38" stroke="#FF7D7D" stroke-width="1.5" points="211.7831 23.3065 237.9851 23.3065 237.9851 44.6815 224.8841 44.6815 211.4731 31.2705"></polygon>
                    <polygon id="Fill-39" fill="#FFCFCF" points="204.735 60.981 234.171 60.981 234.171 46.391 204.735 46.391"></polygon>
                    <polygon id="Stroke-40" stroke="#FF7D7D" stroke-width="1.5" points="204.735 60.981 234.171 60.981 234.171 46.391 204.735 46.391"></polygon>
                    <polygon id="Fill-42" fill="#FFCFCF" points="145.863 46.391 175.299 46.391 175.299 31.802 145.863 31.802"></polygon>
                    <polygon id="Stroke-43" stroke="#FF7D7D" stroke-width="1.5" points="145.863 46.391 175.299 46.391 175.299 31.802 145.863 31.802"></polygon>
                    <polygon id="Fill-44" fill="#FFCFCF" points="175.299 46.391 190.017 46.391 190.017 31.802 175.299 31.802"></polygon>
                    <polygon id="Stroke-45" stroke="#FF7D7D" stroke-width="1.5" points="175.299 46.391 190.017 46.391 190.017 31.802 175.299 31.802"></polygon>
                    <polygon id="Fill-46" fill="#DCFAFF" points="268.1513 55.8661 262.0623 61.9551 248.7623 48.6551 247.7053 41.5091 254.8513 42.5661"></polygon>
                    <g id="Group-93" transform="translate(0.000000, 0.016000)">
                        <polygon id="Stroke-47" stroke="#00C8FF" stroke-width="1.5" points="268.1513 55.8501 262.0623 61.9391 248.7623 48.6391 247.7053 41.4931 254.8513 42.5501"></polygon>
                        <path d="M243.3759,12.0562 C236.4419,5.1232 225.2019,5.1232 218.2689,12.0562 C211.3349,18.9902 211.3349,30.2312 218.2689,37.1632 C225.2019,44.0972 236.4419,44.0972 243.3759,37.1632 C250.3099,30.2312 250.3099,18.9902 243.3759,12.0562 M247.7049,41.4932 C238.3809,50.8172 223.2639,50.8172 213.9389,41.4932 C204.6149,32.1682 204.6149,17.0512 213.9389,7.7272 C223.2639,-1.5968 238.3809,-1.5968 247.7049,7.7272 C257.0289,17.0512 257.0289,32.1682 247.7049,41.4932" id="Fill-49" fill="#DCFAFF"></path>
                        <path d="M243.3759,12.0562 C236.4419,5.1232 225.2019,5.1232 218.2689,12.0562 C211.3349,18.9902 211.3349,30.2312 218.2689,37.1632 C225.2019,44.0972 236.4419,44.0972 243.3759,37.1632 C250.3099,30.2312 250.3099,18.9902 243.3759,12.0562 Z M247.7049,41.4932 C238.3809,50.8172 223.2639,50.8172 213.9389,41.4932 C204.6149,32.1682 204.6149,17.0512 213.9389,7.7272 C223.2639,-1.5968 238.3809,-1.5968 247.7049,7.7272 C257.0289,17.0512 257.0289,32.1682 247.7049,41.4932 Z" id="Stroke-51" stroke="#00C8FF" stroke-width="1.5"></path>
                        <polygon id="Fill-53" fill="#DCFAFF" points="0.0605 47.4292 11.0015 58.3702 55.8255 13.5472 44.8835 2.6072"></polygon>
                        <polygon id="Stroke-55" stroke="#00C8FF" stroke-width="1.5" points="0.0605 47.4292 11.0015 58.3702 55.8255 13.5472 44.8835 2.6072"></polygon>
                        <g id="Group-60" transform="translate(44.000000, 14.000000)">
                            <path d="M5.5985,5.7739 L0.1275,0.3029" id="Fill-57" fill="#DCFAFF"></path>
                            <path d="M5.5985,5.7739 L0.1275,0.3029" id="Stroke-59" stroke="#00C8FF" stroke-width="1.5"></path>
                        </g>
                        <g id="Group-64" transform="translate(41.000000, 19.000000)">
                            <path d="M4.5526,4.8198 L0.5926,0.8608" id="Fill-61" fill="#DCFAFF"></path>
                            <path d="M4.5526,4.8198 L0.5926,0.8608" id="Stroke-63" stroke="#00C8FF" stroke-width="1.5"></path>
                        </g>
                        <g id="Group-68" transform="translate(36.000000, 22.000000)">
                            <path d="M5.5058,5.8667 L0.0348,0.3957" id="Fill-65" fill="#DCFAFF"></path>
                            <path d="M5.5058,5.8667 L0.0348,0.3957" id="Stroke-67" stroke="#00C8FF" stroke-width="1.5"></path>
                        </g>
                        <g id="Group-72" transform="translate(33.000000, 27.000000)">
                            <path d="M4.4599,4.9126 L0.4999,0.9536" id="Fill-69" fill="#DCFAFF"></path>
                            <path d="M4.4599,4.9126 L0.4999,0.9536" id="Stroke-71" stroke="#00C8FF" stroke-width="1.5"></path>
                        </g>
                        <g id="Group-76" transform="translate(27.000000, 30.000000)">
                            <path d="M6.413,5.9595 L0.942,0.4885" id="Fill-73" fill="#DCFAFF"></path>
                            <path d="M6.413,5.9595 L0.942,0.4885" id="Stroke-75" stroke="#00C8FF" stroke-width="1.5"></path>
                        </g>
                        <g id="Group-80" transform="translate(25.000000, 36.000000)">
                            <path d="M4.3671,4.0054 L0.4071,0.0454" id="Fill-77" fill="#DCFAFF"></path>
                            <path d="M4.3671,4.0054 L0.4071,0.0454" id="Stroke-79" stroke="#00C8FF" stroke-width="1.5"></path>
                        </g>
                        <g id="Group-84" transform="translate(19.000000, 38.000000)">
                            <path d="M6.3202,6.0523 L0.8502,0.5813" id="Fill-81" fill="#DCFAFF"></path>
                            <path d="M6.3202,6.0523 L0.8502,0.5813" id="Stroke-83" stroke="#00C8FF" stroke-width="1.5"></path>
                        </g>
                        <g id="Group-88" transform="translate(17.000000, 44.000000)">
                            <path d="M4.2743,4.0982 L0.3143,0.1382" id="Fill-85" fill="#DCFAFF"></path>
                            <path d="M4.2743,4.0982 L0.3143,0.1382" id="Stroke-87" stroke="#00C8FF" stroke-width="1.5"></path>
                        </g>
                        <g id="Group-92" transform="translate(11.000000, 46.000000)">
                            <path d="M6.2274,6.1441 L0.7574,0.6741" id="Fill-89" fill="#DCFAFF"></path>
                            <path d="M6.2274,6.1441 L0.7574,0.6741" id="Stroke-91" stroke="#00C8FF" stroke-width="1.5"></path>
                        </g>
                    </g>
                </g>
                <rect id="Rectangle" fill-rule="nonzero" x="0" y="0" width="269" height="120"></rect>
            </g>
        </g>
    </g>
</svg>