<?xml version="1.0" encoding="UTF-8"?>
<svg width="250px" height="120px" viewBox="0 0 250 120" version="1.1" xmlns="http://www.w3.org/2000/svg" xmlns:xlink="http://www.w3.org/1999/xlink">
    <!-- Generator: Sketch 52.2 (67145) - http://www.bohemiancoding.com/sketch -->
    <title>4</title>
    <desc>Created with Sketch.</desc>
    <g id="Desktop" stroke="none" stroke-width="1" fill="none" fill-rule="evenodd">
        <g id="Frontpage" transform="translate(-760.000000, -1929.000000)">
            <rect fill="#FFFFFF" x="0" y="0" width="1440" height="5954"></rect>
            <g id="affect" transform="translate(760.000000, 1929.000000)">
                <g id="Group-71" transform="translate(0.000000, 53.000000)">
                    <path d="M80.0644,10.9187 L57.6394,2.5677 L35.2144,10.9187 L35.2144,41.6347 C35.2144,54.0197 45.2544,64.0597 57.6394,64.0597 C70.0244,64.0597 80.0644,54.0197 80.0644,41.6347 L80.0644,10.9187 Z" id="Fill-1" fill="#DCFAFF"></path>
                    <path d="M80.0644,10.9187 L57.6394,2.5677 L35.2144,10.9187 L35.2144,41.6347 C35.2144,54.0197 45.2544,64.0597 57.6394,64.0597 C70.0244,64.0597 80.0644,54.0197 80.0644,41.6347 L80.0644,10.9187 Z" id="Stroke-3" stroke="#00C8FF" stroke-width="1.5"></path>
                    <path d="M30.1903,48.9284 C29.4043,46.6424 28.9773,44.1884 28.9773,41.6344 L28.9773,10.9184 L42.2443,8.3004 L51.3943,15.0884 L56.0603,28.1834 L53.7303,38.9214 L43.7273,46.9214 L30.1903,48.9284 Z" id="Fill-5" fill="#FFCFCF"></path>
                    <path d="M30.1903,48.9284 C29.4043,46.6424 28.9773,44.1884 28.9773,41.6344 L28.9773,10.9184 L42.2443,8.3004 L51.3943,15.0884 L56.0603,28.1834 L53.7303,38.9214 L43.7273,46.9214 L30.1903,48.9284 Z" id="Stroke-7" stroke="#FF7D7D" stroke-width="1.5"></path>
                    <path d="M58.2626,29.6208 C58.2626,23.3998 53.2196,18.3568 46.9976,18.3568 C40.7776,18.3568 35.7346,23.3998 35.7346,29.6208 C35.7346,33.3408 39.1206,35.6558 42.2276,36.9168 C42.1446,37.1618 42.0896,37.4198 42.0896,37.6918 C42.0896,39.0358 43.1796,40.1258 44.5236,40.1258 C44.9686,40.1258 45.3806,39.9968 45.7406,39.7878 C46.0996,39.9968 46.5106,40.1258 46.9566,40.1258 C47.4026,40.1258 47.8146,39.9968 48.1736,39.7878 C48.5336,39.9968 48.9446,40.1258 49.3906,40.1258 C50.7346,40.1258 51.8246,39.0358 51.8246,37.6918 C51.8246,37.4308 51.7716,37.1828 51.6956,36.9458 C54.8216,35.6918 58.2626,33.3698 58.2626,29.6208" id="Fill-9" fill="#FFCFCF"></path>
                    <path d="M58.2626,29.6208 C58.2626,23.3998 53.2196,18.3568 46.9976,18.3568 C40.7776,18.3568 35.7346,23.3998 35.7346,29.6208 C35.7346,33.3408 39.1206,35.6558 42.2276,36.9168 C42.1446,37.1618 42.0896,37.4198 42.0896,37.6918 C42.0896,39.0358 43.1796,40.1258 44.5236,40.1258 C44.9686,40.1258 45.3806,39.9968 45.7406,39.7878 C46.0996,39.9968 46.5106,40.1258 46.9566,40.1258 C47.4026,40.1258 47.8146,39.9968 48.1736,39.7878 C48.5336,39.9968 48.9446,40.1258 49.3906,40.1258 C50.7346,40.1258 51.8246,39.0358 51.8246,37.6918 C51.8246,37.4308 51.7716,37.1828 51.6956,36.9458 C54.8216,35.6918 58.2626,33.3698 58.2626,29.6208 Z" id="Stroke-11" stroke="#FF7D7D" stroke-width="1.5"></path>
                    <g id="Group-16" transform="translate(40.000000, 25.739300)">
                        <polyline id="Fill-13" fill="#FFCFCF" points="4.6776 3.5016 2.5756 0.5216 0.4756 3.5016"></polyline>
                        <polyline id="Stroke-15" stroke="#FF7D7D" stroke-width="1.5" points="4.6776 3.5016 2.5756 0.5216 0.4756 3.5016"></polyline>
                    </g>
                    <g id="Group-20" transform="translate(49.000000, 25.739300)">
                        <polyline id="Fill-17" fill="#FFCFCF" points="4.5204 3.5016 2.4194 0.5216 0.3194 3.5016"></polyline>
                        <polyline id="Stroke-19" stroke="#FF7D7D" stroke-width="1.5" points="4.5204 3.5016 2.4194 0.5216 0.3194 3.5016"></polyline>
                    </g>
                    <polyline id="Stroke-21" stroke="#00C8FF" stroke-width="1.5" points="106.6327 13.2527 113.1127 13.2527 113.1127 19.6167"></polyline>
                    <polyline id="Stroke-23" stroke="#00C8FF" stroke-width="1.5" points="233.994 53.3581 227.514 53.3581 227.514 46.9951"></polyline>
                    <path d="M211.9374,8.9196 L127.1664,8.9196 C113.3854,8.9196 102.2154,20.0906 102.2154,33.8696 C102.2154,47.6486 113.3854,58.8196 127.1664,58.8196 L211.9374,58.8196 C225.7174,58.8196 236.8874,47.6486 236.8874,33.8696 C236.8874,20.0906 225.7174,8.9196 211.9374,8.9196 Z" id="Stroke-25" stroke="#00C8FF" stroke-width="1.5"></path>
                    <path d="M110.3847,33.8698 C110.3847,29.3578 106.7277,25.6998 102.2157,25.6998 C97.7037,25.6998 94.0457,29.3578 94.0457,33.8698 C94.0457,38.3818 97.7037,42.0388 102.2157,42.0388 C106.7277,42.0388 110.3847,38.3818 110.3847,33.8698" id="Fill-27" fill="#DCFAFF"></path>
                    <path d="M110.3847,33.8698 C110.3847,29.3578 106.7277,25.6998 102.2157,25.6998 C97.7037,25.6998 94.0457,29.3578 94.0457,33.8698 C94.0457,38.3818 97.7037,42.0388 102.2157,42.0388 C106.7277,42.0388 110.3847,38.3818 110.3847,33.8698 Z" id="Stroke-29" stroke="#00C8FF" stroke-width="1.5"></path>
                    <path d="M211.9335,58.82 C211.9335,54.307 208.2765,50.65 203.7645,50.65 C199.2525,50.65 195.5945,54.307 195.5945,58.82 C195.5945,63.332 199.2525,66.989 203.7645,66.989 C208.2765,66.989 211.9335,63.332 211.9335,58.82" id="Fill-31" fill="#DCFAFF"></path>
                    <path d="M211.9335,58.82 C211.9335,54.307 208.2765,50.65 203.7645,50.65 C199.2525,50.65 195.5945,54.307 195.5945,58.82 C195.5945,63.332 199.2525,66.989 203.7645,66.989 C208.2765,66.989 211.9335,63.332 211.9335,58.82 Z" id="Stroke-33" stroke="#00C8FF" stroke-width="1.5"></path>
                    <path d="M177.7216,58.82 C177.7216,54.307 174.0636,50.65 169.5516,50.65 C165.0396,50.65 161.3816,54.307 161.3816,58.82 C161.3816,63.332 165.0396,66.989 169.5516,66.989 C174.0636,66.989 177.7216,63.332 177.7216,58.82" id="Fill-35" fill="#DCFAFF"></path>
                    <path d="M177.7216,58.82 C177.7216,54.307 174.0636,50.65 169.5516,50.65 C165.0396,50.65 161.3816,54.307 161.3816,58.82 C161.3816,63.332 165.0396,66.989 169.5516,66.989 C174.0636,66.989 177.7216,63.332 177.7216,58.82 Z" id="Stroke-37" stroke="#00C8FF" stroke-width="1.5"></path>
                    <path d="M198.3895,8.9196 C198.3895,4.4076 194.7315,0.7496 190.2195,0.7496 C185.7075,0.7496 182.0505,4.4076 182.0505,8.9196 C182.0505,13.4316 185.7075,17.0896 190.2195,17.0896 C194.7315,17.0896 198.3895,13.4316 198.3895,8.9196" id="Fill-39" fill="#DCFAFF"></path>
                    <path d="M198.3895,8.9196 C198.3895,4.4076 194.7315,0.7496 190.2195,0.7496 C185.7075,0.7496 182.0505,4.4076 182.0505,8.9196 C182.0505,13.4316 185.7075,17.0896 190.2195,17.0896 C194.7315,17.0896 198.3895,13.4316 198.3895,8.9196 Z" id="Stroke-41" stroke="#00C8FF" stroke-width="1.5"></path>
                    <path d="M157.0536,8.9196 C157.0536,4.4076 153.3956,0.7496 148.8836,0.7496 C144.3716,0.7496 140.7136,4.4076 140.7136,8.9196 C140.7136,13.4316 144.3716,17.0896 148.8836,17.0896 C153.3956,17.0896 157.0536,13.4316 157.0536,8.9196" id="Fill-43" fill="#DCFAFF"></path>
                    <path d="M157.0536,8.9196 C157.0536,4.4076 153.3956,0.7496 148.8836,0.7496 C144.3716,0.7496 140.7136,4.4076 140.7136,8.9196 C140.7136,13.4316 144.3716,17.0896 148.8836,17.0896 C153.3956,17.0896 157.0536,13.4316 157.0536,8.9196 Z" id="Stroke-45" stroke="#00C8FF" stroke-width="1.5"></path>
                    <path d="M245.0575,33.3142 C245.0575,28.8022 241.4005,25.1442 236.8875,25.1442 C232.3755,25.1442 228.7185,28.8022 228.7185,33.3142 C228.7185,37.8262 232.3755,41.4832 236.8875,41.4832 C241.4005,41.4832 245.0575,37.8262 245.0575,33.3142" id="Fill-47" fill="#DCFAFF"></path>
                    <path d="M245.0575,33.3142 C245.0575,28.8022 241.4005,25.1442 236.8875,25.1442 C232.3755,25.1442 228.7185,28.8022 228.7185,33.3142 C228.7185,37.8262 232.3755,41.4832 236.8875,41.4832 C241.4005,41.4832 245.0575,37.8262 245.0575,33.3142 Z" id="Stroke-49" stroke="#00C8FF" stroke-width="1.5"></path>
                    <path d="M181.7968,30.7595 C181.7968,23.9965 176.3148,18.5145 169.5518,18.5145 C162.7888,18.5145 157.3068,23.9965 157.3068,30.7595 C157.3068,37.5225 162.7888,43.0035 169.5518,43.0035 C176.3148,43.0035 181.7968,37.5225 181.7968,30.7595" id="Fill-51" fill="#CAFFF5"></path>
                    <path d="M181.7968,30.7595 C181.7968,23.9965 176.3148,18.5145 169.5518,18.5145 C162.7888,18.5145 157.3068,23.9965 157.3068,30.7595 C157.3068,37.5225 162.7888,43.0035 169.5518,43.0035 C176.3148,43.0035 181.7968,37.5225 181.7968,30.7595 Z" id="Stroke-53" stroke="#5DD8C1" stroke-width="1.5"></path>
                    <g id="Group-58" transform="translate(164.000000, 26.739300)">
                        <polyline id="Fill-55" fill="#CAFFF5" points="0.7518 3.5055 4.2538 7.0075 10.3518 0.9095"></polyline>
                        <polyline id="Stroke-57" stroke="#5DD8C1" stroke-width="1.5" points="0.7518 3.5055 4.2538 7.0075 10.3518 0.9095"></polyline>
                    </g>
                    <polygon id="Fill-59" fill="#DCFAFF" points="0.0604 58.6218 5.9934 64.5548 18.9524 51.5958 19.9824 44.6328 13.0194 45.6628"></polygon>
                    <polygon id="Stroke-61" stroke="#00C8FF" stroke-width="1.5" points="0.0604 58.6218 5.9934 64.5548 18.9524 51.5958 19.9824 44.6328 13.0194 45.6628"></polygon>
                    <path d="M24.2001,40.4148 C30.9561,47.1698 41.9081,47.1698 48.6641,40.4148 C55.4191,33.6588 55.4191,22.7068 48.6641,15.9518 C41.9081,9.1958 30.9561,9.1958 24.2001,15.9518 C17.4451,22.7068 17.4451,33.6588 24.2001,40.4148 M19.9821,11.7328 C29.0671,2.6478 43.7971,2.6478 52.8821,11.7328 C61.9671,20.8178 61.9671,35.5478 52.8821,44.6328 C43.7971,53.7178 29.0671,53.7178 19.9821,44.6328 C10.8971,35.5478 10.8971,20.8178 19.9821,11.7328" id="Fill-63" fill="#DCFAFF"></path>
                    <path d="M24.2001,40.4148 C30.9561,47.1698 41.9081,47.1698 48.6641,40.4148 C55.4191,33.6588 55.4191,22.7068 48.6641,15.9518 C41.9081,9.1958 30.9561,9.1958 24.2001,15.9518 C17.4451,22.7068 17.4451,33.6588 24.2001,40.4148 Z M19.9821,11.7328 C29.0671,2.6478 43.7971,2.6478 52.8821,11.7328 C61.9671,20.8178 61.9671,35.5478 52.8821,44.6328 C43.7971,53.7178 29.0671,53.7178 19.9821,44.6328 C10.8971,35.5478 10.8971,20.8178 19.9821,11.7328 Z" id="Stroke-65" stroke="#00C8FF" stroke-width="1.5"></path>
                    <path d="M143.5087,58.82 C143.5087,54.307 139.8507,50.65 135.3387,50.65 C130.8267,50.65 127.1697,54.307 127.1697,58.82 C127.1697,63.332 130.8267,66.989 135.3387,66.989 C139.8507,66.989 143.5087,63.332 143.5087,58.82" id="Fill-67" fill="#DCFAFF"></path>
                    <path d="M143.5087,58.82 C143.5087,54.307 139.8507,50.65 135.3387,50.65 C130.8267,50.65 127.1697,54.307 127.1697,58.82 C127.1697,63.332 130.8267,66.989 135.3387,66.989 C139.8507,66.989 143.5087,63.332 143.5087,58.82 Z" id="Stroke-69" stroke="#00C8FF" stroke-width="1.5"></path>
                </g>
                <rect id="Rectangle" fill-rule="nonzero" x="0" y="0" width="250" height="120"></rect>
            </g>
        </g>
    </g>
</svg>