<?xml version="1.0" encoding="UTF-8"?>
<svg width="344px" height="120px" viewBox="0 0 344 120" version="1.1" xmlns="http://www.w3.org/2000/svg" xmlns:xlink="http://www.w3.org/1999/xlink">
    <!-- Generator: Sketch 52.2 (67145) - http://www.bohemiancoding.com/sketch -->
    <title>5</title>
    <desc>Created with Sketch.</desc>
    <g id="Desktop" stroke="none" stroke-width="1" fill="none" fill-rule="evenodd">
        <g id="Frontpage" transform="translate(-127.000000, -2866.000000)">
            <rect fill="#FFFFFF" x="0" y="0" width="1440" height="5954"></rect>
            <g id="defensecell" transform="translate(127.000000, 2866.000000)">
                <g id="Group-35" transform="translate(0.000000, 28.000000)">
                    <polyline id="Stroke-1" stroke="#FF7D7D" stroke-width="1.5" stroke-linecap="square" points="72.6826667 44.3370667 78.792 50.4477333 72.792 56.4477333"></polyline>
                    <g id="Group-34" transform="translate(0.000000, 0.508133)">
                        <path d="M24.0849333,53.7 C22.9196,53.7 21.9742667,51.66 21.9742667,49.144 C21.9742667,46.628 22.9196,44.588 24.0849333,44.588 C25.2516,44.588 26.1969333,46.628 26.1969333,49.144 C26.1969333,51.66 25.2516,53.7 24.0849333,53.7 M10.2329333,53.7 C9.06626667,53.7 8.12226667,51.66 8.12226667,49.144 C8.12226667,46.628 9.06626667,44.588 10.2329333,44.588 C11.3982667,44.588 12.3436,46.628 12.3436,49.144 C12.3436,51.66 11.3982667,53.7 10.2329333,53.7 M33.1702667,50.4266667 C33.1702667,41.5426667 25.9689333,34.34 17.0849333,34.34 C8.20226667,34.34 1.00093333,41.5426667 1.00093333,50.4266667 C1.00093333,55.7386667 5.8356,59.0453333 10.2729333,60.8453333 C10.1556,61.1946667 10.0756,61.5626667 10.0756,61.952 C10.0756,63.872 11.6316,65.428 13.5516,65.428 C14.1876,65.428 14.7769333,65.244 15.2889333,64.9466667 C15.8022667,65.244 16.3902667,65.428 17.0262667,65.428 C17.6636,65.428 18.2516,65.244 18.7649333,64.9466667 C19.2769333,65.244 19.8649333,65.428 20.5009333,65.428 C22.4209333,65.428 23.9769333,63.872 23.9769333,61.952 C23.9769333,61.5786667 23.9022667,61.2253333 23.7929333,60.888 C28.2582667,59.096 33.1702667,55.7813333 33.1702667,50.4266667" id="Fill-2" fill="#FFCFCF"></path>
                        <path d="M24.0849333,53.7 C22.9196,53.7 21.9742667,51.66 21.9742667,49.144 C21.9742667,46.628 22.9196,44.588 24.0849333,44.588 C25.2516,44.588 26.1969333,46.628 26.1969333,49.144 C26.1969333,51.66 25.2516,53.7 24.0849333,53.7 Z M10.2329333,53.7 C9.06626667,53.7 8.12226667,51.66 8.12226667,49.144 C8.12226667,46.628 9.06626667,44.588 10.2329333,44.588 C11.3982667,44.588 12.3436,46.628 12.3436,49.144 C12.3436,51.66 11.3982667,53.7 10.2329333,53.7 Z M33.1702667,50.4266667 C33.1702667,41.5426667 25.9689333,34.34 17.0849333,34.34 C8.20226667,34.34 1.00093333,41.5426667 1.00093333,50.4266667 C1.00093333,55.7386667 5.8356,59.0453333 10.2729333,60.8453333 C10.1556,61.1946667 10.0756,61.5626667 10.0756,61.952 C10.0756,63.872 11.6316,65.428 13.5516,65.428 C14.1876,65.428 14.7769333,65.244 15.2889333,64.9466667 C15.8022667,65.244 16.3902667,65.428 17.0262667,65.428 C17.6636,65.428 18.2516,65.244 18.7649333,64.9466667 C19.2769333,65.244 19.8649333,65.428 20.5009333,65.428 C22.4209333,65.428 23.9769333,63.872 23.9769333,61.952 C23.9769333,61.5786667 23.9022667,61.2253333 23.7929333,60.888 C28.2582667,59.096 33.1702667,55.7813333 33.1702667,50.4266667 Z" id="Stroke-4" stroke="#FF7D7D" stroke-width="1.5"></path>
                        <path d="M23.6162667,40.7456 L20.4496,43.9122667" id="Stroke-6" stroke="#FF7D7D" stroke-width="1.5"></path>
                        <path d="M13.7217333,43.9122667 L10.5550667,40.7456" id="Stroke-8" stroke="#FF7D7D" stroke-width="1.5"></path>
                        <path d="M317.206133,32.4914182 C301.034133,77.7944 263.839467,64.9010667 263.839467,43.1997333 C263.839467,25.7570667 282.598133,31.1330667 271.1168,48.4664 C245.210133,87.5744 213.1128,59.6210667 206.539467,54.7997333 C196.539467,47.4664 190.683467,48.4664 190.683467,48.4664" id="Stroke-10" stroke="#00C8FF" stroke-width="1.5"></path>
                        <polygon id="Fill-12" fill="#DCFAFF" points="318.147467 27.5281333 304.2528 25.0094667 343.2448 0.336133333"></polygon>
                        <polygon id="Stroke-14" stroke="#00C8FF" stroke-width="1.5" stroke-linejoin="bevel" points="318.147467 27.5281333 304.2528 25.0094667 343.2448 0.336133333"></polygon>
                        <polygon id="Fill-16" fill="#DCFAFF" points="343.2452 0.3368 318.147867 27.5288 331.826533 40.1528"></polygon>
                        <polygon id="Stroke-18" stroke="#00C8FF" stroke-width="1.5" stroke-linejoin="bevel" points="343.2452 0.3368 318.147867 27.5288 331.826533 40.1528"></polygon>
                        <polyline id="Stroke-20" stroke="#00C8FF" stroke-width="1.5" points="234.640933 62.7144 239.984933 68.9784 234.8116 74.3290667"></polyline>
                        <path d="M108.285467,49.9396 L43.1894667,49.9396" id="Stroke-22" stroke="#FF7D7D" stroke-width="1.5" stroke-linecap="square"></path>
                        <path d="M190.684,48.4669333 C190.684,25.7136 172.238667,7.26826667 149.485333,7.26826667 C126.730667,7.26826667 108.285333,25.7136 108.285333,48.4669333 C108.285333,71.2202667 126.730667,89.6656 149.485333,89.6656 C172.238667,89.6656 190.684,71.2202667 190.684,48.4669333" id="Fill-24" fill="#DCFAFF"></path>
                        <path d="M190.684,48.4669333 C190.684,25.7136 172.238667,7.26826667 149.485333,7.26826667 C126.730667,7.26826667 108.285333,25.7136 108.285333,48.4669333 C108.285333,71.2202667 126.730667,89.6656 149.485333,89.6656 C172.238667,89.6656 190.684,71.2202667 190.684,48.4669333 Z" id="Stroke-26" stroke="#00C8FF" stroke-width="1.5"></path>
                        <path d="M144.079733,37.7885333 L144.079733,59.1472" id="Stroke-28" stroke="#00C8FF" stroke-width="1.5"></path>
                        <path d="M155.0004,37.7885333 L155.0004,59.1472" id="Stroke-30" stroke="#00C8FF" stroke-width="1.5"></path>
                        <path d="M155.0004,48.4669333 L144.0804,48.4669333" id="Stroke-32" stroke="#00C8FF" stroke-width="1.5"></path>
                    </g>
                </g>
                <rect id="Rectangle" fill-rule="nonzero" x="0" y="0" width="344" height="120"></rect>
            </g>
        </g>
    </g>
</svg>