<svg xmlns="http://www.w3.org/2000/svg" width="271" height="91" viewBox="0 0 271 91">
  <g fill="none" fill-rule="evenodd" transform="translate(-2 -29)">
    <g transform="translate(2 28)">
      <polyline stroke="#00C8FF" stroke-width="1.5" points="179.249 41.873 183.831 46.456 179.331 50.956"/>
      <polyline stroke="#00C8FF" stroke-width="1.5" points="190.249 11.31 194.831 15.892 190.331 20.392"/>
      <polyline stroke="#00C8FF" stroke-width="1.5" points="66.728 42.936 71.311 47.518 66.811 52.018"/>
      <polyline stroke="#00C8FF" stroke-width="1.5" points="57.82 52.018 53.238 47.436 57.738 42.936"/>
      <path stroke="#00C8FF" stroke-width="1.5" d="M84.678,47.518 L35.857,47.518"/>
      <g transform="translate(0 .832)">
        <path fill="#DCFAFF" d="M146.4769,45.5824 C146.4769,28.5174 132.6429,14.6834 115.5779,14.6834 C98.5119,14.6834 84.6779,28.5174 84.6779,45.5824 C84.6779,62.6474 98.5119,76.4814 115.5779,76.4814 C132.6429,76.4814 146.4769,62.6474 146.4769,45.5824"/>
        <path stroke="#00C8FF" stroke-width="1.5" d="M146.4769,45.5824 C146.4769,28.5174 132.6429,14.6834 115.5779,14.6834 C98.5119,14.6834 84.6779,28.5174 84.6779,45.5824 C84.6779,62.6474 98.5119,76.4814 115.5779,76.4814 C132.6429,76.4814 146.4769,62.6474 146.4769,45.5824 Z"/>
        <g transform="translate(146 45)">
          <path fill="#DCFAFF" d="M0.4769,0.5824 L70.6039,0.5824"/>
          <path stroke="#00C8FF" stroke-width="1.5" d="M0.4769,0.5824 L70.6039,0.5824"/>
        </g>
        <path fill="#FCFBC8" d="M244.888,45.5824 C244.888,37.7714 238.556,31.4394 230.745,31.4394 C222.935,31.4394 216.604,37.7714 216.604,45.5824 C216.604,53.3934 222.935,59.7254 230.745,59.7254 C238.556,59.7254 244.888,53.3934 244.888,45.5824"/>
        <path stroke="#D6CE72" stroke-width="1.5" d="M244.888,45.5824 C244.888,37.7714 238.556,31.4394 230.745,31.4394 C222.935,31.4394 216.604,37.7714 216.604,45.5824 C216.604,53.3934 222.935,59.7254 230.745,59.7254 C238.556,59.7254 244.888,53.3934 244.888,45.5824 Z"/>
        <g transform="translate(227 36)">
          <polyline fill="#FCFBC8" points=".917 18.957 6.983 9.582 3.745 9.582 .508 9.582 6.574 .207"/>
          <polyline stroke="#D6CE72" stroke-width="1.5" points=".917 18.957 6.983 9.582 3.745 9.582 .508 9.582 6.574 .207"/>
        </g>
        <path stroke="#00C8FF" stroke-width="1.5" d="M143.4778,32.2914 C154.5108,21.2584 169.4748,15.0604 185.0778,15.0604 L241.6038,15.0604"/>
        <polyline stroke="#00C8FF" stroke-width="1.5" points="190.249 80.69 194.831 76.108 190.331 71.608"/>
        <path stroke="#00C8FF" stroke-width="1.5" d="M143.4778,58.8763 C154.5108,69.9093 169.4748,76.1073 185.0778,76.1073 L241.6038,76.1073"/>
        <path fill="#FFCFCF" d="M269.888,15.0599 C269.888,7.2489 263.556,0.9179 255.745,0.9179 C247.935,0.9179 241.604,7.2489 241.604,15.0599 C241.604,22.8709 247.935,29.2029 255.745,29.2029 C263.556,29.2029 269.888,22.8709 269.888,15.0599"/>
        <path stroke="#FF7D7D" stroke-width="1.5" d="M269.888,15.0599 C269.888,7.2489 263.556,0.9179 255.745,0.9179 C247.935,0.9179 241.604,7.2489 241.604,15.0599 C241.604,22.8709 247.935,29.2029 255.745,29.2029 C263.556,29.2029 269.888,22.8709 269.888,15.0599 Z"/>
        <path fill="#A5D9F9" d="M269.888,76.1078 C269.888,83.9188 263.556,90.2508 255.745,90.2508 C247.935,90.2508 241.604,83.9188 241.604,76.1078 C241.604,68.2968 247.935,61.9658 255.745,61.9658 C263.556,61.9658 269.888,68.2968 269.888,76.1078"/>
        <path stroke="#45A9F4" stroke-width="1.5" d="M269.888,76.1078 C269.888,83.9188 263.556,90.2508 255.745,90.2508 C247.935,90.2508 241.604,83.9188 241.604,76.1078 C241.604,68.2968 247.935,61.9658 255.745,61.9658 C263.556,61.9658 269.888,68.2968 269.888,76.1078 Z"/>
        <path fill="#A5D9F9" d="M262.845,69.0589 L255.745,66.4149 L248.647,69.0589 L248.647,78.7839 C248.647,82.7039 251.824,85.8819 255.745,85.8819 C259.666,85.8819 262.845,82.7039 262.845,78.7839 L262.845,69.0589 Z"/>
        <path stroke="#45A9F4" stroke-width="1.5" d="M262.845,69.0589 L255.745,66.4149 L248.647,69.0589 L248.647,78.7839 C248.647,82.7039 251.824,85.8819 255.745,85.8819 C259.666,85.8819 262.845,82.7039 262.845,78.7839 L262.845,69.0589 Z"/>
        <polygon fill="#A5D9F9" points="255.745 71.944 256.689 74.85 259.745 74.85 257.273 76.646 258.217 79.551 255.745 77.756 253.273 79.551 254.218 76.646 251.746 74.85 254.801 74.85"/>
        <polygon stroke="#45A9F4" stroke-width="1.5" points="255.745 71.944 256.689 74.85 259.745 74.85 257.273 76.646 258.217 79.551 255.745 77.756 253.273 79.551 254.218 76.646 251.746 74.85 254.801 74.85"/>
        <path fill="#FFCFCF" d="M257.1409,10.1009 L255.7449,11.4959 L254.3509,10.1009 C252.8599,8.6089 250.4409,8.6089 248.9499,10.1009 C247.4579,11.5919 247.4579,14.0099 248.9499,15.5009 L250.3439,16.8969 L255.7449,22.2969 L261.1469,16.8969 L262.5409,15.5009 C264.0339,14.0099 264.0339,11.5919 262.5409,10.1009 C261.0499,8.6089 258.6319,8.6089 257.1409,10.1009"/>
        <path stroke="#FF7D7D" stroke-width="1.5" d="M257.1409,10.1009 L255.7449,11.4959 L254.3509,10.1009 C252.8599,8.6089 250.4409,8.6089 248.9499,10.1009 C247.4579,11.5919 247.4579,14.0099 248.9499,15.5009 L250.3439,16.8969 L255.7449,22.2969 L261.1469,16.8969 L262.5409,15.5009 C264.0339,14.0099 264.0339,11.5919 262.5409,10.1009 C261.0499,8.6089 258.6319,8.6089 257.1409,10.1009 Z"/>
        <path fill="#DCFAFF" d="M40.6829,45.5824 C40.6829,34.5554 31.7439,25.6164 20.7159,25.6164 C9.6889,25.6164 0.7499,34.5554 0.7499,45.5824 C0.7499,56.6094 9.6889,65.5484 20.7159,65.5484 C31.7439,65.5484 40.6829,56.6094 40.6829,45.5824"/>
        <path stroke="#00C8FF" stroke-width="1.5" d="M40.6829 45.5824C40.6829 34.5554 31.7439 25.6164 20.7159 25.6164 9.6889 25.6164.7499 34.5554.7499 45.5824.7499 56.6094 9.6889 65.5484 20.7159 65.5484 31.7439 65.5484 40.6829 56.6094 40.6829 45.5824zM111.4827 37.5736L111.4827 53.5926M119.6732 37.5736L119.6732 53.5926M119.6732 45.5824L111.4832 45.5824M18.2493 40.7572L18.2493 50.4072M23.1829 40.7572L23.1829 50.4072"/>
        <path stroke="#00C8FF" stroke-linejoin="bevel" stroke-width="1.5" d="M23.1829,50.4076 L18.2489,40.7576"/>
      </g>
    </g>
    <rect width="274" height="120"/>
  </g>
</svg>
