<?xml version="1.0" encoding="UTF-8"?>
<svg width="274px" height="120px" viewBox="0 0 274 120" version="1.1" xmlns="http://www.w3.org/2000/svg" xmlns:xlink="http://www.w3.org/1999/xlink">
    <!-- Generator: Sketch 52.2 (67145) - http://www.bohemiancoding.com/sketch -->
    <title>6</title>
    <desc>Created with Sketch.</desc>
    <g id="Desktop" stroke="none" stroke-width="1" fill="none" fill-rule="evenodd">
        <g id="Frontpage" transform="translate(-760.000000, -2866.000000)">
            <rect fill="#FFFFFF" x="0" y="0" width="1440" height="5954"></rect>
            <g id="defense" transform="translate(760.000000, 2866.000000)">
                <g id="Group-64" transform="translate(1.000000, 28.000000)">
                    <polyline id="Stroke-1" stroke="#00C8FF" stroke-width="1.5" points="180.4828 41.8731 185.0648 46.4551 180.5648 50.9551"></polyline>
                    <polyline id="Stroke-2" stroke="#00C8FF" stroke-width="1.5" points="191.4828 11.3097 196.0648 15.8917 191.5648 20.3917"></polyline>
                    <polyline id="Stroke-3" stroke="#00C8FF" stroke-width="1.5" points="84.6684 42.9356 89.2514 47.5186 84.7514 52.0186"></polyline>
                    <path d="M111.3705,47.5187 L62.5495,47.5187" id="Stroke-4" stroke="#00C8FF" stroke-width="1.5"></path>
                    <g id="Group-63" transform="translate(0.000000, 0.832100)">
                        <path d="M62.5492,45.5821 C62.5492,28.5171 48.7142,14.6831 31.6502,14.6831 C14.5842,14.6831 0.7502,28.5171 0.7502,45.5821 C0.7502,62.6471 14.5842,76.4811 31.6502,76.4811 C48.7142,76.4811 62.5492,62.6471 62.5492,45.5821" id="Fill-5" fill="#DCFAFF"></path>
                        <path d="M62.5492,45.5821 C62.5492,28.5171 48.7142,14.6831 31.6502,14.6831 C14.5842,14.6831 0.7502,28.5171 0.7502,45.5821 C0.7502,62.6471 14.5842,76.4811 31.6502,76.4811 C48.7142,76.4811 62.5492,62.6471 62.5492,45.5821 Z" id="Stroke-7" stroke="#00C8FF" stroke-width="1.5"></path>
                        <g id="Group-12" transform="translate(147.000000, 45.000000)">
                            <path d="M0.7103,0.5821 L70.8373,0.5821" id="Fill-9" fill="#DCFAFF"></path>
                            <path d="M0.7103,0.5821 L70.8373,0.5821" id="Stroke-11" stroke="#00C8FF" stroke-width="1.5"></path>
                        </g>
                        <path d="M246.1215,45.5821 C246.1215,37.7711 239.7895,31.4401 231.9785,31.4401 C224.1685,31.4401 217.8375,37.7711 217.8375,45.5821 C217.8375,53.3931 224.1685,59.7251 231.9785,59.7251 C239.7895,59.7251 246.1215,53.3931 246.1215,45.5821" id="Fill-13" fill="#FCFBC8"></path>
                        <path d="M246.1215,45.5821 C246.1215,37.7711 239.7895,31.4401 231.9785,31.4401 C224.1685,31.4401 217.8375,37.7711 217.8375,45.5821 C217.8375,53.3931 224.1685,59.7251 231.9785,59.7251 C239.7895,59.7251 246.1215,53.3931 246.1215,45.5821 Z" id="Stroke-15" stroke="#D6CE72" stroke-width="1.5"></path>
                        <g id="Group-20" transform="translate(228.000000, 36.000000)">
                            <polyline id="Fill-17" fill="#FCFBC8" points="1.1508 18.9571 7.2168 9.5821 3.9788 9.5821 0.7418 9.5821 6.8068 0.2071"></polyline>
                            <polyline id="Stroke-19" stroke="#D6CE72" stroke-width="1.5" points="1.1508 18.9571 7.2168 9.5821 3.9788 9.5821 0.7418 9.5821 6.8068 0.2071"></polyline>
                        </g>
                        <path d="M144.7113,32.291 C155.7433,21.258 170.7073,15.06 186.3113,15.06 L242.8373,15.06" id="Stroke-21" stroke="#00C8FF" stroke-width="1.5"></path>
                        <polyline id="Stroke-23" stroke="#00C8FF" stroke-width="1.5" points="191.4828 80.6905 196.0648 76.1075 191.5648 71.6075"></polyline>
                        <path d="M144.7113,58.877 C155.7433,69.909 170.7073,76.107 186.3113,76.107 L242.8373,76.107" id="Stroke-25" stroke="#00C8FF" stroke-width="1.5"></path>
                        <path d="M271.1215,15.0596 C271.1215,7.2486 264.7895,0.9176 256.9785,0.9176 C249.1685,0.9176 242.8375,7.2486 242.8375,15.0596 C242.8375,22.8706 249.1685,29.2026 256.9785,29.2026 C264.7895,29.2026 271.1215,22.8706 271.1215,15.0596" id="Fill-27" fill="#FFCFCF"></path>
                        <path d="M271.1215,15.0596 C271.1215,7.2486 264.7895,0.9176 256.9785,0.9176 C249.1685,0.9176 242.8375,7.2486 242.8375,15.0596 C242.8375,22.8706 249.1685,29.2026 256.9785,29.2026 C264.7895,29.2026 271.1215,22.8706 271.1215,15.0596 Z" id="Stroke-29" stroke="#FF7D7D" stroke-width="1.5"></path>
                        <path d="M271.1215,76.1075 C271.1215,83.9185 264.7895,90.2505 256.9785,90.2505 C249.1685,90.2505 242.8375,83.9185 242.8375,76.1075 C242.8375,68.2965 249.1685,61.9655 256.9785,61.9655 C264.7895,61.9655 271.1215,68.2965 271.1215,76.1075" id="Fill-31" fill="#A5D9F9"></path>
                        <path d="M271.1215,76.1075 C271.1215,83.9185 264.7895,90.2505 256.9785,90.2505 C249.1685,90.2505 242.8375,83.9185 242.8375,76.1075 C242.8375,68.2965 249.1685,61.9655 256.9785,61.9655 C264.7895,61.9655 271.1215,68.2965 271.1215,76.1075 Z" id="Stroke-33" stroke="#45A9F4" stroke-width="1.5"></path>
                        <path d="M264.0785,69.0586 L256.9785,66.4156 L249.8805,69.0586 L249.8805,78.7836 C249.8805,82.7046 253.0575,85.8816 256.9785,85.8816 C260.8995,85.8816 264.0785,82.7046 264.0785,78.7836 L264.0785,69.0586 Z" id="Fill-35" fill="#A5D9F9"></path>
                        <path d="M264.0785,69.0586 L256.9785,66.4156 L249.8805,69.0586 L249.8805,78.7836 C249.8805,82.7046 253.0575,85.8816 256.9785,85.8816 C260.8995,85.8816 264.0785,82.7046 264.0785,78.7836 L264.0785,69.0586 Z" id="Stroke-37" stroke="#45A9F4" stroke-width="1.5"></path>
                        <polygon id="Fill-39" fill="#A5D9F9" points="256.9789 71.9434 257.9229 74.8494 260.9789 74.8494 258.5059 76.6454 259.4509 79.5504 256.9789 77.7554 254.5069 79.5504 255.4519 76.6454 252.9799 74.8494 256.0349 74.8494"></polygon>
                        <polygon id="Stroke-41" stroke="#45A9F4" stroke-width="1.5" points="256.9789 71.9434 257.9229 74.8494 260.9789 74.8494 258.5059 76.6454 259.4509 79.5504 256.9789 77.7554 254.5069 79.5504 255.4519 76.6454 252.9799 74.8494 256.0349 74.8494"></polygon>
                        <path d="M258.3734,10.1006 L256.9784,11.4956 L255.5844,10.1006 C254.0934,8.6096 251.6744,8.6096 250.1834,10.1006 C248.6914,11.5916 248.6914,14.0096 250.1834,15.5016 L251.5774,16.8966 L256.9784,22.2976 L262.3804,16.8966 L263.7744,15.5016 C265.2674,14.0096 265.2674,11.5916 263.7744,10.1006 C262.2834,8.6096 259.8654,8.6096 258.3734,10.1006" id="Fill-43" fill="#FFCFCF"></path>
                        <path d="M258.3734,10.1006 L256.9784,11.4956 L255.5844,10.1006 C254.0934,8.6096 251.6744,8.6096 250.1834,10.1006 C248.6914,11.5916 248.6914,14.0096 250.1834,15.5016 L251.5774,16.8966 L256.9784,22.2976 L262.3804,16.8966 L263.7744,15.5016 C265.2674,14.0096 265.2674,11.5916 263.7744,10.1006 C262.2834,8.6096 259.8654,8.6096 258.3734,10.1006 Z" id="Stroke-45" stroke="#FF7D7D" stroke-width="1.5"></path>
                        <path d="M150.1898,45.5821 C150.1898,34.5561 141.2508,25.6161 130.2228,25.6161 C119.1968,25.6161 110.2568,34.5561 110.2568,45.5821 C110.2568,56.6091 119.1968,65.5491 130.2228,65.5491 C141.2508,65.5491 150.1898,56.6091 150.1898,45.5821" id="Fill-47" fill="#DCFAFF"></path>
                        <path d="M150.1898,45.5821 C150.1898,34.5561 141.2508,25.6161 130.2228,25.6161 C119.1968,25.6161 110.2568,34.5561 110.2568,45.5821 C110.2568,56.6091 119.1968,65.5491 130.2228,65.5491 C141.2508,65.5491 150.1898,56.6091 150.1898,45.5821 Z" id="Stroke-49" stroke="#00C8FF" stroke-width="1.5"></path>
                        <path d="M27.5541,37.5733 L27.5541,53.5923" id="Stroke-51" stroke="#00C8FF" stroke-width="1.5"></path>
                        <path d="M35.7445,37.5733 L35.7445,53.5923" id="Stroke-53" stroke="#00C8FF" stroke-width="1.5"></path>
                        <path d="M35.7445,45.5821 L27.5545,45.5821" id="Stroke-55" stroke="#00C8FF" stroke-width="1.5"></path>
                        <path d="M127.7562,40.7578 L127.7562,50.4068" id="Stroke-57" stroke="#00C8FF" stroke-width="1.5"></path>
                        <path d="M132.6898,40.7578 L132.6898,50.4068" id="Stroke-59" stroke="#00C8FF" stroke-width="1.5"></path>
                        <path d="M132.6898,50.4073 L127.7558,40.7583" id="Stroke-61" stroke="#00C8FF" stroke-width="1.5" stroke-linejoin="bevel"></path>
                    </g>
                </g>
                <rect id="Rectangle" fill-rule="nonzero" x="0" y="0" width="274" height="120"></rect>
            </g>
        </g>
    </g>
</svg>