<svg xmlns="http://www.w3.org/2000/svg" width="642" height="233" viewBox="0 0 642 233">
    <g fill="none" fill-rule="evenodd">
        <path fill="#DCFAFF" d="M532.892 136.73h44.188V114.8h-44.188z"/>
        <path stroke="#00C8FF" stroke-width="2.25" d="M532.892 136.73h44.188V114.8h-44.188z"/>
        <path fill="#DCFAFF" d="M488.703 136.73h44.19V114.8h-44.19z"/>
        <path stroke="#00C8FF" stroke-width="2.25" d="M488.703 136.73h44.19V114.8h-44.19z"/>
        <path fill="#DCFAFF" d="M577.08 136.73h44.19V114.8h-44.19z"/>
        <path stroke="#00C8FF" stroke-width="2.25" d="M577.08 136.73h44.19V114.8h-44.19z"/>
        <path fill="#DCFAFF" d="M488.703 158.662h22.094V136.73h-22.094z"/>
        <path stroke="#00C8FF" stroke-width="2.25" d="M488.703 158.662h22.094V136.73h-22.094z"/>
        <path fill="#DCFAFF" d="M510.797 158.662h44.19V136.73h-44.19z"/>
        <path stroke="#00C8FF" stroke-width="2.25" d="M510.797 158.662h44.19V136.73h-44.19z"/>
        <path fill="#DCFAFF" d="M554.986 158.662h44.19V136.73h-44.19z"/>
        <path stroke="#00C8FF" stroke-width="2.25" d="M554.986 158.662h44.19V136.73h-44.19z"/>
        <path fill="#DCFAFF" d="M599.176 158.662h22.094V136.73h-22.094z"/>
        <path stroke="#00C8FF" stroke-width="2.25" d="M599.176 158.662h22.094V136.73h-22.094z"/>
        <path fill="#DCFAFF" d="M488.703 202.525h22.094v-21.932h-22.094z"/>
        <path stroke="#00C8FF" stroke-width="2.25" d="M488.703 202.525h22.094v-21.932h-22.094z"/>
        <path fill="#DCFAFF" d="M510.797 202.525h44.19v-21.932h-44.19z"/>
        <path stroke="#00C8FF" stroke-width="2.25" d="M510.797 202.525h44.19v-21.932h-44.19z"/>
        <path fill="#DCFAFF" d="M554.986 202.525h44.19v-21.932h-44.19z"/>
        <path stroke="#00C8FF" stroke-width="2.25" d="M554.986 202.525h44.19v-21.932h-44.19z"/>
        <path fill="#DCFAFF" d="M599.176 202.525h22.094v-21.932h-22.094z"/>
        <path stroke="#00C8FF" stroke-width="2.25" d="M599.176 202.525h22.094v-21.932h-22.094z"/>
        <path fill="#DCFAFF" d="M488.703 180.593h44.19v-21.93h-44.19z"/>
        <path stroke="#00C8FF" stroke-width="2.25" d="M488.703 180.593h44.19v-21.93h-44.19z"/>
        <path fill="#DCFAFF" d="M577.08 180.593h44.19v-21.93h-44.19z"/>
        <path stroke="#00C8FF" stroke-width="2.25" d="M577.08 180.593h44.19v-21.93h-44.19z"/>
        <path fill="#DCFAFF" d="M532.892 180.593h44.188v-21.93h-44.188z"/>
        <path stroke="#00C8FF" stroke-width="2.25" d="M532.892 180.593h44.188v-21.93h-44.188z"/>
        <path fill="#DCFAFF" d="M40.554 210.343H7.104a5.98 5.98 0 0 1-5.978-5.984v-87.613a5.982 5.982 0 0 1 5.977-5.986h33.45a5.98 5.98 0 0 1 5.977 5.986v87.613a5.98 5.98 0 0 1-5.976 5.984"/>
        <path stroke="#00C8FF" stroke-width="2.25" d="M40.554 210.343H7.104a5.98 5.98 0 0 1-5.978-5.984v-87.613a5.982 5.982 0 0 1 5.977-5.986h33.45a5.98 5.98 0 0 1 5.977 5.986v87.613a5.98 5.98 0 0 1-5.976 5.984z"/>
        <path fill="#DCFAFF" d="M37.987 124.628a4.153 4.153 0 0 0-4.15-4.156 4.153 4.153 0 0 0-4.15 4.156 4.153 4.153 0 0 0 4.15 4.155 4.152 4.152 0 0 0 4.15-4.155"/>
        <path stroke="#00C8FF" stroke-width="2.25" d="M37.987 124.628a4.153 4.153 0 0 0-4.15-4.156 4.153 4.153 0 0 0-4.15 4.156 4.153 4.153 0 0 0 4.15 4.155 4.152 4.152 0 0 0 4.15-4.155z"/>
        <path fill="#DCFAFF" d="M99.14 210.343H65.691a5.982 5.982 0 0 1-5.979-5.984v-87.613a5.983 5.983 0 0 1 5.98-5.986H99.14a5.98 5.98 0 0 1 5.977 5.986v87.613a5.98 5.98 0 0 1-5.977 5.984"/>
        <path stroke="#00C8FF" stroke-width="2.25" d="M99.14 210.343H65.691a5.982 5.982 0 0 1-5.979-5.984v-87.613a5.983 5.983 0 0 1 5.98-5.986H99.14a5.98 5.98 0 0 1 5.977 5.986v87.613a5.98 5.98 0 0 1-5.977 5.984z"/>
        <path fill="#DCFAFF" d="M96.574 124.628a4.152 4.152 0 0 0-4.15-4.156 4.152 4.152 0 0 0-4.149 4.156 4.152 4.152 0 0 0 4.15 4.155 4.152 4.152 0 0 0 4.149-4.155"/>
        <path stroke="#00C8FF" stroke-width="2.25" d="M96.574 124.628a4.152 4.152 0 0 0-4.15-4.156 4.152 4.152 0 0 0-4.149 4.156 4.152 4.152 0 0 0 4.15 4.155 4.152 4.152 0 0 0 4.149-4.155z"/>
        <path fill="#CAFFF5" d="M640.628 178.72L619.9 170.99l-20.725 7.728v28.43c0 11.462 9.277 20.754 20.725 20.754 11.447 0 20.727-9.292 20.727-20.755V178.72z"/>
        <path stroke="#5DD8C1" stroke-width="2.25" d="M640.628 178.72L619.9 170.99l-20.725 7.728v28.43c0 11.462 9.277 20.754 20.725 20.754 11.447 0 20.727-9.292 20.727-20.755V178.72z"/>
        <path fill="#CAFFF5" d="M607.768 200.25l8.85 8.864 15.416-15.436"/>
        <path stroke="#5DD8C1" stroke-width="2.25" d="M607.768 200.25l8.85 8.864 15.416-15.436"/>
        <path fill="#CAFFF5" d="M125.843 182.04l-20.726-7.728-20.724 7.728v28.43c0 11.461 9.277 20.754 20.724 20.754h.001c11.447 0 20.725-9.293 20.725-20.755V182.04z"/>
        <path stroke="#5DD8C1" stroke-width="2.25" d="M125.843 182.04l-20.726-7.728-20.724 7.728v28.43c0 11.461 9.277 20.754 20.724 20.754h.001c11.447 0 20.725-9.293 20.725-20.755V182.04z"/>
        <path fill="#CAFFF5" d="M92.985 203.571l8.85 8.863L117.252 197"/>
        <path stroke="#5DD8C1" stroke-width="2.25" d="M92.985 203.571l8.85 8.863L117.252 197"/>
        <path fill="#DCFAFF" d="M445.984 130.68l9.744 2.1-1.9-9.799-26.223-26.793a3.222 3.222 0 0 0-4.557-.047l-3.241 3.183a3.228 3.228 0 0 0-.047 4.562l26.224 26.793z"/>
        <path stroke="#00C8FF" stroke-width="2.25" d="M445.984 130.68l9.744 2.1-1.9-9.799-26.223-26.793a3.222 3.222 0 0 0-4.557-.047l-3.241 3.183a3.228 3.228 0 0 0-.047 4.562l26.224 26.793zM451.44 120.541l-7.844 7.698M429.775 98.406l-7.844 7.698"/>
        <path fill="#DCFAFF" d="M397.887 50.362l-11.49-10.557 50.963-.055z"/>
        <path stroke="#00C8FF" stroke-linejoin="bevel" stroke-width="2.25" d="M397.887 50.362l-11.49-10.557 50.963-.055z"/>
        <path fill="#DCFAFF" d="M437.36 39.75l-39.473 10.613 5.332 19.885z"/>
        <path stroke="#00C8FF" stroke-linejoin="bevel" stroke-width="2.25" d="M437.36 39.75l-39.473 10.613 5.332 19.885z"/>
        <path stroke="#00C8FF" stroke-dasharray="0,6" stroke-linecap="round" stroke-width="3" d="M412.26 117.774h-83.533M276.484 117.203h-83.557M388.934 174.167l-67.86-37.889M284.535 98.881l-67.877-37.905M303.165 91.628V38.02M216.254 174.167l67.862-37.889M321.46 99.69l67.877-37.905"/>
        <path fill="#DCFAFF" d="M434.473 150.079c-4.475.439-6.35 3.997-4.188 7.944 1.73 3.16 6.033 5.435 9.615 5.083 2.863-.281 4.064-2.557 2.68-5.086-1.107-2.021-3.861-3.477-6.152-3.251-1.835.179-2.603 1.637-1.717 3.254.71 1.295 2.472 2.227 3.939 2.082"/>
        <path stroke="#00C8FF" stroke-width="2.25" d="M434.473 150.079c-4.475.439-6.35 3.997-4.188 7.944 1.73 3.16 6.033 5.435 9.615 5.083 2.863-.281 4.064-2.557 2.68-5.086-1.107-2.021-3.861-3.477-6.152-3.251-1.835.179-2.603 1.637-1.717 3.254.71 1.295 2.472 2.227 3.939 2.082"/>
        <path fill="#DCFAFF" d="M409.835 184.302c0-2.644.992-4.788 2.215-4.788 1.222 0 2.214 2.144 2.214 4.788 0 2.643-.992 4.787-2.214 4.787-1.223 0-2.215-2.144-2.215-4.787m14.534 0c0-2.644.99-4.788 2.214-4.788s2.216 2.144 2.216 4.788c0 2.643-.992 4.787-2.216 4.787-1.223 0-2.214-2.144-2.214-4.787m-12.012 12.337a3.637 3.637 0 0 0-.193 1.12 3.649 3.649 0 0 0 3.645 3.651 3.61 3.61 0 0 0 1.823-.506c.54.313 1.157.506 1.824.506.668 0 1.286-.193 1.823-.506a3.613 3.613 0 0 0 1.823.506 3.65 3.65 0 0 0 3.648-3.65c0-.41-.084-.796-.207-1.163 4.653-1.894 9.727-5.368 9.727-10.948 0-9.333-7.555-16.9-16.876-16.9-9.32 0-16.878 7.567-16.878 16.9 0 5.625 5.157 9.108 9.84 10.99"/>
        <path stroke="#00C8FF" stroke-width="2.25" d="M409.835 184.302c0-2.644.992-4.788 2.215-4.788 1.222 0 2.214 2.144 2.214 4.788 0 2.643-.992 4.787-2.214 4.787-1.223 0-2.215-2.144-2.215-4.787zm14.534 0c0-2.644.99-4.788 2.214-4.788s2.216 2.144 2.216 4.788c0 2.643-.992 4.787-2.216 4.787-1.223 0-2.214-2.144-2.214-4.787zm-12.012 12.337a3.637 3.637 0 0 0-.193 1.12 3.649 3.649 0 0 0 3.645 3.651 3.61 3.61 0 0 0 1.823-.506c.54.313 1.157.506 1.824.506.668 0 1.286-.193 1.823-.506a3.613 3.613 0 0 0 1.823.506 3.65 3.65 0 0 0 3.648-3.65c0-.41-.084-.796-.207-1.163 4.653-1.894 9.727-5.368 9.727-10.948 0-9.333-7.555-16.9-16.876-16.9-9.32 0-16.878 7.567-16.878 16.9 0 5.625 5.157 9.108 9.84 10.99z"/>
        <path fill="#DCFAFF" d="M412.542 175.478l3.322 3.328"/>
        <path stroke="#00C8FF" stroke-width="2.25" d="M412.542 175.478l3.322 3.328"/>
        <path fill="#DCFAFF" d="M422.923 178.806l3.323-3.328"/>
        <path stroke="#00C8FF" stroke-width="2.25" d="M422.923 178.806l3.323-3.328"/>
        <path fill="#DCFAFF" d="M404.783 164.045l-5.035-10.74"/>
        <path stroke="#00C8FF" stroke-width="2.25" d="M404.783 164.045l-5.035-10.74"/>
        <path fill="#DCFAFF" d="M439.116 174.5l9.792-7.017"/>
        <path stroke="#00C8FF" stroke-width="2.25" d="M439.116 174.5l9.792-7.017"/>
        <path fill="#DCFAFF" d="M418.655 162.878l1.865-7.937-5.712 1.984 2.857-10.04"/>
        <path stroke="#00C8FF" stroke-width="2.25" d="M418.655 162.878l1.865-7.937-5.712 1.984 2.857-10.04"/>
        <path fill="#DCFAFF" d="M166.89 193.119h35.46a3.089 3.089 0 0 0 3.087-3.09V165.3a3.089 3.089 0 0 0-3.087-3.09h-12.868a3.089 3.089 0 0 0-3.088 3.09 3.089 3.089 0 0 1-3.085 3.092h-16.42a3.089 3.089 0 0 0-3.087 3.09v18.546a3.089 3.089 0 0 0 3.088 3.091"/>
        <path stroke="#00C8FF" stroke-width="2.25" d="M166.89 193.119h35.46a3.089 3.089 0 0 0 3.087-3.09V165.3a3.089 3.089 0 0 0-3.087-3.09h-12.868a3.089 3.089 0 0 0-3.088 3.09 3.089 3.089 0 0 1-3.085 3.092h-16.42a3.089 3.089 0 0 0-3.087 3.09v18.546a3.089 3.089 0 0 0 3.088 3.091z"/>
        <path fill="#DCFAFF" d="M205.436 174.148h-41.633"/>
        <path stroke="#00C8FF" stroke-width="2.25" d="M205.436 174.148h-41.633"/>
        <path fill="#DCFAFF" d="M286.775 32.556h31.639a6.258 6.258 0 0 0 6.254-6.263V7.39c0-3.459-2.8-6.262-6.254-6.262h-31.639a6.258 6.258 0 0 0-6.254 6.262v18.903c0 3.46 2.8 6.263 6.254 6.263"/>
        <path stroke="#00C8FF" stroke-width="2.25" d="M286.775 32.556h31.639a6.258 6.258 0 0 0 6.254-6.263V7.39c0-3.459-2.8-6.262-6.254-6.262h-31.639a6.258 6.258 0 0 0-6.254 6.262v18.903c0 3.46 2.8 6.263 6.254 6.263z"/>
        <path fill="#DCFAFF" d="M324.668 6.8l-22.073 12.42L280.522 6.8"/>
        <path stroke="#00C8FF" stroke-width="2.25" d="M324.668 6.8l-22.073 12.42L280.522 6.8"/>
        <path fill="#DCFAFF" d="M181.917 54.8l7.382 7.393a7.173 7.173 0 0 0 10.152 0l18.421-18.447a7.193 7.193 0 0 0 0-10.165l-7.381-7.393a7.173 7.173 0 0 0-10.153 0l-18.42 18.446a7.197 7.197 0 0 0 0 10.166"/>
        <path stroke="#00C8FF" stroke-width="2.25" d="M181.917 54.8l7.382 7.393a7.173 7.173 0 0 0 10.152 0l18.421-18.447a7.193 7.193 0 0 0 0-10.165l-7.381-7.393a7.173 7.173 0 0 0-10.153 0l-18.42 18.446a7.197 7.197 0 0 0 0 10.166z"/>
        <path fill="#DCFAFF" d="M207.157 30.302l6.607 6.616a3.58 3.58 0 0 1 0 5.058l-14.102 14.122a3.567 3.567 0 0 1-5.05 0l-6.608-6.616a3.579 3.579 0 0 1 0-5.057l14.103-14.123a3.565 3.565 0 0 1 5.05 0"/>
        <path stroke="#00C8FF" stroke-width="2.25" d="M207.157 30.302l6.607 6.616a3.58 3.58 0 0 1 0 5.058l-14.102 14.122a3.567 3.567 0 0 1-5.05 0l-6.608-6.616a3.579 3.579 0 0 1 0-5.057l14.103-14.123a3.565 3.565 0 0 1 5.05 0z"/>
        <path fill="#DCFAFF" d="M190.628 57.952l-4.476-4.481"/>
        <path stroke="#00C8FF" stroke-width="2.25" d="M190.628 57.952l-4.476-4.481"/>
        <path fill="#DCFAFF" d="M142.887 135.816l4.431 4.437 9.679-9.69.77-5.21-5.202.772z"/>
        <path stroke="#00C8FF" stroke-width="2.25" d="M142.887 135.816l4.431 4.437 9.679-9.69.77-5.21-5.202.772z"/>
        <path fill="#DCFAFF" d="M161.366 121.75c4.798 4.804 12.577 4.804 17.374 0 4.8-4.805 4.8-12.594 0-17.399-4.797-4.806-12.576-4.806-17.374 0-4.798 4.805-4.798 12.594 0 17.399m-3.598-21.004c6.785-6.794 17.785-6.794 24.572 0 6.785 6.797 6.785 17.812 0 24.607-6.787 6.796-17.787 6.796-24.572 0-6.787-6.795-6.787-17.81 0-24.607"/>
        <path stroke="#00C8FF" stroke-width="2.25" d="M161.366 121.75c4.798 4.804 12.577 4.804 17.374 0 4.8-4.805 4.8-12.594 0-17.399-4.797-4.806-12.576-4.806-17.374 0-4.798 4.805-4.798 12.594 0 17.399zm-3.598-21.004c6.785-6.794 17.785-6.794 24.572 0 6.785 6.797 6.785 17.812 0 24.607-6.787 6.796-17.787 6.796-24.572 0-6.787-6.795-6.787-17.81 0-24.607z"/>
        <path fill="#DCFAFF" d="M313.562 156.385v-5.474c11.104-4.385 18.976-15.201 18.976-27.878 0-16.56-13.407-29.986-29.944-29.986-16.535 0-29.942 13.425-29.942 29.986 0 12.677 7.869 23.493 18.975 27.878v5.474c-23.356 5.04-40.86 25.832-40.86 50.724h103.655c0-24.892-17.505-45.683-40.86-50.724"/>
        <path stroke="#00C8FF" stroke-width="2.25" d="M313.562 156.385v-5.474c11.104-4.385 18.976-15.201 18.976-27.878 0-16.56-13.407-29.986-29.944-29.986-16.535 0-29.942 13.425-29.942 29.986 0 12.677 7.869 23.493 18.975 27.878v5.474c-23.356 5.04-40.86 25.832-40.86 50.724h103.655c0-24.892-17.505-45.683-40.86-50.724z"/>
        <g>
            <path fill="#DCFAFF" d="M291.626 156.385c6.063 6.07 15.873 6.07 21.935 0"/>
            <path stroke="#00C8FF" stroke-width="2.25" d="M291.626 156.385c6.063 6.07 15.873 6.07 21.935 0"/>
        </g>
        <g>
            <path fill="#DCFAFF" d="M290.54 127.721c0 7.274 5.877 13.16 13.141 13.16"/>
            <path stroke="#00C8FF" stroke-width="2.25" d="M290.54 127.721c0 7.274 5.877 13.16 13.141 13.16"/>
        </g>
        <g>
            <path fill="#DCFAFF" d="M290.54 112.805v6.477"/>
            <path stroke="#00C8FF" stroke-width="2.25" d="M290.54 112.805v6.477"/>
        </g>
        <g>
            <path fill="#DCFAFF" d="M314.648 112.805v6.477"/>
            <path stroke="#00C8FF" stroke-width="2.25" d="M314.648 112.805v6.477"/>
        </g>
        <path fill="#CAFFF5" d="M375.148 178.72l-20.727-7.729-20.725 7.728v28.43c0 11.462 9.279 20.754 20.725 20.754 11.448 0 20.727-9.292 20.727-20.755V178.72z"/>
        <path stroke="#5DD8C1" stroke-width="2.25" d="M375.148 178.72l-20.727-7.729-20.725 7.728v28.43c0 11.462 9.279 20.754 20.725 20.754 11.448 0 20.727-9.292 20.727-20.755V178.72z"/>
        <g>
            <path fill="#CAFFF5" d="M342.29 200.25l8.85 8.864 15.416-15.436"/>
            <path stroke="#5DD8C1" stroke-width="2.25" d="M342.29 200.25l8.85 8.864 15.416-15.436"/>
        </g>
    </g>
</svg>
