<svg xmlns="http://www.w3.org/2000/svg" width="169" height="206" viewBox="0 0 169 206">
    <g fill="none" fill-rule="evenodd">
        <path fill="#DCFAFF" d="M120.518 154.902h23.522v-11.694h-23.522z"/>
        <path stroke="#00C8FF" stroke-width="1.2" d="M120.518 154.902h23.522v-11.694h-23.522z"/>
        <path fill="#DCFAFF" d="M108.758 143.208h23.52v-11.694h-23.52z"/>
        <path stroke="#00C8FF" stroke-width="1.2" d="M108.758 143.208h23.52v-11.694h-23.52z"/>
        <path fill="#DCFAFF" d="M96.998 154.902h23.521v-11.694H96.998z"/>
        <path stroke="#00C8FF" stroke-width="1.2" d="M96.998 154.902h23.521v-11.694H96.998z"/>
        <path fill="#DCFAFF" d="M85.238 166.597h11.76v-11.695h-11.76z"/>
        <path stroke="#00C8FF" stroke-width="1.2" d="M85.238 166.597h11.76v-11.695h-11.76z"/>
        <path fill="#DCFAFF" d="M96.998 166.597h23.521v-11.695H96.998z"/>
        <path stroke="#00C8FF" stroke-width="1.2" d="M96.998 166.597h23.521v-11.695H96.998z"/>
        <path fill="#DCFAFF" d="M120.518 166.597h23.522v-11.695h-23.522z"/>
        <path stroke="#00C8FF" stroke-width="1.2" d="M120.518 166.597h23.522v-11.695h-23.522z"/>
        <path fill="#DCFAFF" d="M144.04 166.597h11.76v-11.695h-11.76z"/>
        <path stroke="#00C8FF" stroke-width="1.2" d="M144.04 166.597h11.76v-11.695h-11.76z"/>
        <path fill="#DCFAFF" d="M85.238 189.986h11.76V178.29h-11.76z"/>
        <path stroke="#00C8FF" stroke-width="1.2" d="M85.238 189.986h11.76V178.29h-11.76z"/>
        <path fill="#DCFAFF" d="M96.998 189.986h23.521V178.29H96.998z"/>
        <path stroke="#00C8FF" stroke-width="1.2" d="M96.998 189.986h23.521V178.29H96.998z"/>
        <path fill="#DCFAFF" d="M120.518 189.986h23.522V178.29h-23.522z"/>
        <path stroke="#00C8FF" stroke-width="1.2" d="M120.518 189.986h23.522V178.29h-23.522z"/>
        <path fill="#DCFAFF" d="M144.04 189.986h11.76V178.29h-11.76z"/>
        <path stroke="#00C8FF" stroke-width="1.2" d="M144.04 189.986h11.76V178.29h-11.76z"/>
        <path fill="#DCFAFF" d="M85.238 178.291h23.52v-11.694h-23.52z"/>
        <path stroke="#00C8FF" stroke-width="1.2" d="M85.238 178.291h23.52v-11.694h-23.52z"/>
        <path fill="#DCFAFF" d="M132.279 178.291H155.8v-11.694H132.28z"/>
        <path stroke="#00C8FF" stroke-width="1.2" d="M132.279 178.291H155.8v-11.694H132.28z"/>
        <path fill="#DCFAFF" d="M108.758 178.291h23.52v-11.694h-23.52z"/>
        <path stroke="#00C8FF" stroke-width="1.2" d="M108.758 178.291h23.52v-11.694h-23.52z"/>
        <path fill="#DCFAFF" d="M27.605 194.154H9.8a3.186 3.186 0 0 1-3.182-3.19v-46.718a3.187 3.187 0 0 1 3.182-3.191h17.804a3.187 3.187 0 0 1 3.182 3.191v46.717a3.186 3.186 0 0 1-3.182 3.191"/>
        <path stroke="#00C8FF" stroke-width="1.2" d="M27.605 194.154H9.8a3.186 3.186 0 0 1-3.182-3.19v-46.718a3.187 3.187 0 0 1 3.182-3.191h17.804a3.187 3.187 0 0 1 3.182 3.191v46.717a3.186 3.186 0 0 1-3.182 3.191z"/>
        <path fill="#DCFAFF" d="M14.766 148.45a2.212 2.212 0 0 0-2.21-2.217c-1.219 0-2.208.992-2.208 2.216 0 1.223.989 2.216 2.208 2.216 1.221 0 2.21-.993 2.21-2.216"/>
        <path stroke="#00C8FF" stroke-width="1.2" d="M14.766 148.45a2.212 2.212 0 0 0-2.21-2.217c-1.219 0-2.208.992-2.208 2.216 0 1.223.989 2.216 2.208 2.216 1.221 0 2.21-.993 2.21-2.216z"/>
        <path fill="#DCFAFF" d="M58.79 194.154H40.985a3.186 3.186 0 0 1-3.182-3.19v-46.718a3.187 3.187 0 0 1 3.182-3.191H58.79a3.186 3.186 0 0 1 3.181 3.191v46.717a3.186 3.186 0 0 1-3.18 3.191"/>
        <path stroke="#00C8FF" stroke-width="1.2" d="M58.79 194.154H40.985a3.186 3.186 0 0 1-3.182-3.19v-46.718a3.187 3.187 0 0 1 3.182-3.191H58.79a3.186 3.186 0 0 1 3.181 3.191v46.717a3.186 3.186 0 0 1-3.18 3.191z"/>
        <path fill="#DCFAFF" d="M45.95 148.45a2.212 2.212 0 0 0-2.208-2.217c-1.22 0-2.209.992-2.209 2.216 0 1.223.988 2.216 2.209 2.216 1.22 0 2.208-.993 2.208-2.216"/>
        <path stroke="#00C8FF" stroke-width="1.2" d="M45.95 148.45a2.212 2.212 0 0 0-2.208-2.217c-1.22 0-2.209.992-2.209 2.216 0 1.223.988 2.216 2.209 2.216 1.22 0 2.208-.993 2.208-2.216z"/>
        <path fill="#CAFFF5" d="M166.103 177.292l-11.032-4.12-11.031 4.12v15.16c0 6.11 4.938 11.066 11.03 11.066 6.094 0 11.033-4.955 11.033-11.067v-15.159z"/>
        <path stroke="#5DD8C1" stroke-width="1.2" d="M166.103 177.292l-11.032-4.12-11.031 4.12v15.16c0 6.11 4.938 11.066 11.03 11.066 6.094 0 11.033-4.955 11.033-11.067v-15.159z"/>
        <path fill="#CAFFF5" d="M148.613 188.773l4.711 4.726 8.206-8.23"/>
        <path stroke="#5DD8C1" stroke-width="1.2" d="M148.613 188.773l4.711 4.726 8.206-8.23"/>
        <path fill="#CAFFF5" d="M73.004 179.063l-11.033-4.121-11.031 4.12v15.16c0 6.112 4.939 11.067 11.031 11.067 6.093 0 11.033-4.955 11.033-11.067v-15.16z"/>
        <path stroke="#5DD8C1" stroke-width="1.2" d="M73.004 179.063l-11.033-4.121-11.031 4.12v15.16c0 6.112 4.939 11.067 11.031 11.067 6.093 0 11.033-4.955 11.033-11.067v-15.16z"/>
        <path fill="#CAFFF5" d="M55.513 190.544l4.712 4.725 8.205-8.23"/>
        <path stroke="#5DD8C1" stroke-width="1.2" d="M55.513 190.544l4.712 4.725 8.205-8.23"/>
        <path fill="#DCFAFF" d="M162.381 70.483l5.187 1.12-1.012-5.225-13.958-14.287a1.713 1.713 0 0 0-2.426-.025l-1.725 1.697a1.724 1.724 0 0 0-.024 2.433l13.958 14.287z"/>
        <path stroke="#00C8FF" stroke-width="1.2" d="M162.381 70.483l5.187 1.12-1.012-5.225-13.958-14.287a1.713 1.713 0 0 0-2.426-.025l-1.725 1.697a1.724 1.724 0 0 0-.024 2.433l13.958 14.287zM165.285 65.077l-4.175 4.105M153.753 53.274l-4.175 4.105"/>
        <path fill="#DCFAFF" d="M136.78 27.656l-6.116-5.63 27.127-.029z"/>
        <path stroke="#00C8FF" stroke-linejoin="bevel" stroke-width="1.2" d="M136.78 27.656l-6.116-5.63 27.127-.029z"/>
        <path fill="#DCFAFF" d="M157.79 21.998l-21.01 5.659 2.838 10.602z"/>
        <path stroke="#00C8FF" stroke-linejoin="bevel" stroke-width="1.2" d="M157.79 21.998l-21.01 5.659 2.838 10.602z"/>
        <path stroke="#00C8FF" stroke-dasharray="0,3.2" stroke-linecap="round" stroke-width="1.6" d="M144.43 63.602H99.968M72.16 63.297H27.683M132.014 93.672l-36.12-20.203M76.445 53.527l-36.13-20.212M86.361 49.66V21.075M40.1 93.672l36.122-20.203M96.1 53.959l36.129-20.212"/>
        <path fill="#DCFAFF" d="M156.254 80.827c-2.382.234-3.38 2.132-2.23 4.237.921 1.684 3.212 2.897 5.119 2.71 1.523-.15 2.163-1.364 1.426-2.712-.59-1.078-2.055-1.854-3.275-1.734-.976.096-1.385.873-.914 1.736.378.69 1.316 1.187 2.097 1.11"/>
        <path stroke="#00C8FF" stroke-width="1.2" d="M156.254 80.827c-2.382.234-3.38 2.132-2.23 4.237.921 1.684 3.212 2.897 5.119 2.71 1.523-.15 2.163-1.364 1.426-2.712-.59-1.078-2.055-1.854-3.275-1.734-.976.096-1.385.873-.914 1.736.378.69 1.316 1.187 2.097 1.11"/>
        <path fill="#DCFAFF" d="M143.14 99.076c0-1.41.527-2.553 1.179-2.553.65 0 1.178 1.143 1.178 2.553s-.528 2.552-1.178 2.552c-.652 0-1.18-1.143-1.18-2.552m7.737 0c0-1.41.527-2.553 1.178-2.553.651 0 1.18 1.143 1.18 2.553s-.529 2.552-1.18 2.552c-.651 0-1.178-1.143-1.178-2.552m-6.394 6.578c-.061.19-.103.388-.103.598 0 1.074.869 1.947 1.94 1.947.356 0 .684-.104.97-.27.288.166.617.27.971.27.356 0 .685-.104.971-.27.286.166.615.27.97.27a1.945 1.945 0 0 0 1.942-1.947c0-.218-.045-.424-.11-.62 2.477-1.01 5.177-2.862 5.177-5.838 0-4.977-4.021-9.012-8.982-9.012-4.962 0-8.984 4.035-8.984 9.012 0 3 2.745 4.857 5.238 5.86"/>
        <path stroke="#00C8FF" stroke-width="1.2" d="M143.14 99.076c0-1.41.527-2.553 1.179-2.553.65 0 1.178 1.143 1.178 2.553s-.528 2.552-1.178 2.552c-.652 0-1.18-1.143-1.18-2.552zm7.736 0c0-1.41.527-2.553 1.178-2.553.651 0 1.18 1.143 1.18 2.553s-.529 2.552-1.18 2.552c-.651 0-1.178-1.143-1.178-2.552zm-6.394 6.578c-.061.19-.103.388-.103.598 0 1.074.869 1.947 1.94 1.947.356 0 .684-.104.97-.27.288.166.617.27.971.27.356 0 .685-.104.971-.27.286.166.615.27.97.27a1.945 1.945 0 0 0 1.942-1.947c0-.218-.045-.424-.11-.62 2.477-1.01 5.177-2.862 5.177-5.838 0-4.977-4.021-9.012-8.982-9.012-4.962 0-8.984 4.035-8.984 9.012 0 3 2.745 4.857 5.238 5.86z"/>
        <path fill="#DCFAFF" d="M144.58 94.37l1.769 1.775"/>
        <path stroke="#00C8FF" stroke-width="1.2" d="M144.58 94.37l1.769 1.775"/>
        <path fill="#DCFAFF" d="M150.106 96.145l1.769-1.774"/>
        <path stroke="#00C8FF" stroke-width="1.2" d="M150.106 96.145l1.769-1.774"/>
        <path fill="#DCFAFF" d="M140.45 88.275l-2.68-5.728"/>
        <path stroke="#00C8FF" stroke-width="1.2" d="M140.45 88.275l-2.68-5.728"/>
        <path fill="#DCFAFF" d="M158.725 93.85l5.212-3.742"/>
        <path stroke="#00C8FF" stroke-width="1.2" d="M158.725 93.85l5.212-3.742"/>
        <path fill="#DCFAFF" d="M147.834 87.652l.993-4.232-3.04 1.058 1.52-5.353"/>
        <path stroke="#00C8FF" stroke-width="1.2" d="M147.834 87.652l.993-4.232-3.04 1.058 1.52-5.353"/>
        <path fill="#DCFAFF" d="M13.825 103.777H32.7c.906 0 1.642-.737 1.642-1.648V88.944c0-.91-.736-1.648-1.642-1.648h-6.85c-.908 0-1.643.737-1.643 1.648 0 .91-.736 1.649-1.643 1.649h-8.74c-.907 0-1.643.737-1.643 1.647v9.89c0 .91.736 1.647 1.644 1.647"/>
        <path stroke="#00C8FF" stroke-width="1.2" d="M13.825 103.777H32.7c.906 0 1.642-.737 1.642-1.648V88.944c0-.91-.736-1.648-1.642-1.648h-6.85c-.908 0-1.643.737-1.643 1.648 0 .91-.736 1.649-1.643 1.649h-8.74c-.907 0-1.643.737-1.643 1.647v9.89c0 .91.736 1.647 1.644 1.647z"/>
        <path fill="#DCFAFF" d="M34.342 93.662h-22.16"/>
        <path stroke="#00C8FF" stroke-width="1.2" d="M34.342 93.662h-22.16"/>
        <path fill="#DCFAFF" d="M77.637 18.161h16.84a3.334 3.334 0 0 0 3.33-3.34V4.743c0-1.844-1.49-3.339-3.33-3.339h-16.84a3.334 3.334 0 0 0-3.329 3.34v10.079c0 1.844 1.49 3.34 3.33 3.34"/>
        <path stroke="#00C8FF" stroke-width="1.2" d="M77.637 18.161h16.84a3.334 3.334 0 0 0 3.33-3.34V4.743c0-1.844-1.49-3.339-3.33-3.339h-16.84a3.334 3.334 0 0 0-3.329 3.34v10.079c0 1.844 1.49 3.34 3.33 3.34z"/>
        <path fill="#DCFAFF" d="M97.807 4.427l-11.75 6.624L74.31 4.427"/>
        <path stroke="#00C8FF" stroke-width="1.2" d="M97.807 4.427l-11.75 6.624L74.31 4.427"/>
        <path fill="#DCFAFF" d="M21.824 30.022l3.929 3.943a3.813 3.813 0 0 0 5.403 0l9.806-9.837a3.84 3.84 0 0 0 0-5.42l-3.93-3.942a3.813 3.813 0 0 0-5.403 0l-9.805 9.836a3.843 3.843 0 0 0 0 5.42"/>
        <path stroke="#00C8FF" stroke-width="1.2" d="M21.824 30.022l3.929 3.943a3.813 3.813 0 0 0 5.403 0l9.806-9.837a3.84 3.84 0 0 0 0-5.42l-3.93-3.942a3.813 3.813 0 0 0-5.403 0l-9.805 9.836a3.843 3.843 0 0 0 0 5.42z"/>
        <path fill="#DCFAFF" d="M35.258 16.96l3.517 3.527a1.912 1.912 0 0 1 0 2.697l-7.506 7.53a1.896 1.896 0 0 1-2.688 0l-3.518-3.527a1.91 1.91 0 0 1 0-2.697l7.507-7.53a1.895 1.895 0 0 1 2.688 0"/>
        <path stroke="#00C8FF" stroke-width="1.2" d="M35.258 16.96l3.517 3.527a1.912 1.912 0 0 1 0 2.697l-7.506 7.53a1.896 1.896 0 0 1-2.688 0l-3.518-3.527a1.91 1.91 0 0 1 0-2.697l7.507-7.53a1.895 1.895 0 0 1 2.688 0z"/>
        <path fill="#DCFAFF" d="M26.46 31.703l-2.383-2.39"/>
        <path stroke="#00C8FF" stroke-width="1.2" d="M26.46 31.703l-2.383-2.39"/>
        <path fill="#DCFAFF" d="M1.049 73.222l2.358 2.366L8.56 70.42l.41-2.777-2.77.411z"/>
        <path stroke="#00C8FF" stroke-width="1.2" d="M1.049 73.222l2.358 2.366L8.56 70.42l.41-2.777-2.77.411z"/>
        <path fill="#DCFAFF" d="M10.884 65.721a6.525 6.525 0 0 0 9.248 0 6.573 6.573 0 0 0 0-9.277 6.524 6.524 0 0 0-9.248 0 6.575 6.575 0 0 0 0 9.277M8.97 54.522a9.228 9.228 0 0 1 13.08 0c3.611 3.624 3.611 9.498 0 13.12a9.227 9.227 0 0 1-13.08 0c-3.612-3.622-3.612-9.496 0-13.12"/>
        <path stroke="#00C8FF" stroke-width="1.2" d="M10.884 65.721a6.525 6.525 0 0 0 9.248 0 6.573 6.573 0 0 0 0-9.277 6.524 6.524 0 0 0-9.248 0 6.575 6.575 0 0 0 0 9.277zM8.97 54.522a9.228 9.228 0 0 1 13.08 0c3.611 3.624 3.611 9.498 0 13.12a9.227 9.227 0 0 1-13.08 0c-3.612-3.622-3.612-9.496 0-13.12z"/>
        <path fill="#DCFAFF" d="M91.895 84.19v-2.92c5.91-2.337 10.1-8.104 10.1-14.864 0-8.83-7.135-15.99-15.938-15.99-8.801 0-15.937 7.16-15.937 15.99 0 6.76 4.188 12.527 10.1 14.865v2.92c-12.432 2.687-21.75 13.773-21.75 27.046h55.174c0-13.273-9.317-24.36-21.749-27.047"/>
        <path stroke="#00C8FF" stroke-width="1.2" d="M91.895 84.19v-2.92c5.91-2.337 10.1-8.104 10.1-14.864 0-8.83-7.135-15.99-15.938-15.99-8.801 0-15.937 7.16-15.937 15.99 0 6.76 4.188 12.527 10.1 14.865v2.92c-12.432 2.687-21.75 13.773-21.75 27.046h55.174c0-13.273-9.317-24.36-21.749-27.047z"/>
        <g>
            <path fill="#DCFAFF" d="M80.22 84.19a8.233 8.233 0 0 0 11.675 0"/>
            <path stroke="#00C8FF" stroke-width="1.2" d="M80.22 84.19a8.233 8.233 0 0 0 11.675 0"/>
        </g>
        <g>
            <path fill="#DCFAFF" d="M79.641 68.906c0 3.879 3.128 7.017 6.995 7.017"/>
            <path stroke="#00C8FF" stroke-width="1.2" d="M79.641 68.906c0 3.879 3.128 7.017 6.995 7.017"/>
        </g>
        <g>
            <path fill="#DCFAFF" d="M79.641 60.952v3.454"/>
            <path stroke="#00C8FF" stroke-width="1.2" d="M79.641 60.952v3.454"/>
        </g>
        <g>
            <path fill="#DCFAFF" d="M92.473 60.952v3.454"/>
            <path stroke="#00C8FF" stroke-width="1.2" d="M92.473 60.952v3.454"/>
        </g>
        <path fill="#CAFFF5" d="M124.676 96.1l-11.032-4.122-11.032 4.121v15.16c0 6.111 4.94 11.066 11.032 11.066 6.093 0 11.032-4.955 11.032-11.067V96.1z"/>
        <path stroke="#5DD8C1" stroke-width="1.2" d="M124.676 96.1l-11.032-4.122-11.032 4.121v15.16c0 6.111 4.94 11.066 11.032 11.066 6.093 0 11.032-4.955 11.032-11.067V96.1z"/>
        <g>
            <path fill="#CAFFF5" d="M107.186 107.58l4.711 4.726 8.206-8.23"/>
            <path stroke="#5DD8C1" stroke-width="1.2" d="M107.186 107.58l4.711 4.726 8.206-8.23"/>
        </g>
    </g>
</svg>
