<svg xmlns="http://www.w3.org/2000/svg" xmlns:xlink="http://www.w3.org/1999/xlink" width="335" height="313" viewBox="0 0 335 313">
    <defs>
        <path id="a" d="M0 312.654h334.155V0H0z"/>
    </defs>
    <g fill="none" fill-rule="evenodd">
        <path fill="#00A4BF" d="M205.542 39.794c0-21.185-17.22-38.358-38.465-38.358-21.245 0-38.464 17.173-38.464 38.358 0 21.183 17.219 38.356 38.464 38.356 21.244 0 38.465-17.173 38.465-38.356"/>
        <path stroke="#00A4BF" stroke-width="2.88" d="M205.542 39.794c0-21.185-17.22-38.358-38.465-38.358-21.245 0-38.464 17.173-38.464 38.358 0 21.183 17.219 38.356 38.464 38.356 21.244 0 38.465-17.173 38.465-38.356z"/>
        <path fill="#00A4BF" d="M205.542 156.418c0-21.183-17.22-38.357-38.465-38.357-21.245 0-38.464 17.174-38.464 38.357 0 21.184 17.219 38.358 38.464 38.358 21.244 0 38.465-17.174 38.465-38.358"/>
        <path stroke="#00A4BF" stroke-width="2.88" d="M205.542 156.418c0-21.183-17.22-38.357-38.465-38.357-21.245 0-38.464 17.174-38.464 38.357 0 21.184 17.219 38.358 38.464 38.358 21.244 0 38.465-17.174 38.465-38.358zM107.262 167.192l-10.904-10.873 10.706-10.678M177.981 209.202l-10.905 10.875-10.706-10.678M177.981 92.577l-10.905 10.874-10.706-10.676"/>
        <path fill="#00A4BF" d="M78.37 235.524c0-21.183-17.22-38.358-38.463-38.358-21.247 0-38.466 17.175-38.466 38.358 0 21.184 17.219 38.358 38.466 38.358 21.243 0 38.463-17.174 38.463-38.358"/>
        <path stroke="#00A4BF" stroke-width="2.88" d="M78.37 235.524c0-21.183-17.22-38.358-38.463-38.358-21.247 0-38.466 17.175-38.466 38.358 0 21.184 17.219 38.358 38.466 38.358 21.243 0 38.463-17.174 38.463-38.358z"/>
        <path fill="#00A4BF" d="M205.542 272.86c0-21.184-17.22-38.358-38.465-38.358-21.245 0-38.464 17.174-38.464 38.357 0 21.184 17.219 38.358 38.464 38.358 21.244 0 38.465-17.174 38.465-38.358"/>
        <path stroke="#00A4BF" stroke-width="2.88" d="M205.542 272.86c0-21.184-17.22-38.358-38.465-38.358-21.245 0-38.464 17.174-38.464 38.357 0 21.184 17.219 38.358 38.464 38.358 21.244 0 38.465-17.174 38.465-38.358z"/>
        <path fill="#00A4BF" d="M332.714 235.524c0-21.183-17.223-38.358-38.466-38.358-21.244 0-38.463 17.175-38.463 38.358 0 21.184 17.219 38.358 38.463 38.358 21.243 0 38.466-17.174 38.466-38.358"/>
        <path stroke="#00A4BF" stroke-width="2.88" d="M332.714 235.524c0-21.183-17.223-38.358-38.466-38.358-21.244 0-38.463 17.175-38.463 38.358 0 21.184 17.219 38.358 38.463 38.358 21.243 0 38.466-17.174 38.466-38.358zM128.613 156.418H80.768M39.906 197.166c0-22.524 18.277-40.747 40.862-40.747M226.893 167.192l10.903-10.873-10.706-10.678M205.542 156.418h47.844M294.248 197.166c0-22.524-18.276-40.747-40.861-40.747M167.076 194.776v39.725M167.076 78.15v39.727"/>
        <path fill="#FFF" d="M169.966 159.481c3.55 0 6.428-2.868 6.428-6.408 0-3.539-2.878-6.409-6.428-6.409s-6.428 2.87-6.428 6.409c0 3.54 2.878 6.408 6.428 6.408m-4.228 1.836l-6.728 6.71a2.864 2.864 0 0 1-4.041 0 2.845 2.845 0 0 1 0-4.03l6.73-6.71a9.173 9.173 0 0 1-1.017-4.214c0-5.114 4.157-9.258 9.284-9.258 5.128 0 9.283 4.144 9.283 9.258 0 5.112-4.155 9.257-9.283 9.257a9.279 9.279 0 0 1-4.228-1.013"/>
        <path fill="#5DD8C1" d="M297.736 222a2.37 2.37 0 0 0-2.374-2.366A2.369 2.369 0 0 0 292.99 222a2.367 2.367 0 0 0 2.373 2.365 2.368 2.368 0 0 0 2.374-2.365zm2.513 27.937c0 1.882-1.53 3.41-3.42 3.41H282.17a3.417 3.417 0 0 1-3.421-3.41v-29.848a3.415 3.415 0 0 1 3.421-3.408h14.66c1.889 0 3.419 1.526 3.419 3.408v29.848z"/>
        <path stroke="#5DD8C1" stroke-width="2.88" d="M35.59 252.326l3.149 3.14 5.481-5.468"/>
        <mask id="b" fill="#fff">
            <use xlink:href="#a"/>
        </mask>
        <path fill="#5DD8C1" d="M22.627 244.533h21.12v-5.744h-21.12zM36.067 236.875h21.12v-5.744h-21.12zM45.667 244.533h11.52v-5.744h-11.52zM49.507 229.216h7.68v-5.744h-7.68zM22.627 229.216h7.68v-5.744h-7.68zM22.627 236.875h11.52v-5.744h-11.52zM22.627 221.328h21.12v-5.744h-21.12zM32.085 229.216h15.642v-5.744H32.085zM45.667 221.328h11.52v-5.744h-11.52zM167.176 273.955a5.04 5.04 0 0 1-5.048-5.033 5.04 5.04 0 0 1 5.048-5.034 5.04 5.04 0 0 1 5.047 5.034 5.04 5.04 0 0 1-5.047 5.033zm11.777-5.033c0 3.243-1.32 6.18-3.45 8.305l-2.38-2.372a8.355 8.355 0 0 0 2.466-5.933 8.35 8.35 0 0 0-2.465-5.932l2.379-2.374a11.701 11.701 0 0 1 3.45 8.306zm-23.557 0c0-3.242 1.32-6.179 3.45-8.306l2.38 2.374a8.349 8.349 0 0 0-2.464 5.932c0 2.316.94 4.415 2.463 5.933l-2.378 2.372a11.694 11.694 0 0 1-3.45-8.305zm30.288 0c0 5.096-2.071 9.71-5.422 13.05l-2.379-2.372a15.034 15.034 0 0 0 4.436-10.678c0-4.17-1.696-7.944-4.436-10.678l2.38-2.372a18.37 18.37 0 0 1 5.421 13.05zm-31.595 13.05a18.366 18.366 0 0 1-5.422-13.05 18.37 18.37 0 0 1 5.422-13.05l2.379 2.372a15.03 15.03 0 0 0-4.437 10.678c0 4.17 1.695 7.945 4.437 10.678l-2.38 2.372zM158.6 51.805a3.438 3.438 0 0 1-3.443-3.43 3.438 3.438 0 0 1 3.442-3.434 3.438 3.438 0 0 1 3.44 3.433 3.438 3.438 0 0 1-3.44 3.431zm17.208-17.16a3.438 3.438 0 0 1-3.442-3.431 3.438 3.438 0 0 1 3.442-3.433 3.438 3.438 0 0 1 3.44 3.433 3.438 3.438 0 0 1-3.44 3.43zm0 17.16a3.438 3.438 0 0 1-3.442-3.43 3.438 3.438 0 0 1 3.442-3.434 3.438 3.438 0 0 1 3.44 3.433 3.438 3.438 0 0 1-3.44 3.431zM158.6 34.645a3.438 3.438 0 0 1-3.442-3.431 3.438 3.438 0 0 1 3.442-3.433 3.438 3.438 0 0 1 3.44 3.433 3.438 3.438 0 0 1-3.44 3.43zm-4.155 5.15l-3.947-3.937 2.434-2.427 4.91 4.897h4.41a5.174 5.174 0 0 1 3.231-3.39v-4.73l-4.66-4.646 2.435-2.428 3.946 3.936 3.945-3.936 2.435 2.428-4.66 4.646v4.73a5.174 5.174 0 0 1 3.231 3.39h4.409l4.911-4.897 2.435 2.427-4.2 4.186 3.946 3.934-2.432 2.428-4.66-4.645h-4.587a5.178 5.178 0 0 1-3.053 2.888v4.729l4.66 4.646-2.435 2.428-3.945-3.936-3.946 3.936-2.434-2.428 4.66-4.646v-4.73a5.178 5.178 0 0 1-3.053-2.887h-5.09l-4.66 4.645-2.435-2.428 4.2-4.183z" mask="url(#b)"/>
        <path stroke="#5DD8C1" stroke-width="2.88" d="M162.86 288.053l3.148 3.138 5.482-5.466M305.442 234.608l3.149 3.14 5.48-5.468" mask="url(#b)"/>
    </g>
</svg>
