<svg xmlns="http://www.w3.org/2000/svg" width="425" height="260" viewBox="0 0 425 260">
  <g fill="none" fill-rule="evenodd">
    <g transform="translate(2)">
      <path fill="#DCFAFF" d="M117.194056,102.566694 L117.194056,184.780798 C117.194056,189.312012 113.523707,192.985075 108.995842,192.985075 L73.0552584,192.985075 C68.5273936,192.985075 64.8570448,189.312012 64.8570448,184.780798 L64.8570448,102.566694 C64.8570448,98.0354798 68.5273936,94.3639191 73.0552584,94.3639191 L108.995842,94.3639191 C113.523707,94.3639191 117.194056,98.0354798 117.194056,102.566694"/>
      <path stroke="#00C8FF" stroke-width="2.25" d="M117.194056,102.566694 L117.194056,184.780798 C117.194056,189.312012 113.523707,192.985075 108.995842,192.985075 L73.0552584,192.985075 C68.5273936,192.985075 64.8570448,189.312012 64.8570448,184.780798 L64.8570448,102.566694 C64.8570448,98.0354798 68.5273936,94.3639191 73.0552584,94.3639191 L108.995842,94.3639191 C113.523707,94.3639191 117.194056,98.0354798 117.194056,102.566694 Z"/>
      <path fill="#FFCFCF" d="M124.738845,173.515133 C125.919243,170.078023 126.560503,166.391434 126.560503,162.553052 L126.560503,116.390277 L106.636396,112.455711 L92.8951153,122.657329 L85.886311,142.337676 L89.3869587,158.475711 L104.409258,170.498832 L124.738845,173.515133 Z"/>
      <path stroke="#FF7D7D" stroke-width="2.25" d="M124.738845,173.515133 C125.919243,170.078023 126.560503,166.391434 126.560503,162.553052 L126.560503,116.390277 L106.636396,112.455711 L92.8951153,122.657329 L85.886311,142.337676 L89.3869587,158.475711 L104.409258,170.498832 L124.738845,173.515133 Z"/>
      <path fill="#FFCFCF" d="M92.4432299,155.506902 C92.3275929,155.861584 92.2495004,156.234301 92.2495004,156.628058 C92.2495004,158.647942 93.8864399,160.286092 95.9048313,160.286092 C96.5731231,160.286092 97.193358,160.09222 97.730995,159.778116 C98.2716356,160.09222 98.8903687,160.286092 99.5586605,160.286092 C100.228454,160.286092 100.847187,160.09222 101.386326,159.778116 C101.925465,160.09222 102.5457,160.286092 103.213991,160.286092 C105.232383,160.286092 106.867821,158.647942 106.867821,156.628058 C106.867821,156.219272 106.785223,155.831526 106.662077,155.463318 C111.326604,153.568173 116.41313,150.088983 116.41313,144.498231 C116.41313,135.148751 108.839657,127.568173 99.4970875,127.568173 C90.1545181,127.568173 82.5810448,135.148751 82.5810448,144.498231 C82.5810448,150.132566 87.7486676,153.622277 92.4432299,155.506902"/>
      <path stroke="#FF7D7D" stroke-width="2.25" d="M92.4432299,155.506902 C92.3275929,155.861584 92.2495004,156.234301 92.2495004,156.628058 C92.2495004,158.647942 93.8864399,160.286092 95.9048313,160.286092 C96.5731231,160.286092 97.193358,160.09222 97.730995,159.778116 C98.2716356,160.09222 98.8903687,160.286092 99.5586605,160.286092 C100.228454,160.286092 100.847187,160.09222 101.386326,159.778116 C101.925465,160.09222 102.5457,160.286092 103.213991,160.286092 C105.232383,160.286092 106.867821,158.647942 106.867821,156.628058 C106.867821,156.219272 106.785223,155.831526 106.662077,155.463318 C111.326604,153.568173 116.41313,150.088983 116.41313,144.498231 C116.41313,135.148751 108.839657,127.568173 99.4970875,127.568173 C90.1545181,127.568173 82.5810448,135.148751 82.5810448,144.498231 C82.5810448,150.132566 87.7486676,153.622277 92.4432299,155.506902 Z"/>
      <g transform="translate(102.121 138.132)">
        <polyline fill="#FFCFCF" points=".861 5.795 4.016 1.315 7.172 5.795"/>
        <polyline stroke="#FF7D7D" stroke-width="2.25" points=".861 5.795 4.016 1.315 7.172 5.795"/>
      </g>
      <g transform="translate(88.605 138.132)">
        <polyline fill="#FFCFCF" points="1.097 5.795 4.252 1.315 7.408 5.795"/>
        <polyline stroke="#FF7D7D" stroke-width="2.25" points="1.097 5.795 4.252 1.315 7.408 5.795"/>
      </g>
      <polygon fill="#DCFAFF" points="169.987 188.083 161.076 197 141.616 177.524 140.07 167.059 150.526 168.607"/>
      <polygon stroke="#00C8FF" stroke-width="2.25" points="169.987 188.083 161.076 197 141.616 177.524 140.07 167.059 150.526 168.607"/>
      <path fill="#DCFAFF" d="M133.734203,123.953572 C123.589683,113.801549 107.140694,113.801549 96.9961744,123.953572 C86.8516548,134.107098 86.8516548,150.566751 96.9961744,160.720277 C107.140694,170.872301 123.589683,170.872301 133.734203,160.720277 C143.878722,150.566751 143.878722,134.107098 133.734203,123.953572 M140.068708,167.059468 C126.425043,180.713225 104.305335,180.713225 90.661669,167.059468 C77.0180036,153.405711 77.0180036,131.268139 90.661669,117.614382 C104.305335,103.960624 126.425043,103.960624 140.068708,117.614382 C153.712374,131.268139 153.712374,153.405711 140.068708,167.059468"/>
      <path stroke="#00C8FF" stroke-width="2.25" d="M133.734203,123.953572 C123.589683,113.801549 107.140694,113.801549 96.9961744,123.953572 C86.8516548,134.107098 86.8516548,150.566751 96.9961744,160.720277 C107.140694,170.872301 123.589683,170.872301 133.734203,160.720277 C143.878722,150.566751 143.878722,134.107098 133.734203,123.953572 Z M140.068708,167.059468 C126.425043,180.713225 104.305335,180.713225 90.661669,167.059468 C77.0180036,153.405711 77.0180036,131.268139 90.661669,117.614382 C104.305335,103.960624 126.425043,103.960624 140.068708,117.614382 C153.712374,131.268139 153.712374,153.405711 140.068708,167.059468 Z"/>
      <path fill="#DCFAFF" d="M82.0818534,107.611145 C82.0818534,110.145017 80.0304228,112.197965 77.4999246,112.197965 C74.9694263,112.197965 72.9179957,110.145017 72.9179957,107.611145 C72.9179957,105.078775 74.9694263,103.025827 77.4999246,103.025827 C80.0304228,103.025827 82.0818534,105.078775 82.0818534,107.611145"/>
      <path stroke="#00C8FF" stroke-width="2.25" d="M82.0818534,107.611145 C82.0818534,110.145017 80.0304228,112.197965 77.4999246,112.197965 C74.9694263,112.197965 72.9179957,110.145017 72.9179957,107.611145 C72.9179957,105.078775 74.9694263,103.025827 77.4999246,103.025827 C80.0304228,103.025827 82.0818534,105.078775 82.0818534,107.611145 Z"/>
      <path fill="#DCFAFF" d="M53.4630448,102.566694 L53.4630448,184.780798 C53.4630448,189.312012 49.7926961,192.985075 45.2663331,192.985075 L9.32424769,192.985075 C4.79638292,192.985075 1.12603416,189.312012 1.12603416,184.780798 L1.12603416,102.566694 C1.12603416,98.0354798 4.79638292,94.3639191 9.32424769,94.3639191 L45.2663331,94.3639191 C49.7926961,94.3639191 53.4630448,98.0354798 53.4630448,102.566694"/>
      <path stroke="#00C8FF" stroke-width="2.25" d="M53.4630448,102.566694 L53.4630448,184.780798 C53.4630448,189.312012 49.7926961,192.985075 45.2663331,192.985075 L9.32424769,192.985075 C4.79638292,192.985075 1.12603416,189.312012 1.12603416,184.780798 L1.12603416,102.566694 C1.12603416,98.0354798 4.79638292,94.3639191 9.32424769,94.3639191 L45.2663331,94.3639191 C49.7926961,94.3639191 53.4630448,98.0354798 53.4630448,102.566694 Z"/>
      <path fill="#DCFAFF" d="M18.3515936,107.611145 C18.3515936,110.145017 16.300163,112.197965 13.7696648,112.197965 C11.2391665,112.197965 9.18773594,110.145017 9.18773594,107.611145 C9.18773594,105.078775 11.2391665,103.025827 13.7696648,103.025827 C16.300163,103.025827 18.3515936,105.078775 18.3515936,107.611145"/>
      <path stroke="#00C8FF" stroke-width="2.25" d="M18.3515936,107.611145 C18.3515936,110.145017 16.300163,112.197965 13.7696648,112.197965 C11.2391665,112.197965 9.18773594,110.145017 9.18773594,107.611145 C9.18773594,105.078775 11.2391665,103.025827 13.7696648,103.025827 C16.300163,103.025827 18.3515936,105.078775 18.3515936,107.611145 Z"/>
      <path fill="#DCFAFF" d="M222.017204,4.06727168 C205.036584,11.6598728 197.421061,31.5912023 205.008051,48.5843815 C207.772826,54.7747861 212.185054,59.7042659 217.483332,63.123341 L217.601972,67.1901618 L219.28847,84.389237 L234.088506,71.1307399 L236.479339,68.5367514 C240.84351,68.4450751 245.258741,67.4997572 249.493759,65.6046127 C266.474378,58.0135145 274.089901,38.082185 266.502912,21.0875029 C258.914421,4.09582659 238.997823,-3.52683237 222.017204,4.06727168"/>
      <path stroke="#00C8FF" stroke-width="2.25" d="M222.017204 4.06727168C205.036584 11.6598728 197.421061 31.5912023 205.008051 48.5843815 207.772826 54.7747861 212.185054 59.7042659 217.483332 63.123341L217.601972 67.1901618 219.28847 84.389237 234.088506 71.1307399 236.479339 68.5367514C240.84351 68.4450751 245.258741 67.4997572 249.493759 65.6046127 266.474378 58.0135145 274.089901 38.082185 266.502912 21.0875029 258.914421 4.09582659 238.997823-3.52683237 222.017204 4.06727168zM216.126624 140.000983L217.188382 141.063526"/>
      <path stroke="#00C8FF" stroke-dasharray="3.029 3.029" stroke-width="2.25" d="M219.331872,143.20785 L299.723623,223.659064"/>
      <path stroke="#00C8FF" stroke-width="2.25" d="M300.796043 224.732277L301.857801 225.794821M301.857952 54.2056416L302.91971 55.268185"/>
      <path stroke="#00C8FF" stroke-dasharray="3.029 3.029" stroke-width="2.25" d="M305.0638,57.4140116 L385.455551,137.865225"/>
      <path stroke="#00C8FF" stroke-width="2.25" d="M386.527221,138.938439 L387.588979,140.000983"/>
      <path stroke="#00C8FF" stroke-dasharray="3" stroke-width="2.25" d="M387.589129,140.000983 L301.858552,225.794971"/>
      <path stroke="#00C8FF" stroke-width="2.25" d="M301.857952,54.2056416 L300.796194,55.268185"/>
      <path stroke="#00C8FF" stroke-dasharray="3.029 3.029" stroke-width="2.25" d="M298.652704,57.4140116 L218.260953,137.865225"/>
      <path stroke="#00C8FF" stroke-width="2.25" d="M217.188532 138.938439L216.126774 140.000983M216.126624 140.000983L217.628404 140.000983"/>
      <path stroke="#00C8FF" stroke-dasharray="2.952 2.952" stroke-width="2.25" d="M220.583605,140.000983 L384.609448,140.000983"/>
      <path stroke="#00C8FF" stroke-width="2.25" d="M386.087349,140.000983 L387.589129,140.000983"/>
      <path fill="#DCFAFF" d="M258.992663,140.000983 C258.992663,116.307919 239.801425,97.1024855 216.127375,97.1024855 C192.451823,97.1024855 173.260585,116.307919 173.260585,140.000983 C173.260585,163.692543 192.451823,182.897977 216.127375,182.897977 C239.801425,182.897977 258.992663,163.692543 258.992663,140.000983"/>
      <path stroke="#00C8FF" stroke-width="2.25" d="M258.992663,140.000983 C258.992663,116.307919 239.801425,97.1024855 216.127375,97.1024855 C192.451823,97.1024855 173.260585,116.307919 173.260585,140.000983 C173.260585,163.692543 192.451823,182.897977 216.127375,182.897977 C239.801425,182.897977 258.992663,163.692543 258.992663,140.000983 Z"/>
      <path fill="#DCFAFF" d="M322.89743,225.794971 C322.89743,214.16711 313.47827,204.73948 301.857501,204.73948 C290.238234,204.73948 280.817572,214.16711 280.817572,225.794971 C280.817572,237.422832 290.238234,246.850462 301.857501,246.850462 C313.47827,246.850462 322.89743,237.422832 322.89743,225.794971"/>
      <path stroke="#00C8FF" stroke-width="2.25" d="M322.89743,225.794971 C322.89743,214.16711 313.47827,204.73948 301.857501,204.73948 C290.238234,204.73948 280.817572,214.16711 280.817572,225.794971 C280.817572,237.422832 290.238234,246.850462 301.857501,246.850462 C313.47827,246.850462 322.89743,237.422832 322.89743,225.794971 Z"/>
      <path fill="#DCFAFF" d="M322.89743,54.2056416 C322.89743,42.5777803 313.47827,33.1501503 301.857501,33.1501503 C290.238234,33.1501503 280.817572,42.5777803 280.817572,54.2056416 C280.817572,65.8335029 290.238234,75.2611329 301.857501,75.2611329 C313.47827,75.2611329 322.89743,65.8335029 322.89743,54.2056416"/>
      <path stroke="#00C8FF" stroke-width="2.25" d="M322.89743,54.2056416 C322.89743,42.5777803 313.47827,33.1501503 301.857501,33.1501503 C290.238234,33.1501503 280.817572,42.5777803 280.817572,54.2056416 C280.817572,65.8335029 290.238234,75.2611329 301.857501,75.2611329 C313.47827,75.2611329 322.89743,65.8335029 322.89743,54.2056416 Z"/>
      <path fill="#DCFAFF" d="M408.628607,140.000983 C408.628607,128.373121 399.209447,118.945491 387.588678,118.945491 C375.969411,118.945491 366.550251,128.373121 366.550251,140.000983 C366.550251,151.628844 375.969411,161.056474 387.588678,161.056474 C399.209447,161.056474 408.628607,151.628844 408.628607,140.000983"/>
      <path stroke="#00C8FF" stroke-width="2.25" d="M408.628607,140.000983 C408.628607,128.373121 399.209447,118.945491 387.588678,118.945491 C375.969411,118.945491 366.550251,128.373121 366.550251,140.000983 C366.550251,151.628844 375.969411,161.056474 387.588678,161.056474 C399.209447,161.056474 408.628607,151.628844 408.628607,140.000983 Z"/>
      <polyline stroke="#00C8FF" stroke-width="2.25" points="314.874 147.709 322.577 140.001 314.874 132.291"/>
      <polyline stroke="#00C8FF" stroke-width="2.25" points="299.929 132.291 292.227 140.001 299.929 147.709"/>
      <polyline stroke="#00C8FF" stroke-width="2.25" points="353.251 185.267 353.251 174.365 342.357 174.365"/>
      <polyline stroke="#00C8FF" stroke-width="2.25" points="335.138 182.029 335.138 192.931 346.031 192.931"/>
      <polyline stroke="#00C8FF" stroke-width="2.25" points="348.912 112.198 359.806 112.198 359.806 101.294"/>
      <polyline stroke="#00C8FF" stroke-width="2.25" points="352.148 94.072 341.255 94.072 341.255 104.974"/>
      <polyline stroke="#00C8FF" stroke-width="2.25" points="264.526 199.867 275.42 199.867 275.42 188.965"/>
      <polyline stroke="#00C8FF" stroke-width="2.25" points="267.761 181.742 256.867 181.742 256.867 192.645"/>
      <polyline stroke="#00C8FF" stroke-width="2.25" points="257.088 88.838 257.088 99.74 267.981 99.74"/>
      <polyline stroke="#00C8FF" stroke-width="2.25" points="275.2 92.077 275.2 81.174 264.306 81.174"/>
      <path fill="#CAFFF5" d="M420.86946,136.852879 L408.628457,132.291607 L396.388955,136.852879 L396.388955,153.631145 C396.388955,160.395653 401.868948,165.879699 408.628457,165.879699 C415.389468,165.879699 420.86946,160.395653 420.86946,153.631145 L420.86946,136.852879 Z"/>
      <path stroke="#5DD8C1" stroke-width="2.25" d="M420.86946,136.852879 L408.628457,132.291607 L396.388955,136.852879 L396.388955,153.631145 C396.388955,160.395653 401.868948,165.879699 408.628457,165.879699 C415.389468,165.879699 420.86946,160.395653 420.86946,153.631145 L420.86946,136.852879 Z"/>
      <g transform="translate(400.975 145.647)">
        <polyline fill="#CAFFF5" points=".488 3.913 5.716 9.145 14.819 .034"/>
        <polyline stroke="#5DD8C1" stroke-width="2.25" points=".488 3.913 5.716 9.145 14.819 .034"/>
      </g>
      <path fill="#CAFFF5" d="M335.137532,55.3621156 L322.898031,50.8008439 L310.657027,55.3621156 L310.657027,72.1403815 C310.657027,78.9048902 316.13702,84.3889364 322.898031,84.3889364 C329.65754,84.3889364 335.137532,78.9048902 335.137532,72.1403815 L335.137532,55.3621156 Z"/>
      <path stroke="#5DD8C1" stroke-width="2.25" d="M335.137532,55.3621156 L322.898031,50.8008439 L310.657027,55.3621156 L310.657027,72.1403815 C310.657027,78.9048902 316.13702,84.3889364 322.898031,84.3889364 C329.65754,84.3889364 335.137532,78.9048902 335.137532,72.1403815 L335.137532,55.3621156 Z"/>
      <g transform="translate(315.374 62.988)">
        <polyline fill="#CAFFF5" points=".358 5.082 5.586 10.313 14.69 1.203"/>
        <polyline stroke="#5DD8C1" stroke-width="2.25" points=".358 5.082 5.586 10.313 14.69 1.203"/>
      </g>
      <path fill="#CAFFF5" d="M331.882426,229.710601 L319.642924,225.150832 L307.40192,229.710601 L307.40192,246.49037 C307.40192,253.254879 312.881913,258.738925 319.642924,258.738925 C326.402433,258.738925 331.882426,253.254879 331.882426,246.49037 L331.882426,229.710601 Z"/>
      <path stroke="#5DD8C1" stroke-width="2.25" d="M331.882426,229.710601 L319.642924,225.150832 L307.40192,229.710601 L307.40192,246.49037 C307.40192,253.254879 312.881913,258.738925 319.642924,258.738925 C326.402433,258.738925 331.882426,253.254879 331.882426,246.49037 L331.882426,229.710601 Z"/>
      <g transform="translate(312.37 237.323)">
        <polyline fill="#CAFFF5" points=".107 5.096 5.334 10.326 14.438 1.217"/>
        <polyline stroke="#5DD8C1" stroke-width="2.25" points=".107 5.096 5.334 10.326 14.438 1.217"/>
      </g>
      <path fill="#DAF8FD" d="M233.193295,35.9507861 C232.331274,35.9507861 231.632947,34.4418844 231.632947,32.5813064 C231.632947,30.7192254 232.331274,29.2103237 233.193295,29.2103237 C234.055317,29.2103237 234.753644,30.7192254 234.753644,32.5813064 C234.753644,34.4418844 234.055317,35.9507861 233.193295,35.9507861 M222.952662,35.9507861 C222.090641,35.9507861 221.392313,34.4418844 221.392313,32.5813064 C221.392313,30.7192254 222.090641,29.2103237 222.952662,29.2103237 C223.814683,29.2103237 224.513011,30.7192254 224.513011,32.5813064 C224.513011,34.4418844 223.814683,35.9507861 222.952662,35.9507861 M239.910754,33.5296301 C239.910754,26.9574913 234.585445,21.6297457 228.018164,21.6297457 C221.450883,21.6297457 216.127075,26.9574913 216.127075,33.5296301 C216.127075,37.4596879 219.702811,39.9048902 222.981196,41.2379538 C222.895594,41.494948 222.837025,41.768474 222.837025,42.055526 C222.837025,43.4772601 223.987388,44.6269711 225.405068,44.6269711 C225.875125,44.6269711 226.310641,44.491711 226.690591,44.2707861 C227.069039,44.491711 227.504555,44.6269711 227.974612,44.6269711 C228.444669,44.6269711 228.880185,44.491711 229.258633,44.2707861 C229.638584,44.491711 230.072598,44.6269711 230.544157,44.6269711 C231.963338,44.6269711 233.113701,43.4772601 233.113701,42.055526 C233.113701,41.7804971 233.058135,41.5174913 232.977039,41.2680116 C236.27795,39.9424624 239.910754,37.4897457 239.910754,33.5296301"/>
      <path stroke="#00C8FF" stroke-width="2.25" d="M233.193295 35.9507861C232.331274 35.9507861 231.632947 34.4418844 231.632947 32.5813064 231.632947 30.7192254 232.331274 29.2103237 233.193295 29.2103237 234.055317 29.2103237 234.753644 30.7192254 234.753644 32.5813064 234.753644 34.4418844 234.055317 35.9507861 233.193295 35.9507861zM222.952662 35.9507861C222.090641 35.9507861 221.392313 34.4418844 221.392313 32.5813064 221.392313 30.7192254 222.090641 29.2103237 222.952662 29.2103237 223.814683 29.2103237 224.513011 30.7192254 224.513011 32.5813064 224.513011 34.4418844 223.814683 35.9507861 222.952662 35.9507861zM239.910754 33.5296301C239.910754 26.9574913 234.585445 21.6297457 228.018164 21.6297457 221.450883 21.6297457 216.127075 26.9574913 216.127075 33.5296301 216.127075 37.4596879 219.702811 39.9048902 222.981196 41.2379538 222.895594 41.494948 222.837025 41.768474 222.837025 42.055526 222.837025 43.4772601 223.987388 44.6269711 225.405068 44.6269711 225.875125 44.6269711 226.310641 44.491711 226.690591 44.2707861 227.069039 44.491711 227.504555 44.6269711 227.974612 44.6269711 228.444669 44.6269711 228.880185 44.491711 229.258633 44.2707861 229.638584 44.491711 230.072598 44.6269711 230.544157 44.6269711 231.963338 44.6269711 233.113701 43.4772601 233.113701 42.055526 233.113701 41.7804971 233.058135 41.5174913 232.977039 41.2680116 236.27795 39.9424624 239.910754 37.4897457 239.910754 33.5296301zM246.107246 20.5021272L246.960257 34.9118382M254.909025 20.2511445L254.233224 34.9118382"/>
      <path fill="#00C8FF" d="M249.47814 39.8680694C249.47814 38.9362775 248.724247 38.1818266 247.791642 38.1818266 246.862041 38.1818266 246.106646 38.9362775 246.106646 39.8680694 246.106646 40.7998613 246.862041 41.5543121 247.791642 41.5543121 248.724247 41.5543121 249.47814 40.7998613 249.47814 39.8680694M255.68995 39.8680694C255.68995 38.9362775 254.936057 38.1818266 254.004954 38.1818266 253.073851 38.1818266 252.318456 38.9362775 252.318456 39.8680694 252.318456 40.7998613 253.073851 41.5543121 254.004954 41.5543121 254.936057 41.5543121 255.68995 40.7998613 255.68995 39.8680694"/>
    </g>
    <rect width="425" height="260"/>
  </g>
</svg>
