<svg xmlns="http://www.w3.org/2000/svg" viewBox="0 0 238.1 89.1"><defs><style>.cls-1,.cls-4{fill:#dcfaff;}.cls-1,.cls-3,.cls-4,.cls-5{stroke:#00c8ff;}.cls-1,.cls-2,.cls-3,.cls-5{stroke-miterlimit:10;}.cls-1,.cls-2,.cls-3,.cls-4,.cls-5{stroke-width:1.5px;}.cls-2{fill:#ffcfcf;stroke:#ff7d7d;}.cls-3{fill:none;}.cls-4{stroke-linejoin:bevel;}.cls-5{fill:#daf8fd;}.cls-6{fill:#00c8ff;}</style></defs><title>cert1</title><g id="Layer_2" data-name="Layer 2"><g id="Layer_1-2" data-name="Layer 1"><path class="cls-1" d="M139.62,12.42A14.24,14.24,0,0,0,128.7,35l-.58,1.62-2,7L134,40.67l1.34-.65a14.25,14.25,0,1,0,4.28-27.6Z"/><rect class="cls-1" x="0.75" y="19.74" width="34.85" height="65.62" rx="5.46"/><path class="cls-2" d="M40.62,72.41a22.3,22.3,0,0,0,1.22-7.29V34.4L28.57,31.78l-9.15,6.79L14.75,51.66,17.08,62.4l10,8Z"/><path class="cls-2" d="M19.12,60.43a2.26,2.26,0,0,0-.13.74,2.43,2.43,0,0,0,2.43,2.44,2.4,2.4,0,0,0,1.22-.34,2.34,2.34,0,0,0,2.43,0,2.42,2.42,0,0,0,3.52-2.87c3.1-1.26,6.49-3.58,6.49-7.3a11.27,11.27,0,0,0-22.53,0C12.55,56.85,16,59.17,19.12,60.43Z"/><polyline class="cls-2" points="26.14 52.72 28.24 49.74 30.34 52.72"/><polyline class="cls-2" points="17.29 52.72 19.39 49.74 21.5 52.72"/><polygon class="cls-1" points="70.75 82.1 64.82 88.03 51.86 75.08 50.83 68.11 57.8 69.14 70.75 82.1"/><path class="cls-1" d="M50.83,68.11a23.26,23.26,0,1,1,0-32.9A23.25,23.25,0,0,1,50.83,68.11ZM46.61,39.43a17.3,17.3,0,1,0,0,24.46A17.3,17.3,0,0,0,46.61,39.43Z"/><circle class="cls-1" cx="97.77" cy="56.31" r="25.35"/><path class="cls-3" d="M218,43.78c-12.13,34-40,24.31-40,8,0-13.08,14.07-9.05,5.46,3.95C164,85.09,139.94,64.13,135,60.51c-7.5-5.5-11.9-4.75-11.9-4.75"/><polygon class="cls-4" points="218.72 40.06 208.3 38.17 237.54 19.66 218.72 40.06"/><polygon class="cls-4" points="237.54 19.66 218.72 40.06 228.98 49.53 237.54 19.66"/><polyline class="cls-3" points="156.09 66.45 160.1 71.14 156.22 75.16"/><path class="cls-5" d="M225.36,12.81a12.07,12.07,0,0,0-24.13,0c0,4,3.63,6.47,7,7.82a2.83,2.83,0,0,0-.14.83,2.6,2.6,0,0,0,2.6,2.61A2.56,2.56,0,0,0,212,23.7a2.47,2.47,0,0,0,2.6,0,2.56,2.56,0,0,0,1.31.37,2.6,2.6,0,0,0,2.6-2.61,2.36,2.36,0,0,0-.14-.8C221.67,19.32,225.36,16.83,225.36,12.81Zm-17.21,2.46c-.87,0-1.58-1.53-1.58-3.42s.71-3.41,1.58-3.41,1.59,1.53,1.59,3.41S209,15.27,208.15,15.27Zm10.39,0c-.87,0-1.58-1.53-1.58-3.42s.71-3.41,1.58-3.41,1.59,1.53,1.59,3.41S219.42,15.27,218.54,15.27Z"/><circle class="cls-1" cx="9.17" cy="28.56" r="3.05"/><line class="cls-3" x1="137.08" y1="19.83" x2="137.65" y2="29.42"/><line class="cls-3" x1="142.94" y1="19.66" x2="142.49" y2="29.42"/><circle class="cls-6" cx="138.2" cy="32.72" r="1.12"/><circle class="cls-6" cx="142.34" cy="32.72" r="1.12"/></g></g></svg>