<svg xmlns="http://www.w3.org/2000/svg" viewBox="0 0 281 172.91"><defs><style>.cls-1{fill:#dcfaff;}.cls-1,.cls-3,.cls-4,.cls-5,.cls-6,.cls-8{stroke:#00c8ff;}.cls-1,.cls-2,.cls-3,.cls-4,.cls-5,.cls-6,.cls-7,.cls-8{stroke-miterlimit:10;stroke-width:1.5px;}.cls-2{fill:#ffcfcf;stroke:#ff7d7d;}.cls-3,.cls-4,.cls-5,.cls-6{fill:none;}.cls-4{stroke-dasharray:2.02 2.02;}.cls-5{stroke-dasharray:2;}.cls-6{stroke-dasharray:1.97 1.97;}.cls-7{fill:#cafff5;stroke:#5dd8c1;}.cls-8{fill:#daf8fd;}.cls-9{fill:#00c8ff;}</style></defs><title>cert3</title><g id="Layer_2" data-name="Layer 2"><g id="Layer_1-2" data-name="Layer 1"><rect class="cls-1" x="43.19" y="62.79" width="34.85" height="65.62" rx="5.46"/><path class="cls-2" d="M83.06,115.45a22.25,22.25,0,0,0,1.21-7.29V77.44L71,74.83l-9.15,6.78-4.67,13.1,2.33,10.74,10,8Z"/><path class="cls-2" d="M61.56,103.47a2.36,2.36,0,0,0-.13.75,2.43,2.43,0,0,0,2.43,2.43,2.4,2.4,0,0,0,1.22-.34,2.34,2.34,0,0,0,2.43,0,2.4,2.4,0,0,0,1.22.34,2.43,2.43,0,0,0,2.43-2.43,2.29,2.29,0,0,0-.14-.78c3.11-1.26,6.5-3.57,6.5-7.29a11.27,11.27,0,1,0-22.53,0C55,99.9,58.43,102.22,61.56,103.47Z"/><polyline class="cls-2" points="68.57 95.77 70.67 92.79 72.78 95.77"/><polyline class="cls-2" points="59.73 95.77 61.83 92.79 63.93 95.77"/><polygon class="cls-1" points="113.19 125.15 107.26 131.08 94.3 118.12 93.27 111.16 100.23 112.19 113.19 125.15"/><path class="cls-1" d="M93.27,111.16a23.26,23.26,0,1,1,0-32.9A23.27,23.27,0,0,1,93.27,111.16ZM89.05,82.48a17.3,17.3,0,1,0,0,24.46A17.29,17.29,0,0,0,89.05,82.48Z"/><circle class="cls-1" cx="51.61" cy="71.6" r="3.05"/><rect class="cls-1" x="0.75" y="62.79" width="34.85" height="65.62" rx="5.46"/><circle class="cls-1" cx="9.17" cy="71.6" r="3.05"/><path class="cls-1" d="M147.84,2.71a22.4,22.4,0,0,0-3,39.29l.08,2.71L146,56.15l9.85-8.82,1.6-1.73a22.42,22.42,0,1,0-9.63-42.89Z"/><line class="cls-3" x1="143.91" y1="93.15" x2="144.62" y2="93.86"/><line class="cls-4" x1="146.05" y1="95.29" x2="199.58" y2="148.82"/><line class="cls-3" x1="200.29" y1="149.53" x2="201" y2="150.24"/><line class="cls-3" x1="201" y1="36.07" x2="201.71" y2="36.78"/><line class="cls-4" x1="203.13" y1="38.2" x2="256.67" y2="91.73"/><line class="cls-3" x1="257.38" y1="92.45" x2="258.09" y2="93.15"/><line class="cls-5" x1="258.09" y1="93.15" x2="201" y2="150.24"/><line class="cls-3" x1="201" y1="36.07" x2="200.29" y2="36.78"/><line class="cls-4" x1="198.87" y1="38.2" x2="145.33" y2="91.73"/><line class="cls-3" x1="144.62" y1="92.45" x2="143.91" y2="93.15"/><line class="cls-3" x1="143.91" y1="93.15" x2="144.91" y2="93.15"/><line class="cls-6" x1="146.88" y1="93.15" x2="256.1" y2="93.15"/><line class="cls-3" x1="257.09" y1="93.15" x2="258.09" y2="93.15"/><circle class="cls-1" cx="143.91" cy="93.15" r="28.54"/><circle class="cls-1" cx="201" cy="150.24" r="14.01"/><circle class="cls-1" cx="201" cy="36.07" r="14.01"/><circle class="cls-1" cx="258.09" cy="93.15" r="14.01"/><polyline class="cls-3" points="202.13 98.28 207.26 93.16 202.13 88.03"/><polyline class="cls-3" points="225.92 118.07 225.92 125.33 233.17 125.33"/><polyline class="cls-3" points="236.8 64.61 229.54 64.61 229.54 71.86"/><polyline class="cls-3" points="178.69 65.63 178.69 58.38 171.44 58.38"/><polyline class="cls-3" points="173.25 129.75 180.51 129.75 180.51 122.49"/><path class="cls-7" d="M280.25,91.06l-8.15-3-8.15,3v11.16a8.15,8.15,0,0,0,8.15,8.15h0a8.15,8.15,0,0,0,8.15-8.15Z"/><polyline class="cls-7" points="267.32 99.52 270.81 103 276.87 96.93"/><path class="cls-7" d="M223.16,36.84l-8.15-3-8.15,3V48A8.15,8.15,0,0,0,215,56.15h0A8.15,8.15,0,0,0,223.16,48Z"/><polyline class="cls-7" points="210.24 45.29 213.72 48.77 219.78 42.71"/><path class="cls-7" d="M221,152.85l-8.15-3-8.15,3V164a8.15,8.15,0,0,0,8.15,8.15h0A8.15,8.15,0,0,0,221,164Z"/><polyline class="cls-7" points="208.07 161.3 211.55 164.78 217.61 158.72"/><path class="cls-8" d="M159.75,22.31a7.92,7.92,0,1,0-15.84,0c0,2.62,2.38,4.24,4.57,5.13a1.62,1.62,0,0,0-.1.54,1.71,1.71,0,0,0,1.71,1.71,1.75,1.75,0,0,0,.86-.23,1.7,1.7,0,0,0,1.71,0,1.74,1.74,0,0,0,.85.23A1.7,1.7,0,0,0,155.22,28a1.54,1.54,0,0,0-.09-.52C157.33,26.58,159.75,25,159.75,22.31Zm-11.29,1.61c-.57,0-1-1-1-2.24s.47-2.24,1-2.24,1,1,1,2.24S149,23.92,148.46,23.92Zm6.82,0c-.58,0-1-1-1-2.24s.46-2.24,1-2.24,1,1,1,2.24S155.85,23.92,155.28,23.92Z"/><line class="cls-3" x1="163.88" y1="13.64" x2="164.45" y2="23.23"/><line class="cls-3" x1="169.74" y1="13.48" x2="169.29" y2="23.23"/><circle class="cls-9" cx="165" cy="26.53" r="1.12"/><circle class="cls-9" cx="169.14" cy="26.53" r="1.12"/></g></g></svg>