<svg xmlns="http://www.w3.org/2000/svg" width="425" height="260" viewBox="0 0 425 260">
  <g fill="none" fill-rule="evenodd">
    <g transform="translate(17)">
      <path fill="#DCFAFF" d="M117.204696,102.566694 L117.204696,184.780798 C117.204696,189.312012 113.534014,192.985075 109.005738,192.985075 L73.0618912,192.985075 C68.5336153,192.985075 64.8629333,189.312012 64.8629333,184.780798 L64.8629333,102.566694 C64.8629333,98.0354798 68.5336153,94.3639191 73.0618912,94.3639191 L109.005738,94.3639191 C113.534014,94.3639191 117.204696,98.0354798 117.204696,102.566694"/>
      <path stroke="#00C8FF" stroke-width="2.25" d="M117.204696,102.566694 L117.204696,184.780798 C117.204696,189.312012 113.534014,192.985075 109.005738,192.985075 L73.0618912,192.985075 C68.5336153,192.985075 64.8629333,189.312012 64.8629333,184.780798 L64.8629333,102.566694 C64.8629333,98.0354798 68.5336153,94.3639191 73.0618912,94.3639191 L109.005738,94.3639191 C113.534014,94.3639191 117.204696,98.0354798 117.204696,102.566694 Z"/>
      <path fill="#FFCFCF" d="M124.75017,173.515133 C125.930676,170.078023 126.571994,166.391434 126.571994,162.553052 L126.571994,116.390277 L106.646078,112.455711 L92.9035494,122.657329 L85.8941088,142.337676 L89.3950743,158.475711 L104.418737,170.498832 L124.75017,173.515133 Z"/>
      <path stroke="#FF7D7D" stroke-width="2.25" d="M124.75017,173.515133 C125.930676,170.078023 126.571994,166.391434 126.571994,162.553052 L126.571994,116.390277 L106.646078,112.455711 L92.9035494,122.657329 L85.8941088,142.337676 L89.3950743,158.475711 L104.418737,170.498832 L124.75017,173.515133 Z"/>
      <path fill="#FFCFCF" d="M92.451623,155.506902 C92.3359755,155.861584 92.2578759,156.234301 92.2578759,156.628058 C92.2578759,158.647942 93.894964,160.286092 95.9135387,160.286092 C96.5818912,160.286092 97.2021824,160.09222 97.7398682,159.778116 C98.2805579,160.09222 98.8993471,160.286092 99.5676996,160.286092 C100.237554,160.286092 100.856343,160.09222 101.395531,159.778116 C101.934719,160.09222 102.55501,160.286092 103.223362,160.286092 C105.241937,160.286092 106.877523,158.647942 106.877523,156.628058 C106.877523,156.219272 106.794918,155.831526 106.671761,155.463318 C111.336711,153.568173 116.4237,150.088983 116.4237,144.498231 C116.4237,135.148751 108.849539,127.568173 99.5061211,127.568173 C90.1627034,127.568173 82.5885425,135.148751 82.5885425,144.498231 C82.5885425,150.132566 87.7566345,153.622277 92.451623,155.506902"/>
      <path stroke="#FF7D7D" stroke-width="2.25" d="M92.451623,155.506902 C92.3359755,155.861584 92.2578759,156.234301 92.2578759,156.628058 C92.2578759,158.647942 93.894964,160.286092 95.9135387,160.286092 C96.5818912,160.286092 97.2021824,160.09222 97.7398682,159.778116 C98.2805579,160.09222 98.8993471,160.286092 99.5676996,160.286092 C100.237554,160.286092 100.856343,160.09222 101.395531,159.778116 C101.934719,160.09222 102.55501,160.286092 103.223362,160.286092 C105.241937,160.286092 106.877523,158.647942 106.877523,156.628058 C106.877523,156.219272 106.794918,155.831526 106.671761,155.463318 C111.336711,153.568173 116.4237,150.088983 116.4237,144.498231 C116.4237,135.148751 108.849539,127.568173 99.5061211,127.568173 C90.1627034,127.568173 82.5885425,135.148751 82.5885425,144.498231 C82.5885425,150.132566 87.7566345,153.622277 92.451623,155.506902 Z"/>
      <g transform="translate(102.13 138.132)">
        <polyline fill="#FFCFCF" points=".861 5.795 4.017 1.315 7.172 5.795"/>
        <polyline stroke="#FF7D7D" stroke-width="2.25" points=".861 5.795 4.017 1.315 7.172 5.795"/>
      </g>
      <g transform="translate(88.613 138.132)">
        <polyline fill="#FFCFCF" points="1.097 5.795 4.253 1.315 7.408 5.795"/>
        <polyline stroke="#FF7D7D" stroke-width="2.25" points="1.097 5.795 4.253 1.315 7.408 5.795"/>
      </g>
      <polygon fill="#DCFAFF" points="170.002 188.083 161.091 197 141.629 177.524 140.082 167.059 150.54 168.607"/>
      <polygon stroke="#00C8FF" stroke-width="2.25" points="170.002 188.083 161.091 197 141.629 177.524 140.082 167.059 150.54 168.607"/>
      <path fill="#DCFAFF" d="M133.746345,123.953572 C123.600904,113.801549 107.150421,113.801549 97.0049808,123.953572 C86.8595402,134.107098 86.8595402,150.566751 97.0049808,160.720277 C107.150421,170.872301 123.600904,170.872301 133.746345,160.720277 C143.891785,150.566751 143.891785,134.107098 133.746345,123.953572 M140.081425,167.059468 C126.436521,180.713225 104.314805,180.713225 90.6699004,167.059468 C77.0249962,153.405711 77.0249962,131.268139 90.6699004,117.614382 C104.314805,103.960624 126.436521,103.960624 140.081425,117.614382 C153.72633,131.268139 153.72633,153.405711 140.081425,167.059468"/>
      <path stroke="#00C8FF" stroke-width="2.25" d="M133.746345,123.953572 C123.600904,113.801549 107.150421,113.801549 97.0049808,123.953572 C86.8595402,134.107098 86.8595402,150.566751 97.0049808,160.720277 C107.150421,170.872301 123.600904,170.872301 133.746345,160.720277 C143.891785,150.566751 143.891785,134.107098 133.746345,123.953572 Z M140.081425,167.059468 C126.436521,180.713225 104.314805,180.713225 90.6699004,167.059468 C77.0249962,153.405711 77.0249962,131.268139 90.6699004,117.614382 C104.314805,103.960624 126.436521,103.960624 140.081425,117.614382 C153.72633,131.268139 153.72633,153.405711 140.081425,167.059468 Z"/>
      <path fill="#DCFAFF" d="M82.0893057,107.611145 C82.0893057,110.145017 80.0376889,112.197965 77.5069609,112.197965 C74.976233,112.197965 72.9246161,110.145017 72.9246161,107.611145 C72.9246161,105.078775 74.976233,103.025827 77.5069609,103.025827 C80.0376889,103.025827 82.0893057,105.078775 82.0893057,107.611145"/>
      <path stroke="#00C8FF" stroke-width="2.25" d="M82.0893057,107.611145 C82.0893057,110.145017 80.0376889,112.197965 77.5069609,112.197965 C74.976233,112.197965 72.9246161,110.145017 72.9246161,107.611145 C72.9246161,105.078775 74.976233,103.025827 77.5069609,103.025827 C80.0376889,103.025827 82.0893057,105.078775 82.0893057,107.611145 Z"/>
      <path fill="#DCFAFF" d="M53.4678989,102.566694 L53.4678989,184.780798 C53.4678989,189.312012 49.7972169,192.985075 45.2704429,192.985075 L9.32509425,192.985075 C4.79681839,192.985075 1.1261364,189.312012 1.1261364,184.780798 L1.1261364,102.566694 C1.1261364,98.0354798 4.79681839,94.3639191 9.32509425,94.3639191 L45.2704429,94.3639191 C49.7972169,94.3639191 53.4678989,98.0354798 53.4678989,102.566694"/>
      <path stroke="#00C8FF" stroke-width="2.25" d="M53.4678989,102.566694 L53.4678989,184.780798 C53.4678989,189.312012 49.7972169,192.985075 45.2704429,192.985075 L9.32509425,192.985075 C4.79681839,192.985075 1.1261364,189.312012 1.1261364,184.780798 L1.1261364,102.566694 C1.1261364,98.0354798 4.79681839,94.3639191 9.32509425,94.3639191 L45.2704429,94.3639191 C49.7972169,94.3639191 53.4678989,98.0354798 53.4678989,102.566694 Z"/>
      <path fill="#DCFAFF" d="M18.3532598,107.611145 C18.3532598,110.145017 16.3016429,112.197965 13.7709149,112.197965 C11.240187,112.197965 9.18857011,110.145017 9.18857011,107.611145 C9.18857011,105.078775 11.240187,103.025827 13.7709149,103.025827 C16.3016429,103.025827 18.3532598,105.078775 18.3532598,107.611145"/>
      <path stroke="#00C8FF" stroke-width="2.25" d="M18.3532598,107.611145 C18.3532598,110.145017 16.3016429,112.197965 13.7709149,112.197965 C11.240187,112.197965 9.18857011,110.145017 9.18857011,107.611145 C9.18857011,105.078775 11.240187,103.025827 13.7709149,103.025827 C16.3016429,103.025827 18.3532598,105.078775 18.3532598,107.611145 Z"/>
      <path fill="#DCFAFF" d="M222.037361,4.06727168 C205.0552,11.6598728 197.438985,31.5912023 205.026664,48.5843815 C207.79169,54.7747861 212.204319,59.7042659 217.503077,63.123341 L217.621729,67.1901618 L219.30838,84.389237 L234.109759,71.1307399 L236.500809,68.5367514 C240.865376,68.4450751 245.281008,67.4997572 249.516411,65.6046127 C266.498572,58.0135145 274.114786,38.082185 266.527108,21.0875029 C258.937928,4.09582659 239.019522,-3.52683237 222.037361,4.06727168"/>
      <path stroke="#00C8FF" stroke-width="2.25" d="M222.037361 4.06727168C205.0552 11.6598728 197.438985 31.5912023 205.026664 48.5843815 207.79169 54.7747861 212.204319 59.7042659 217.503077 63.123341L217.621729 67.1901618 219.30838 84.389237 234.109759 71.1307399 236.500809 68.5367514C240.865376 68.4450751 245.281008 67.4997572 249.516411 65.6046127 266.498572 58.0135145 274.114786 38.082185 266.527108 21.0875029 258.937928 4.09582659 239.019522-3.52683237 222.037361 4.06727168zM216.146247 140.000983L217.208101 141.063526"/>
      <path stroke="#00C8FF" stroke-dasharray="3.029 3.029" stroke-width="2.25" d="M219.351785,143.20785 L299.750835,223.659064"/>
      <path stroke="#00C8FF" stroke-width="2.25" d="M300.823353 224.732277L301.885208 225.794821M301.885358 54.2056416L300.823503 55.268185"/>
      <path stroke="#00C8FF" stroke-dasharray="3.029 3.029" stroke-width="2.25" d="M298.679819,57.4140116 L218.280769,137.865225"/>
      <path stroke="#00C8FF" stroke-width="2.25" d="M217.208251 138.938439L216.146397 140.000983M216.146247 140.000983L217.648162 140.000983"/>
      <path stroke="#00C8FF" stroke-dasharray="2.941 2.941" stroke-width="2.25" d="M220.593419,140.000983 L354.61086,140.000983"/>
      <path stroke="#00C8FF" stroke-width="2.25" d="M356.084089,140.000983 L357.586005,140.000983"/>
      <path fill="#DCFAFF" d="M259.016178,140.000983 C259.016178,116.307919 239.823197,97.1024855 216.146998,97.1024855 C192.469297,97.1024855 173.276316,116.307919 173.276316,140.000983 C173.276316,163.692543 192.469297,182.897977 216.146998,182.897977 C239.823197,182.897977 259.016178,163.692543 259.016178,140.000983"/>
      <path stroke="#00C8FF" stroke-width="2.25" d="M259.016178,140.000983 C259.016178,116.307919 239.823197,97.1024855 216.146998,97.1024855 C192.469297,97.1024855 173.276316,116.307919 173.276316,140.000983 C173.276316,163.692543 192.469297,182.897977 216.146998,182.897977 C239.823197,182.897977 259.016178,163.692543 259.016178,140.000983 Z"/>
      <path fill="#DCFAFF" d="M322.926746,225.794971 C322.926746,214.16711 313.506731,204.73948 301.884907,204.73948 C290.264585,204.73948 280.843068,214.16711 280.843068,225.794971 C280.843068,237.422832 290.264585,246.850462 301.884907,246.850462 C313.506731,246.850462 322.926746,237.422832 322.926746,225.794971"/>
      <path stroke="#00C8FF" stroke-width="2.25" d="M322.926746,225.794971 C322.926746,214.16711 313.506731,204.73948 301.884907,204.73948 C290.264585,204.73948 280.843068,214.16711 280.843068,225.794971 C280.843068,237.422832 290.264585,246.850462 301.884907,246.850462 C313.506731,246.850462 322.926746,237.422832 322.926746,225.794971 Z"/>
      <path fill="#DCFAFF" d="M322.926746,54.2056416 C322.926746,42.5777803 313.506731,33.1501503 301.884907,33.1501503 C290.264585,33.1501503 280.843068,42.5777803 280.843068,54.2056416 C280.843068,65.8335029 290.264585,75.2611329 301.884907,75.2611329 C313.506731,75.2611329 322.926746,65.8335029 322.926746,54.2056416"/>
      <path stroke="#00C8FF" stroke-width="2.25" d="M322.926746,54.2056416 C322.926746,42.5777803 313.506731,33.1501503 301.884907,33.1501503 C290.264585,33.1501503 280.843068,42.5777803 280.843068,54.2056416 C280.843068,65.8335029 290.264585,75.2611329 301.884907,75.2611329 C313.506731,75.2611329 322.926746,65.8335029 322.926746,54.2056416 Z"/>
      <path fill="#DCFAFF" d="M378.627543,140.000983 C378.627543,128.373121 369.207528,118.945491 357.585704,118.945491 C345.965382,118.945491 336.545367,128.373121 336.545367,140.000983 C336.545367,151.628844 345.965382,161.056474 357.585704,161.056474 C369.207528,161.056474 378.627543,151.628844 378.627543,140.000983"/>
      <path stroke="#00C8FF" stroke-width="2.25" d="M378.627543,140.000983 C378.627543,128.373121 369.207528,118.945491 357.585704,118.945491 C345.965382,118.945491 336.545367,128.373121 336.545367,140.000983 C336.545367,151.628844 345.965382,161.056474 357.585704,161.056474 C369.207528,161.056474 378.627543,151.628844 378.627543,140.000983 Z"/>
      <polyline stroke="#00C8FF" stroke-width="2.25" points="308.895 147.709 316.599 140.001 308.895 132.291"/>
      <polyline stroke="#00C8FF" stroke-width="2.25" points="293.949 132.291 286.246 140.001 293.949 147.709"/>
      <polyline stroke="#00C8FF" stroke-width="2.25" points="264.55 199.867 275.445 199.867 275.445 188.965"/>
      <polyline stroke="#00C8FF" stroke-width="2.25" points="267.786 181.742 256.891 181.742 256.891 192.645"/>
      <polyline stroke="#00C8FF" stroke-width="2.25" points="257.111 88.838 257.111 99.74 268.006 99.74"/>
      <polyline stroke="#00C8FF" stroke-width="2.25" points="275.225 92.077 275.225 81.174 264.33 81.174"/>
      <path fill="#CAFFF5" d="M390.869358,136.852879 L378.627243,132.291607 L366.38663,136.852879 L366.38663,153.631145 C366.38663,160.395653 371.86712,165.879699 378.627243,165.879699 C385.388867,165.879699 390.869358,160.395653 390.869358,153.631145 L390.869358,136.852879 Z"/>
      <path stroke="#5DD8C1" stroke-width="2.25" d="M390.869358,136.852879 L378.627243,132.291607 L366.38663,136.852879 L366.38663,153.631145 C366.38663,160.395653 371.86712,165.879699 378.627243,165.879699 C385.388867,165.879699 390.869358,160.395653 390.869358,153.631145 L390.869358,136.852879 Z"/>
      <g transform="translate(370.973 145.647)">
        <polyline fill="#CAFFF5" points=".488 3.913 5.716 9.145 14.821 .034"/>
        <polyline stroke="#5DD8C1" stroke-width="2.25" points=".488 3.913 5.716 9.145 14.821 .034"/>
      </g>
      <path fill="#CAFFF5" d="M335.16796,55.3621156 L322.927347,50.8008439 L310.685232,55.3621156 L310.685232,72.1403815 C310.685232,78.9048902 316.165723,84.3889364 322.927347,84.3889364 C329.68747,84.3889364 335.16796,78.9048902 335.16796,72.1403815 L335.16796,55.3621156 Z"/>
      <path stroke="#5DD8C1" stroke-width="2.25" d="M335.16796,55.3621156 L322.927347,50.8008439 L310.685232,55.3621156 L310.685232,72.1403815 C310.685232,78.9048902 316.165723,84.3889364 322.927347,84.3889364 C329.68747,84.3889364 335.16796,78.9048902 335.16796,72.1403815 L335.16796,55.3621156 Z"/>
      <g transform="translate(315.402 62.988)">
        <polyline fill="#CAFFF5" points=".358 5.082 5.586 10.313 14.691 1.203"/>
        <polyline stroke="#5DD8C1" stroke-width="2.25" points=".358 5.082 5.586 10.313 14.691 1.203"/>
      </g>
      <path fill="#CAFFF5" d="M331.912558,229.710601 L319.671945,225.150832 L307.42983,229.710601 L307.42983,246.49037 C307.42983,253.254879 312.91032,258.738925 319.671945,258.738925 C326.432067,258.738925 331.912558,253.254879 331.912558,246.49037 L331.912558,229.710601 Z"/>
      <path stroke="#5DD8C1" stroke-width="2.25" d="M331.912558,229.710601 L319.671945,225.150832 L307.42983,229.710601 L307.42983,246.49037 C307.42983,253.254879 312.91032,258.738925 319.671945,258.738925 C326.432067,258.738925 331.912558,253.254879 331.912558,246.49037 L331.912558,229.710601 Z"/>
      <g transform="translate(312.398 237.323)">
        <polyline fill="#CAFFF5" points=".107 5.096 5.335 10.326 14.439 1.217"/>
        <polyline stroke="#5DD8C1" stroke-width="2.25" points=".107 5.096 5.335 10.326 14.439 1.217"/>
      </g>
      <path fill="#DAF8FD" d="M233.214467,35.9507861 C232.352368,35.9507861 231.653977,34.4418844 231.653977,32.5813064 C231.653977,30.7192254 232.352368,29.2103237 233.214467,29.2103237 C234.076567,29.2103237 234.774958,30.7192254 234.774958,32.5813064 C234.774958,34.4418844 234.076567,35.9507861 233.214467,35.9507861 M222.972904,35.9507861 C222.110805,35.9507861 221.412414,34.4418844 221.412414,32.5813064 C221.412414,30.7192254 222.110805,29.2103237 222.972904,29.2103237 C223.835004,29.2103237 224.533395,30.7192254 224.533395,32.5813064 C224.533395,34.4418844 223.835004,35.9507861 222.972904,35.9507861 M239.932536,33.5296301 C239.932536,26.9574913 234.606743,21.6297457 228.038866,21.6297457 C221.470989,21.6297457 216.146697,26.9574913 216.146697,33.5296301 C216.146697,37.4596879 219.722759,39.9048902 223.001441,41.2379538 C222.915831,41.494948 222.857257,41.768474 222.857257,42.055526 C222.857257,43.4772601 224.007724,44.6269711 225.425533,44.6269711 C225.895632,44.6269711 226.331188,44.491711 226.711172,44.2707861 C227.089655,44.491711 227.525211,44.6269711 227.99531,44.6269711 C228.46541,44.6269711 228.900966,44.491711 229.279448,44.2707861 C229.659433,44.491711 230.093487,44.6269711 230.565088,44.6269711 C231.984398,44.6269711 233.134866,43.4772601 233.134866,42.055526 C233.134866,41.7804971 233.079295,41.5174913 232.998192,41.2680116 C236.299402,39.9424624 239.932536,37.4897457 239.932536,33.5296301"/>
      <path stroke="#00C8FF" stroke-width="2.25" d="M233.214467 35.9507861C232.352368 35.9507861 231.653977 34.4418844 231.653977 32.5813064 231.653977 30.7192254 232.352368 29.2103237 233.214467 29.2103237 234.076567 29.2103237 234.774958 30.7192254 234.774958 32.5813064 234.774958 34.4418844 234.076567 35.9507861 233.214467 35.9507861zM222.972904 35.9507861C222.110805 35.9507861 221.412414 34.4418844 221.412414 32.5813064 221.412414 30.7192254 222.110805 29.2103237 222.972904 29.2103237 223.835004 29.2103237 224.533395 30.7192254 224.533395 32.5813064 224.533395 34.4418844 223.835004 35.9507861 222.972904 35.9507861zM239.932536 33.5296301C239.932536 26.9574913 234.606743 21.6297457 228.038866 21.6297457 221.470989 21.6297457 216.146697 26.9574913 216.146697 33.5296301 216.146697 37.4596879 219.722759 39.9048902 223.001441 41.2379538 222.915831 41.494948 222.857257 41.768474 222.857257 42.055526 222.857257 43.4772601 224.007724 44.6269711 225.425533 44.6269711 225.895632 44.6269711 226.331188 44.491711 226.711172 44.2707861 227.089655 44.491711 227.525211 44.6269711 227.99531 44.6269711 228.46541 44.6269711 228.900966 44.491711 229.279448 44.2707861 229.659433 44.491711 230.093487 44.6269711 230.565088 44.6269711 231.984398 44.6269711 233.134866 43.4772601 233.134866 42.055526 233.134866 41.7804971 233.079295 41.5174913 232.998192 41.2680116 236.299402 39.9424624 239.932536 37.4897457 239.932536 33.5296301zM246.129591 20.5021272L246.982679 34.9118382M254.932169 20.2511445L254.256307 34.9118382"/>
      <path fill="#00C8FF" d="M249.500791 39.8680694C249.500791 38.9362775 248.746829 38.1818266 247.814139 38.1818266 246.884454 38.1818266 246.12899 38.9362775 246.12899 39.8680694 246.12899 40.7998613 246.884454 41.5543121 247.814139 41.5543121 248.746829 41.5543121 249.500791 40.7998613 249.500791 39.8680694M255.713165 39.8680694C255.713165 38.9362775 254.959203 38.1818266 254.028015 38.1818266 253.096828 38.1818266 252.341364 38.9362775 252.341364 39.8680694 252.341364 40.7998613 253.096828 41.5543121 254.028015 41.5543121 254.959203 41.5543121 255.713165 40.7998613 255.713165 39.8680694"/>
    </g>
    <rect width="425" height="260"/>
  </g>
</svg>
