<svg xmlns="http://www.w3.org/2000/svg" viewBox="0 0 266.02 172.91"><defs><style>.cls-1{fill:#dcfaff;}.cls-1,.cls-2,.cls-3,.cls-4,.cls-5,.cls-7{stroke:#00c8ff;}.cls-1,.cls-2,.cls-3,.cls-4,.cls-5,.cls-6,.cls-7{stroke-miterlimit:10;stroke-width:1.5px;}.cls-2,.cls-3,.cls-4,.cls-5{fill:none;}.cls-3{stroke-dasharray:2.02 2.02;}.cls-4{stroke-dasharray:2;}.cls-5{stroke-dasharray:1.97 1.97;}.cls-6{fill:#cafff5;stroke:#5dd8c1;}.cls-7{fill:#daf8fd;}.cls-8{fill:#00c8ff;}</style></defs><title>cert2</title><g id="Layer_2" data-name="Layer 2"><g id="Layer_1-2" data-name="Layer 1"><path class="cls-1" d="M132.86,2.71a22.4,22.4,0,0,0-3,39.29l.08,2.71L131,56.15l9.85-8.82,1.6-1.73a22.42,22.42,0,1,0-9.63-42.89Z"/><line class="cls-2" x1="128.93" y1="93.15" x2="128.23" y2="92.45"/><line class="cls-3" x1="126.8" y1="91.02" x2="73.27" y2="37.49"/><line class="cls-2" x1="72.55" y1="36.78" x2="71.85" y2="36.07"/><line class="cls-2" x1="71.85" y1="150.24" x2="71.14" y2="149.53"/><line class="cls-3" x1="69.71" y1="148.11" x2="16.18" y2="94.58"/><line class="cls-2" x1="15.47" y1="93.86" x2="14.76" y2="93.15"/><line class="cls-4" x1="14.76" y1="93.15" x2="71.85" y2="36.07"/><line class="cls-2" x1="71.85" y1="150.24" x2="72.55" y2="149.53"/><line class="cls-3" x1="73.98" y1="148.11" x2="127.51" y2="94.58"/><line class="cls-2" x1="128.23" y1="93.86" x2="128.93" y2="93.15"/><line class="cls-2" x1="128.93" y1="93.15" x2="127.93" y2="93.15"/><line class="cls-5" x1="125.96" y1="93.15" x2="16.74" y2="93.15"/><line class="cls-2" x1="15.76" y1="93.15" x2="14.76" y2="93.15"/><circle class="cls-1" cx="71.85" cy="36.07" r="14.01"/><circle class="cls-1" cx="71.85" cy="150.24" r="14.01"/><circle class="cls-1" cx="14.76" cy="93.15" r="14.01"/><polyline class="cls-2" points="70.72 88.03 65.59 93.16 70.72 98.28"/><polyline class="cls-2" points="46.93 68.24 46.93 60.98 39.68 60.98"/><polyline class="cls-2" points="36.05 121.7 43.3 121.7 43.3 114.44"/><polyline class="cls-2" points="99.59 56.56 92.34 56.56 92.34 63.82"/><line class="cls-2" x1="128.93" y1="93.15" x2="129.64" y2="93.86"/><line class="cls-3" x1="131.07" y1="95.29" x2="184.6" y2="148.82"/><line class="cls-2" x1="185.31" y1="149.53" x2="186.02" y2="150.24"/><line class="cls-2" x1="186.02" y1="36.07" x2="186.73" y2="36.78"/><line class="cls-3" x1="188.15" y1="38.2" x2="241.69" y2="91.73"/><line class="cls-2" x1="242.4" y1="92.45" x2="243.11" y2="93.15"/><line class="cls-4" x1="243.11" y1="93.15" x2="186.02" y2="150.24"/><line class="cls-2" x1="186.02" y1="36.07" x2="185.31" y2="36.78"/><line class="cls-3" x1="183.88" y1="38.2" x2="130.35" y2="91.73"/><line class="cls-2" x1="129.64" y1="92.45" x2="128.93" y2="93.15"/><line class="cls-2" x1="128.93" y1="93.15" x2="129.93" y2="93.15"/><line class="cls-5" x1="131.9" y1="93.15" x2="241.12" y2="93.15"/><line class="cls-2" x1="242.11" y1="93.15" x2="243.11" y2="93.15"/><circle class="cls-1" cx="128.93" cy="93.15" r="28.54"/><circle class="cls-1" cx="186.02" cy="150.24" r="14.01"/><circle class="cls-1" cx="186.02" cy="36.07" r="14.01"/><circle class="cls-1" cx="243.11" cy="93.15" r="14.01"/><polyline class="cls-2" points="187.15 98.28 192.28 93.16 187.15 88.03"/><polyline class="cls-2" points="210.94 118.07 210.94 125.33 218.19 125.33"/><polyline class="cls-2" points="93.14 121.7 93.14 128.95 100.39 128.95"/><polyline class="cls-2" points="221.82 64.61 214.56 64.61 214.56 71.86"/><polyline class="cls-2" points="163.71 65.63 163.71 58.38 156.46 58.38"/><polyline class="cls-2" points="158.27 129.75 165.53 129.75 165.53 122.49"/><path class="cls-6" d="M265.27,91.06l-8.15-3-8.15,3v11.16a8.14,8.14,0,0,0,8.15,8.15h0a8.15,8.15,0,0,0,8.15-8.15Z"/><polyline class="cls-6" points="252.34 99.52 255.82 103 261.89 96.93"/><path class="cls-6" d="M208.18,36.84l-8.15-3-8.15,3V48A8.15,8.15,0,0,0,200,56.15h0A8.15,8.15,0,0,0,208.18,48Z"/><polyline class="cls-6" points="195.26 45.29 198.74 48.77 204.8 42.71"/><path class="cls-6" d="M206,152.85l-8.15-3-8.15,3V164a8.15,8.15,0,0,0,8.15,8.15h0A8.15,8.15,0,0,0,206,164Z"/><polyline class="cls-6" points="193.09 161.3 196.57 164.78 202.63 158.72"/><path class="cls-6" d="M94,152.85l-8.15-3-8.15,3V164a8.15,8.15,0,0,0,8.15,8.15h0A8.15,8.15,0,0,0,94,164Z"/><polyline class="cls-6" points="81.08 161.3 84.57 164.78 90.63 158.72"/><path class="cls-6" d="M94,34.57l-8.15-3-8.15,3V45.74a8.15,8.15,0,0,0,8.15,8.15h0A8.15,8.15,0,0,0,94,45.74Z"/><polyline class="cls-6" points="81.08 43.03 84.57 46.51 90.63 40.45"/><path class="cls-6" d="M36.92,97l-8.15-3-8.15,3v11.17a8.15,8.15,0,0,0,8.15,8.15h0a8.15,8.15,0,0,0,8.15-8.15Z"/><polyline class="cls-6" points="24 105.41 27.48 108.89 33.54 102.83"/><path class="cls-7" d="M144.77,22.31a7.92,7.92,0,0,0-15.84,0c0,2.62,2.38,4.24,4.57,5.13a1.62,1.62,0,0,0-.1.54,1.71,1.71,0,0,0,1.71,1.71,1.81,1.81,0,0,0,.86-.23,1.7,1.7,0,0,0,1.71,0,1.74,1.74,0,0,0,.85.23A1.7,1.7,0,0,0,140.24,28a1.54,1.54,0,0,0-.09-.52C142.35,26.58,144.77,25,144.77,22.31Zm-11.29,1.61c-.58,0-1-1-1-2.24s.46-2.24,1-2.24,1,1,1,2.24S134.05,23.92,133.48,23.92Zm6.82,0c-.58,0-1-1-1-2.24s.46-2.24,1-2.24,1,1,1,2.24S140.87,23.92,140.3,23.92Z"/><line class="cls-2" x1="148.9" y1="13.64" x2="149.46" y2="23.23"/><line class="cls-2" x1="154.76" y1="13.48" x2="154.31" y2="23.23"/><circle class="cls-8" cx="150.02" cy="26.53" r="1.12"/><circle class="cls-8" cx="154.16" cy="26.53" r="1.12"/></g></g></svg>