<svg xmlns="http://www.w3.org/2000/svg" xmlns:xlink="http://www.w3.org/1999/xlink" width="70" height="70" viewBox="0 0 70 70">
    <defs>
        <path id="a" d="M16.958 4.625h12.334a3.083 3.083 0 0 1 3.083 3.083v9.25H16.958V4.625zM4.625 7.708a3.083 3.083 0 0 1 3.083-3.083h6.167v12.333h-9.25v-9.25zm0 12.334h15.417v12.333H7.708a3.083 3.083 0 0 1-3.083-3.083v-9.25zm27.75 0v9.25a3.083 3.083 0 0 1-3.083 3.083h-6.167V20.042h9.25z"/>
        <path id="c" d="M0 0h37v37H0z"/>
    </defs>
    <g fill="none" fill-rule="evenodd">
        <circle cx="35" cy="35" r="35" fill="#00C8FF" fill-rule="nonzero" opacity=".1"/>
        <g transform="translate(16.333 16.333)">
            <mask id="b" fill="#fff">
                <use xlink:href="#a"/>
            </mask>
            <use fill="#2E2E2E" fill-rule="nonzero" xlink:href="#a"/>
            <g mask="url(#b)">
                <use fill="#00A1F2" xlink:href="#c"/>
            </g>
        </g>
    </g>
</svg>
