<svg xmlns="http://www.w3.org/2000/svg" width="316" height="120" viewBox="0 0 316 120">
  <g fill="none" fill-rule="evenodd">
    <g transform="translate(2 19)">
      <polyline stroke="#00CBFF" stroke-width="1.56" points="62.034 55.705 66.799 60.482 62.119 65.173"/>
      <polyline stroke="#00CBFF" stroke-width="1.56" points="116.12 55.705 120.885 60.482 116.206 65.173"/>
      <g transform="translate(0 .89)">
        <path fill="#FFCCCD" d="M30.9513828,62.5319857 C30.0423636,62.5319857 29.3060341,60.9364262 29.3060341,58.9705333 C29.3060341,57.0022357 30.0423636,55.4078786 30.9513828,55.4078786 C31.8616011,55.4078786 32.5979307,57.0022357 32.5979307,58.9705333 C32.5979307,60.9364262 31.8616011,62.5319857 30.9513828,62.5319857 M20.1498847,62.5319857 C19.2396663,62.5319857 18.5033368,60.9364262 18.5033368,58.9705333 C18.5033368,57.0022357 19.2396663,55.4078786 20.1498847,55.4078786 C21.0589038,55.4078786 21.7952333,57.0022357 21.7952333,58.9705333 C21.7952333,60.9364262 21.0589038,62.5319857 20.1498847,62.5319857 M38.0364556,59.973319 C38.0364556,53.0271643 32.4216433,47.3964143 25.4924709,47.3964143 C18.5656969,47.3964143 12.9496854,53.0271643 12.9496854,59.973319 C12.9496854,64.1263429 16.7212755,66.7114619 20.1810648,68.1182476 C20.0875245,68.3923905 20.0275628,68.6797595 20.0275628,68.9839619 C20.0275628,70.4845333 21.2399881,71.7013429 22.7366318,71.7013429 C23.2331146,71.7013429 23.6924211,71.5582595 24.0917659,71.3237952 C24.49231,71.5582595 24.9504172,71.7013429 25.4469,71.7013429 C25.9433828,71.7013429 26.40149,71.5582595 26.8020341,71.3237952 C27.2013789,71.5582595 27.6606854,71.7013429 28.1571682,71.7013429 C29.6538119,71.7013429 30.8674364,70.4845333 30.8674364,68.9839619 C30.8674364,68.6917833 30.8086739,68.4152357 30.7247276,68.1519143 C34.2049038,66.7511405 38.0364556,64.1588071 38.0364556,59.973319"/>
        <path stroke="#FF7378" stroke-width="1.56" d="M30.9513828 62.5319857C30.0423636 62.5319857 29.3060341 60.9364262 29.3060341 58.9705333 29.3060341 57.0022357 30.0423636 55.4078786 30.9513828 55.4078786 31.8616011 55.4078786 32.5979307 57.0022357 32.5979307 58.9705333 32.5979307 60.9364262 31.8616011 62.5319857 30.9513828 62.5319857zM20.1498847 62.5319857C19.2396663 62.5319857 18.5033368 60.9364262 18.5033368 58.9705333 18.5033368 57.0022357 19.2396663 55.4078786 20.1498847 55.4078786 21.0589038 55.4078786 21.7952333 57.0022357 21.7952333 58.9705333 21.7952333 60.9364262 21.0589038 62.5319857 20.1498847 62.5319857zM38.0364556 59.973319C38.0364556 53.0271643 32.4216433 47.3964143 25.4924709 47.3964143 18.5656969 47.3964143 12.9496854 53.0271643 12.9496854 59.973319 12.9496854 64.1263429 16.7212755 66.7114619 20.1810648 68.1182476 20.0875245 68.3923905 20.0275628 68.6797595 20.0275628 68.9839619 20.0275628 70.4845333 21.2399881 71.7013429 22.7366318 71.7013429 23.2331146 71.7013429 23.6924211 71.5582595 24.0917659 71.3237952 24.49231 71.5582595 24.9504172 71.7013429 25.4469 71.7013429 25.9433828 71.7013429 26.40149 71.5582595 26.8020341 71.3237952 27.2013789 71.5582595 27.6606854 71.7013429 28.1571682 71.7013429 29.6538119 71.7013429 30.8674364 70.4845333 30.8674364 68.9839619 30.8674364 68.6917833 30.8086739 68.4152357 30.7247276 68.1519143 34.2049038 66.7511405 38.0364556 64.1588071 38.0364556 59.973319zM30.5860962 52.4044512L28.1156747 54.8801536M22.8707061 54.8802738L20.4002847 52.4045714"/>
        <path stroke="#00CBFF" stroke-width="1.56" d="M291.90308,45.9510321 C279.291939,81.3695679 250.288471,71.288806 250.288471,54.3232107 C250.288471,40.685806 264.915525,44.8893298 255.962046,58.4413655 C235.762153,89.0155083 210.730548,67.1610321 205.606222,63.3927702 C197.808805,57.6586155 193.242123,58.4413655 193.242123,58.4413655"/>
        <polygon fill="#D4FAFF" points="292.637 42.07 281.803 40.1 312.208 20.81"/>
        <polygon stroke="#00CBFF" stroke-linejoin="bevel" stroke-width="1.56" points="292.637 42.07 281.803 40.1 312.208 20.81"/>
        <polygon fill="#D4FAFF" points="312.208 20.811 292.638 42.07 303.304 51.942"/>
        <polygon stroke="#00CBFF" stroke-linejoin="bevel" stroke-width="1.56" points="312.208 20.811 292.638 42.07 303.304 51.942"/>
        <polyline stroke="#00CBFF" stroke-width="1.56" points="227.519 69.58 231.687 74.477 227.652 78.66"/>
        <path stroke="#00CBFF" stroke-width="1.56" d="M128.988739,59.5918036 L45.848264,59.5918036"/>
        <path fill="#D4FAFF" d="M193.242602,58.4410048 C193.242602,40.6517786 178.858993,26.229219 161.11633,26.229219 C143.372468,26.229219 128.988859,40.6517786 128.988859,58.4410048 C128.988859,76.230231 143.372468,90.6515881 161.11633,90.6515881 C178.858993,90.6515881 193.242602,76.230231 193.242602,58.4410048"/>
        <path stroke="#00CBFF" stroke-width="1.56" d="M193.242602,58.4410048 C193.242602,40.6517786 178.858993,26.229219 161.11633,26.229219 C143.372468,26.229219 128.988859,40.6517786 128.988859,58.4410048 C128.988859,76.230231 143.372468,90.6515881 161.11633,90.6515881 C178.858993,90.6515881 193.242602,76.230231 193.242602,58.4410048 Z"/>
        <path fill="#D4FAFF" d="M105.125907,58.4410048 C105.125907,50.0796476 98.3646272,43.3030286 90.0263552,43.3030286 C81.6868839,43.3030286 74.9268034,50.0796476 74.9268034,58.4410048 C74.9268034,66.8023619 81.6868839,73.578981 90.0263552,73.578981 C98.3646272,73.578981 105.125907,66.8023619 105.125907,58.4410048"/>
        <path stroke="#00CBFF" stroke-width="1.56" d="M105.125907 58.4410048C105.125907 50.0796476 98.3646272 43.3030286 90.0263552 43.3030286 81.6868839 43.3030286 74.9268034 50.0796476 74.9268034 58.4410048 74.9268034 66.8023619 81.6868839 73.578981 90.0263552 73.578981 98.3646272 73.578981 105.125907 66.8023619 105.125907 58.4410048zM156.901384 50.0919119L156.901384 66.7905786M165.416662 50.0919119L165.416662 66.7905786M165.416662 58.4410048L156.900904 58.4410048"/>
        <path fill="#D2F8FD" d="M292.453529,16.2297381 C291.54331,16.2297381 290.806981,14.635381 290.806981,12.6682857 C290.806981,10.7011905 291.54331,9.10683333 292.453529,9.10683333 C293.362548,9.10683333 294.100077,10.7011905 294.100077,12.6682857 C294.100077,14.635381 293.362548,16.2297381 292.453529,16.2297381 M281.650831,16.2297381 C280.741812,16.2297381 280.005483,14.635381 280.005483,12.6682857 C280.005483,10.7011905 280.741812,9.10683333 281.650831,9.10683333 C282.56105,9.10683333 283.297379,10.7011905 283.297379,12.6682857 C283.297379,14.635381 282.56105,16.2297381 281.650831,16.2297381 M299.538602,13.6710714 C299.538602,6.72491667 293.92259,1.09416667 286.994617,1.09416667 C280.067843,1.09416667 274.450632,6.72491667 274.450632,13.6710714 C274.450632,17.8240952 278.223421,20.4092143 281.683211,21.8172024 C281.58967,22.0901429 281.529709,22.3775119 281.529709,22.6817143 C281.529709,24.1822857 282.742134,25.3990952 284.238778,25.3990952 C284.734061,25.3990952 285.193368,25.2560119 285.593912,25.0215476 C285.993257,25.2560119 286.452563,25.3990952 286.949046,25.3990952 C287.44433,25.3990952 287.903636,25.2560119 288.30418,25.0215476 C288.703525,25.2560119 289.162831,25.3990952 289.659314,25.3990952 C291.155958,25.3990952 292.369582,24.1822857 292.369582,22.6817143 C292.369582,22.3895357 292.31082,22.1129881 292.225674,21.8496667 C295.70705,20.4488929 299.538602,17.8565595 299.538602,13.6710714"/>
        <path stroke="#00CBFF" stroke-width="1.56" d="M292.453529,16.2297381 C291.54331,16.2297381 290.806981,14.635381 290.806981,12.6682857 C290.806981,10.7011905 291.54331,9.10683333 292.453529,9.10683333 C293.362548,9.10683333 294.100077,10.7011905 294.100077,12.6682857 C294.100077,14.635381 293.362548,16.2297381 292.453529,16.2297381 Z M281.650831,16.2297381 C280.741812,16.2297381 280.005483,14.635381 280.005483,12.6682857 C280.005483,10.7011905 280.741812,9.10683333 281.650831,9.10683333 C282.56105,9.10683333 283.297379,10.7011905 283.297379,12.6682857 C283.297379,14.635381 282.56105,16.2297381 281.650831,16.2297381 Z M299.538602,13.6710714 C299.538602,6.72491667 293.92259,1.09416667 286.994617,1.09416667 C280.067843,1.09416667 274.450632,6.72491667 274.450632,13.6710714 C274.450632,17.8240952 278.223421,20.4092143 281.683211,21.8172024 C281.58967,22.0901429 281.529709,22.3775119 281.529709,22.6817143 C281.529709,24.1822857 282.742134,25.3990952 284.238778,25.3990952 C284.734061,25.3990952 285.193368,25.2560119 285.593912,25.0215476 C285.993257,25.2560119 286.452563,25.3990952 286.949046,25.3990952 C287.44433,25.3990952 287.903636,25.2560119 288.30418,25.0215476 C288.703525,25.2560119 289.162831,25.3990952 289.659314,25.3990952 C291.155958,25.3990952 292.369582,24.1822857 292.369582,22.6817143 C292.369582,22.3895357 292.31082,22.1129881 292.225674,21.8496667 C295.70705,20.4488929 299.538602,17.8565595 299.538602,13.6710714 Z"/>
        <polygon fill="#D4FAFF" points="64.416 92.345 58.086 98.691 44.257 84.828 43.158 77.378 50.588 78.48"/>
        <polygon stroke="#00CBFF" stroke-width="1.56" points="64.416 92.345 58.086 98.691 44.257 84.828 43.158 77.378 50.588 78.48"/>
        <path fill="#D4FAFF" d="M38.6562195,46.6914583 C31.4476257,39.4639464 19.7598939,39.4639464 12.5513,46.6914583 C5.34390536,53.9189702 5.34390536,65.637375 12.5513,72.8648869 C19.7598939,80.0923988 31.4476257,80.0923988 38.6562195,72.8648869 C45.8660126,65.637375 45.8660126,53.9189702 38.6562195,46.6914583 M43.1581429,77.3774226 C33.4635375,87.0974702 17.7451812,87.0974702 8.05057586,77.3774226 C-1.64283027,67.657375 -1.64283027,51.8989702 8.05057586,42.1789226 C17.7451812,32.458875 33.4635375,32.458875 43.1581429,42.1789226 C52.8527483,51.8989702 52.8527483,67.657375 43.1581429,77.3774226"/>
        <path stroke="#00CBFF" stroke-width="1.56" d="M38.6562195,46.6914583 C31.4476257,39.4639464 19.7598939,39.4639464 12.5513,46.6914583 C5.34390536,53.9189702 5.34390536,65.637375 12.5513,72.8648869 C19.7598939,80.0923988 31.4476257,80.0923988 38.6562195,72.8648869 C45.8660126,65.637375 45.8660126,53.9189702 38.6562195,46.6914583 Z M43.1581429,77.3774226 C33.4635375,87.0974702 17.7451812,87.0974702 8.05057586,77.3774226 C-1.64283027,67.657375 -1.64283027,51.8989702 8.05057586,42.1789226 C17.7451812,32.458875 33.4635375,32.458875 43.1581429,42.1789226 C52.8527483,51.8989702 52.8527483,67.657375 43.1581429,77.3774226 Z"/>
        <path fill="#00CBFF" d="M84.2318977,66.2947167 C83.1501889,66.2947167 82.273549,65.4157762 82.273549,64.3312286 C82.273549,63.246681 83.1501889,62.3677405 84.2318977,62.3677405 C85.3124073,62.3677405 86.1902464,63.246681 86.1902464,64.3312286 C86.1902464,65.4157762 85.3124073,66.2947167 84.2318977,66.2947167 Z M84.2318977,58.4407643 C87.4770241,58.4407643 90.1069437,61.0787881 90.1069437,64.3312286 L88.148595,64.3312286 C88.148595,62.1621333 86.3953153,60.4042524 84.2318977,60.4042524 L84.2318977,58.4407643 Z M84.2318977,56.4772762 L84.2318977,54.5137881 C89.6404418,54.5137881 94.023641,58.9096929 94.023641,64.3312286 L92.0652923,64.3312286 C92.0652923,59.9942405 88.5575337,56.4772762 84.2318977,56.4772762 Z M84.2318977,50.5868119 C91.8026602,50.5868119 97.9403383,56.7405976 97.9403383,64.3312286 L95.9819897,64.3312286 C95.9819897,57.8251452 90.7209513,52.5503 84.2318977,52.5503 L84.2318977,50.5868119 Z"/>
      </g>
    </g>
    <rect width="315" height="120" x=".5"/>
  </g>
</svg>
