<svg xmlns="http://www.w3.org/2000/svg" width="274" height="120" viewBox="0 0 274 120">
  <g fill="none" fill-rule="evenodd">
    <g transform="translate(44 29)">
      <polyline stroke="#00C8FF" stroke-width="1.5" points="137.249 40.873 141.831 45.456 137.331 49.956"/>
      <polyline stroke="#00C8FF" stroke-width="1.5" points="148.249 10.31 152.831 14.892 148.331 19.392"/>
      <path fill="#DCFAFF" d="M62.4769,45.5824 C62.4769,28.5174 48.6429,14.6834 31.5779,14.6834 C14.5119,14.6834 0.6779,28.5174 0.6779,45.5824 C0.6779,62.6474 14.5119,76.4814 31.5779,76.4814 C48.6429,76.4814 62.4769,62.6474 62.4769,45.5824"/>
      <path stroke="#00C8FF" stroke-width="1.5" d="M62.4769,45.5824 C62.4769,28.5174 48.6429,14.6834 31.5779,14.6834 C14.5119,14.6834 0.6779,28.5174 0.6779,45.5824 C0.6779,62.6474 14.5119,76.4814 31.5779,76.4814 C48.6429,76.4814 62.4769,62.6474 62.4769,45.5824 Z"/>
      <g transform="translate(62 45)">
        <path fill="#DCFAFF" d="M0.4769,0.5824 L70.6039,0.5824"/>
        <path stroke="#00C8FF" stroke-width="1.5" d="M0.4769,0.5824 L70.6039,0.5824"/>
      </g>
      <path fill="#FCFBC8" d="M160.888,45.5824 C160.888,37.7714 154.556,31.4394 146.745,31.4394 C138.935,31.4394 132.604,37.7714 132.604,45.5824 C132.604,53.3934 138.935,59.7254 146.745,59.7254 C154.556,59.7254 160.888,53.3934 160.888,45.5824"/>
      <path stroke="#D6CE72" stroke-width="1.5" d="M160.888,45.5824 C160.888,37.7714 154.556,31.4394 146.745,31.4394 C138.935,31.4394 132.604,37.7714 132.604,45.5824 C132.604,53.3934 138.935,59.7254 146.745,59.7254 C154.556,59.7254 160.888,53.3934 160.888,45.5824 Z"/>
      <g transform="translate(143 36)">
        <polyline fill="#FCFBC8" points=".917 18.957 6.983 9.582 3.745 9.582 .508 9.582 6.574 .207"/>
        <polyline stroke="#D6CE72" stroke-width="1.5" points=".917 18.957 6.983 9.582 3.745 9.582 .508 9.582 6.574 .207"/>
      </g>
      <path stroke="#00C8FF" stroke-width="1.5" d="M59.4778,32.2914 C70.5108,21.2584 85.4748,15.0604 101.0778,15.0604 L157.6038,15.0604"/>
      <polyline stroke="#00C8FF" stroke-width="1.5" points="106.249 80.69 110.831 76.108 106.331 71.608"/>
      <path stroke="#00C8FF" stroke-width="1.5" d="M59.4778,58.8763 C70.5108,69.9093 85.4748,76.1073 101.0778,76.1073 L157.6038,76.1073"/>
      <path fill="#FFCFCF" d="M185.888,15.0599 C185.888,7.2489 179.556,0.9179 171.745,0.9179 C163.935,0.9179 157.604,7.2489 157.604,15.0599 C157.604,22.8709 163.935,29.2029 171.745,29.2029 C179.556,29.2029 185.888,22.8709 185.888,15.0599"/>
      <path stroke="#FF7D7D" stroke-width="1.5" d="M185.888,15.0599 C185.888,7.2489 179.556,0.9179 171.745,0.9179 C163.935,0.9179 157.604,7.2489 157.604,15.0599 C157.604,22.8709 163.935,29.2029 171.745,29.2029 C179.556,29.2029 185.888,22.8709 185.888,15.0599 Z"/>
      <path fill="#A5D9F9" d="M185.888,76.1078 C185.888,83.9188 179.556,90.2508 171.745,90.2508 C163.935,90.2508 157.604,83.9188 157.604,76.1078 C157.604,68.2968 163.935,61.9658 171.745,61.9658 C179.556,61.9658 185.888,68.2968 185.888,76.1078"/>
      <path stroke="#45A9F4" stroke-width="1.5" d="M185.888,76.1078 C185.888,83.9188 179.556,90.2508 171.745,90.2508 C163.935,90.2508 157.604,83.9188 157.604,76.1078 C157.604,68.2968 163.935,61.9658 171.745,61.9658 C179.556,61.9658 185.888,68.2968 185.888,76.1078 Z"/>
      <path fill="#A5D9F9" d="M178.845,69.0589 L171.745,66.4149 L164.647,69.0589 L164.647,78.7839 C164.647,82.7039 167.824,85.8819 171.745,85.8819 C175.666,85.8819 178.845,82.7039 178.845,78.7839 L178.845,69.0589 Z"/>
      <path stroke="#45A9F4" stroke-width="1.5" d="M178.845,69.0589 L171.745,66.4149 L164.647,69.0589 L164.647,78.7839 C164.647,82.7039 167.824,85.8819 171.745,85.8819 C175.666,85.8819 178.845,82.7039 178.845,78.7839 L178.845,69.0589 Z"/>
      <polygon fill="#A5D9F9" points="171.745 71.944 172.689 74.85 175.745 74.85 173.273 76.646 174.217 79.551 171.745 77.756 169.273 79.551 170.218 76.646 167.746 74.85 170.801 74.85"/>
      <polygon stroke="#45A9F4" stroke-width="1.5" points="171.745 71.944 172.689 74.85 175.745 74.85 173.273 76.646 174.217 79.551 171.745 77.756 169.273 79.551 170.218 76.646 167.746 74.85 170.801 74.85"/>
      <path fill="#FFCFCF" d="M173.1409,10.1009 L171.7449,11.4959 L170.3509,10.1009 C168.8599,8.6089 166.4409,8.6089 164.9499,10.1009 C163.4579,11.5919 163.4579,14.0099 164.9499,15.5009 L166.3439,16.8969 L171.7449,22.2969 L177.1469,16.8969 L178.5409,15.5009 C180.0339,14.0099 180.0339,11.5919 178.5409,10.1009 C177.0499,8.6089 174.6319,8.6089 173.1409,10.1009"/>
      <path stroke="#FF7D7D" stroke-width="1.5" d="M173.1409,10.1009 L171.7449,11.4959 L170.3509,10.1009 C168.8599,8.6089 166.4409,8.6089 164.9499,10.1009 C163.4579,11.5919 163.4579,14.0099 164.9499,15.5009 L166.3439,16.8969 L171.7449,22.2969 L177.1469,16.8969 L178.5409,15.5009 C180.0339,14.0099 180.0339,11.5919 178.5409,10.1009 C177.0499,8.6089 174.6319,8.6089 173.1409,10.1009 Z"/>
      <path stroke="#00C8FF" stroke-width="1.5" d="M27.4827 37.5736L27.4827 53.5926M35.6732 37.5736L35.6732 53.5926M35.6732 45.5824L27.4832 45.5824"/>
    </g>
    <rect width="274" height="120"/>
  </g>
</svg>
