<svg xmlns="http://www.w3.org/2000/svg" width="274" height="120" viewBox="0 0 274 120">
  <g fill="none" fill-rule="evenodd">
    <rect width="274" height="120"/>
    <g transform="translate(30 13)">
      <polyline stroke="#00CBFF" stroke-width="1.872" points="110.227 48.774 115.512 54.072 110.321 59.274"/>
      <polyline stroke="#00CBFF" stroke-width="1.872" points="122.917 13.438 128.204 18.736 123.011 23.939"/>
      <path fill="#D4FAFF" d="M72.4157517,54.025023 L153.32357,54.025023 L72.4157517,54.025023 Z"/>
      <path stroke="#00CBFF" stroke-width="1.872" d="M72.4154631,54.0244446 L153.323282,54.0244446"/>
      <g transform="translate(0 1.052)">
        <path fill="#FBFAC1" d="M185.956386,52.9723743 C185.956386,43.9424419 178.652158,36.6216176 169.639473,36.6216176 C160.628232,36.6216176 153.324003,43.9424419 153.324003,52.9723743 C153.324003,62.0023068 160.628232,69.3231311 169.639473,69.3231311 C178.652158,69.3231311 185.956386,62.0023068 185.956386,52.9723743"/>
        <path stroke="#D7CD62" stroke-width="1.872" d="M185.956386,52.9723743 C185.956386,43.9424419 178.652158,36.6216176 169.639473,36.6216176 C160.628232,36.6216176 153.324003,43.9424419 153.324003,52.9723743 C153.324003,62.0023068 160.628232,69.3231311 169.639473,69.3231311 C178.652158,69.3231311 185.956386,62.0023068 185.956386,52.9723743 Z"/>
        <g transform="translate(164.497 41.932)">
          <polyline fill="#FBFAC1" points="1.88 21.878 8.88 11.039 5.144 11.039 1.408 11.039 8.405 .201"/>
          <polyline stroke="#D7CD62" stroke-width="1.872" points="1.88 21.878 8.88 11.039 5.144 11.039 1.408 11.039 8.405 .201"/>
        </g>
        <path stroke="#00CBFF" stroke-width="1.872" d="M68.9546846,37.6057284 C81.6844161,24.8510392 98.947906,17.6849311 116.950188,17.6849311 L182.167336,17.6849311"/>
        <polyline stroke="#00CBFF" stroke-width="1.872" points="122.917 93.561 128.204 88.263 123.011 83.061"/>
        <path stroke="#00CBFF" stroke-width="1.872" d="M68.9546846,68.3419122 C81.6844161,81.0980473 98.947906,88.2641554 116.950188,88.2641554 L182.167336,88.2641554"/>
        <path fill="#FFCCCD" d="M214.800007,17.6843527 C214.800007,8.65442027 207.495779,1.33359595 198.483094,1.33359595 C189.471852,1.33359595 182.167624,8.65442027 182.167624,17.6843527 C182.167624,26.7142851 189.471852,34.0351095 198.483094,34.0351095 C207.495779,34.0351095 214.800007,26.7142851 214.800007,17.6843527"/>
        <path stroke="#FF7378" stroke-width="1.872" d="M214.800007,17.6843527 C214.800007,8.65442027 207.495779,1.33359595 198.483094,1.33359595 C189.471852,1.33359595 182.167624,8.65442027 182.167624,17.6843527 C182.167624,26.7142851 189.471852,34.0351095 198.483094,34.0351095 C207.495779,34.0351095 214.800007,26.7142851 214.800007,17.6843527 Z"/>
        <path fill="#95DAFC" d="M214.800007,88.2638662 C214.800007,97.2937986 207.495779,104.614623 198.483094,104.614623 C189.471852,104.614623 182.167624,97.2937986 182.167624,88.2638662 C182.167624,79.2339338 189.471852,71.9131095 198.483094,71.9131095 C207.495779,71.9131095 214.800007,79.2339338 214.800007,88.2638662"/>
        <path stroke="#00ABFA" stroke-width="1.872" d="M214.800007,88.2638662 C214.800007,97.2937986 207.495779,104.614623 198.483094,104.614623 C189.471852,104.614623 182.167624,97.2937986 182.167624,88.2638662 C182.167624,79.2339338 189.471852,71.9131095 198.483094,71.9131095 C207.495779,71.9131095 214.800007,79.2339338 214.800007,88.2638662 Z"/>
        <path fill="#95DAFC" d="M206.67344,80.1142257 L198.483238,77.0589419 L190.291594,80.1142257 L190.291594,91.3564554 C190.291594,95.8894959 193.958138,99.5636446 198.483238,99.5636446 C203.006896,99.5636446 206.67344,95.8894959 206.67344,91.3564554 L206.67344,80.1142257 Z"/>
        <path stroke="#00ABFA" stroke-width="1.872" d="M206.67344,80.1142257 L198.483238,77.0589419 L190.291594,80.1142257 L190.291594,91.3564554 C190.291594,95.8894959 193.958138,99.5636446 198.483238,99.5636446 C203.006896,99.5636446 206.67344,95.8894959 206.67344,91.3564554 L206.67344,80.1142257 Z"/>
        <polygon fill="#95DAFC" points="198.484 83.449 199.573 86.808 203.097 86.808 200.246 88.885 201.335 92.245 198.484 90.167 195.631 92.245 196.72 88.885 193.869 86.808 197.394 86.808"/>
        <polygon stroke="#00ABFA" stroke-width="1.872" points="198.484 83.449 199.573 86.808 203.097 86.808 200.246 88.885 201.335 92.245 198.484 90.167 195.631 92.245 196.72 88.885 193.869 86.808 197.394 86.808"/>
        <path fill="#FFCCCD" d="M200.092852,11.9507432 L198.48396,13.562973 L196.875067,11.9507432 C195.152181,10.2257297 192.364396,10.2257297 190.64151,11.9507432 C188.92151,13.6743108 188.92151,16.4707703 190.64151,18.1943378 L192.250403,19.8080135 L198.48396,26.0516081 L204.714631,19.8080135 L206.323523,18.1943378 C208.044966,16.4707703 208.044966,13.6743108 206.323523,11.9507432 C204.603523,10.2257297 201.812852,10.2257297 200.092852,11.9507432"/>
        <path stroke="#FF7378" stroke-width="1.872" d="M200.092852,11.9507432 L198.48396,13.562973 L196.875067,11.9507432 C195.152181,10.2257297 192.364396,10.2257297 190.64151,11.9507432 C188.92151,13.6743108 188.92151,16.4707703 190.64151,18.1943378 L192.250403,19.8080135 L198.48396,26.0516081 L204.714631,19.8080135 L206.323523,18.1943378 C208.044966,16.4707703 208.044966,13.6743108 206.323523,11.9507432 C204.603523,10.2257297 201.812852,10.2257297 200.092852,11.9507432 Z"/>
        <path fill="#D4FAFF" d="M0.938496644,52.9723743 C0.938496644,33.2424419 16.900443,17.2473878 36.588094,17.2473878 C56.2771879,17.2473878 72.2376913,33.2424419 72.2376913,52.9723743 C72.2376913,72.7023068 56.2771879,88.6959149 36.588094,88.6959149 C16.900443,88.6959149 0.938496644,72.7023068 0.938496644,52.9723743"/>
        <path stroke="#00CBFF" stroke-width="1.872" d="M.938496644 52.9723743C.938496644 33.2424419 16.900443 17.2473878 36.588094 17.2473878 56.2771879 17.2473878 72.2376913 33.2424419 72.2376913 52.9723743 72.2376913 72.7023068 56.2771879 88.6959149 36.588094 88.6959149 16.900443 88.6959149.938496644 72.7023068.938496644 52.9723743zM41.3130436 43.7121027L41.3130436 62.2317784M31.8634329 43.7121027L31.8634329 62.2317784M31.8634329 52.9723743L41.3133322 52.9723743"/>
      </g>
    </g>
  </g>
</svg>
