<svg xmlns="http://www.w3.org/2000/svg" width="274" height="120" viewBox="0 0 274 120">
  <g fill="none" fill-rule="evenodd">
    <g transform="translate(25 11)">
      <polyline stroke="#00C8FF" stroke-width="1.8" points="164.552 48.958 170.045 54.447 164.65 59.837"/>
      <polyline stroke="#00C8FF" stroke-width="1.8" points="177.74 12.349 183.233 17.838 177.838 23.228"/>
      <path fill="#DCFAFF" d="M74.9051005,54.5986989 C74.9051005,34.1582044 58.3191758,17.5878088 37.8595253,17.5878088 C17.3986758,17.5878088 0.812751075,34.1582044 0.812751075,54.5986989 C0.812751075,75.0391934 17.3986758,91.609589 37.8595253,91.609589 C58.3191758,91.609589 74.9051005,75.0391934 74.9051005,54.5986989"/>
      <path stroke="#00C8FF" stroke-width="1.8" d="M74.9051005,54.5986989 C74.9051005,34.1582044 58.3191758,17.5878088 37.8595253,17.5878088 C17.3986758,17.5878088 0.812751075,34.1582044 0.812751075,54.5986989 C0.812751075,75.0391934 17.3986758,91.609589 37.8595253,91.609589 C58.3191758,91.609589 74.9051005,75.0391934 74.9051005,54.5986989 Z"/>
      <g transform="translate(74.333 53.901)">
        <path fill="#DCFAFF" d="M0.571767204,0.6976 L84.6487618,0.6976"/>
        <path stroke="#00C8FF" stroke-width="1.8" d="M0.571767204,0.6976 L84.6487618,0.6976"/>
      </g>
      <path fill="#FCFBC8" d="M192.892602,54.5986989 C192.892602,45.2426659 185.301011,37.6581824 175.93621,37.6581824 C166.572608,37.6581824 158.982215,45.2426659 158.982215,54.5986989 C158.982215,63.9547319 166.572608,71.5392154 175.93621,71.5392154 C185.301011,71.5392154 192.892602,63.9547319 192.892602,54.5986989"/>
      <path stroke="#D6CE72" stroke-width="1.8" d="M192.892602,54.5986989 C192.892602,45.2426659 185.301011,37.6581824 175.93621,37.6581824 C166.572608,37.6581824 158.982215,45.2426659 158.982215,54.5986989 C158.982215,63.9547319 166.572608,71.5392154 175.93621,71.5392154 C185.301011,71.5392154 192.892602,63.9547319 192.892602,54.5986989 Z"/>
      <g transform="translate(171.446 43.12)">
        <polyline fill="#FCFBC8" points="1.1 22.707 8.372 11.478 4.49 11.478 .609 11.478 7.882 .248"/>
        <polyline stroke="#D6CE72" stroke-width="1.8" points="1.1 22.707 8.372 11.478 4.49 11.478 .609 11.478 7.882 .248"/>
      </g>
      <path stroke="#00C8FF" stroke-width="1.8" d="M71.3094054,38.6787099 C84.5371419,25.4633582 102.477852,18.0393802 121.184674,18.0393802 L188.955094,18.0393802"/>
      <polyline stroke="#00C8FF" stroke-width="1.8" points="127.385 96.65 132.878 91.162 127.483 85.772"/>
      <path stroke="#00C8FF" stroke-width="1.8" d="M71.3094054,70.5221615 C84.5371419,83.7375132 102.477852,91.1614912 121.184674,91.1614912 L188.955094,91.1614912"/>
      <path fill="#FFCFCF" d="M222.86572,18.0387813 C222.86572,8.68274835 215.274129,1.09946264 205.909328,1.09946264 C196.545726,1.09946264 188.955333,8.68274835 188.955333,18.0387813 C188.955333,27.3948143 196.545726,34.9792978 205.909328,34.9792978 C215.274129,34.9792978 222.86572,27.3948143 222.86572,18.0387813"/>
      <path stroke="#FF7D7D" stroke-width="1.8" d="M222.86572,18.0387813 C222.86572,8.68274835 215.274129,1.09946264 205.909328,1.09946264 C196.545726,1.09946264 188.955333,8.68274835 188.955333,18.0387813 C188.955333,27.3948143 196.545726,34.9792978 205.909328,34.9792978 C215.274129,34.9792978 222.86572,27.3948143 222.86572,18.0387813 Z"/>
      <path fill="#A5D9F9" d="M222.86572,91.1620901 C222.86572,100.518123 215.274129,108.102607 205.909328,108.102607 C196.545726,108.102607 188.955333,100.518123 188.955333,91.1620901 C188.955333,81.8060571 196.545726,74.2227714 205.909328,74.2227714 C215.274129,74.2227714 222.86572,81.8060571 222.86572,91.1620901"/>
      <path stroke="#45A9F4" stroke-width="1.8" d="M222.86572,91.1620901 C222.86572,100.518123 215.274129,108.102607 205.909328,108.102607 C196.545726,108.102607 188.955333,100.518123 188.955333,91.1620901 C188.955333,81.8060571 196.545726,74.2227714 205.909328,74.2227714 C215.274129,74.2227714 222.86572,81.8060571 222.86572,91.1620901 Z"/>
      <path fill="#A5D9F9" d="M214.421694,82.7189022 L205.909328,79.5519132 L197.39936,82.7189022 L197.39936,94.3675286 C197.39936,99.0629132 201.208344,102.869529 205.909328,102.869529 C210.610312,102.869529 214.421694,99.0629132 214.421694,94.3675286 L214.421694,82.7189022 Z"/>
      <path stroke="#45A9F4" stroke-width="1.8" d="M214.421694,82.7189022 L205.909328,79.5519132 L197.39936,82.7189022 L197.39936,94.3675286 C197.39936,99.0629132 201.208344,102.869529 205.909328,102.869529 C210.610312,102.869529 214.421694,99.0629132 214.421694,94.3675286 L214.421694,82.7189022 Z"/>
      <polygon fill="#A5D9F9" points="205.91 86.174 207.042 89.655 210.706 89.655 207.742 91.806 208.874 95.286 205.91 93.136 202.946 95.286 204.079 91.806 201.115 89.655 204.778 89.655"/>
      <polygon stroke="#45A9F4" stroke-width="1.8" points="205.91 86.174 207.042 89.655 210.706 89.655 207.742 91.806 208.874 95.286 205.91 93.136 202.946 95.286 204.079 91.806 201.115 89.655 204.778 89.655"/>
      <path fill="#FFCFCF" d="M207.582907,12.0988802 L205.909208,13.7698143 L204.237907,12.0988802 C202.45031,10.3117593 199.550111,10.3117593 197.762515,12.0988802 C195.973719,13.8848033 195.973719,16.781089 197.762515,18.5670121 L199.433816,20.239144 L205.909208,26.7072758 L212.385799,20.239144 L214.057101,18.5670121 C215.847095,16.781089 215.847095,13.8848033 214.057101,12.0988802 C212.269504,10.3117593 209.370504,10.3117593 207.582907,12.0988802"/>
      <path stroke="#FF7D7D" stroke-width="1.8" d="M207.582907,12.0988802 L205.909208,13.7698143 L204.237907,12.0988802 C202.45031,10.3117593 199.550111,10.3117593 197.762515,12.0988802 C195.973719,13.8848033 195.973719,16.781089 197.762515,18.5670121 L199.433816,20.239144 L205.909208,26.7072758 L212.385799,20.239144 L214.057101,18.5670121 C215.847095,16.781089 215.847095,13.8848033 214.057101,12.0988802 C212.269504,10.3117593 209.370504,10.3117593 207.582907,12.0988802 Z"/>
      <path stroke="#00C8FF" stroke-width="1.8" d="M32.9496887 45.0057407L32.9496887 64.1933341M42.7694817 45.0057407L42.7694817 64.1933341M42.7694817 54.5986989L32.9502882 54.5986989"/>
    </g>
    <rect width="274" height="120"/>
  </g>
</svg>
