<svg xmlns="http://www.w3.org/2000/svg" width="491" height="161" viewBox="0 0 491 161">
  <g fill="none" fill-rule="evenodd" transform="translate(2 -1)">
    <polygon fill="#DCFAFF" points="240.906 73.832 233.754 80.976 218.135 65.371 216.893 56.988 225.286 58.228"/>
    <polygon stroke="#00C8FF" stroke-width="2.25" points="240.906 73.832 233.754 80.976 218.135 65.371 216.893 56.988 225.286 58.228"/>
    <g transform="translate(0 1.39)">
      <path fill="#DCFAFF" d="M211.808667,21.06015 C203.665824,12.92565 190.464298,12.92565 182.321455,21.06015 C174.178612,29.19465 174.178612,42.38265 182.321455,50.51865 C190.464298,58.65315 203.665824,58.65315 211.808667,50.51865 C219.95151,42.38265 219.95151,29.19465 211.808667,21.06015 M216.892876,55.59615 C205.942156,66.53565 188.187966,66.53565 177.237246,55.59615 C166.286526,44.65665 166.286526,26.92065 177.237246,15.98115 C188.187966,5.04015 205.942156,5.04015 216.892876,15.98115 C227.843596,26.92065 227.843596,44.65665 216.892876,55.59615"/>
      <path stroke="#00C8FF" stroke-width="2.25" d="M211.808667,21.06015 C203.665824,12.92565 190.464298,12.92565 182.321455,21.06015 C174.178612,29.19465 174.178612,42.38265 182.321455,50.51865 C190.464298,58.65315 203.665824,58.65315 211.808667,50.51865 C219.95151,42.38265 219.95151,29.19465 211.808667,21.06015 Z M216.892876,55.59615 C205.942156,66.53565 188.187966,66.53565 177.237246,55.59615 C166.286526,44.65665 166.286526,26.92065 177.237246,15.98115 C188.187966,5.04015 205.942156,5.04015 216.892876,15.98115 C227.843596,26.92065 227.843596,44.65665 216.892876,55.59615 Z"/>
      <path fill="#DCFAFF" d="M296.402191,117.67395 C296.402191,96.67095 279.358228,79.64445 258.333686,79.64445 C237.310646,79.64445 220.266683,96.67095 220.266683,117.67395 C220.266683,138.67695 237.310646,155.70345 258.333686,155.70345 C279.358228,155.70345 296.402191,138.67695 296.402191,117.67395"/>
      <path stroke="#00C8FF" stroke-width="2.25" d="M296.402191,117.67395 C296.402191,96.67095 279.358228,79.64445 258.333686,79.64445 C237.310646,79.64445 220.266683,96.67095 220.266683,117.67395 C220.266683,138.67695 237.310646,155.70345 258.333686,155.70345 C279.358228,155.70345 296.402191,138.67695 296.402191,117.67395 Z"/>
      <polyline stroke="#00C8FF" stroke-width="2.25" points="306.717 .904 313.597 7.778 306.84 14.528"/>
      <path stroke="#00C8FF" stroke-width="2.25" d="M348.869548,85.7271 L348.869548,7.7151 L400.541991,7.7151 L412.512256,7.7151 C424.769314,7.7151 434.706496,17.6421 434.706496,29.8866 L434.706496,41.6751"/>
      <path fill="#00C8FF" d="M353.103586 85.5162C353.103586 87.8532 351.207143 89.7462 348.869248 89.7462 346.531353 89.7462 344.63491 87.8532 344.63491 85.5162 344.63491 83.1807 346.531353 81.2877 348.869248 81.2877 351.207143 81.2877 353.103586 83.1807 353.103586 85.5162M430.471557 41.46255C430.471557 43.79955 432.368 45.69255 434.705895 45.69255 437.043791 45.69255 438.940234 43.79955 438.940234 41.46255 438.940234 39.12705 437.043791 37.23405 434.705895 37.23405 432.368 37.23405 430.471557 39.12705 430.471557 41.46255"/>
      <path stroke="#00C8FF" stroke-width="2.25" d="M395.267537,7.7154 L280.293236,7.7154 C268.036177,7.7154 258.100497,17.6424 258.100497,29.8854 L258.100497,79.6449"/>
      <path fill="#FFCFCF" d="M139.681216,155.83605 L113.962865,155.83605 C111.425265,155.83605 109.366656,153.77955 109.366656,151.24305 L109.366656,84.04305 C109.366656,81.50655 111.425265,79.45155 113.962865,79.45155 L139.681216,79.45155 C142.218816,79.45155 144.277425,81.50655 144.277425,84.04305 L144.277425,151.24305 C144.277425,153.77955 142.218816,155.83605 139.681216,155.83605"/>
      <path stroke="#FF7D7D" stroke-width="2.25" d="M139.681216,155.83605 L113.962865,155.83605 C111.425265,155.83605 109.366656,153.77955 109.366656,151.24305 L109.366656,84.04305 C109.366656,81.50655 111.425265,79.45155 113.962865,79.45155 L139.681216,79.45155 C142.218816,79.45155 144.277425,81.50655 144.277425,84.04305 L144.277425,151.24305 C144.277425,153.77955 142.218816,155.83605 139.681216,155.83605 Z"/>
      <path fill="#FFCFCF" d="M184.72737,155.83605 L159.009019,155.83605 C156.471419,155.83605 154.41281,153.77955 154.41281,151.24305 L154.41281,84.04305 C154.41281,81.50655 156.471419,79.45155 159.009019,79.45155 L184.72737,79.45155 C187.26497,79.45155 189.323579,81.50655 189.323579,84.04305 L189.323579,151.24305 C189.323579,153.77955 187.26497,155.83605 184.72737,155.83605"/>
      <path stroke="#FF7D7D" stroke-width="2.25" d="M184.72737,155.83605 L159.009019,155.83605 C156.471419,155.83605 154.41281,153.77955 154.41281,151.24305 L154.41281,84.04305 C154.41281,81.50655 156.471419,79.45155 159.009019,79.45155 L184.72737,79.45155 C187.26497,79.45155 189.323579,81.50655 189.323579,84.04305 L189.323579,151.24305 C189.323579,153.77955 187.26497,155.83605 184.72737,155.83605 Z"/>
      <path fill="#FFCFCF" d="M123.732625,68.5329 C123.732625,67.8774 123.201081,67.3449 122.543407,67.3449 C121.887234,67.3449 121.35569,67.8774 121.35569,68.5329 C121.35569,69.1884 121.887234,69.7209 122.543407,69.7209 C123.201081,69.7209 123.732625,69.1884 123.732625,68.5329"/>
      <path stroke="#FF7D7D" stroke-width="2.25" d="M123.732625,68.5329 C123.732625,67.8774 123.201081,67.3449 122.543407,67.3449 C121.887234,67.3449 121.35569,67.8774 121.35569,68.5329 C121.35569,69.1884 121.887234,69.7209 122.543407,69.7209 C123.201081,69.7209 123.732625,69.1884 123.732625,68.5329 Z"/>
      <path fill="#FFCFCF" d="M138.920987,68.5329 C138.920987,67.8774 138.389442,67.3449 137.731769,67.3449 C137.075596,67.3449 136.544052,67.8774 136.544052,68.5329 C136.544052,69.1884 137.075596,69.7209 137.731769,69.7209 C138.389442,69.7209 138.920987,69.1884 138.920987,68.5329"/>
      <path stroke="#FF7D7D" stroke-width="2.25" d="M138.920987,68.5329 C138.920987,67.8774 138.389442,67.3449 137.731769,67.3449 C137.075596,67.3449 136.544052,67.8774 136.544052,68.5329 C136.544052,69.1884 137.075596,69.7209 137.731769,69.7209 C138.389442,69.7209 138.920987,69.1884 138.920987,68.5329 Z"/>
      <path fill="#FFCFCF" d="M131.326806,70.9074 C131.326806,70.2519 130.795262,69.7209 130.137588,69.7209 C129.481415,69.7209 128.949871,70.2519 128.949871,70.9074 C128.949871,71.5629 129.481415,72.0954 130.137588,72.0954 C130.795262,72.0954 131.326806,71.5629 131.326806,70.9074"/>
      <path stroke="#FF7D7D" stroke-width="2.25" d="M131.326806,70.9074 C131.326806,70.2519 130.795262,69.7209 130.137588,69.7209 C129.481415,69.7209 128.949871,70.2519 128.949871,70.9074 C128.949871,71.5629 129.481415,72.0954 130.137588,72.0954 C130.795262,72.0954 131.326806,71.5629 131.326806,70.9074 Z"/>
      <path fill="#FFCFCF" d="M159.972556,70.9074 C159.972556,70.2519 159.441012,69.7209 158.783338,69.7209 C158.127166,69.7209 157.595621,70.2519 157.595621,70.9074 C157.595621,71.5629 158.127166,72.0954 158.783338,72.0954 C159.441012,72.0954 159.972556,71.5629 159.972556,70.9074"/>
      <path stroke="#FF7D7D" stroke-width="2.25" d="M159.972556,70.9074 C159.972556,70.2519 159.441012,69.7209 158.783338,69.7209 C158.127166,69.7209 157.595621,70.2519 157.595621,70.9074 C157.595621,71.5629 158.127166,72.0954 158.783338,72.0954 C159.441012,72.0954 159.972556,71.5629 159.972556,70.9074 Z"/>
      <path fill="#FFCFCF" d="M167.566737,68.5329 C167.566737,67.8774 167.035193,67.3449 166.377519,67.3449 C165.721346,67.3449 165.189802,67.8774 165.189802,68.5329 C165.189802,69.1884 165.721346,69.7209 166.377519,69.7209 C167.035193,69.7209 167.566737,69.1884 167.566737,68.5329"/>
      <path stroke="#FF7D7D" stroke-width="2.25" d="M167.566737,68.5329 C167.566737,67.8774 167.035193,67.3449 166.377519,67.3449 C165.721346,67.3449 165.189802,67.8774 165.189802,68.5329 C165.189802,69.1884 165.721346,69.7209 166.377519,69.7209 C167.035193,69.7209 167.566737,69.1884 167.566737,68.5329 Z"/>
      <path fill="#FFCFCF" d="M175.160318,70.9074 C175.160318,70.2519 174.628773,69.7209 173.971099,69.7209 C173.314927,69.7209 172.783382,70.2519 172.783382,70.9074 C172.783382,71.5629 173.314927,72.0954 173.971099,72.0954 C174.628773,72.0954 175.160318,71.5629 175.160318,70.9074"/>
      <path stroke="#FF7D7D" stroke-width="2.25" d="M175.160318 70.9074C175.160318 70.2519 174.628773 69.7209 173.971099 69.7209 173.314927 69.7209 172.783382 70.2519 172.783382 70.9074 172.783382 71.5629 173.314927 72.0954 173.971099 72.0954 174.628773 72.0954 175.160318 71.5629 175.160318 70.9074zM176.37296 90.08805L182.754498 90.08805M131.326806 90.08805L137.708345 90.08805"/>
      <path fill="#FFCFCF" d="M88.9925809,48.80145 L32.8245317,48.80145 C30.0917317,48.80145 27.8769625,51.01545 27.8769625,53.74395 L27.8769625,149.47545 C27.8769625,152.20695 30.0917317,154.41795 32.8245317,154.41795 L88.9925809,154.41795 C91.7253809,154.41795 93.9401502,152.20695 93.9401502,149.47545 L93.9401502,53.74395 C93.9401502,51.01545 91.7253809,48.80145 88.9925809,48.80145"/>
      <path stroke="#FF7D7D" stroke-width="2.25" d="M88.9925809,48.80145 L32.8245317,48.80145 C30.0917317,48.80145 27.8769625,51.01545 27.8769625,53.74395 L27.8769625,149.47545 C27.8769625,152.20695 30.0917317,154.41795 32.8245317,154.41795 L88.9925809,154.41795 C91.7253809,154.41795 93.9401502,152.20695 93.9401502,149.47545 L93.9401502,53.74395 C93.9401502,51.01545 91.7253809,48.80145 88.9925809,48.80145 Z"/>
      <path stroke="#FF7D7D" stroke-width="2.25" d="M82.4533809 62.382L39.3637317 62.382C37.6279532 62.382 36.2225132 63.7875 36.2225132 65.52L36.2225132 73.407C36.2225132 75.1395 37.6279532 76.5435 39.3637317 76.5435L82.4533809 76.5435C84.1891594 76.5435 85.5945994 75.1395 85.5945994 73.407L85.5945994 65.52C85.5945994 63.7875 84.1891594 62.382 82.4533809 62.382zM43.0189268 66.02055L43.0189268 72.90555M39.2108751 98.42145C51.2036628 86.44095 70.6140505 86.44095 82.6068382 98.42145M79.0184615 55.257L75.4778338 58.7955"/>
      <path stroke="#FF7D7D" stroke-width="2.25" d="M80.0830523,69.46305 C80.0830523,67.89855 78.8127508,66.63105 77.2481477,66.63105 C75.6820431,66.63105 74.4132431,67.89855 74.4132431,69.46305 C74.4132431,71.02755 75.6820431,72.29505 77.2481477,72.29505 C78.8127508,72.29505 80.0830523,71.02755 80.0830523,69.46305 Z"/>
      <polygon stroke="#FF7D7D" stroke-width="2.25" points="20.393 47.769 5.084 43.674 11.436 40.009 1.416 37.329 11.121 31.731"/>
      <path stroke="#FF7D7D" stroke-width="2.25" d="M104.811589 27.48645C108.729103 32.25345 107.101435 37.51695 101.174863 39.24345 96.4330043 40.62495 90.0484628 38.65245 86.914752 34.84095 84.4071828 31.78995 85.4492505 28.42245 89.2421366 27.31695 92.2767458 26.43345 96.362432 27.69495 98.3684874 30.13545 99.973632 32.08545 99.3069489 34.24245 96.8789612 34.95045 94.937472 35.51595 92.321792 34.70745 91.0379766 33.14595M77.2478474 38.1534L78.7764135 24.4149M30.1686105 42.2565L26.0063458 28.722M20.6308382 58.79895L6.46682585 54.28995M102.642767 50.6442L115.144576 41.2062"/>
      <path fill="#DCFAFF" d="M425.582097,147.9654 L399.863746,147.9654 C397.324645,147.9654 395.267537,145.9089 395.267537,143.3724 L395.267537,76.1724 C395.267537,73.6359 397.324645,71.5809 399.863746,71.5809 L425.582097,71.5809 C428.119697,71.5809 430.178306,73.6359 430.178306,76.1724 L430.178306,143.3724 C430.178306,145.9089 428.119697,147.9654 425.582097,147.9654"/>
      <path stroke="#00C8FF" stroke-width="2.25" d="M425.582097,147.9654 L399.863746,147.9654 C397.324645,147.9654 395.267537,145.9089 395.267537,143.3724 L395.267537,76.1724 C395.267537,73.6359 397.324645,71.5809 399.863746,71.5809 L425.582097,71.5809 C428.119697,71.5809 430.178306,73.6359 430.178306,76.1724 L430.178306,143.3724 C430.178306,145.9089 428.119697,147.9654 425.582097,147.9654 Z"/>
      <path fill="#DCFAFF" d="M470.628251,147.9654 L444.9099,147.9654 C442.370799,147.9654 440.313691,145.9089 440.313691,143.3724 L440.313691,76.1724 C440.313691,73.6359 442.370799,71.5809 444.9099,71.5809 L470.628251,71.5809 C473.165851,71.5809 475.22446,73.6359 475.22446,76.1724 L475.22446,143.3724 C475.22446,145.9089 473.165851,147.9654 470.628251,147.9654"/>
      <path stroke="#00C8FF" stroke-width="2.25" d="M470.628251,147.9654 L444.9099,147.9654 C442.370799,147.9654 440.313691,145.9089 440.313691,143.3724 L440.313691,76.1724 C440.313691,73.6359 442.370799,71.5809 444.9099,71.5809 L470.628251,71.5809 C473.165851,71.5809 475.22446,73.6359 475.22446,76.1724 L475.22446,143.3724 C475.22446,145.9089 473.165851,147.9654 470.628251,147.9654 Z"/>
      <path fill="#DCFAFF" d="M375.611198,107.07585 L322.127899,107.07585 C318.949142,107.07585 316.372502,109.64985 316.372502,112.82535 L316.372502,145.67235 C316.372502,148.84935 318.949142,151.42185 322.127899,151.42185 L375.611198,151.42185 C378.789954,151.42185 381.366594,148.84935 381.366594,145.67235 L381.366594,112.82535 C381.366594,109.64985 378.789954,107.07585 375.611198,107.07585"/>
      <path stroke="#00C8FF" stroke-width="2.25" d="M375.611198,107.07585 L322.127899,107.07585 C318.949142,107.07585 316.372502,109.64985 316.372502,112.82535 L316.372502,145.67235 C316.372502,148.84935 318.949142,151.42185 322.127899,151.42185 L375.611198,151.42185 C378.789954,151.42185 381.366594,148.84935 381.366594,145.67235 L381.366594,112.82535 C381.366594,109.64985 378.789954,107.07585 375.611198,107.07585 Z"/>
      <path fill="#DCFAFF" d="M330.197767,117.59925 C328.622654,117.59925 327.344844,118.87575 327.344844,120.44775 L327.344844,127.16775 C327.344844,128.74275 328.622654,130.01775 330.197767,130.01775 C331.772881,130.01775 333.049189,128.74275 333.049189,127.16775 L333.049189,120.44775 C333.049189,118.87575 331.772881,117.59925 330.197767,117.59925"/>
      <path stroke="#00C8FF" stroke-width="2.25" d="M330.197767,117.59925 C328.622654,117.59925 327.344844,118.87575 327.344844,120.44775 L327.344844,127.16775 C327.344844,128.74275 328.622654,130.01775 330.197767,130.01775 C331.772881,130.01775 333.049189,128.74275 333.049189,127.16775 L333.049189,120.44775 C333.049189,118.87575 331.772881,117.59925 330.197767,117.59925 Z"/>
      <path fill="#DCFAFF" d="M369.248729,117.59925 C367.673615,117.59925 366.395806,118.87575 366.395806,120.44775 L366.395806,127.16775 C366.395806,128.74275 367.673615,130.01775 369.248729,130.01775 C370.823842,130.01775 372.10015,128.74275 372.10015,127.16775 L372.10015,120.44775 C372.10015,118.87575 370.823842,117.59925 369.248729,117.59925"/>
      <path stroke="#00C8FF" stroke-width="2.25" d="M369.248729,117.59925 C367.673615,117.59925 366.395806,118.87575 366.395806,120.44775 L366.395806,127.16775 C366.395806,128.74275 367.673615,130.01775 369.248729,130.01775 C370.823842,130.01775 372.10015,128.74275 372.10015,127.16775 L372.10015,120.44775 C372.10015,118.87575 370.823842,117.59925 369.248729,117.59925 Z"/>
      <g transform="translate(328.837 136.5)">
        <polyline fill="#DCFAFF" points="1.361 .221 20.885 5.756 40.411 .221"/>
        <polyline stroke="#00C8FF" stroke-width="2.25" points="1.361 .221 20.885 5.756 40.411 .221"/>
      </g>
      <g transform="translate(327.335 121.5)">
        <path fill="#DCFAFF" d="M0.00960984615,1.02405 L5.71395446,4.28055"/>
        <path stroke="#00C8FF" stroke-width="2.25" d="M0.00960984615,1.02405 L5.71395446,4.28055"/>
      </g>
      <g transform="translate(366.375 121.5)">
        <path fill="#DCFAFF" d="M0.0205710769,1.02405 L5.72491569,4.28055"/>
        <path stroke="#00C8FF" stroke-width="2.25" d="M0.0205710769,1.02405 L5.72491569,4.28055"/>
      </g>
      <path fill="#DCFAFF" d="M425.394405,80.9034 C425.394405,79.3194 424.109088,78.0354 422.523463,78.0354 C420.937839,78.0354 419.652522,79.3194 419.652522,80.9034 C419.652522,82.4874 420.937839,83.7714 422.523463,83.7714 C424.109088,83.7714 425.394405,82.4874 425.394405,80.9034"/>
      <path stroke="#00C8FF" stroke-width="2.25" d="M425.394405,80.9034 C425.394405,79.3194 424.109088,78.0354 422.523463,78.0354 C420.937839,78.0354 419.652522,79.3194 419.652522,80.9034 C419.652522,82.4874 420.937839,83.7714 422.523463,83.7714 C424.109088,83.7714 425.394405,82.4874 425.394405,80.9034 Z"/>
      <path fill="#DCFAFF" d="M470.582754,80.9034 C470.582754,79.3194 469.297438,78.0354 467.711813,78.0354 C466.126188,78.0354 464.840871,79.3194 464.840871,80.9034 C464.840871,82.4874 466.126188,83.7714 467.711813,83.7714 C469.297438,83.7714 470.582754,82.4874 470.582754,80.9034"/>
      <path stroke="#00C8FF" stroke-width="2.25" d="M470.582754,80.9034 C470.582754,79.3194 469.297438,78.0354 467.711813,78.0354 C466.126188,78.0354 464.840871,79.3194 464.840871,80.9034 C464.840871,82.4874 466.126188,83.7714 467.711813,83.7714 C469.297438,83.7714 470.582754,82.4874 470.582754,80.9034 Z"/>
      <path fill="#CAFFF5" d="M393.604734,130.4034 L381.367195,125.8509 L369.128155,130.4034 L369.128155,147.1494 C369.128155,153.9009 374.607269,159.3744 381.367195,159.3744 C388.12562,159.3744 393.604734,153.9009 393.604734,147.1494 L393.604734,130.4034 Z"/>
      <path stroke="#5DD8C1" stroke-width="2.25" d="M393.604734,130.4034 L381.367195,125.8509 L369.128155,130.4034 L369.128155,147.1494 C369.128155,153.9009 374.607269,159.3744 381.367195,159.3744 C388.12562,159.3744 393.604734,153.9009 393.604734,147.1494 L393.604734,130.4034 Z"/>
      <g transform="translate(373.883 138)">
        <polyline fill="#CAFFF5" points=".319 5.086 5.546 10.308 14.648 1.215"/>
        <polyline stroke="#5DD8C1" stroke-width="2.25" points=".319 5.086 5.546 10.308 14.648 1.215"/>
      </g>
      <path fill="#CAFFF5" d="M487.462599,130.4034 L475.225061,125.8509 L462.986021,130.4034 L462.986021,147.1494 C462.986021,153.9009 468.465135,159.3744 475.225061,159.3744 C481.983486,159.3744 487.462599,153.9009 487.462599,147.1494 L487.462599,130.4034 Z"/>
      <path stroke="#5DD8C1" stroke-width="2.25" d="M487.462599,130.4034 L475.225061,125.8509 L462.986021,130.4034 L462.986021,147.1494 C462.986021,153.9009 468.465135,159.3744 475.225061,159.3744 C481.983486,159.3744 487.462599,153.9009 487.462599,147.1494 L487.462599,130.4034 Z"/>
      <g transform="translate(466.978 138)">
        <polyline fill="#CAFFF5" points="1.081 5.086 6.308 10.308 15.41 1.215"/>
        <polyline stroke="#5DD8C1" stroke-width="2.25" points="1.081 5.086 6.308 10.308 15.41 1.215"/>
      </g>
      <path fill="#CAFFF5" d="M442.416446,130.4034 L430.178907,125.8509 L417.939867,130.4034 L417.939867,147.1494 C417.939867,153.9009 423.418981,159.3744 430.178907,159.3744 C436.937332,159.3744 442.416446,153.9009 442.416446,147.1494 L442.416446,130.4034 Z"/>
      <path stroke="#5DD8C1" stroke-width="2.25" d="M442.416446,130.4034 L430.178907,125.8509 L417.939867,130.4034 L417.939867,147.1494 C417.939867,153.9009 423.418981,159.3744 430.178907,159.3744 C436.937332,159.3744 442.416446,153.9009 442.416446,147.1494 L442.416446,130.4034 Z"/>
      <g transform="translate(421.932 138)">
        <polyline fill="#CAFFF5" points="1.081 5.086 6.308 10.308 15.41 1.215"/>
        <polyline stroke="#5DD8C1" stroke-width="2.25" points="1.081 5.086 6.308 10.308 15.41 1.215"/>
      </g>
    </g>
  </g>
</svg>
