<svg xmlns="http://www.w3.org/2000/svg" viewBox="0 0 326.39 106.93"><defs><style>.cls-1{fill:#dcfaff;}.cls-1,.cls-2{stroke:#00c8ff;}.cls-1,.cls-2,.cls-4,.cls-5,.cls-6{stroke-miterlimit:10;stroke-width:1.5px;}.cls-2,.cls-5{fill:none;}.cls-3{fill:#00c8ff;}.cls-4{fill:#ffcfcf;}.cls-4,.cls-5{stroke:#ff7d7d;}.cls-6{fill:#cafff5;stroke:#5dd8c1;}</style></defs><title>enterprise</title><g id="Layer_2" data-name="Layer 2"><g id="Layer_1-2" data-name="Layer 1"><polygon class="cls-1" points="161.44 48.22 156.68 52.98 146.27 42.58 145.45 36.99 151.04 37.82 161.44 48.22"/><path class="cls-1" d="M145.45,37a18.67,18.67,0,1,1,0-26.41A18.66,18.66,0,0,1,145.45,37Zm-3.39-23a13.89,13.89,0,1,0,0,19.64A13.88,13.88,0,0,0,142.06,14Z"/><circle class="cls-1" cx="173.05" cy="78.38" r="25.35"/><polyline class="cls-2" points="205.27 0.53 209.85 5.11 205.35 9.61"/><path class="cls-2" d="M233.34,57.08v-52h42.39a14.78,14.78,0,0,1,14.78,14.78v7.86"/><circle class="cls-3" cx="233.34" cy="56.94" r="2.82"/><circle class="cls-3" cx="290.51" cy="27.57" r="2.82"/><path class="cls-2" d="M264.24,5.07H187.67a14.78,14.78,0,0,0-14.78,14.78V53"/><rect class="cls-4" x="73.84" y="52.9" width="23.25" height="50.92" rx="3.06"/><rect class="cls-4" x="103.84" y="52.9" width="23.25" height="50.92" rx="3.06"/><circle class="cls-4" cx="82.61" cy="45.62" r="0.79"/><circle class="cls-4" cx="92.73" cy="45.62" r="0.79"/><circle class="cls-4" cx="87.67" cy="47.2" r="0.79"/><circle class="cls-4" cx="106.75" cy="47.2" r="0.79"/><circle class="cls-4" cx="111.8" cy="45.62" r="0.79"/><circle class="cls-4" cx="116.86" cy="47.2" r="0.79"/><line class="cls-5" x1="118.46" y1="59.99" x2="122.71" y2="59.99"/><line class="cls-5" x1="88.46" y1="59.99" x2="92.71" y2="59.99"/><rect class="cls-4" x="19.57" y="32.46" width="44" height="70.41" rx="3.3"/><rect class="cls-5" x="25.12" y="41.52" width="32.88" height="9.44" rx="2.09"/><line class="cls-5" x1="29.65" y1="43.94" x2="29.65" y2="48.53"/><path class="cls-5" d="M27.11,65.54a20.42,20.42,0,0,1,28.9,0"/><line class="cls-5" x1="53.63" y1="36.77" x2="51.27" y2="39.12"/><circle class="cls-5" cx="52.45" cy="46.24" r="1.89"/><polygon class="cls-5" points="14.58 31.77 4.39 29.04 8.62 26.6 1.94 24.81 8.41 21.08 14.58 31.77"/><path class="cls-5" d="M70.8,18.25c2.61,3.18,1.53,6.69-2.42,7.84a9.76,9.76,0,0,1-9.5-2.94c-1.67-2-1-4.27,1.55-5A6.24,6.24,0,0,1,66.51,20a1.86,1.86,0,0,1-1,3.21A4,4,0,0,1,61.63,22"/><line class="cls-5" x1="52.45" y1="25.36" x2="53.46" y2="16.2"/><line class="cls-5" x1="21.09" y1="28.1" x2="18.32" y2="19.08"/><line class="cls-5" x1="14.74" y1="39.13" x2="5.31" y2="36.12"/><line class="cls-5" x1="69.36" y1="33.69" x2="77.68" y2="27.4"/><rect class="cls-1" x="264.24" y="47.65" width="23.25" height="50.92" rx="3.06"/><rect class="cls-1" x="294.24" y="47.65" width="23.25" height="50.92" rx="3.06"/><rect class="cls-1" x="211.7" y="71.31" width="43.28" height="29.56" rx="3.83"/><rect class="cls-1" x="219.01" y="78.33" width="3.8" height="8.28" rx="1.9"/><rect class="cls-1" x="245.01" y="78.33" width="3.8" height="8.28" rx="1.9"/><polyline class="cls-1" points="220.91 91.08 233.91 94.77 246.91 91.08"/><line class="cls-1" x1="219.01" y1="81.61" x2="222.81" y2="83.78"/><line class="cls-1" x1="245.01" y1="81.61" x2="248.81" y2="83.78"/><circle class="cls-1" cx="282.39" cy="53.86" r="1.91"/><circle class="cls-1" cx="312.49" cy="53.86" r="1.91"/><path class="cls-6" d="M263.13,86.86l-8.15-3-8.15,3V98a8.15,8.15,0,0,0,8.15,8.15h0A8.15,8.15,0,0,0,263.13,98Z"/><polyline class="cls-6" points="250.21 95.32 253.69 98.8 259.76 92.74"/><path class="cls-6" d="M325.64,86.86l-8.15-3-8.15,3V98a8.15,8.15,0,0,0,8.15,8.15h0A8.15,8.15,0,0,0,325.64,98Z"/><polyline class="cls-6" points="312.72 95.32 316.2 98.8 322.26 92.74"/><path class="cls-6" d="M295.64,86.86l-8.15-3-8.15,3V98a8.15,8.15,0,0,0,8.15,8.15h0A8.15,8.15,0,0,0,295.64,98Z"/><polyline class="cls-6" points="282.72 95.32 286.2 98.8 292.26 92.74"/></g></g></svg>