<svg xmlns="http://www.w3.org/2000/svg" xmlns:xlink="http://www.w3.org/1999/xlink" width="70" height="70" viewBox="0 0 70 70">
    <defs>
        <path id="a" d="M4.625 6.167a3.083 3.083 0 0 1 3.083-3.084h21.584a3.083 3.083 0 0 1 3.083 3.084v18.5a3.083 3.083 0 0 1-3.083 3.083H13.258l-8.633 6.167V6.167zm3.083 0v21.758l4.562-3.258h17.022v-18.5H7.708zm3.084 7.708H18.5v3.083h-7.708v-3.083zm9.25 0h6.166v3.083h-6.166v-3.083zm-9.25 4.625h15.416v3.083H10.792V18.5zm0-9.25h15.416v3.083H10.792V9.25z"/>
        <path id="c" d="M0 0h37v37H0z"/>
    </defs>
    <g fill="none" fill-rule="evenodd">
        <circle cx="35" cy="35" r="35" fill="#00C8FF" fill-rule="nonzero" opacity=".1"/>
        <g transform="translate(16.333 16.333)">
            <mask id="b" fill="#fff">
                <use xlink:href="#a"/>
            </mask>
            <use fill="#2E2E2E" fill-rule="nonzero" xlink:href="#a"/>
            <g mask="url(#b)">
                <use fill="#00A1F2" xlink:href="#c"/>
            </g>
        </g>
    </g>
</svg>
