<svg xmlns="http://www.w3.org/2000/svg" width="247" height="68" viewBox="0 0 247 68">
    <g fill="none" fill-rule="evenodd">
        <path fill="#DCFAFF" d="M81.064 10.919L58.64 2.568l-22.425 8.35v30.717c0 12.385 10.04 22.425 22.425 22.425 12.385 0 22.425-10.04 22.425-22.425V10.919z"/>
        <path stroke="#00C8FF" stroke-width="1.5" d="M81.064 10.919L58.64 2.568l-22.425 8.35v30.717c0 12.385 10.04 22.425 22.425 22.425 12.385 0 22.425-10.04 22.425-22.425V10.919z"/>
        <path fill="#FFCFCF" d="M31.19 48.928a22.393 22.393 0 0 1-1.213-7.294V10.918L43.244 8.3l9.15 6.788 4.666 13.095-2.33 10.738-10.003 8-13.537 2.007z"/>
        <path stroke="#FF7D7D" stroke-width="1.5" d="M31.19 48.928a22.393 22.393 0 0 1-1.213-7.294V10.918L43.244 8.3l9.15 6.788 4.666 13.095-2.33 10.738-10.003 8-13.537 2.007z"/>
        <path fill="#FFCFCF" d="M59.263 29.62c0-6.22-5.043-11.263-11.265-11.263-6.22 0-11.263 5.043-11.263 11.264 0 3.72 3.386 6.035 6.493 7.296a2.405 2.405 0 0 0-.138.775 2.434 2.434 0 0 0 2.434 2.434c.445 0 .857-.13 1.217-.338.359.209.77.338 1.216.338.446 0 .858-.13 1.217-.338.36.209.77.338 1.217.338a2.434 2.434 0 0 0 2.434-2.434c0-.261-.053-.51-.13-.746 3.127-1.254 6.568-3.576 6.568-7.325"/>
        <path stroke="#FF7D7D" stroke-width="1.5" d="M59.263 29.62c0-6.22-5.043-11.263-11.265-11.263-6.22 0-11.263 5.043-11.263 11.264 0 3.72 3.386 6.035 6.493 7.296a2.405 2.405 0 0 0-.138.775 2.434 2.434 0 0 0 2.434 2.434c.445 0 .857-.13 1.217-.338.359.209.77.338 1.216.338.446 0 .858-.13 1.217-.338.36.209.77.338 1.217.338a2.434 2.434 0 0 0 2.434-2.434c0-.261-.053-.51-.13-.746 3.127-1.254 6.568-3.576 6.568-7.325z"/>
        <path fill="#FFCFCF" d="M45.678 29.24l-2.102-2.98-2.1 2.98"/>
        <path stroke="#FF7D7D" stroke-width="1.5" d="M45.678 29.24l-2.102-2.98-2.1 2.98"/>
        <path fill="#FFCFCF" d="M54.52 29.24l-2.1-2.98-2.1 2.98"/>
        <path stroke="#FF7D7D" stroke-width="1.5" d="M54.52 29.24l-2.1-2.98-2.1 2.98"/>
        <path stroke="#00C8FF" stroke-width="1.5" d="M107.633 13.253h6.48v6.364M234.994 53.358h-6.48v-6.363"/>
        <path stroke="#00C8FF" stroke-width="1.5" d="M212.937 8.92h-84.77c-13.782 0-24.952 11.17-24.952 24.95 0 13.779 11.17 24.95 24.951 24.95h84.771c13.78 0 24.95-11.171 24.95-24.95 0-13.78-11.17-24.95-24.95-24.95z"/>
        <path fill="#DCFAFF" d="M111.385 33.87a8.17 8.17 0 1 0-16.34 0 8.17 8.17 0 0 0 8.17 8.169 8.169 8.169 0 0 0 8.17-8.17"/>
        <path stroke="#00C8FF" stroke-width="1.5" d="M111.385 33.87a8.17 8.17 0 1 0-16.34 0 8.17 8.17 0 0 0 8.17 8.169 8.169 8.169 0 0 0 8.17-8.17z"/>
        <path fill="#DCFAFF" d="M212.934 58.82a8.17 8.17 0 1 0-16.339 0 8.17 8.17 0 0 0 16.339 0"/>
        <path stroke="#00C8FF" stroke-width="1.5" d="M212.934 58.82a8.17 8.17 0 1 0-16.339 0 8.17 8.17 0 0 0 16.339 0z"/>
        <path fill="#DCFAFF" d="M178.722 58.82a8.17 8.17 0 0 0-8.17-8.17 8.17 8.17 0 1 0 0 16.339 8.17 8.17 0 0 0 8.17-8.169"/>
        <path stroke="#00C8FF" stroke-width="1.5" d="M178.722 58.82a8.17 8.17 0 0 0-8.17-8.17 8.17 8.17 0 1 0 0 16.339 8.17 8.17 0 0 0 8.17-8.169z"/>
        <path fill="#DCFAFF" d="M199.39 8.92a8.17 8.17 0 1 0-16.34 0 8.17 8.17 0 0 0 16.34 0"/>
        <path stroke="#00C8FF" stroke-width="1.5" d="M199.39 8.92a8.17 8.17 0 1 0-16.34 0 8.17 8.17 0 0 0 16.34 0z"/>
        <path fill="#DCFAFF" d="M158.054 8.92a8.17 8.17 0 1 0-16.34 0 8.17 8.17 0 0 0 16.34 0"/>
        <path stroke="#00C8FF" stroke-width="1.5" d="M158.054 8.92a8.17 8.17 0 1 0-16.34 0 8.17 8.17 0 0 0 16.34 0z"/>
        <path fill="#DCFAFF" d="M246.058 33.314a8.17 8.17 0 1 0-16.34 0 8.17 8.17 0 0 0 16.34 0"/>
        <path stroke="#00C8FF" stroke-width="1.5" d="M246.058 33.314a8.17 8.17 0 1 0-16.34 0 8.17 8.17 0 0 0 16.34 0z"/>
        <path fill="#CAFFF5" d="M182.797 30.76c0-6.764-5.482-12.245-12.245-12.245-6.763 0-12.245 5.482-12.245 12.244 0 6.764 5.482 12.245 12.245 12.245 6.763 0 12.245-5.481 12.245-12.244"/>
        <path stroke="#5DD8C1" stroke-width="1.5" d="M182.797 30.76c0-6.764-5.482-12.245-12.245-12.245-6.763 0-12.245 5.482-12.245 12.244 0 6.764 5.482 12.245 12.245 12.245 6.763 0 12.245-5.481 12.245-12.244z"/>
        <path fill="#CAFFF5" d="M165.752 30.245l3.502 3.502 6.098-6.098"/>
        <path stroke="#5DD8C1" stroke-width="1.5" d="M165.752 30.245l3.502 3.502 6.098-6.098"/>
        <path fill="#DCFAFF" d="M1.06 58.622l5.933 5.933 12.96-12.96 1.03-6.962-6.964 1.03z"/>
        <path stroke="#00C8FF" stroke-width="1.5" d="M1.06 58.622l5.933 5.933 12.96-12.96 1.03-6.962-6.964 1.03z"/>
        <path fill="#DCFAFF" d="M25.2 40.415c6.756 6.755 17.708 6.755 24.464 0 6.755-6.756 6.755-17.708 0-24.463-6.756-6.756-17.708-6.756-24.464 0-6.755 6.755-6.755 17.707 0 24.463m-4.218-28.682c9.085-9.085 23.815-9.085 32.9 0 9.085 9.085 9.085 23.815 0 32.9-9.085 9.085-23.815 9.085-32.9 0-9.085-9.085-9.085-23.815 0-32.9"/>
        <path stroke="#00C8FF" stroke-width="1.5" d="M25.2 40.415c6.756 6.755 17.708 6.755 24.464 0 6.755-6.756 6.755-17.708 0-24.463-6.756-6.756-17.708-6.756-24.464 0-6.755 6.755-6.755 17.707 0 24.463zm-4.218-28.682c9.085-9.085 23.815-9.085 32.9 0 9.085 9.085 9.085 23.815 0 32.9-9.085 9.085-23.815 9.085-32.9 0-9.085-9.085-9.085-23.815 0-32.9z"/>
        <path fill="#DCFAFF" d="M144.509 58.82a8.17 8.17 0 1 0-16.34 0 8.17 8.17 0 0 0 16.34 0"/>
        <path stroke="#00C8FF" stroke-width="1.5" d="M144.509 58.82a8.17 8.17 0 1 0-16.34 0 8.17 8.17 0 0 0 16.34 0z"/>
    </g>
</svg>
