<svg xmlns="http://www.w3.org/2000/svg" width="264" height="119" viewBox="0 0 264 119">
    <g fill="none" fill-rule="evenodd">
        <path stroke="#FF7D7D" stroke-width="1.5" d="M10.755 56.678c3.199.314 4.54 2.854 2.994 5.672-1.236 2.255-4.313 3.879-6.873 3.628-2.048-.201-2.905-1.826-1.916-3.631.79-1.442 2.76-2.482 4.399-2.321 1.31.129 1.859 1.169 1.226 2.323-.507.924-1.767 1.589-2.815 1.486"/>
        <path fill="#CAFFF5" d="M148.19 53.505h-22.486a5.553 5.553 0 0 0-5.553 5.554v52.66a5.553 5.553 0 0 0 5.553 5.554h22.486a5.554 5.554 0 0 0 5.554-5.554v-52.66a5.554 5.554 0 0 0-5.554-5.554"/>
        <path stroke="#5DD8C1" stroke-width="1.5" d="M148.19 53.505h-22.486a5.553 5.553 0 0 0-5.553 5.554v52.66a5.553 5.553 0 0 0 5.553 5.554h22.486a5.554 5.554 0 0 0 5.554-5.554v-52.66a5.554 5.554 0 0 0-5.554-5.554z"/>
        <path fill="#CAFFF5" d="M104.895 30.787H58.95a4.047 4.047 0 0 0-4.049 4.048v78.39a4.047 4.047 0 0 0 4.048 4.048h45.947a4.048 4.048 0 0 0 4.047-4.048v-78.39a4.048 4.048 0 0 0-4.047-4.048"/>
        <path stroke="#5DD8C1" stroke-width="1.5" d="M104.895 30.787H58.95a4.047 4.047 0 0 0-4.049 4.048v78.39a4.047 4.047 0 0 0 4.048 4.048h45.947a4.048 4.048 0 0 0 4.047-4.048v-78.39a4.048 4.048 0 0 0-4.047-4.048z"/>
        <path stroke="#5DD8C1" stroke-width="1.5" d="M99.546 41.907H64.298a2.57 2.57 0 0 0-2.57 2.57v6.458a2.57 2.57 0 0 0 2.57 2.57h35.248a2.57 2.57 0 0 0 2.57-2.57v-6.458a2.57 2.57 0 0 0-2.57-2.57zM144.276 53.505h-14.658v1.519a3.815 3.815 0 0 0 3.814 3.814h7.03a3.815 3.815 0 0 0 3.814-3.814v-1.52z"/>
        <path fill="#CAFFF5" d="M211.651 80.959h-43.75a4.708 4.708 0 0 0-4.708 4.708v26.898c0 2.6 2.107 4.708 4.708 4.708h43.75a4.708 4.708 0 0 0 4.708-4.708V85.667c0-2.6-2.107-4.708-4.708-4.708"/>
        <path stroke="#5DD8C1" stroke-width="1.5" d="M211.651 80.959h-43.75a4.708 4.708 0 0 0-4.708 4.708v26.898c0 2.6 2.107 4.708 4.708 4.708h43.75a4.708 4.708 0 0 0 4.708-4.708V85.667c0-2.6-2.107-4.708-4.708-4.708zM67.288 44.887v5.638M129.618 73.068v7M144.276 73.068v7M142.032 85.623a10.163 10.163 0 0 1-10.169 10.169M99.67 64.38c-9.81 9.811-25.686 9.811-35.497 0M97.606 47.706a2.318 2.318 0 1 0-4.636-.001 2.318 2.318 0 0 0 4.636.001z"/>
        <path stroke="#5DD8C1" stroke-width="1.5" d="M174.502 89.576a2.333 2.333 0 0 0-2.333 2.333v5.503a2.332 2.332 0 1 0 4.666 0V91.91a2.333 2.333 0 0 0-2.333-2.333zM206.447 89.576a2.334 2.334 0 0 0-2.334 2.333v5.503a2.333 2.333 0 0 0 4.667 0V91.91a2.334 2.334 0 0 0-2.333-2.333zM174.502 105.234l16.066 4.044 15.879-4.044M172.169 93.61l4.666 2.666M208.78 96.276l-4.667-2.667"/>
        <path stroke="#00C8FF" stroke-width="1.5" d="M136.947.75v42.667"/>
        <path fill="#00C8FF" d="M134.128 43.275a2.82 2.82 0 1 0 5.64 0 2.82 2.82 0 0 0-5.64 0"/>
        <path stroke="#00C8FF" stroke-width="1.5" d="M189.776 70.39V.75H96.702c-8.163 0-14.78 6.617-14.78 14.78v8.026"/>
        <path fill="#00C8FF" d="M192.597 70.248a2.82 2.82 0 1 1-5.641-.001 2.82 2.82 0 0 1 5.64.001M79.103 23.415a2.82 2.82 0 1 0 5.64-.001 2.82 2.82 0 0 0-5.64 0"/>
        <path stroke="#00C8FF" stroke-width="1.5" d="M244.784 35.784l4.583-4.583 4.5 4.5"/>
        <path fill="#DCFAFF" d="M263.132 59.28l-13.807-5.142-13.805 5.141v18.912c0 7.625 6.18 13.806 13.805 13.806 7.626 0 13.807-6.18 13.807-13.806V59.28z"/>
        <path stroke="#00C8FF" stroke-width="1.5" d="M263.132 59.28l-13.807-5.142-13.805 5.141v18.912c0 7.625 6.18 13.806 13.805 13.806 7.626 0 13.807-6.18 13.807-13.806V59.28z"/>
        <path fill="#DCFAFF" d="M241.243 73.602l5.896 5.897 10.27-10.269"/>
        <path stroke="#00C8FF" stroke-width="1.5" d="M241.243 73.602l5.896 5.897 10.27-10.269M108.943.75h125.602c8.163 0 14.78 6.617 14.78 14.78v32.176"/>
        <path fill="#FFCFCF" d="M26.784 84.524c-.874 0-1.583-1.53-1.583-3.417 0-1.886.71-3.416 1.583-3.416.875 0 1.584 1.53 1.584 3.416 0 1.887-.709 3.417-1.584 3.417m-10.389 0c-.875 0-1.584-1.53-1.584-3.417 0-1.886.71-3.416 1.584-3.416.874 0 1.583 1.53 1.583 3.416 0 1.887-.709 3.417-1.583 3.417m17.203-2.455c0-6.663-5.4-12.064-12.064-12.064-6.663 0-12.064 5.401-12.064 12.064 0 3.984 3.627 6.464 6.955 7.815a2.568 2.568 0 0 0-.148.83 2.607 2.607 0 0 0 2.607 2.606c.476 0 .918-.137 1.302-.36.385.223.827.36 1.304.36.477 0 .918-.137 1.303-.36.385.223.826.36 1.303.36a2.607 2.607 0 0 0 2.607-2.606c0-.28-.056-.546-.138-.799 3.348-1.344 7.033-3.83 7.033-7.846"/>
        <path stroke="#FF7D7D" stroke-width="1.5" d="M26.784 84.524c-.874 0-1.583-1.53-1.583-3.417 0-1.886.71-3.416 1.583-3.416.875 0 1.584 1.53 1.584 3.416 0 1.887-.709 3.417-1.584 3.417zm-10.389 0c-.875 0-1.584-1.53-1.584-3.417 0-1.886.71-3.416 1.584-3.416.874 0 1.583 1.53 1.583 3.416 0 1.887-.709 3.417-1.583 3.417zm17.203-2.455c0-6.663-5.4-12.064-12.064-12.064-6.663 0-12.064 5.401-12.064 12.064 0 3.984 3.627 6.464 6.955 7.815a2.568 2.568 0 0 0-.148.83 2.607 2.607 0 0 0 2.607 2.606c.476 0 .918-.137 1.302-.36.385.223.827.36 1.304.36.477 0 .918-.137 1.303-.36.385.223.826.36 1.303.36a2.607 2.607 0 0 0 2.607-2.606c0-.28-.056-.546-.138-.799 3.348-1.344 7.033-3.83 7.033-7.846zM26.432 74.81l-2.375 2.375M19.012 77.185l-2.375-2.375M31.979 66.648l3.6-7.666M7.437 74.11l-7-5.007M22.063 65.815l-1.334-5.667 4.084 1.417-2.043-7.167"/>
    </g>
</svg>
