<svg xmlns="http://www.w3.org/2000/svg" width="272" height="91" viewBox="0 0 272 91">
    <g fill="none" fill-rule="evenodd">
        <path stroke="#00C8FF" stroke-width="1.5" d="M180.483 40.873l4.582 4.582-4.5 4.5M191.483 10.31l4.582 4.582-4.5 4.5M84.668 41.936l4.583 4.583-4.5 4.5M111.37 46.519H62.55"/>
        <path fill="#DCFAFF" d="M62.55 45.414c0-17.065-13.836-30.899-30.9-30.899-17.066 0-30.9 13.834-30.9 30.9 0 17.064 13.834 30.898 30.9 30.898 17.064 0 30.9-13.834 30.9-30.899"/>
        <path stroke="#00C8FF" stroke-width="1.5" d="M62.55 45.414c0-17.065-13.836-30.899-30.9-30.899-17.066 0-30.9 13.834-30.9 30.9 0 17.064 13.834 30.898 30.9 30.898 17.064 0 30.9-13.834 30.9-30.899z"/>
        <path fill="#DCFAFF" d="M147.71 45.414h70.127"/>
        <path stroke="#00C8FF" stroke-width="1.5" d="M147.71 45.414h70.127"/>
        <path fill="#FCFBC8" d="M246.121 45.414c0-7.81-6.332-14.142-14.143-14.142-7.81 0-14.14 6.331-14.14 14.142 0 7.811 6.33 14.143 14.14 14.143 7.811 0 14.143-6.332 14.143-14.143"/>
        <path stroke="#D6CE72" stroke-width="1.5" d="M246.121 45.414c0-7.81-6.332-14.142-14.143-14.142-7.81 0-14.14 6.331-14.14 14.142 0 7.811 6.33 14.143 14.14 14.143 7.811 0 14.143-6.332 14.143-14.143z"/>
        <path fill="#FCFBC8" d="M229.15 54.79l6.067-9.376h-6.475l6.065-9.375"/>
        <path stroke="#D6CE72" stroke-width="1.5" d="M229.15 54.79l6.067-9.376h-6.475l6.065-9.375"/>
        <path stroke="#00C8FF" stroke-width="1.5" d="M144.711 32.123a58.828 58.828 0 0 1 41.6-17.23h56.526M191.483 80.523l4.582-4.583-4.5-4.5"/>
        <path stroke="#00C8FF" stroke-width="1.5" d="M144.711 58.71a58.83 58.83 0 0 0 41.6 17.23h56.526"/>
        <path fill="#FFCFCF" d="M271.122 14.892c0-7.811-6.333-14.142-14.144-14.142-7.81 0-14.14 6.33-14.14 14.142 0 7.81 6.33 14.143 14.14 14.143 7.811 0 14.144-6.332 14.144-14.143"/>
        <path stroke="#FF7D7D" stroke-width="1.5" d="M271.122 14.892c0-7.811-6.333-14.142-14.144-14.142-7.81 0-14.14 6.33-14.14 14.142 0 7.81 6.33 14.143 14.14 14.143 7.811 0 14.144-6.332 14.144-14.143z"/>
        <path fill="#A5D9F9" d="M271.122 75.94c0 7.81-6.333 14.143-14.144 14.143-7.81 0-14.14-6.332-14.14-14.143 0-7.811 6.33-14.142 14.14-14.142 7.811 0 14.144 6.33 14.144 14.142"/>
        <path stroke="#45A9F4" stroke-width="1.5" d="M271.122 75.94c0 7.81-6.333 14.143-14.144 14.143-7.81 0-14.14-6.332-14.14-14.143 0-7.811 6.33-14.142 14.14-14.142 7.811 0 14.144 6.33 14.144 14.142z"/>
        <path fill="#A5D9F9" d="M264.079 68.89l-7.1-2.642-7.098 2.643v9.725a7.097 7.097 0 0 0 7.097 7.098c3.921 0 7.1-3.177 7.1-7.098V68.89z"/>
        <path stroke="#45A9F4" stroke-width="1.5" d="M264.079 68.89l-7.1-2.642-7.098 2.643v9.725a7.097 7.097 0 0 0 7.097 7.098c3.921 0 7.1-3.177 7.1-7.098V68.89z"/>
        <path fill="#A5D9F9" d="M256.979 71.775l.944 2.906h3.056l-2.473 1.796.945 2.905-2.472-1.795-2.472 1.795.945-2.905-2.472-1.796h3.055z"/>
        <path stroke="#45A9F4" stroke-width="1.5" d="M256.979 71.775l.944 2.906h3.056l-2.473 1.796.945 2.905-2.472-1.795-2.472 1.795.945-2.905-2.472-1.796h3.055z"/>
        <path fill="#FFCFCF" d="M258.373 9.933l-1.395 1.395-1.394-1.395a3.82 3.82 0 0 0-5.4 5.4l1.393 1.396 5.401 5.4 5.402-5.4 1.394-1.395a3.82 3.82 0 0 0-5.401-5.401"/>
        <path stroke="#FF7D7D" stroke-width="1.5" d="M258.373 9.933l-1.395 1.395-1.394-1.395a3.82 3.82 0 0 0-5.4 5.4l1.393 1.396 5.401 5.4 5.402-5.4 1.394-1.395a3.82 3.82 0 0 0-5.401-5.401z"/>
        <path fill="#DCFAFF" d="M150.19 45.414c0-11.026-8.94-19.966-19.967-19.966-11.026 0-19.966 8.94-19.966 19.966 0 11.027 8.94 19.967 19.966 19.967 11.028 0 19.967-8.94 19.967-19.967"/>
        <path stroke="#00C8FF" stroke-width="1.5" d="M150.19 45.414c0-11.026-8.94-19.966-19.967-19.966-11.026 0-19.966 8.94-19.966 19.966 0 11.027 8.94 19.967 19.966 19.967 11.028 0 19.967-8.94 19.967-19.967zM27.554 37.405v16.02M35.745 37.405v16.02M35.745 45.414h-8.19M127.756 40.59v9.649M132.69 40.59v9.649"/>
        <path stroke="#00C8FF" stroke-linejoin="bevel" stroke-width="1.5" d="M132.69 50.24l-4.934-9.65"/>
    </g>
</svg>
