<svg xmlns="http://www.w3.org/2000/svg" width="229" height="119" viewBox="0 0 229 119">
    <g fill="none" fill-rule="evenodd">
        <path fill="#FFCFCF" d="M159.085 53.505H136.6a5.553 5.553 0 0 0-5.554 5.554v52.66a5.553 5.553 0 0 0 5.554 5.554h22.486a5.554 5.554 0 0 0 5.554-5.554v-52.66a5.554 5.554 0 0 0-5.554-5.554"/>
        <path stroke="#FF7D7D" stroke-width="1.5" d="M159.085 53.505H136.6a5.553 5.553 0 0 0-5.554 5.554v52.66a5.553 5.553 0 0 0 5.554 5.554h22.486a5.554 5.554 0 0 0 5.554-5.554v-52.66a5.554 5.554 0 0 0-5.554-5.554z"/>
        <path fill="#FFCFCF" d="M115.79 30.787H69.843a4.047 4.047 0 0 0-4.047 4.048v78.39a4.047 4.047 0 0 0 4.047 4.048h45.947a4.048 4.048 0 0 0 4.048-4.048v-78.39a4.048 4.048 0 0 0-4.048-4.048"/>
        <path stroke="#FF7D7D" stroke-width="1.5" d="M115.79 30.787H69.843a4.047 4.047 0 0 0-4.047 4.048v78.39a4.047 4.047 0 0 0 4.047 4.048h45.947a4.048 4.048 0 0 0 4.048-4.048v-78.39a4.048 4.048 0 0 0-4.048-4.048z"/>
        <path stroke="#FF7D7D" stroke-width="1.5" d="M110.44 41.907H75.194a2.57 2.57 0 0 0-2.57 2.57v6.458a2.57 2.57 0 0 0 2.57 2.57h35.248a2.57 2.57 0 0 0 2.57-2.57v-6.458a2.57 2.57 0 0 0-2.57-2.57zM155.171 53.505h-14.658v1.519a3.815 3.815 0 0 0 3.814 3.814h7.03a3.815 3.815 0 0 0 3.814-3.814v-1.52z"/>
        <path fill="#FFCFCF" d="M191.348 73.068a.792.792 0 1 0-1.584 0 .792.792 0 0 0 1.584 0"/>
        <path stroke="#FF7D7D" stroke-width="1.5" d="M191.348 73.068a.792.792 0 1 0-1.584 0 .792.792 0 0 0 1.584 0z"/>
        <path fill="#FFCFCF" d="M196.405 71.484a.792.792 0 1 0-1.583 0 .792.792 0 0 0 1.583 0"/>
        <path stroke="#FF7D7D" stroke-width="1.5" d="M196.405 71.484a.792.792 0 1 0-1.583 0 .792.792 0 0 0 1.583 0z"/>
        <path fill="#FFCFCF" d="M206.52 71.484a.792.792 0 1 0-1.584 0 .792.792 0 0 0 1.584 0"/>
        <path stroke="#FF7D7D" stroke-width="1.5" d="M206.52 71.484a.792.792 0 1 0-1.584 0 .792.792 0 0 0 1.584 0z"/>
        <path fill="#FFCFCF" d="M201.463 73.068a.792.792 0 1 0-1.584 0 .792.792 0 0 0 1.584 0"/>
        <path stroke="#FF7D7D" stroke-width="1.5" d="M201.463 73.068a.792.792 0 1 0-1.584 0 .792.792 0 0 0 1.584 0z"/>
        <path fill="#FFCFCF" d="M211.577 73.068a.792.792 0 1 0-1.583 0 .792.792 0 0 0 1.583 0"/>
        <path stroke="#FF7D7D" stroke-width="1.5" d="M211.577 73.068a.792.792 0 1 0-1.583 0 .792.792 0 0 0 1.583 0z"/>
        <path fill="#FFCFCF" d="M222.546 80.959h-43.75a4.708 4.708 0 0 0-4.708 4.708v26.898c0 2.6 2.107 4.708 4.708 4.708h43.75a4.708 4.708 0 0 0 4.708-4.708V85.667c0-2.6-2.107-4.708-4.708-4.708"/>
        <path stroke="#FF7D7D" stroke-width="1.5" d="M222.546 80.959h-43.75a4.708 4.708 0 0 0-4.708 4.708v26.898c0 2.6 2.107 4.708 4.708 4.708h43.75a4.708 4.708 0 0 0 4.708-4.708V85.667c0-2.6-2.107-4.708-4.708-4.708zM78.183 44.887v5.638M140.513 73.068v7M155.171 73.068v7M142.757 95.792a10.164 10.164 0 0 1 10.17-10.169M75.068 71.419c9.81-9.811 25.687-9.811 35.498 0M140.513 68.568l2.897 2.897M155.171 68.568l-2.897 2.897M107.631 36.074l-2.897 2.897M108.501 47.706a2.318 2.318 0 1 0-4.637-.001 2.318 2.318 0 0 0 4.637.001z"/>
        <path stroke="#FF7D7D" stroke-width="1.5" d="M185.397 89.576a2.333 2.333 0 0 0-2.333 2.333v5.503a2.332 2.332 0 1 0 4.666 0V91.91a2.333 2.333 0 0 0-2.333-2.333zM217.342 89.576a2.334 2.334 0 0 0-2.334 2.333v5.503a2.333 2.333 0 0 0 4.667 0V91.91a2.334 2.334 0 0 0-2.333-2.333zM185.397 105.234h31.945M183.064 93.61l4.666 2.666M215.008 93.61l4.667 2.666M161.124 48.123l1.54-6.472M135.272 47.72l-3.487-5.665M147.842 46.095v-6.187M59.673 29.942l-12.522-3.354 5.196-3-8.196-2.196 7.937-4.584zM128.73 13.334c3.205 3.901 1.874 8.212-2.975 9.625-3.878 1.133-9.1-.482-11.665-3.604-2.05-2.497-1.198-5.255 1.905-6.162 2.482-.723 5.824.31 7.465 2.308 1.313 1.598.767 3.365-1.218 3.944-1.59.462-3.728-.198-4.78-1.477M106.183 22.068l1.25-11.25M67.671 25.428l-3.405-11.083M59.868 38.974l-11.586-3.692M126.956 32.296l10.227-7.728M8.273 50.625l4.583-4.583 4.5 4.5M146.905.75v31.608"/>
        <path fill="#FF7D7D" d="M144.085 32.218a2.82 2.82 0 1 0 5.641-.001 2.82 2.82 0 0 0-5.64 0"/>
        <path stroke="#FF7D7D" stroke-width="1.5" d="M199.735 59.331v-43.8c0-8.164-6.618-14.78-14.78-14.78H91.88v11.747"/>
        <path fill="#FF7D7D" d="M202.554 59.19a2.82 2.82 0 1 1-5.64 0 2.82 2.82 0 0 1 5.64 0M89.06 12.357a2.82 2.82 0 1 0 5.64-.001 2.82 2.82 0 0 0-5.64.001"/>
        <path stroke="#FF7D7D" stroke-width="1.5" d="M91.88.75H27.595c-8.163 0-14.78 6.617-14.78 14.78v47.279"/>
        <path fill="#FFCFCF" d="M18.065 85.194c-.875 0-1.584-1.53-1.584-3.417 0-1.887.709-3.416 1.584-3.416.874 0 1.583 1.53 1.583 3.416 0 1.887-.71 3.417-1.583 3.417m-10.39 0c-.874 0-1.583-1.53-1.583-3.417 0-1.887.709-3.416 1.583-3.416s1.583 1.53 1.583 3.416c0 1.887-.71 3.417-1.583 3.417m17.204-2.455c0-6.663-5.402-12.064-12.064-12.064C6.152 70.675.75 76.076.75 82.74c0 3.984 3.626 6.464 6.954 7.814a2.6 2.6 0 0 0-.148.83 2.607 2.607 0 0 0 2.607 2.607c.477 0 .919-.138 1.303-.36.385.222.827.36 1.303.36a2.59 2.59 0 0 0 1.304-.36c.385.222.825.36 1.303.36a2.607 2.607 0 0 0 2.606-2.607c0-.28-.056-.545-.138-.798 3.349-1.344 7.034-3.83 7.034-7.846"/>
        <path stroke="#FF7D7D" stroke-width="1.5" d="M18.065 85.194c-.875 0-1.584-1.53-1.584-3.417 0-1.887.709-3.416 1.584-3.416.874 0 1.583 1.53 1.583 3.416 0 1.887-.71 3.417-1.583 3.417zm-10.39 0c-.874 0-1.583-1.53-1.583-3.417 0-1.887.709-3.416 1.583-3.416s1.583 1.53 1.583 3.416c0 1.887-.71 3.417-1.583 3.417zm17.204-2.455c0-6.663-5.402-12.064-12.064-12.064C6.152 70.675.75 76.076.75 82.74c0 3.984 3.626 6.464 6.954 7.814a2.6 2.6 0 0 0-.148.83 2.607 2.607 0 0 0 2.607 2.607c.477 0 .919-.138 1.303-.36.385.222.827.36 1.303.36a2.59 2.59 0 0 0 1.304-.36c.385.222.825.36 1.303.36a2.607 2.607 0 0 0 2.606-2.607c0-.28-.056-.545-.138-.798 3.349-1.344 7.034-3.83 7.034-7.846zM17.712 75.479l-2.375 2.375M10.291 77.854l-2.375-2.375"/>
    </g>
</svg>
