<svg xmlns="http://www.w3.org/2000/svg" width="271" height="63" viewBox="0 0 271 63">
    <g fill="none" fill-rule="evenodd">
        <path fill="#FFCFCF" d="M87.99 17.212h29.437V2.623H87.99z"/>
        <path stroke="#FF7D7D" stroke-width="1.5" d="M87.99 17.212h29.437V2.623H87.99z"/>
        <path fill="#FFCFCF" d="M117.427 17.212h29.437V2.623h-29.437z"/>
        <path stroke="#FF7D7D" stroke-width="1.5" d="M117.427 17.212h29.437V2.623h-29.437z"/>
        <path fill="#FFCFCF" d="M146.863 17.212h29.436V2.623h-29.436z"/>
        <path stroke="#FF7D7D" stroke-width="1.5" d="M146.863 17.212h29.436V2.623h-29.436z"/>
        <path fill="#FFCFCF" d="M58.555 31.802h14.718v-14.59H58.555z"/>
        <path stroke="#FF7D7D" stroke-width="1.5" d="M58.555 31.802h14.718v-14.59H58.555z"/>
        <path fill="#FFCFCF" d="M73.272 31.802h29.437v-14.59H73.272z"/>
        <path stroke="#FF7D7D" stroke-width="1.5" d="M73.272 31.802h29.437v-14.59H73.272z"/>
        <path fill="#FFCFCF" d="M102.709 31.802h29.436v-14.59h-29.436z"/>
        <path stroke="#FF7D7D" stroke-width="1.5" d="M102.709 31.802h29.436v-14.59h-29.436z"/>
        <path fill="#FFCFCF" d="M132.144 31.802h29.437v-14.59h-29.437z"/>
        <path stroke="#FF7D7D" stroke-width="1.5" d="M132.144 31.802h29.437v-14.59h-29.437z"/>
        <path fill="#FFCFCF" d="M161.581 31.802h29.436v-14.59h-29.436z"/>
        <path stroke="#FF7D7D" stroke-width="1.5" d="M161.581 31.802h29.436v-14.59h-29.436z"/>
        <path fill="#FFCFCF" d="M58.555 60.981h14.718v-14.59H58.555z"/>
        <path stroke="#FF7D7D" stroke-width="1.5" d="M58.555 60.981h14.718v-14.59H58.555z"/>
        <path fill="#FFCFCF" d="M73.272 60.981h29.437v-14.59H73.272z"/>
        <path stroke="#FF7D7D" stroke-width="1.5" d="M73.272 60.981h29.437v-14.59H73.272z"/>
        <path fill="#FFCFCF" d="M102.709 60.981h29.436v-14.59h-29.436z"/>
        <path stroke="#FF7D7D" stroke-width="1.5" d="M102.709 60.981h29.436v-14.59h-29.436z"/>
        <path fill="#FFCFCF" d="M132.144 60.981h29.437v-14.59h-29.437z"/>
        <path stroke="#FF7D7D" stroke-width="1.5" d="M132.144 60.981h29.437v-14.59h-29.437z"/>
        <path fill="#FFCFCF" d="M161.581 60.981h29.436v-14.59h-29.436z"/>
        <path stroke="#FF7D7D" stroke-width="1.5" d="M161.581 60.981h29.436v-14.59h-29.436z"/>
        <path fill="#FFCFCF" d="M58.555 46.391h29.436V31.802H58.555z"/>
        <path stroke="#FF7D7D" stroke-width="1.5" d="M58.555 46.391h29.436V31.802H58.555z"/>
        <path fill="#FFCFCF" d="M228.53 44.681v1.71h-29.437V31.8h13.648"/>
        <path stroke="#FF7D7D" stroke-width="1.5" d="M228.53 44.681v1.71h-29.437V31.8h13.648"/>
        <path fill="#FFCFCF" d="M212.783 23.306h26.202v21.375h-13.1l-13.412-13.41z"/>
        <path stroke="#FF7D7D" stroke-width="1.5" d="M212.783 23.306h26.202v21.375h-13.1l-13.412-13.41z"/>
        <path fill="#FFCFCF" d="M205.735 60.981h29.436v-14.59h-29.436z"/>
        <path stroke="#FF7D7D" stroke-width="1.5" d="M205.735 60.981h29.436v-14.59h-29.436z"/>
        <path fill="#FFCFCF" d="M146.863 46.391h29.436V31.802h-29.436z"/>
        <path stroke="#FF7D7D" stroke-width="1.5" d="M146.863 46.391h29.436V31.802h-29.436z"/>
        <path fill="#FFCFCF" d="M176.299 46.391h14.718V31.802h-14.718z"/>
        <path stroke="#FF7D7D" stroke-width="1.5" d="M176.299 46.391h14.718V31.802h-14.718z"/>
        <path fill="#DCFAFF" d="M269.151 55.866l-6.089 6.09-13.3-13.3-1.057-7.147 7.146 1.057z"/>
        <g>
            <path stroke="#00C8FF" stroke-width="1.5" d="M269.151 55.866l-6.089 6.09-13.3-13.3-1.057-7.147 7.146 1.057z"/>
            <path fill="#DCFAFF" d="M244.376 12.072c-6.934-6.933-18.174-6.933-25.107 0-6.934 6.934-6.934 18.175 0 25.107 6.933 6.934 18.173 6.934 25.107 0 6.934-6.932 6.934-18.173 0-25.107m4.329 29.437c-9.324 9.324-24.441 9.324-33.766 0-9.324-9.325-9.324-24.442 0-33.766 9.325-9.324 24.442-9.324 33.766 0 9.324 9.324 9.324 24.441 0 33.766"/>
            <path stroke="#00C8FF" stroke-width="1.5" d="M244.376 12.072c-6.934-6.933-18.174-6.933-25.107 0-6.934 6.934-6.934 18.175 0 25.107 6.933 6.934 18.173 6.934 25.107 0 6.934-6.932 6.934-18.173 0-25.107zm4.329 29.437c-9.324 9.324-24.441 9.324-33.766 0-9.324-9.325-9.324-24.442 0-33.766 9.325-9.324 24.442-9.324 33.766 0 9.324 9.324 9.324 24.441 0 33.766z"/>
            <path fill="#DCFAFF" d="M1.06 47.445l10.942 10.941 44.823-44.823-10.942-10.94z"/>
            <path stroke="#00C8FF" stroke-width="1.5" d="M1.06 47.445l10.942 10.941 44.823-44.823-10.942-10.94z"/>
            <path fill="#DCFAFF" d="M50.599 19.79l-5.471-5.471"/>
            <path stroke="#00C8FF" stroke-width="1.5" d="M50.599 19.79l-5.471-5.471"/>
            <path fill="#DCFAFF" d="M46.553 23.836l-3.96-3.96"/>
            <path stroke="#00C8FF" stroke-width="1.5" d="M46.553 23.836l-3.96-3.96"/>
            <path fill="#DCFAFF" d="M42.506 27.883l-5.471-5.471"/>
            <path stroke="#00C8FF" stroke-width="1.5" d="M42.506 27.883l-5.471-5.471"/>
            <path fill="#DCFAFF" d="M38.46 31.929l-3.96-3.96"/>
            <path stroke="#00C8FF" stroke-width="1.5" d="M38.46 31.929l-3.96-3.96"/>
            <path fill="#DCFAFF" d="M34.413 35.975l-5.471-5.47"/>
            <path stroke="#00C8FF" stroke-width="1.5" d="M34.413 35.975l-5.471-5.47"/>
            <g>
                <path fill="#DCFAFF" d="M30.367 40.021l-3.96-3.96"/>
                <path stroke="#00C8FF" stroke-width="1.5" d="M30.367 40.021l-3.96-3.96"/>
            </g>
            <g>
                <path fill="#DCFAFF" d="M26.32 44.068l-5.47-5.47"/>
                <path stroke="#00C8FF" stroke-width="1.5" d="M26.32 44.068l-5.47-5.47"/>
            </g>
            <g>
                <path fill="#DCFAFF" d="M22.274 48.114l-3.96-3.96"/>
                <path stroke="#00C8FF" stroke-width="1.5" d="M22.274 48.114l-3.96-3.96"/>
            </g>
            <g>
                <path fill="#DCFAFF" d="M18.227 52.16l-5.47-5.47"/>
                <path stroke="#00C8FF" stroke-width="1.5" d="M18.227 52.16l-5.47-5.47"/>
            </g>
        </g>
    </g>
</svg>
