<svg xmlns="http://www.w3.org/2000/svg" width="259" height="69" viewBox="0 0 259 69">
    <g fill="none" fill-rule="evenodd">
        <path stroke="#FF7D7D" stroke-linecap="square" stroke-width="1.5" d="M54.512 33.253l4.582 4.583-4.5 4.5"/>
        <path fill="#FFCFCF" d="M18.064 40.656c-.874 0-1.583-1.53-1.583-3.417 0-1.887.709-3.417 1.583-3.417.875 0 1.584 1.53 1.584 3.417 0 1.887-.71 3.417-1.584 3.417m-10.39 0c-.874 0-1.582-1.53-1.582-3.417 0-1.887.708-3.417 1.583-3.417.874 0 1.583 1.53 1.583 3.417 0 1.887-.71 3.417-1.583 3.417m17.203-2.455c0-6.663-5.401-12.065-12.064-12.065C6.152 26.136.75 31.538.75 38.201c0 3.984 3.626 6.464 6.954 7.814a2.595 2.595 0 0 0-.148.83 2.607 2.607 0 0 0 2.607 2.607c.477 0 .919-.138 1.303-.36.385.222.826.36 1.303.36a2.59 2.59 0 0 0 1.304-.36c.384.222.825.36 1.302.36a2.607 2.607 0 0 0 2.607-2.607c0-.28-.056-.545-.138-.798 3.349-1.344 7.033-3.83 7.033-7.846"/>
        <path stroke="#FF7D7D" stroke-width="1.5" d="M18.064 40.656c-.874 0-1.583-1.53-1.583-3.417 0-1.887.709-3.417 1.583-3.417.875 0 1.584 1.53 1.584 3.417 0 1.887-.71 3.417-1.584 3.417zm-10.39 0c-.874 0-1.582-1.53-1.582-3.417 0-1.887.708-3.417 1.583-3.417.874 0 1.583 1.53 1.583 3.417 0 1.887-.71 3.417-1.583 3.417zm17.204-2.455c0-6.663-5.401-12.065-12.064-12.065C6.152 26.136.75 31.538.75 38.201c0 3.984 3.626 6.464 6.954 7.814a2.595 2.595 0 0 0-.148.83 2.607 2.607 0 0 0 2.607 2.607c.477 0 .919-.138 1.303-.36.385.222.826.36 1.303.36a2.59 2.59 0 0 0 1.304-.36c.384.222.825.36 1.302.36a2.607 2.607 0 0 0 2.607-2.607c0-.28-.056-.545-.138-.798 3.349-1.344 7.033-3.83 7.033-7.846zM17.712 30.94l-2.375 2.375M10.291 33.315L7.916 30.94"/>
        <path stroke="#00C8FF" stroke-width="1.5" d="M237.905 24.75c-12.13 33.977-40.025 24.307-40.025 8.03 0-13.081 14.069-9.05 5.458 3.95-19.43 29.332-43.503 8.367-48.433 4.75-7.5-5.5-11.892-4.75-11.892-4.75"/>
        <path fill="#DCFAFF" d="M238.61 21.027l-10.42-1.889L257.434.633z"/>
        <path stroke="#00C8FF" stroke-linejoin="bevel" stroke-width="1.5" d="M238.61 21.027l-10.42-1.889L257.434.633z"/>
        <path fill="#DCFAFF" d="M257.434.634L238.61 21.028l10.259 9.468z"/>
        <path stroke="#00C8FF" stroke-linejoin="bevel" stroke-width="1.5" d="M257.434.634L238.61 21.028l10.259 9.468z"/>
        <path stroke="#00C8FF" stroke-width="1.5" d="M175.98 47.417l4.009 4.698-3.88 4.013"/>
        <path stroke="#FF7D7D" stroke-linecap="square" stroke-width="1.5" d="M81.214 37.836H32.392"/>
        <path fill="#DCFAFF" d="M143.013 36.731c0-17.065-13.834-30.899-30.899-30.899-17.066 0-30.9 13.834-30.9 30.9 0 17.064 13.834 30.898 30.9 30.898 17.065 0 30.899-13.834 30.899-30.899"/>
        <path stroke="#00C8FF" stroke-width="1.5" d="M143.013 36.731c0-17.065-13.834-30.899-30.899-30.899-17.066 0-30.9 13.834-30.9 30.9 0 17.064 13.834 30.898 30.9 30.898 17.065 0 30.899-13.834 30.899-30.899zM108.06 28.723V44.74M116.25 28.723V44.74M116.25 36.731h-8.19"/>
    </g>
</svg>
