<svg xmlns="http://www.w3.org/2000/svg" width="318" height="239" viewBox="0 0 318 239">
  <g fill="none" fill-rule="evenodd" transform="translate(0 1)">
    <path fill="#FFCFCF" d="M55.6950501,91.9397364 L43.2950528,102.665715 C42.4996098,103.352804 41.297196,103.266182 40.6102225,102.469765 L34.501456,95.4062947 C33.8144825,94.6107187 33.9010899,93.4081039 34.6965329,92.7210155 L47.0965302,81.9950367 C47.8928141,81.3071074 49.094387,81.3945703 49.7822013,82.1893053 L55.8901271,89.2544572 C56.5779414,90.0500332 56.4904931,91.2526481 55.6950501,91.9397364"/>
    <path stroke="#FF7D7D" stroke-width="1.26" d="M55.6950501,91.9397364 L43.2950528,102.665715 C42.4996098,103.352804 41.297196,103.266182 40.6102225,102.469765 L34.501456,95.4062947 C33.8144825,94.6107187 33.9010899,93.4081039 34.6965329,92.7210155 L47.0965302,81.9950367 C47.8928141,81.3071074 49.094387,81.3945703 49.7822013,82.1893053 L55.8901271,89.2544572 C56.5779414,90.0500332 56.4904931,91.2526481 55.6950501,91.9397364 Z"/>
    <g transform="translate(33.634 80.736)">
      <polyline fill="#FFCFCF" points=".435 13.118 11.562 11.594 14.677 .798"/>
      <polyline stroke="#FF7D7D" stroke-width="1.26" points=".435 13.118 11.562 11.594 14.677 .798"/>
    </g>
    <g transform="translate(33.634 80.736)">
      <polyline fill="#FFCFCF" points=".435 13.118 3.277 2.012 14.677 .798"/>
      <polyline stroke="#FF7D7D" stroke-width="1.26" points=".435 13.118 3.277 2.012 14.677 .798"/>
    </g>
    <path stroke="#FF7D7D" stroke-width="1.26" d="M71.9142668,61.3857505 C76.2084817,60.3454466 79.098479,63.0357717 78.3677814,67.3954608 C77.7825507,70.8830438 74.5225798,74.3840827 71.0868716,75.2158212 C68.337296,75.8818848 66.4882695,74.1595385 66.9566223,71.3699767 C67.3308,69.1379908 69.416105,66.8975951 71.6166064,66.3644078 C73.3748212,65.9388671 74.5595772,67.0405633 74.2593942,68.8268247 C74.0197523,70.2548247 72.6844844,71.6887117 71.2769034,72.0293124"/>
    <path fill="#FFCFCF" d="M105.324049,90.2882014 C104.188062,90.6843074 102.576155,89.0183074 101.722693,86.5685053 C100.868391,84.1187032 101.097102,81.8118693 102.231407,81.4157633 C103.367394,81.0196572 104.979301,82.6856572 105.832762,85.1354594 C106.687065,87.5852615 106.459195,89.8929364 105.324049,90.2882014 M91.8359931,94.9901731 C90.7008472,95.3862792 89.0880992,93.7202792 88.2354785,91.270477 C87.3811761,88.8206749 87.609887,86.513841 88.744192,86.117735 C89.8801788,85.721629 91.4920859,87.387629 92.3455475,89.8374311 C93.1998499,92.2872332 92.9719798,94.5949081 91.8359931,94.9901731 M113.059017,84.0169435 C110.044574,75.3656855 100.588388,70.7965901 91.9385767,73.8123781 C83.288765,76.8281661 78.7204334,86.2859329 81.7348764,94.9371908 C83.5384971,100.110117 89.3697836,101.687813 94.300521,101.936746 C94.3038844,102.316873 94.3518127,102.702046 94.483826,103.080491 C95.1354838,104.950011 97.1779056,105.936491 99.0471125,105.285565 C99.6659772,105.069431 100.177213,104.690986 100.575776,104.225919 C101.176142,104.342816 101.810982,104.321792 102.431529,104.105657 C103.050394,103.889523 103.560789,103.511919 103.959351,103.046852 C104.559717,103.163749 105.195399,103.141883 105.814264,102.925749 C107.683471,102.274823 108.669786,100.231219 108.018969,98.3625406 C107.892001,97.9983922 107.699447,97.6788163 107.479144,97.3869929 C111.217558,94.127318 114.876091,89.2310777 113.059017,84.0169435"/>
    <path stroke="#FF7D7D" stroke-width="1.26" d="M105.324049 90.2882014C104.188062 90.6843074 102.576155 89.0183074 101.722693 86.5685053 100.868391 84.1187032 101.097102 81.8118693 102.231407 81.4157633 103.367394 81.0196572 104.979301 82.6856572 105.832762 85.1354594 106.687065 87.5852615 106.459195 89.8929364 105.324049 90.2882014zM91.8359931 94.9901731C90.7008472 95.3862792 89.0880992 93.7202792 88.2354785 91.270477 87.3811761 88.8206749 87.609887 86.513841 88.744192 86.117735 89.8801788 85.721629 91.4920859 87.387629 92.3455475 89.8374311 93.1998499 92.2872332 92.9719798 94.5949081 91.8359931 94.9901731zM113.059017 84.0169435C110.044574 75.3656855 100.588388 70.7965901 91.9385767 73.8123781 83.288765 76.8281661 78.7204334 86.2859329 81.7348764 94.9371908 83.5384971 100.110117 89.3697836 101.687813 94.300521 101.936746 94.3038844 102.316873 94.3518127 102.702046 94.483826 103.080491 95.1354838 104.950011 97.1779056 105.936491 99.0471125 105.285565 99.6659772 105.069431 100.177213 104.690986 100.575776 104.225919 101.176142 104.342816 101.810982 104.321792 102.431529 104.105657 103.050394 103.889523 103.560789 103.511919 103.959351 103.046852 104.559717 103.163749 105.195399 103.141883 105.814264 102.925749 107.683471 102.274823 108.669786 100.231219 108.018969 98.3625406 107.892001 97.9983922 107.699447 97.6788163 107.479144 97.3869929 111.217558 94.127318 114.876091 89.2310777 113.059017 84.0169435zM100.470249 77.8334848L98.4614613 81.9921774M91.9115013 84.2755477L87.7543448 82.266424M103.978186 64.726665L105.182282 53.143718M75.4944329 85.5230714L64.1404515 82.1877074"/>
    <polyline stroke="#FF7D7D" stroke-width="1.26" points="90.727 68.133 86.433 61.379 92.375 61.369 86.481 52.988"/>
    <path fill="#FFCFCF" d="M99.2590905,33.7891039 L97.3116846,35.7368353 L101.779114,40.206694 L103.72652,38.2581216 L99.2590905,33.7891039 Z M108.228425,40.8609837 L104.381541,44.7076693 C102.058276,47.031323 98.2929552,47.031323 95.9696899,44.7076693 L88.6038544,37.3414431 L100.862589,25.0806587 L108.228425,32.4468848 C110.55169,34.7705385 110.55169,38.53733 108.228425,40.8609837 Z"/>
    <path stroke="#FF7D7D" stroke-width="1.26" d="M99.2590905,33.7891039 L97.3116846,35.7368353 L101.779114,40.206694 L103.72652,38.2581216 L99.2590905,33.7891039 Z M108.228425,40.8609837 L104.381541,44.7076693 C102.058276,47.031323 98.2929552,47.031323 95.9696899,44.7076693 L88.6038544,37.3414431 L100.862589,25.0806587 L108.228425,32.4468848 C110.55169,34.7705385 110.55169,38.53733 108.228425,40.8609837 Z"/>
    <path fill="#FFCFCF" d="M77.317309,45.9941307 L78.6349191,47.3119611 L80.9253912,45.021106 L79.6607546,43.7570989 C77.5409748,41.6361237 77.5409748,38.197318 79.6607546,36.0771837 C81.7813753,33.9570495 85.2187653,33.9570495 87.3393859,36.0771837 L88.6040225,37.3411908 L90.8936538,35.0503357 L89.5760438,33.7333463 C86.1916273,30.347523 80.7025663,30.347523 77.317309,33.7333463 C73.9328926,37.1183286 73.9328926,42.6083074 77.317309,45.9941307"/>
    <path stroke="#FF7D7D" stroke-width="1.26" d="M77.317309,45.9941307 L78.6349191,47.3119611 L80.9253912,45.021106 L79.6607546,43.7570989 C77.5409748,41.6361237 77.5409748,38.197318 79.6607546,36.0771837 C81.7813753,33.9570495 85.2187653,33.9570495 87.3393859,36.0771837 L88.6040225,37.3411908 L90.8936538,35.0503357 L89.5760438,33.7333463 C86.1916273,30.347523 80.7025663,30.347523 77.317309,33.7333463 C73.9328926,37.1183286 73.9328926,42.6083074 77.317309,45.9941307 Z"/>
    <path fill="#FFCFCF" d="M102.855653,122.274476 C101.80291,122.941381 100.409624,122.627692 99.7428308,121.573932 C99.0768785,120.521013 99.3905151,119.126653 100.444099,118.460589 C101.496841,117.794526 102.890128,118.108215 103.556921,119.161134 C104.222873,120.214893 103.909237,121.608413 102.855653,122.274476 Z M105.638022,115.766059 C103.660345,114.050441 100.720738,113.748526 98.3941093,115.220257 C95.5511995,117.018293 94.7053056,120.780879 96.5030403,123.623423 C98.3007751,126.465967 102.062733,127.312844 104.905642,125.515649 C107.37942,123.949727 108.339669,120.896095 107.360921,118.256229 L114.309695,113.859536 L117.140833,115.072243 L117.124857,112.079162 L116.446292,111.0069 L115.507064,109.521713 L105.638022,115.766059 Z"/>
    <path stroke="#FF7D7D" stroke-width="1.26" d="M102.855653,122.274476 C101.80291,122.941381 100.409624,122.627692 99.7428308,121.573932 C99.0768785,120.521013 99.3905151,119.126653 100.444099,118.460589 C101.496841,117.794526 102.890128,118.108215 103.556921,119.161134 C104.222873,120.214893 103.909237,121.608413 102.855653,122.274476 Z M105.638022,115.766059 C103.660345,114.050441 100.720738,113.748526 98.3941093,115.220257 C95.5511995,117.018293 94.7053056,120.780879 96.5030403,123.623423 C98.3007751,126.465967 102.062733,127.312844 104.905642,125.515649 C107.37942,123.949727 108.339669,120.896095 107.360921,118.256229 L114.309695,113.859536 L117.140833,115.072243 L117.124857,112.079162 L116.446292,111.0069 L115.507064,109.521713 L105.638022,115.766059 Z"/>
    <polygon fill="#FFCFCF" points="63.847 53.596 64 41.871 52.898 38.102 45.883 47.498 52.651 57.074"/>
    <polygon stroke="#FF7D7D" stroke-width="1.26" points="63.847 53.596 64 41.871 52.898 38.102 45.883 47.498 52.651 57.074"/>
    <g transform="translate(45.406 41.21)">
      <path fill="#FFCFCF" d="M0.476593103,6.28858301 C1.37125623,6.28942332 10.3170467,5.50393922 10.3170467,5.50393922 L18.5943623,0.661522261"/>
      <path stroke="#FF7D7D" stroke-width="1.26" d="M0.476593103,6.28858301 C1.37125623,6.28942332 10.3170467,5.50393922 10.3170467,5.50393922 L18.5943623,0.661522261"/>
    </g>
    <g transform="translate(52.133 37.845)">
      <path fill="#FFCFCF" d="M0.764751989,0.25624947 L6.29249204,17.4351399"/>
      <path stroke="#FF7D7D" stroke-width="1.26" d="M0.764751989,0.25624947 L6.29249204,17.4351399"/>
    </g>
    <polyline stroke="#FF7D7D" stroke-width="1.26" points="48.427 65.057 47.176 56.417 52.65 57.074 53.658 64.023"/>
    <polyline stroke="#FF7D7D" stroke-width="1.26" points="70.491 57.072 66.723 50.439 63.848 53.596 66.551 59.461"/>
    <path fill="#FFCFCF" d="M145.031116,39.7327124 L130.791341,49.6319986 L132.991842,52.7966417 L147.230776,42.8973555 L145.031116,39.7327124 Z M149.435482,46.2554261 L135.370604,56.0344509 C131.89958,58.4472495 127.130285,57.5885993 124.718731,54.117836 L120.347999,47.8297583 C117.934763,44.3589951 118.793269,39.5889032 122.263453,37.1761046 L136.329171,27.3970799 C139.799354,24.9842813 144.568649,25.8420905 146.981044,29.3128537 L151.351776,35.6017724 C153.764171,39.0725357 152.905665,43.8426276 149.435482,46.2554261 Z"/>
    <path stroke="#FF7D7D" stroke-width="1.26" d="M145.031116 39.7327124L130.791341 49.6319986 132.991842 52.7966417 147.230776 42.8973555 145.031116 39.7327124zM149.435482 46.2554261L135.370604 56.0344509C131.89958 58.4472495 127.130285 57.5885993 124.718731 54.117836L120.347999 47.8297583C117.934763 44.3589951 118.793269 39.5889032 122.263453 37.1761046L136.329171 27.3970799C139.799354 24.9842813 144.568649 25.8420905 146.981044 29.3128537L151.351776 35.6017724C153.764171 39.0725357 152.905665 43.8426276 149.435482 46.2554261zM129.160094 40.5309795L125.435975 41.5620325M137.241745 34.9126657L139.504469 31.7808212M128.921966 43.3832792L130.136993 45.1316961M139.997542 35.6837689L141.212569 37.4321859"/>
    <polygon fill="#FFCFCF" points="124.944 26.023 127.297 33.677 131.296 30.897"/>
    <polygon stroke="#FF7D7D" stroke-width="1.26" points="124.944 26.023 127.297 33.677 131.296 30.897"/>
    <path fill="#FFCFCF" d="M125.552853,22.6328749 C124.785158,21.5286558 123.267426,21.2544933 122.163392,22.0223166 C121.058516,22.7901399 120.786081,24.3081258 121.552935,25.4131859 C122.32063,26.5174049 123.839203,26.7898855 124.943238,26.0229032 C126.047272,25.2550799 126.320548,23.736253 125.552853,22.6328749"/>
    <path stroke="#FF7D7D" stroke-width="1.26" d="M125.552853,22.6328749 C124.785158,21.5286558 123.267426,21.2544933 122.163392,22.0223166 C121.058516,22.7901399 120.786081,24.3081258 121.552935,25.4131859 C122.32063,26.5174049 123.839203,26.7898855 124.943238,26.0229032 C126.047272,25.2550799 126.320548,23.736253 125.552853,22.6328749 Z"/>
    <polygon fill="#FFCFCF" points="127.207 2.792 134.687 3.396 127.958 9.12 133.029 9.53 124.374 16.893 125.522 2.656"/>
    <polygon stroke="#FF7D7D" stroke-width="1.26" points="127.207 2.792 134.687 3.396 127.958 9.12 133.029 9.53 124.374 16.893 125.522 2.656"/>
    <polygon fill="#FFCFCF" points="116.03 7.509 110.59 9.089 116.434 12.303 112.747 13.375 120.264 17.508 117.255 7.152"/>
    <polygon stroke="#FF7D7D" stroke-width="1.26" points="116.03 7.509 110.59 9.089 116.434 12.303 112.747 13.375 120.264 17.508 117.255 7.152"/>
    <path fill="#FFCFCF" d="M74.2495562,113.985348 C73.6315324,114.830543 72.4442538,115.014719 71.5983599,114.39491 C69.8149196,113.089695 70.4951663,110.849299 71.0349912,109.177412 C69.6047074,110.196691 67.6758003,111.522931 65.8915191,110.216875 C64.1097605,108.9125 64.7874846,106.677151 65.3273095,105.005264 C63.8970257,106.025384 61.971482,107.346578 60.1905642,106.043045 C58.3718082,104.710917 59.1176411,102.407447 59.6616703,100.725469 C59.802092,100.290677 60.0223944,99.6119986 60.0854581,99.2226205 C59.6145828,98.5733767 59.591039,97.6693131 60.0905032,96.9864297 C60.7085271,96.1412353 61.8966464,95.9570587 62.7416995,96.5768678 C64.5234581,97.8812424 63.8465748,100.11491 63.305909,101.785956 C64.7361928,100.766677 66.6617366,99.4463237 68.4418135,100.749857 C70.224413,102.055073 69.5441663,104.293787 69.0043414,105.964833 C70.435466,104.945553 72.3635324,103.621836 74.1461318,104.927052 C75.9657286,106.259179 75.2207366,108.56349 74.6775483,110.245469 C74.5362857,110.681101 74.3168241,111.358939 74.2546013,111.748317 C74.7254767,112.39756 74.7498613,113.302465 74.2495562,113.985348"/>
    <path stroke="#FF7D7D" stroke-width="1.26" d="M74.2495562,113.985348 C73.6315324,114.830543 72.4442538,115.014719 71.5983599,114.39491 C69.8149196,113.089695 70.4951663,110.849299 71.0349912,109.177412 C69.6047074,110.196691 67.6758003,111.522931 65.8915191,110.216875 C64.1097605,108.9125 64.7874846,106.677151 65.3273095,105.005264 C63.8970257,106.025384 61.971482,107.346578 60.1905642,106.043045 C58.3718082,104.710917 59.1176411,102.407447 59.6616703,100.725469 C59.802092,100.290677 60.0223944,99.6119986 60.0854581,99.2226205 C59.6145828,98.5733767 59.591039,97.6693131 60.0905032,96.9864297 C60.7085271,96.1412353 61.8966464,95.9570587 62.7416995,96.5768678 C64.5234581,97.8812424 63.8465748,100.11491 63.305909,101.785956 C64.7361928,100.766677 66.6617366,99.4463237 68.4418135,100.749857 C70.224413,102.055073 69.5441663,104.293787 69.0043414,105.964833 C70.435466,104.945553 72.3635324,103.621836 74.1461318,104.927052 C75.9657286,106.259179 75.2207366,108.56349 74.6775483,110.245469 C74.5362857,110.681101 74.3168241,111.358939 74.2546013,111.748317 C74.7254767,112.39756 74.7498613,113.302465 74.2495562,113.985348 Z"/>
    <g transform="translate(36.997 110.17)">
      <path fill="#FFCFCF" d="M17.3789154,5.50259364 C17.2443796,5.47315901 16.3640109,2.85011307 14.6537244,1.43388693 C11.1532708,-1.46668551 2.38321777,1.43052297 0.02463687,10.7764382 C0.02463687,10.7764382 9.80454934,3.94003534 10.0433504,6.51934982"/>
      <path stroke="#FF7D7D" stroke-width="1.26" d="M17.3789154,5.50259364 C17.2443796,5.47315901 16.3640109,2.85011307 14.6537244,1.43388693 C11.1532708,-1.46668551 2.38321777,1.43052297 0.02463687,10.7764382 C0.02463687,10.7764382 9.80454934,3.94003534 10.0433504,6.51934982"/>
    </g>
    <path fill="#FFCFCF" d="M71.8805488,138.001987 C75.9460528,134.175486 82.9528459,135.722906 84.9961085,137.416659 C86.7097584,138.835408 89.1843764,139.238242 89.8923711,138.382955 C90.6012066,137.52851 90.9644533,136.334305 89.8831218,133.967761 C88.7118194,131.404425 89.6359122,129.890645 87.5842411,128.191005 C85.5317292,126.491365 84.0081111,127.332355 82.7644958,127.246574 C81.1021377,127.132199 71.6156814,128.443302 70.3451589,127.391224 C69.0746363,126.338305 58.8356204,117.856086 58.8356204,117.856086 C54.32783,114.122093 47.6464454,114.749471 43.9122358,119.258016 L43.1722889,120.150305 L41.4989997,122.172044 L34.3635568,130.788821 L37.2939149,133.216758 C37.2939149,133.216758 40.7624162,129.02863 41.6797822,127.921888 C42.4365462,127.006892 45.0717663,127.794058 47.0612146,126.778984 L60.2591775,137.712687 L53.1220528,146.329464 L56.0540926,148.758242 C56.0540926,148.758242 59.5225939,144.570955 60.4399599,143.462531 C61.3564851,142.354948 64.9527955,143.684553 66.974196,141.407153 C67.9924639,140.260044 70.7630607,139.054065 71.8805488,138.001987"/>
    <path stroke="#FF7D7D" stroke-width="1.26" d="M71.8805488,138.001987 C75.9460528,134.175486 82.9528459,135.722906 84.9961085,137.416659 C86.7097584,138.835408 89.1843764,139.238242 89.8923711,138.382955 C90.6012066,137.52851 90.9644533,136.334305 89.8831218,133.967761 C88.7118194,131.404425 89.6359122,129.890645 87.5842411,128.191005 C85.5317292,126.491365 84.0081111,127.332355 82.7644958,127.246574 C81.1021377,127.132199 71.6156814,128.443302 70.3451589,127.391224 C69.0746363,126.338305 58.8356204,117.856086 58.8356204,117.856086 C54.32783,114.122093 47.6464454,114.749471 43.9122358,119.258016 L43.1722889,120.150305 L41.4989997,122.172044 L34.3635568,130.788821 L37.2939149,133.216758 C37.2939149,133.216758 40.7624162,129.02863 41.6797822,127.921888 C42.4365462,127.006892 45.0717663,127.794058 47.0612146,126.778984 L60.2591775,137.712687 L53.1220528,146.329464 L56.0540926,148.758242 C56.0540926,148.758242 59.5225939,144.570955 60.4399599,143.462531 C61.3564851,142.354948 64.9527955,143.684553 66.974196,141.407153 C67.9924639,140.260044 70.7630607,139.054065 71.8805488,138.001987 Z"/>
    <path fill="#FFCFCF" d="M50.1260244,143.847032 C52.1953533,141.348452 55.8976106,141.001124 58.3957724,143.070799 C60.8939342,145.140473 61.2412048,148.842509 59.1727167,151.341088 C57.1033878,153.839668 53.4011305,154.187837 50.9029687,152.118163 C48.4048069,150.048488 48.0575363,146.345611 50.1260244,143.847032"/>
    <path stroke="#FF7D7D" stroke-width="1.26" d="M50.1260244,143.847032 C52.1953533,141.348452 55.8976106,141.001124 58.3957724,143.070799 C60.8939342,145.140473 61.2412048,148.842509 59.1727167,151.341088 C57.1033878,153.839668 53.4011305,154.187837 50.9029687,152.118163 C48.4048069,150.048488 48.0575363,146.345611 50.1260244,143.847032 Z"/>
    <path fill="#FFCFCF" d="M31.1059403,128.090002 C33.1752692,125.591423 36.8775265,125.244094 39.3756883,127.313769 C41.8738501,129.382603 42.2211207,133.085479 40.1526326,135.584059 C38.0833037,138.082638 34.3810464,138.430808 31.8828846,136.361133 C29.3847228,134.291458 29.0374523,130.588582 31.1059403,128.090002"/>
    <path stroke="#FF7D7D" stroke-width="1.26" d="M31.1059403,128.090002 C33.1752692,125.591423 36.8775265,125.244094 39.3756883,127.313769 C41.8738501,129.382603 42.2211207,133.085479 40.1526326,135.584059 C38.0833037,138.082638 34.3810464,138.430808 31.8828846,136.361133 C29.3847228,134.291458 29.0374523,130.588582 31.1059403,128.090002 Z"/>
    <path fill="#FFCFCF" d="M33.9668443,130.460163 C34.7269716,129.541802 36.087465,129.414813 37.0056719,130.175067 C37.9238788,130.935322 38.0516878,132.296883 37.2915605,133.213562 C36.5314332,134.131922 35.1709398,134.260594 34.2527329,133.499498 C33.334526,132.739244 33.206717,131.378523 33.9668443,130.460163"/>
    <path stroke="#FF7D7D" stroke-width="1.26" d="M33.9668443,130.460163 C34.7269716,129.541802 36.087465,129.414813 37.0056719,130.175067 C37.9238788,130.935322 38.0516878,132.296883 37.2915605,133.213562 C36.5314332,134.131922 35.1709398,134.260594 34.2527329,133.499498 C33.334526,132.739244 33.206717,131.378523 33.9668443,130.460163 Z"/>
    <path fill="#FFCFCF" d="M52.9869284,146.217276 C53.7470557,145.298916 55.1075491,145.171927 56.025756,145.932181 C56.9439629,146.692435 57.0717719,148.053997 56.3116446,148.971517 C55.5515172,149.889877 54.1910239,150.017707 53.272817,149.256612 C52.3546101,148.496358 52.2268011,147.135637 52.9869284,146.217276"/>
    <path stroke="#FF7D7D" stroke-width="1.26" d="M52.9869284 146.217276C53.7470557 145.298916 55.1075491 145.171927 56.025756 145.932181 56.9439629 146.692435 57.0717719 148.053997 56.3116446 148.971517 55.5515172 149.889877 54.1910239 150.017707 53.272817 149.256612 52.3546101 148.496358 52.2268011 147.135637 52.9869284 146.217276zM86.3663557 132.496114L85.4153557 133.644064"/>
    <polyline stroke="#FF7D7D" stroke-width="1.26" points="85.654 127.204 82.192 131.385 65.176 132.983 70.026 127.126"/>
    <path stroke="#FF7D7D" stroke-width="1.26" d="M87.1226151,132.234146 L86.1505939,129.437015"/>
    <path fill="#FFCFCF" d="M2.76841061,84.7650876 L17.3008005,145.682155 L14.5941082,146.328035 L0.707490186,88.1181124 C0.350970292,86.6236742 1.27338143,85.1216671 2.76841061,84.7650876"/>
    <path stroke="#FF7D7D" stroke-width="1.26" d="M2.76841061 84.7650876L17.3008005 145.682155 14.5941082 146.328035.707490186 88.1181124C.350970292 86.6236742 1.27338143 85.1216671 2.76841061 84.7650876zM11.8961607 135.015802L14.6650759 134.633152"/>
    <path fill="#FFCFCF" d="M11.6950297,135.193251 C10.5397034,133.972134 8.61247798,133.918311 7.39156552,135.07383 C6.17065305,136.230191 6.11767958,138.156898 7.27300584,139.378855 C8.4283321,140.599972 10.3547167,140.652954 11.57647,139.497435 C12.7982233,138.341074 12.850356,136.414367 11.6950297,135.193251"/>
    <path stroke="#FF7D7D" stroke-width="1.26" d="M11.6950297,135.193251 C10.5397034,133.972134 8.61247798,133.918311 7.39156552,135.07383 C6.17065305,136.230191 6.11767958,138.156898 7.27300584,139.378855 C8.4283321,140.599972 10.3547167,140.652954 11.57647,139.497435 C12.7982233,138.341074 12.850356,136.414367 11.6950297,135.193251 Z"/>
    <path fill="#FFCFCF" d="M10.1348347,136.66986 C9.79513183,136.310758 9.22755889,136.29562 8.86851645,136.63538 C8.50863316,136.975139 8.49349788,137.541966 8.8332008,137.90191 C9.17290371,138.261012 9.74047666,138.27615 10.0995191,137.93639 C10.4585615,137.59663 10.4745377,137.029804 10.1348347,136.66986"/>
    <path stroke="#FF7D7D" stroke-width="1.26" d="M10.1348347 136.66986C9.79513183 136.310758 9.22755889 136.29562 8.86851645 136.63538 8.50863316 136.975139 8.49349788 137.541966 8.8332008 137.90191 9.17290371 138.261012 9.74047666 138.27615 10.0995191 137.93639 10.4585615 137.59663 10.4745377 137.029804 10.1348347 136.66986zM2.76841061 84.7650876C3.27628329 85.1864233 9.26733103 89.1163668 14.6714663 87.4133633 18.8345088 86.1022608 20.9038377 82.1420417 21.6589199 80.6972219 23.5710101 77.038077 22.2971241 75.9094693 24.0755194 73.3814551 26.7880976 69.5246777 30.5988244 70.9476318 32.9363841 67.5601265 35.8894451 63.2811724 32.8657528 56.5810099 32.7202859 56.2681618 30.5273523 51.5653491 27.4557316 51.9606141 24.5480764 46.656494 23.5970764 44.9181689 20.9307448 40.0555682 22.7511825 37.2718933 25.1745088 33.563971 32.975904 37.4972784 36.4099305 33.3772714 38.5784796 30.7744092 36.1173151 28.4246848 38.1639411 23.2996954 39.6320631 19.6220488 43.2233284 15.0092219 47.7403682 14.4398721 51.0314504 14.0261053 52.2523629 16.0798014 56.6146865 15.792183 59.4643231 15.6046424 61.722843 14.5449958 63.1581719 13.7048473"/>
    <path fill="#FFCFCF" d="M75.7620751,6.6318742 C74.3099292,4.04499081 70.312534,3.5303053 66.8322607,5.48392367 C63.3511467,7.43754205 61.7064464,11.1177117 63.1585923,13.7045951 C64.6090565,16.2914784 68.6072926,16.806164 72.0875658,14.8525456 C75.5686798,12.8989272 77.2133801,9.2187576 75.7620751,6.6318742"/>
    <path stroke="#FF7D7D" stroke-width="1.26" d="M75.7620751,6.6318742 C74.3099292,4.04499081 70.312534,3.5303053 66.8322607,5.48392367 C63.3511467,7.43754205 61.7064464,11.1177117 63.1585923,13.7045951 C64.6090565,16.2914784 68.6072926,16.806164 72.0875658,14.8525456 C75.5686798,12.8989272 77.2133801,9.2187576 75.7620751,6.6318742 Z"/>
    <path fill="#FFCFCF" d="M77.6211918,0.018165371 C75.2819504,1.33179081 74.4495101,4.2920735 75.7620751,6.63170601 C77.0746401,8.97133852 80.0352687,9.80475901 82.3745101,8.49113357 L77.6211918,0.018165371 Z"/>
    <path stroke="#FF7D7D" stroke-width="1.26" d="M77.6211918.018165371C75.2819504 1.33179081 74.4495101 4.2920735 75.7620751 6.63170601 77.0746401 8.97133852 80.0352687 9.80475901 82.3745101 8.49113357L77.6211918.018165371zM63.1584241 13.7047633L67.0725753 11.5080989M65.6325377 9.32648834L67.1931531 8.45017739"/>
    <path stroke="#00C8FF" stroke-width="1.26" d="M176.705806,218.574406 L176.690671,217.733417"/>
    <path stroke="#00C8FF" stroke-dasharray="1.707 1.707" stroke-width="1.26" d="M176.659812,216.025115 L175.3607,145.124663"/>
    <path stroke="#00C8FF" stroke-width="1.26" d="M175.345985,144.269965 L175.330009,143.429817"/>
    <polyline stroke="#00C8FF" stroke-width="1.26" points="172.165 181.174 175.92 185.983 180.727 182.227"/>
    <path fill="#DCFAFF" d="M160.252665,223.766507 C163.11996,232.855079 172.810742,237.897652 181.896954,235.030719 C190.984007,232.162104 196.025737,222.470542 193.159283,213.38197 C190.29283,204.294238 180.601206,199.251666 171.514994,202.118599 C162.427941,204.986372 157.386212,214.677934 160.252665,223.766507"/>
    <path stroke="#00C8FF" stroke-width="1.26" d="M160.252665 223.766507C163.11996 232.855079 172.810742 237.897652 181.896954 235.030719 190.984007 232.162104 196.025737 222.470542 193.159283 213.38197 190.29283 204.294238 180.601206 199.251666 171.514994 202.118599 162.427941 204.986372 157.386212 214.677934 160.252665 223.766507zM93.3419533 183.926232L94.0179958 183.425843"/>
    <path stroke="#00C8FF" stroke-dasharray="1.707 1.707" stroke-width="1.26" d="M95.3915223,182.409339 L152.38005,140.222788"/>
    <path stroke="#00C8FF" stroke-width="1.26" d="M153.066855,139.714326 L153.742898,139.213937"/>
    <polyline stroke="#00C8FF" stroke-width="1.26" points="121.167 158.531 119.429 164.379 125.276 166.118"/>
    <path fill="#DCFAFF" d="M79.568934,173.53463 C73.8309817,181.14222 75.3453504,191.961549 82.9516687,197.701302 C90.557987,203.441054 101.376348,201.926433 107.115141,194.318842 C112.853093,186.710411 111.338724,175.891083 103.732406,170.15133 C96.1252469,164.411577 85.3077271,165.926199 79.568934,173.53463"/>
    <path stroke="#00C8FF" stroke-width="1.26" d="M79.568934 173.53463C73.8309817 181.14222 75.3453504 191.961549 82.9516687 197.701302 90.557987 203.441054 101.376348 201.926433 107.115141 194.318842 112.853093 186.710411 111.338724 175.891083 103.732406 170.15133 96.1252469 164.411577 85.3077271 165.926199 79.568934 173.53463zM292.431743 113.027714L291.595099 113.115177"/>
    <path stroke="#00C8FF" stroke-dasharray="1.705 1.705" stroke-width="1.26" d="M289.897677,113.291364 L209.272889,121.69453"/>
    <path stroke="#00C8FF" stroke-width="1.26" d="M208.424053,121.783423 L207.588249,121.870886"/>
    <polyline stroke="#00C8FF" stroke-width="1.26" points="238.241 122.939 242.101 118.216 237.379 114.354"/>
    <path fill="#DCFAFF" d="M299.009115,128.979433 C307.817847,125.346358 312.013682,115.259531 308.381216,106.448486 C304.747908,97.6382806 294.662767,93.4417435 285.853194,97.0748177 C277.045303,100.708733 272.849468,110.796401 276.481934,119.605765 C280.114401,128.41597 290.200383,132.612507 299.009115,128.979433"/>
    <path stroke="#00C8FF" stroke-width="1.26" d="M299.009115 128.979433C307.817847 125.346358 312.013682 115.259531 308.381216 106.448486 304.747908 97.6382806 294.662767 93.4417435 285.853194 97.0748177 277.045303 100.708733 272.849468 110.796401 276.481934 119.605765 280.114401 128.41597 290.200383 132.612507 299.009115 128.979433zM227.576402 195.405233L227.011352 194.7829"/>
    <path stroke="#00C8FF" stroke-dasharray="1.707 1.707" stroke-width="1.26" d="M225.862668,193.517968 L178.208403,141.010795"/>
    <path stroke="#00C8FF" stroke-width="1.26" d="M177.634524,140.378792 L177.069473,139.756459"/>
    <path fill="#DCFAFF" d="M218.611104,210.14887 C226.753043,215.100616 237.366237,212.514573 242.316314,204.372114 C247.268072,196.229654 244.682462,185.614686 236.540523,180.6621 C228.400266,175.711195 217.787072,178.297237 212.836154,186.439697 C207.884396,194.581315 210.470006,205.196283 218.611104,210.14887"/>
    <path stroke="#00C8FF" stroke-width="1.26" d="M218.611104 210.14887C226.753043 215.100616 237.366237 212.514573 242.316314 204.372114 247.268072 196.229654 244.682462 185.614686 236.540523 180.6621 228.400266 175.711195 217.787072 178.297237 212.836154 186.439697 207.884396 194.581315 210.470006 205.196283 218.611104 210.14887zM242.072804 65.6087788L241.362286 66.0587081"/>
    <path stroke="#00C8FF" stroke-dasharray="1.707 1.707" stroke-width="1.26" d="M239.918969,66.9737046 L180.02615,104.924192"/>
    <path stroke="#00C8FF" stroke-width="1.26" d="M179.305542,105.381606 L178.595025,105.831536"/>
    <polyline stroke="#00C8FF" stroke-width="1.26" points="212.484 88.923 214.64 83.216 208.934 81.059"/>
    <path fill="#DCFAFF" d="M255.057527,76.9711343 C261.331941,69.7983357 260.604607,58.8974311 253.433007,52.6219682 C246.261408,46.3473463 235.362326,47.0748021 229.087912,54.2467597 C222.814339,61.4195583 223.542514,72.3213039 230.713273,78.5959258 C237.884031,84.8713887 248.783954,84.1430919 255.057527,76.9711343"/>
    <path stroke="#00C8FF" stroke-width="1.26" d="M255.057527,76.9711343 C261.331941,69.7983357 260.604607,58.8974311 253.433007,52.6219682 C246.261408,46.3473463 235.362326,47.0748021 229.087912,54.2467597 C222.814339,61.4195583 223.542514,72.3213039 230.713273,78.5959258 C237.884031,84.8713887 248.783954,84.1430919 255.057527,76.9711343 Z"/>
    <path fill="#DCFAFF" d="M183.931052,224.864502 L169.481065,224.864502 C168.786524,224.864502 168.223155,224.30104 168.223155,223.606382 L168.223155,213.542262 C168.223155,212.847605 168.786524,212.284142 169.481065,212.284142 L174.724598,212.284142 C175.419139,212.284142 175.982508,212.847605 175.982508,213.542262 C175.982508,214.236919 176.545877,214.800382 177.240418,214.800382 L183.931052,214.800382 C184.625593,214.800382 185.188121,215.363845 185.188121,216.057661 L185.188121,223.606382 C185.188121,224.30104 184.625593,224.864502 183.931052,224.864502"/>
    <path stroke="#00C8FF" stroke-width="1.26" d="M183.931052,224.864502 L169.481065,224.864502 C168.786524,224.864502 168.223155,224.30104 168.223155,223.606382 L168.223155,213.542262 C168.223155,212.847605 168.786524,212.284142 169.481065,212.284142 L174.724598,212.284142 C175.419139,212.284142 175.982508,212.847605 175.982508,213.542262 C175.982508,214.236919 176.545877,214.800382 177.240418,214.800382 L183.931052,214.800382 C184.625593,214.800382 185.188121,215.363845 185.188121,216.057661 L185.188121,223.606382 C185.188121,224.30104 184.625593,224.864502 183.931052,224.864502 Z"/>
    <g transform="translate(168.17 216.135)">
      <path fill="#DCFAFF" d="M0.0536461538,1.0077576 L17.0186117,1.0077576"/>
      <path stroke="#00C8FF" stroke-width="1.26" d="M0.0536461538,1.0077576 L17.0186117,1.0077576"/>
    </g>
    <path fill="#DCFAFF" d="M289.992105,122.470006 L294.870709,122.470006 C296.723099,122.470006 298.224855,120.967999 298.224855,119.1153 L298.224855,106.939455 C298.224855,105.086755 296.723099,103.584748 294.870709,103.584748 L289.992105,103.584748 C288.139715,103.584748 286.637959,105.086755 286.637959,106.939455 L286.637959,119.1153 C286.637959,120.967999 288.139715,122.470006 289.992105,122.470006"/>
    <path stroke="#00C8FF" stroke-width="1.26" d="M289.992105,122.470006 L294.870709,122.470006 C296.723099,122.470006 298.224855,120.967999 298.224855,119.1153 L298.224855,106.939455 C298.224855,105.086755 296.723099,103.584748 294.870709,103.584748 L289.992105,103.584748 C288.139715,103.584748 286.637959,105.086755 286.637959,106.939455 L286.637959,119.1153 C286.637959,120.967999 288.139715,122.470006 289.992105,122.470006 Z"/>
    <path fill="#DCFAFF" d="M290.248311,106.043549 L294.613998,106.043549 C295.536409,106.043549 296.283924,106.791189 296.283924,107.712913 L296.283924,117.033599 C296.283924,117.955323 295.536409,118.702963 294.613998,118.702963 L290.248311,118.702963 C289.326741,118.702963 288.580067,117.955323 288.580067,117.033599 L288.580067,107.712913 C288.580067,106.791189 289.326741,106.043549 290.248311,106.043549"/>
    <path stroke="#00C8FF" stroke-width="1.26" d="M290.248311,106.043549 L294.613998,106.043549 C295.536409,106.043549 296.283924,106.791189 296.283924,107.712913 L296.283924,117.033599 C296.283924,117.955323 295.536409,118.702963 294.613998,118.702963 L290.248311,118.702963 C289.326741,118.702963 288.580067,117.955323 288.580067,117.033599 L288.580067,107.712913 C288.580067,106.791189 289.326741,106.043549 290.248311,106.043549 Z"/>
    <g transform="translate(290.934 119.421)">
      <path fill="#DCFAFF" d="M2.97694111,1.20976325 L0.0179941645,1.20976325"/>
      <path stroke="#00C8FF" stroke-width="1.26" d="M2.97694111,1.20976325 L0.0179941645,1.20976325"/>
    </g>
    <path stroke="#00C8FF" stroke-width="1.26" d="M195.847477,34.1775569 L195.609517,34.9840657"/>
    <path stroke="#00C8FF" stroke-dasharray="1.707 1.707" stroke-width="1.26" d="M195.125692,36.6225654 L175.03361,104.627491"/>
    <path stroke="#00C8FF" stroke-width="1.26" d="M174.791782,105.447372 L174.552981,106.253881"/>
    <polyline stroke="#00C8FF" stroke-width="1.26" points="188.927 71.211 186.793 65.495 181.078 67.63"/>
    <path fill="#CAFFF5" d="M316.542074,115.579444 L309.689156,113.027882 L302.834556,115.579444 L302.834556,124.968249 C302.834556,128.754384 305.903655,131.823154 309.689156,131.823154 C313.473816,131.823154 316.542074,128.754384 316.542074,124.968249 L316.542074,115.579444 Z"/>
    <path stroke="#5DD8C1" stroke-width="1.26" d="M316.542074,115.579444 L309.689156,113.027882 L302.834556,115.579444 L302.834556,124.968249 C302.834556,128.754384 305.903655,131.823154 309.689156,131.823154 C313.473816,131.823154 316.542074,128.754384 316.542074,124.968249 L316.542074,115.579444 Z"/>
    <g transform="translate(305.228 120.262)">
      <polyline fill="#CAFFF5" points=".448 2.429 3.375 5.355 8.473 .258"/>
      <polyline stroke="#5DD8C1" stroke-width="1.26" points=".448 2.429 3.375 5.355 8.473 .258"/>
    </g>
    <path fill="#CAFFF5" d="M266.179014,68.6573654 L259.326096,66.1049625 L252.472338,68.6573654 L252.472338,78.046171 C252.472338,81.8314643 255.540595,84.9002346 259.326096,84.9002346 C263.110757,84.9002346 266.179014,81.8314643 266.179014,78.046171 L266.179014,68.6573654 Z"/>
    <path stroke="#5DD8C1" stroke-width="1.26" d="M266.179014,68.6573654 L259.326096,66.1049625 L252.472338,68.6573654 L252.472338,78.046171 C252.472338,81.8314643 255.540595,84.9002346 259.326096,84.9002346 C263.110757,84.9002346 266.179014,81.8314643 266.179014,78.046171 L266.179014,68.6573654 Z"/>
    <g transform="translate(254.777 73.167)">
      <polyline fill="#CAFFF5" points=".537 2.601 3.463 5.528 8.561 .43"/>
      <polyline stroke="#5DD8C1" stroke-width="1.26" points=".537 2.601 3.463 5.528 8.561 .43"/>
    </g>
    <path fill="#CAFFF5" d="M117.449005,187.933294 L110.596087,185.381732 L103.742328,187.933294 L103.742328,197.3221 C103.742328,201.108234 106.810585,204.177004 110.596087,204.177004 C114.380747,204.177004 117.449005,201.108234 117.449005,197.3221 L117.449005,187.933294 Z"/>
    <path stroke="#5DD8C1" stroke-width="1.26" d="M117.449005,187.933294 L110.596087,185.381732 L103.742328,187.933294 L103.742328,197.3221 C103.742328,201.108234 106.810585,204.177004 110.596087,204.177004 C114.380747,204.177004 117.449005,201.108234 117.449005,197.3221 L117.449005,187.933294 Z"/>
    <g transform="translate(105.947 192.587)">
      <polyline fill="#CAFFF5" points=".637 2.457 3.563 5.384 8.661 .287"/>
      <polyline stroke="#5DD8C1" stroke-width="1.26" points=".637 2.457 3.563 5.384 8.661 .287"/>
    </g>
    <path fill="#CAFFF5" d="M200.816221,221.126893 L193.963303,218.57449 L187.109544,221.126893 L187.109544,230.515699 C187.109544,234.300992 190.178642,237.369763 193.963303,237.369763 C197.748804,237.369763 200.816221,234.300992 200.816221,230.515699 L200.816221,221.126893 Z"/>
    <path stroke="#5DD8C1" stroke-width="1.26" d="M200.816221,221.126893 L193.963303,218.57449 L187.109544,221.126893 L187.109544,230.515699 C187.109544,234.300992 190.178642,237.369763 193.963303,237.369763 C197.748804,237.369763 200.816221,234.300992 200.816221,230.515699 L200.816221,221.126893 Z"/>
    <g transform="translate(189.191 225.386)">
      <polyline fill="#CAFFF5" points=".76 2.852 3.687 5.779 8.784 .681"/>
      <polyline stroke="#5DD8C1" stroke-width="1.26" points=".76 2.852 3.687 5.779 8.784 .681"/>
    </g>
    <path fill="#CAFFF5" d="M251.685051,197.865799 L244.831292,195.313396 L237.977534,197.865799 L237.977534,207.254605 C237.977534,211.039898 241.046632,214.108669 244.831292,214.108669 C248.616794,214.108669 251.685051,211.039898 251.685051,207.254605 L251.685051,197.865799 Z"/>
    <path stroke="#5DD8C1" stroke-width="1.26" d="M251.685051,197.865799 L244.831292,195.313396 L237.977534,197.865799 L237.977534,207.254605 C237.977534,211.039898 241.046632,214.108669 244.831292,214.108669 C248.616794,214.108669 251.685051,211.039898 251.685051,207.254605 L251.685051,197.865799 Z"/>
    <g transform="translate(240.483 202.68)">
      <polyline fill="#CAFFF5" points=".336 2.297 3.263 5.224 8.361 .127"/>
      <polyline stroke="#5DD8C1" stroke-width="1.26" points=".336 2.297 3.263 5.224 8.361 .127"/>
    </g>
    <path fill="#DCFAFF" d="M211.976302,123.638645 C211.976302,99.7419314 192.60735,80.3697406 168.71379,80.3697406 C144.820231,80.3697406 125.451279,99.7419314 125.451279,123.638645 C125.451279,147.5362 144.820231,166.908391 168.71379,166.908391 C192.60735,166.908391 211.976302,147.5362 211.976302,123.638645"/>
    <path stroke="#00C8FF" stroke-width="1.26" d="M211.976302,123.638645 C211.976302,99.7419314 192.60735,80.3697406 168.71379,80.3697406 C144.820231,80.3697406 125.451279,99.7419314 125.451279,123.638645 C125.451279,147.5362 144.820231,166.908391 168.71379,166.908391 C192.60735,166.908391 211.976302,147.5362 211.976302,123.638645 Z"/>
    <path fill="#DCFAFF" d="M213.100433,34.1775569 C213.100433,24.647465 205.375555,16.9212954 195.847056,16.9212954 C186.319399,16.9212954 178.595362,24.647465 178.595362,34.1775569 C178.595362,43.7068078 186.319399,51.4329774 195.847056,51.4329774 C205.375555,51.4329774 213.100433,43.7068078 213.100433,34.1775569"/>
    <path stroke="#00C8FF" stroke-width="1.26" d="M213.100433,34.1775569 C213.100433,24.647465 205.375555,16.9212954 195.847056,16.9212954 C186.319399,16.9212954 178.595362,24.647465 178.595362,34.1775569 C178.595362,43.7068078 186.319399,51.4329774 195.847056,51.4329774 C205.375555,51.4329774 213.100433,43.7068078 213.100433,34.1775569 Z"/>
    <polyline stroke="#00C8FF" stroke-width="1.26" points="199.537 170.248 205.528 171.394 206.673 165.402"/>
    <path fill="#DCFAFF" d="M246.203137,76.2828686 L237.943479,76.2828686 C237.127856,76.2828686 236.466949,75.6218509 236.466949,74.8060912 L236.466949,57.4026565 C236.466949,56.5877378 237.127856,55.9267201 237.943479,55.9267201 L246.203137,55.9267201 C247.01876,55.9267201 247.678827,56.5877378 247.678827,57.4026565 L247.678827,74.8060912 C247.678827,75.6218509 247.01876,76.2828686 246.203137,76.2828686"/>
    <path stroke="#00C8FF" stroke-width="1.26" d="M246.203137,76.2828686 L237.943479,76.2828686 C237.127856,76.2828686 236.466949,75.6218509 236.466949,74.8060912 L236.466949,57.4026565 C236.466949,56.5877378 237.127856,55.9267201 237.943479,55.9267201 L246.203137,55.9267201 C247.01876,55.9267201 247.678827,56.5877378 247.678827,57.4026565 L247.678827,74.8060912 C247.678827,75.6218509 247.01876,76.2828686 246.203137,76.2828686 Z"/>
    <path fill="#DCFAFF" d="M245.569221,59.3465194 C245.569221,58.7805336 245.110118,58.3213534 244.544227,58.3213534 C243.978335,58.3213534 243.519232,58.7805336 243.519232,59.3465194 C243.519232,59.9133463 243.978335,60.3716855 244.544227,60.3716855 C245.110118,60.3716855 245.569221,59.9133463 245.569221,59.3465194"/>
    <path stroke="#00C8FF" stroke-width="1.26" d="M245.569221,59.3465194 C245.569221,58.7805336 245.110118,58.3213534 244.544227,58.3213534 C243.978335,58.3213534 243.519232,58.7805336 243.519232,59.3465194 C243.519232,59.9133463 243.978335,60.3716855 244.544227,60.3716855 C245.110118,60.3716855 245.569221,59.9133463 245.569221,59.3465194 Z"/>
    <path fill="#DCFAFF" d="M97.4722867,193.756977 L89.2126289,193.756977 C88.3970056,193.756977 87.7360984,193.09596 87.7360984,192.2802 L87.7360984,174.876765 C87.7360984,174.061006 88.3970056,173.399988 89.2126289,173.399988 L97.4722867,173.399988 C98.2879101,173.399988 98.9479764,174.061006 98.9479764,174.876765 L98.9479764,192.2802 C98.9479764,193.09596 98.2879101,193.756977 97.4722867,193.756977"/>
    <path stroke="#00C8FF" stroke-width="1.26" d="M97.4722867,193.756977 L89.2126289,193.756977 C88.3970056,193.756977 87.7360984,193.09596 87.7360984,192.2802 L87.7360984,174.876765 C87.7360984,174.061006 88.3970056,173.399988 89.2126289,173.399988 L97.4722867,173.399988 C98.2879101,173.399988 98.9479764,174.061006 98.9479764,174.876765 L98.9479764,192.2802 C98.9479764,193.09596 98.2879101,193.756977 97.4722867,193.756977 Z"/>
    <path fill="#DCFAFF" d="M96.8383708,176.820544 C96.8383708,176.254558 96.3792674,175.795378 95.8133761,175.795378 C95.2474849,175.795378 94.7883814,176.254558 94.7883814,176.820544 C94.7883814,177.38653 95.2474849,177.84571 95.8133761,177.84571 C96.3792674,177.84571 96.8383708,177.38653 96.8383708,176.820544"/>
    <path stroke="#00C8FF" stroke-width="1.26" d="M96.8383708,176.820544 C96.8383708,176.254558 96.3792674,175.795378 95.8133761,175.795378 C95.2474849,175.795378 94.7883814,176.254558 94.7883814,176.820544 C94.7883814,177.38653 95.2474849,177.84571 95.8133761,177.84571 C96.3792674,177.84571 96.8383708,177.38653 96.8383708,176.820544 Z"/>
    <path fill="#DCFAFF" d="M202.293424,39.6046297 L189.40153,39.6046297 C187.993949,39.6046297 186.853758,38.4642481 186.853758,37.0564318 L186.853758,29.3622198 C186.853758,27.9544035 187.993949,26.8140219 189.40153,26.8140219 L202.293424,26.8140219 C203.701005,26.8140219 204.842037,27.9544035 204.842037,29.3622198 L204.842037,37.0564318 C204.842037,38.4642481 203.701005,39.6046297 202.293424,39.6046297"/>
    <path stroke="#00C8FF" stroke-width="1.26" d="M202.293424,39.6046297 L189.40153,39.6046297 C187.993949,39.6046297 186.853758,38.4642481 186.853758,37.0564318 L186.853758,29.3622198 C186.853758,27.9544035 187.993949,26.8140219 189.40153,26.8140219 L202.293424,26.8140219 C203.701005,26.8140219 204.842037,27.9544035 204.842037,29.3622198 L204.842037,37.0564318 C204.842037,38.4642481 203.701005,39.6046297 202.293424,39.6046297 Z"/>
    <g transform="translate(186.668 28.594)">
      <polyline fill="#DCFAFF" points=".185 .528 9.179 5.583 18.174 .528"/>
      <polyline stroke="#00C8FF" stroke-width="1.26" points=".185 .528 9.179 5.583 18.174 .528"/>
    </g>
    <path fill="#CAFFF5" d="M219.440517,37.4413527 L212.587599,34.8889498 L205.733,37.4413527 L205.733,46.8301583 C205.733,50.6154516 208.802098,53.6842219 212.587599,53.6842219 C216.37226,53.6842219 219.440517,50.6154516 219.440517,46.8301583 L219.440517,37.4413527 Z"/>
    <path stroke="#5DD8C1" stroke-width="1.26" d="M219.440517,37.4413527 L212.587599,34.8889498 L205.733,37.4413527 L205.733,46.8301583 C205.733,50.6154516 208.802098,53.6842219 212.587599,53.6842219 C216.37226,53.6842219 219.440517,50.6154516 219.440517,46.8301583 L219.440517,37.4413527 Z"/>
    <g transform="translate(208.53 42.05)">
      <polyline fill="#CAFFF5" points=".044 2.502 2.971 5.429 8.069 .331"/>
      <polyline stroke="#5DD8C1" stroke-width="1.26" points=".044 2.502 2.971 5.429 8.069 .331"/>
    </g>
    <path fill="#00C8FF" d="M227.197011 192.943068C225.793634 194.34752 224.387735 195.748608 222.988563 197.158107 222.790123 197.357421 222.600932 197.576078 222.45126 197.813237 222.040085 198.465004 222.029995 199.156298 222.359608 199.841704 222.795168 200.745767 223.449348 201.466495 224.315422 201.97193 225.220176 202.501753 226.227512 202.394107 226.985958 201.664969 228.026929 200.664192 229.03847 199.630616 230.060942 198.608813 231.794772 196.877216 233.526921 195.142255 235.260751 193.409817 235.498711 193.170976 235.760215 193.110425 236.010788 193.231527 236.234454 193.338333 236.392534 193.58222 236.342924 193.826107 236.312653 193.974962 236.231091 194.135591 236.125144 194.242396 234.503146 195.876439 232.873581 197.503753 231.244857 199.131909 230.142505 200.235287 229.050242 201.348757 227.931913 202.436156 227.173467 203.175386 226.25442 203.558036 225.178974 203.480665 224.39194 203.42516 223.708329 203.101379 223.103759 202.607718 222.339428 201.982863 221.684406 201.262976 221.264823 200.353866 220.658571 199.040241 220.868783 197.618128 221.876961 196.583711 223.287064 195.13805 224.724916 193.720142 226.151836 192.292983 227.674613 190.76911 229.198231 189.246078 230.728576 187.729775 230.918608 187.541393 231.138069 187.3774 231.363417 187.231909 232.142884 186.727315 232.934963 186.755068 233.706022 187.240319 234.498101 187.739025 235.156486 188.396679 235.706401 189.140955 236.413555 190.098842 236.326107 191.378828 235.507961 192.277004 234.844531 193.00446 234.127287 193.68398 233.431905 194.382001 232.230332 195.587139 231.016146 196.779661 229.828868 197.998255 229.016608 198.830835 227.794014 198.779534 227.038091 198.303534 225.890332 197.581124 225.578377 196.201902 226.335141 195.127958 226.384751 195.056474 226.443611 194.990877 226.505833 194.928644 227.622481 193.810128 228.738287 192.691612 229.856616 191.575619 230.149231 191.284637 230.528454 191.290524 230.779868 191.580665 230.992603 191.825393 230.964014 192.168517 230.700828 192.43511 230.206409 192.934658 229.708627 193.430001 229.211685 193.927025L227.450947 195.688898C227.023796 196.11528 227.024637 196.626601 227.410587 197.05046 227.885666 197.572714 228.598706 197.532347 228.958589 197.169881 230.579746 195.534997 232.212674 193.910206 233.838035 192.280368 234.10038 192.01798 234.371974 191.761478 234.604889 191.473859 235.103512 190.856573 235.109398 190.231718 234.577982 189.643025 234.163444 189.183845 233.705181 188.758305 233.226738 188.366404 232.702889 187.935817 232.226128 187.96357 231.740117 188.434524 230.707555 189.43446 229.693491 190.45458 228.672701 191.467972 228.179123 191.958269 227.688908 192.451089 227.197011 192.943068M175.069262 137.769538C175.520798 137.571905 175.962244 137.351566 176.390236 137.10852L176.390236 132.285446 179.21801 135.053983C179.55519 134.756273 179.87219 134.425764 180.175737 134.095255L177.368143 131.280464 182.224045 131.280464C182.448551 130.864174 182.679785 130.415086 182.884952 129.959269L175.696535 129.959269C175.331607 129.959269 175.036469 130.254457 175.036469 130.619446L175.069262 137.769538zM162.404818 109.508594C161.962531 109.693611 161.511836 109.924883 161.083003 110.169611L161.083003 115.026325 158.235889 112.230876C157.938229 112.528587 157.581709 112.852367 157.277322 113.188763L160.092484 115.997668 155.249194 115.997668C155.006189 116.426572 154.785887 116.867251 154.589128 117.318862L161.769977 117.318862C162.135746 117.318862 162.430884 117.023675 162.430884 116.657845L162.404818 109.508594zM159.622785 136.183684C160.025552 136.474666 160.442613 136.752193 160.878173 137.008695L165.086621 134.578235 164.05574 138.423239C164.498868 138.555274 164.934427 138.667967 165.377555 138.766363L166.414321 134.928087 168.858669 139.123783C169.360655 139.117055 169.863483 139.090984 170.352016 139.043889L166.764955 132.834023C166.675825 132.67844 166.527836 132.566589 166.355462 132.522016 166.181406 132.473239 165.995579 132.496787 165.840021 132.589295L159.622785 136.183684zM177.843895 111.087888C177.439447 110.789336 177.018181 110.512651 176.581781 110.262036L172.380059 112.686608 173.41094 108.848333C172.967813 108.70957 172.532253 108.596877 172.089126 108.49764L171.059086 112.356941 168.613898 108.154517C168.116115 108.154517 167.617492 108.180587 167.121391 108.232729L170.702566 114.444276C170.821126 114.656206 171.047314 114.785718 171.290319 114.781513 171.408038 114.784036 171.524075 114.75376 171.626659 114.695732L177.843895 111.087888zM153.611221 126.998482C153.710441 127.455139 153.823115 127.891613 153.954287 128.320517L157.799489 127.296192 155.368595 131.504503C155.625895 131.940977 155.904216 132.357266 156.194308 132.760941L159.774643 126.556122C159.780529 126.546871 159.786415 126.53762 159.79146 126.528369 159.967197 126.208793 159.850319 125.8068 159.530797 125.631033L153.320287 122.042531C153.242088 122.531987 153.242088 123.034058 153.242088 123.53697L157.448855 125.961542 153.611221 126.998482zM184.106789 125.247542C184.158922 124.751358 184.18667 124.252652 184.185829 123.754786L179.984948 121.322645 183.822582 120.291592C183.723362 119.835775 183.611529 119.400143 183.472789 118.970397L179.627588 120.00145 182.058481 115.799026C181.807908 115.363394 181.531269 114.942058 181.232768 114.537542L177.6785 120.747408C177.672614 120.7575 177.666728 120.768433 177.661683 120.778524 177.488468 121.098941 177.607869 121.500093 177.929073 121.673337L184.106789 125.247542zM161.882567 123.300315C160.770124 123.631665 160.136124 124.80064 160.465736 125.912428 160.797031 127.025898 161.966651 127.660004 163.078254 127.329495 163.942646 127.098223 164.563193 126.339651 164.617848 125.44652L165.628548 125.174881C165.962365 125.861128 166.515644 126.414499 167.200935 126.748372L166.930182 127.759241C166.03636 127.813064 165.277914 128.433714 165.047521 129.298252 165.03659 129.333573 165.027341 129.368895 165.018092 129.404216 164.746498 130.532824 165.440198 131.667319 166.568617 131.938958 167.697036 132.211439 168.832182 131.516782 169.103776 130.389015 169.334169 129.521114 168.986057 128.604435 168.238543 128.109093L168.509296 127.098223C169.270264 127.152047 170.02871 126.950209 170.661869 126.522987L171.395089 127.295856C171.110882 127.87782 171.110882 128.559022 171.395089 129.140987 171.905484 130.179608 173.160031 130.608513 174.197638 130.098873 175.236927 129.590075 175.66576 128.334478 175.156206 127.295856 174.647492 126.258075 173.392105 125.82917 172.353657 126.337969L171.601097 125.578555C172.022362 124.944449 172.224166 124.190923 172.175397 123.430669L173.180211 123.15987C173.538413 123.693898 174.122803 124.033658 174.76437 124.080753 175.918015 124.165693 176.921988 123.299474 177.006073 122.145637 177.09184 120.991799 176.225766 119.988499 175.072121 119.902718 173.917636 119.817778 172.914503 120.684838 172.829577 121.838676L171.824763 122.109474C171.49515 121.418181 170.938508 120.860605 170.24649 120.530096L170.517243 119.525955C171.162174 119.478859 171.749927 119.137418 172.110651 118.600025 172.757264 117.636252 172.499124 116.330195 171.53467 115.684315 170.571057 115.038435 169.26606 115.295778 168.620288 116.260393 167.974516 117.224167 168.232657 118.529382 169.195429 119.176103L168.924675 120.180245C168.16623 120.130626 167.411147 120.333305 166.777988 120.75464L166.038041 120.021298C166.322248 119.425877 166.310476 118.730379 166.005248 118.14505 165.468787 117.115679 164.199946 116.716209 163.170747 117.25276 162.142389 117.789312 161.742986 119.058365 162.279447 120.087736 162.815068 121.116266 164.083909 121.515736 165.113108 120.979184L165.853055 121.712527C165.426744 122.346633 165.2241 123.105206 165.277914 123.867142L164.267214 124.137941C163.772795 123.38946 162.854588 123.040449 161.988514 123.272563 161.952357 123.280972 161.917882 123.290223 161.882567 123.300315"/>
  </g>
</svg>
