<svg xmlns="http://www.w3.org/2000/svg" xmlns:xlink="http://www.w3.org/1999/xlink" width="70" height="70" viewBox="0 0 70 70">
    <defs>
        <path id="a" d="M7.708 7.708v15.417h21.584V7.708H7.708zm9.25 21.584v-3.084h-9.25a3.083 3.083 0 0 1-3.083-3.083V7.708a3.083 3.083 0 0 1 3.083-3.083h21.584a3.083 3.083 0 0 1 3.083 3.083v15.417a3.083 3.083 0 0 1-3.083 3.083h-9.25v3.084h1.541a3.083 3.083 0 0 1 3.084 3.083H12.333a3.083 3.083 0 0 1 3.084-3.083h1.541z"/>
        <path id="c" d="M0 0h37v37H0z"/>
    </defs>
    <g fill="none" fill-rule="evenodd">
        <circle cx="35" cy="35" r="35" fill="#00C8FF" fill-rule="nonzero" opacity=".1"/>
        <g transform="translate(16.333 16.333)">
            <mask id="b" fill="#fff">
                <use xlink:href="#a"/>
            </mask>
            <use fill="#2E2E2E" fill-rule="nonzero" xlink:href="#a"/>
            <g mask="url(#b)">
                <use fill="#00A1F2" xlink:href="#c"/>
            </g>
        </g>
    </g>
</svg>
