<svg xmlns="http://www.w3.org/2000/svg" viewBox="0 0 352.05 150.77"><defs><style>.cls-1,.cls-2{fill:none;}.cls-1,.cls-4{stroke:#00c8ff;}.cls-1,.cls-2,.cls-3,.cls-4{stroke-miterlimit:10;stroke-width:1.5px;}.cls-2,.cls-3{stroke:#ff7d7d;}.cls-3{fill:#ffcfcf;}.cls-4{fill:#dcfaff;}.cls-5{fill:#00c8ff;}</style></defs><title>isp</title><g id="Layer_2" data-name="Layer 2"><g id="Layer_1-2" data-name="Layer 1"><polyline class="cls-1" points="124.66 0.53 129.24 5.11 124.74 9.61"/><path class="cls-2" d="M118.14,53.1c4-.79,6.59,1.83,5.73,5.83a9.74,9.74,0,0,1-7.08,6.94c-2.57.5-4.21-1.17-3.66-3.73a6.22,6.22,0,0,1,4.53-4.44A1.85,1.85,0,0,1,120,60.09a4,4,0,0,1-2.9,2.84"/><path class="cls-3" d="M155.3,75.78a15.38,15.38,0,1,0-29.47,8.8c1.45,4.86,6.79,6.57,11.34,7a3.21,3.21,0,0,0,.13,1.06,3.32,3.32,0,0,0,4.13,2.24,3.41,3.41,0,0,0,1.46-.92,3.35,3.35,0,0,0,1.72,0,3.29,3.29,0,0,0,1.46-.92,3.39,3.39,0,0,0,1.73,0,3.28,3.28,0,0,0,1.77-5.06C153.17,85.07,156.77,80.68,155.3,75.78Zm-20.12,9.27c-1.06.32-2.49-1.29-3.18-3.59s-.38-4.44.69-4.75,2.49,1.29,3.18,3.59S136.25,84.73,135.18,85.05Zm12.69-3.79c-1.06.32-2.49-1.29-3.18-3.59s-.38-4.43.69-4.75,2.49,1.29,3.18,3.59S148.94,80.94,147.87,81.26Z"/><line class="cls-2" x1="143.9" y1="69.53" x2="141.87" y2="73.29"/><line class="cls-2" x1="135.7" y1="75.13" x2="131.94" y2="73.1"/><line class="cls-2" x1="147.7" y1="57.54" x2="149.3" y2="46.86"/><line class="cls-2" x1="120.44" y1="75.6" x2="110.07" y2="72.04"/><polyline class="cls-2" points="135.28 60.13 131.59 53.7 137.09 53.94 131.99 45.93"/><polygon class="cls-3" points="39.61 135.47 38.31 121.98 25.08 119.05 18.2 130.72 27.18 140.88 39.61 135.47"/><path class="cls-3" d="M18.2,130.72c1-.11,11.21-2.13,11.21-2.13l8.9-6.61"/><line class="cls-3" x1="25.08" y1="119.05" x2="33.59" y2="138.09"/><polyline class="cls-2" points="23.33 150.58 20.8 140.81 27.18 140.88 29.21 148.74"/><polyline class="cls-2" points="47.68 138.63 42.52 131.49 39.61 135.47 43.45 141.87"/><polygon class="cls-3" points="169.01 120.17 175.14 108.08 165.54 98.51 153.47 104.69 155.62 118.07 169.01 120.17"/><path class="cls-3" d="M153.47,104.69c.93.45,10.61,4.2,10.61,4.2l11.06-.81"/><line class="cls-3" x1="165.54" y1="98.51" x2="162.52" y2="119.15"/><polyline class="cls-2" points="149.66 123.95 150.27 114.6 155.62 118.07 157.66 125.12"/><polyline class="cls-2" points="177.46 125.79 173.6 118.36 169.01 120.17 171.8 127.21"/><path class="cls-3" d="M20.88,78.07,40.2,73.71a8.84,8.84,0,0,1,10.57,6.68L52.72,89A8.83,8.83,0,0,1,46,99.6L26.72,104a8.83,8.83,0,0,1-10.57-6.68L14.2,88.64A8.83,8.83,0,0,1,20.88,78.07Zm4.7,21.39,19.56-4.41-1-4.35L24.6,95.12Z"/><line class="cls-2" x1="37.67" y1="82.21" x2="41.46" y2="79.84"/><line class="cls-2" x1="26.57" y1="84.71" x2="22.14" y2="84.2"/><line class="cls-2" x1="40.29" y1="84.23" x2="40.83" y2="86.63"/><line class="cls-2" x1="25.08" y1="87.66" x2="25.62" y2="90.06"/><polygon class="cls-3" points="28.6 67.29 33.28 75.27 27.79 76.51 28.6 67.29"/><circle class="cls-3" cx="27.98" cy="64.54" r="2.82"/><polygon class="cls-3" points="7.03 51.08 1.7 57.93 11.84 56.66 8.23 61.3 21.26 59.67 8.23 49.54 7.03 51.08"/><polygon class="cls-3" points="19.77 45.23 25.37 41.83 23.55 49.32 27.34 47.01 24.99 56.65 18.52 46 19.77 45.23"/><path class="cls-3" d="M105.89,135a2.2,2.2,0,0,1,2.1-2.29c2.55-.11,3.55,2.41,4.27,4.31.56-2,1.34-4.55,3.9-4.66s3.55,2.4,4.27,4.3c.55-1.95,1.34-4.53,3.89-4.64s3.59,2.5,4.31,4.42a17.28,17.28,0,0,0,.7,1.66,2.18,2.18,0,0,1,1.61,2,2.21,2.21,0,0,1-2.1,2.29c-2.54.1-3.55-2.4-4.26-4.3-.56,1.95-1.35,4.53-3.89,4.64s-3.56-2.4-4.28-4.3c-.55,2-1.34,4.54-3.89,4.65s-3.59-2.51-4.32-4.42a14.29,14.29,0,0,0-.7-1.66A2.21,2.21,0,0,1,105.89,135Z"/><path class="cls-3" d="M114.32,115.84a2.19,2.19,0,0,1,2.1-2.28c2.55-.11,3.56,2.4,4.28,4.3.55-2,1.34-4.54,3.89-4.65s3.55,2.4,4.27,4.3c.56-2,1.34-4.54,3.89-4.64s3.59,2.5,4.31,4.41a14.45,14.45,0,0,0,.71,1.67,2.19,2.19,0,0,1-.49,4.3c-2.55.11-3.55-2.39-4.27-4.29-.56,2-1.34,4.53-3.89,4.64s-3.55-2.4-4.27-4.3c-.56,2-1.34,4.54-3.9,4.65s-3.59-2.51-4.31-4.42a13.57,13.57,0,0,0-.71-1.66A2.21,2.21,0,0,1,114.32,115.84Z"/><path class="cls-3" d="M134.76,130.19a2.19,2.19,0,0,1,2.1-2.28c2.55-.11,3.55,2.4,4.27,4.3.56-2,1.34-4.54,3.9-4.65s3.55,2.4,4.27,4.3c.55-2,1.34-4.54,3.89-4.64s3.59,2.5,4.31,4.41a16.47,16.47,0,0,0,.7,1.67,2.19,2.19,0,0,1-.49,4.3c-2.55.11-3.55-2.39-4.27-4.29-.55,1.95-1.34,4.53-3.88,4.64s-3.56-2.4-4.28-4.3c-.55,1.95-1.34,4.54-3.89,4.65s-3.6-2.51-4.32-4.42a15.36,15.36,0,0,0-.7-1.66A2.2,2.2,0,0,1,134.76,130.19Z"/><path class="cls-3" d="M70.16,110.7c-.14.07-2.82-1.69-5.38-1.76-5.26-.14-11.17,8.75-6.65,18.93,0,0,4-13.19,6.08-11"/><path class="cls-3" d="M102,118.53c1-6.38,8.45-10,11.51-9.89,2.57.07,5.11-1.32,5.15-2.61s-.49-2.63-3.16-4c-2.89-1.49-3.13-3.53-6.21-3.61s-3.87,1.77-5.06,2.57c-1.59,1.09-9.29,9-11.2,9l-17.27-.46a12.25,12.25,0,0,0-12.58,11.91l0,1.34-.08,3-.35,12.93,4.4.12.21-7.94c0-1.37,3-2.54,4.08-4.88l19.81.54-.35,12.92,4.4.12.21-7.94c0-1.66,4.26-3,4.48-6.53C100.08,123.36,101.74,120.29,102,118.53Z"/><circle class="cls-3" cx="93.17" cy="139.55" r="6.79"/><circle class="cls-3" cx="64.63" cy="138.77" r="6.79"/><circle class="cls-3" cx="64.63" cy="138.77" r="2.5"/><circle class="cls-3" cx="93.17" cy="139.55" r="2.5"/><line class="cls-2" x1="111.26" y1="103.19" x2="111.21" y2="104.91"/><polyline class="cls-2" points="106.84 98.88 106.67 105.16 92.33 118.75 92.57 109.96"/><line class="cls-2" x1="111.76" y1="102.41" x2="108.88" y2="100.56"/><path class="cls-3" d="M85.25,24.77h0a0,0,0,0,1,0,0V97.16a0,0,0,0,1,0,0H82a0,0,0,0,1,0,0V28a3.22,3.22,0,0,1,3.22-3.22Z" transform="translate(47.39 -35.98) rotate(33.41)"/><line class="cls-2" x1="69.77" y1="79.07" x2="72.29" y2="81.1"/><circle class="cls-3" cx="65.95" cy="78.83" r="3.52"/><circle class="cls-3" cx="65.95" cy="78.83" r="1.04"/><path class="cls-2" d="M102.35,35.1c0,.42.83,5,4,6.8,2.46,1.39,5.25.61,6.27.32,2.58-.71,2.55-1.82,4.53-2.1,3-.42,4,2,6.68,1.61,3.33-.5,5.16-4.9,5.24-5.11,1.25-3.12-.3-4.4.92-8.12.4-1.22,1.52-4.64,3.64-5,2.83-.5,4.43,4.93,7.9,4.73,2.19-.13,2.21-2.34,5.54-3.64,2.39-.94,6.16-1.29,8.43.6,1.66,1.37,1.23,2.86,3.3,4.79a9.77,9.77,0,0,0,3.88,2.17"/><ellipse class="cls-3" cx="170.68" cy="34.65" rx="6.21" ry="8.35" transform="translate(86.22 186.97) rotate(-72.47)"/><path class="cls-3" d="M185.69,33.51a5.62,5.62,0,0,0-3.38,10.71Z"/><line class="cls-2" x1="162.71" y1="32.14" x2="167.66" y2="33.7"/><line class="cls-2" x1="168.36" y1="30.76" x2="170.34" y2="31.39"/><path class="cls-4" d="M310.4,60.43c-.15,0-.82-3.27-2.63-5.19-3.72-3.93-14.49-1.76-18.61,8.93,0,0,12.52-6.67,12.44-3.59"/><path class="cls-4" d="M327.87,89.3c5.35-3.94,7.4-1.11,9.57,1.18,1.82,1.92,4.68,2.75,5.64,1.84s1.56-2.26.62-5.21c-1-3.19.29-4.85-1.88-7.15s-4.1-1.52-5.56-1.8c-1.95-.38-7.33-.19-8.68-1.61l-12.23-12.9a12.6,12.6,0,0,0-17.82-.48l-1,.94-2.26,2.15-9.66,9.15,3.11,3.29,5.94-5.63c1-1,4,.34,6.51-.57l14,14.79-9.66,9.15,3.12,3.29,5.93-5.63c1.24-1.17,5.3.91,8-1.49C323,91.4,326.4,90.38,327.87,89.3Z"/><path class="cls-4" d="M301.35,93.08a7,7,0,0,1,9.88.27c2.65,2.8,2.53-5-.27-2.38a7,7,0,0,1-9.88-.27C298.43,87.9,298.55,95.73,301.35,93.08Z"/><circle class="cls-4" cx="285.95" cy="76.83" r="6.98"/><circle class="cls-4" cx="285.95" cy="76.83" r="2.57"/><circle class="cls-4" cx="306.15" cy="98.15" r="2.57"/><line class="cls-4" x1="339.76" y1="84.87" x2="338.47" y2="86.09"/><polyline class="cls-1" points="339.68 78.52 334.99 82.96 320.67 82.41 327.24 76.19"/><line class="cls-4" x1="340.69" y1="84.67" x2="339.94" y2="81.23"/><path class="cls-4" d="M313.29,112.79h0l35-62.16,2.76,1.82-33.18,59.4A3.32,3.32,0,0,1,313.29,112.79Z"/><line class="cls-4" x1="343.45" y1="63.99" x2="340.86" y2="61.9"/><circle class="cls-4" cx="347.38" cy="64.24" r="3.62"/><circle class="cls-4" cx="347.38" cy="64.24" r="1.07"/><rect class="cls-4" x="200.05" y="98.11" width="32.03" height="43.79" rx="6.32"/><rect class="cls-4" x="203.34" y="94.01" width="25.45" height="4.1" rx="2.03"/><path class="cls-4" d="M211.39,133.78a1.51,1.51,0,0,1,1.45-1.58c1.78-.08,2.47,1.67,3,3,.39-1.36.93-3.16,2.71-3.23s2.46,1.66,3,3c.39-1.35.93-3.15,2.71-3.22s2.49,1.74,3,3.07a12.42,12.42,0,0,0,.49,1.15,1.52,1.52,0,0,1-.34,3c-1.77.08-2.47-1.66-3-3-.39,1.35-.94,3.15-2.71,3.22s-2.46-1.67-3-3c-.39,1.36-.94,3.16-2.71,3.23s-2.49-1.74-3-3.07a10.19,10.19,0,0,0-.49-1.15A1.52,1.52,0,0,1,211.39,133.78Z"/><path class="cls-4" d="M211.39,124.34a1.52,1.52,0,0,1,1.45-1.59c1.78-.08,2.47,1.67,3,3,.39-1.36.93-3.16,2.71-3.23s2.46,1.66,3,3c.39-1.35.93-3.15,2.71-3.22s2.49,1.74,3,3.07a11.36,11.36,0,0,0,.49,1.15,1.52,1.52,0,0,1-.34,3c-1.77.08-2.47-1.66-3-3-.39,1.36-.94,3.15-2.71,3.22s-2.46-1.67-3-3c-.39,1.35-.94,3.15-2.71,3.22s-2.49-1.74-3-3.06a9.63,9.63,0,0,0-.49-1.16A1.52,1.52,0,0,1,211.39,124.34Z"/><path class="cls-4" d="M204,138.82a1.52,1.52,0,0,1-1.48-1.56c0-1.77,1.83-2.35,3.18-2.76-1.32-.48-3.08-1.14-3-2.92s1.83-2.34,3.18-2.75c-1.32-.48-3.08-1.15-3-2.92s1.91-2.37,3.27-2.78a10.14,10.14,0,0,0,1.18-.41,1.54,1.54,0,0,1,1.48-1,1.53,1.53,0,0,1,1.48,1.57c0,1.77-1.83,2.34-3.18,2.75,1.33.48,3.08,1.14,3,2.92s-1.84,2.34-3.19,2.75c1.33.48,3.09,1.15,3,2.92s-1.91,2.37-3.26,2.78c-.36.11-.9.28-1.19.41A1.52,1.52,0,0,1,204,138.82Z"/><rect class="cls-4" x="237.77" y="98.11" width="32.03" height="43.79" rx="6.32"/><rect class="cls-4" x="241.06" y="94.01" width="25.45" height="4.1" rx="2.03"/><polygon class="cls-4" points="261.86 137.67 263.99 128.5 255.93 123.64 248.81 129.8 252.48 138.47 261.86 137.67"/><path class="cls-4" d="M248.81,129.8c.71.16,7.86,1.08,7.86,1.08L264,128.5"/><line class="cls-4" x1="255.93" y1="123.64" x2="257.32" y2="138.06"/><polyline class="cls-4" points="247.53 135.04 248.3 137.02 252.48 138.47 250.89 139.79"/><polyline class="cls-4" points="265.19 133.36 264.66 135.68 261.86 137.67 265.22 137.19"/><polygon class="cls-4" points="241.37 114.79 246.66 122.58 255.7 119.94 255.99 110.53 247.13 107.35 241.37 114.79"/><path class="cls-4" d="M256,110.53c-.58.42-6.11,5-6.11,5l-3.22,7"/><line class="cls-4" x1="255.7" y1="119.94" x2="244.16" y2="111.19"/><polyline class="cls-4" points="253.01 106.04 251.04 105.26 247.13 107.35 247.24 105.29"/><polyline class="cls-4" points="242.28 120.16 240.93 118.19 241.37 114.79 239.44 117.59"/><path class="cls-4" d="M344.42,141.28H275.49V74.86h68.93Zm-23.9-56.84H305.4a4.19,4.19,0,0,0-4.19,4.2h0a4.19,4.19,0,0,0,4.19,4.19h15.12a4.2,4.2,0,0,0,4.19-4.19h0A4.2,4.2,0,0,0,320.52,84.44Z"/><line class="cls-1" x1="253.79" y1="5.07" x2="253.79" y2="72.17"/><path class="cls-5" d="M251,72a2.82,2.82,0,1,0,2.82-2.82A2.82,2.82,0,0,0,251,72Z"/><path class="cls-1" d="M213.62,74.71V5.07h83.23a14.78,14.78,0,0,1,14.78,14.78v8"/><path class="cls-5" d="M216.44,74.57a2.82,2.82,0,1,1-2.82-2.82A2.82,2.82,0,0,1,216.44,74.57Z"/><path class="cls-5" d="M308.81,27.74a2.82,2.82,0,1,0,2.82-2.82A2.82,2.82,0,0,0,308.81,27.74Z"/><path class="cls-1" d="M284.61,5.07H72.46A14.78,14.78,0,0,0,57.68,19.85v8.7"/></g></g></svg>