<svg xmlns="http://www.w3.org/2000/svg" width="530" height="227" viewBox="0 0 530 227">
  <g fill="none" fill-rule="evenodd" transform="translate(2)">
    <polyline stroke="#00C8FF" stroke-width="2.25" points="185.667 .797 192.546 7.686 185.79 14.451"/>
    <path stroke="#FF7D7D" stroke-width="2.25" d="M175.877317,79.8211675 C181.916046,78.6440748 185.764197,82.5722272 184.472972,88.5944921 C183.439992,93.4126046 178.686482,98.0803861 173.856399,99.0229623 C169.991732,99.7761212 167.527895,97.2625848 168.35518,93.4080947 C169.015807,90.3248033 172.057693,87.3362205 175.150627,86.7333927 C177.623473,86.2508298 179.199969,87.8608762 178.669966,90.3278099 C178.248066,92.3001543 176.300718,94.2138695 174.321841,94.5987172"/>
    <path fill="#FFCFCF" d="M220.519021,122.163432 C218.9155,122.642989 216.777471,120.222658 215.744491,116.757525 C214.711511,113.293896 215.17395,110.096353 216.777471,109.616797 C218.380993,109.13724 220.519021,111.557572 221.552001,115.022704 C222.584981,118.487836 222.122542,121.685379 220.519021,122.163432 M201.467446,127.859479 C199.863924,128.337532 197.725896,125.918704 196.692916,122.453572 C195.659936,118.989942 196.122374,115.792399 197.725896,115.31134 C199.329417,114.833287 201.467446,117.252115 202.500426,120.717247 C203.533406,124.182379 203.070967,127.379923 201.467446,127.859479 M231.671602,113.920777 C228.023141,101.68683 215.160437,94.7295053 202.941844,98.384055 C190.723252,102.035598 183.776161,114.914466 187.424622,127.148413 C189.604691,134.463525 197.616292,137.028174 204.456782,137.683618 C204.437263,138.214287 204.479303,138.752472 204.639956,139.289154 C205.428203,141.931975 208.20734,143.433783 210.846844,142.646048 C211.722175,142.382969 212.45487,141.889883 213.038924,141.267512 C213.866209,141.467452 214.750548,141.479479 215.625879,141.216399 C216.501209,140.954823 217.235406,140.460234 217.817958,139.839366 C218.645243,140.039307 219.531084,140.048326 220.406414,139.788254 C223.045919,138.999015 224.547343,136.216386 223.759095,133.573565 C223.60595,133.057929 223.358215,132.600923 223.06844,132.181499 C228.473568,127.880525 233.869688,121.294519 231.671602,113.920777"/>
    <path stroke="#FF7D7D" stroke-width="2.25" d="M220.519021 122.163432C218.9155 122.642989 216.777471 120.222658 215.744491 116.757525 214.711511 113.293896 215.17395 110.096353 216.777471 109.616797 218.380993 109.13724 220.519021 111.557572 221.552001 115.022704 222.584981 118.487836 222.122542 121.685379 220.519021 122.163432zM201.467446 127.859479C199.863924 128.337532 197.725896 125.918704 196.692916 122.453572 195.659936 118.989942 196.122374 115.792399 197.725896 115.31134 199.329417 114.833287 201.467446 117.252115 202.500426 120.717247 203.533406 124.182379 203.070967 127.379923 201.467446 127.859479zM231.671602 113.920777C228.023141 101.68683 215.160437 94.7295053 202.941844 98.384055 190.723252 102.035598 183.776161 114.914466 187.424622 127.148413 189.604691 134.463525 197.616292 137.028174 204.456782 137.683618 204.437263 138.214287 204.479303 138.752472 204.639956 139.289154 205.428203 141.931975 208.20734 143.433783 210.846844 142.646048 211.722175 142.382969 212.45487 141.889883 213.038924 141.267512 213.866209 141.467452 214.750548 141.479479 215.625879 141.216399 216.501209 140.954823 217.235406 140.460234 217.817958 139.839366 218.645243 140.039307 219.531084 140.048326 220.406414 139.788254 223.045919 138.999015 224.547343 136.216386 223.759095 133.573565 223.60595 133.057929 223.358215 132.600923 223.06844 132.181499 228.473568 127.880525 233.869688 121.294519 231.671602 113.920777zM214.553561 104.518617L211.498162 110.181591M202.246084 112.946932L196.590218 109.889197M220.257323 86.4928629L222.659602 70.4435119M179.336899 113.65003L163.758118 108.292229"/>
    <polyline stroke="#FF7D7D" stroke-width="2.25" points="201.615 90.399 196.068 80.726 204.332 81.088 196.664 69.049"/>
    <polygon fill="#FFCFCF" points="57.968 203.659 56.02 183.377 36.151 178.963 25.821 196.52 39.304 211.782"/>
    <polygon stroke="#FF7D7D" stroke-width="2.25" points="57.968 203.659 56.02 183.377 36.151 178.963 25.821 196.52 39.304 211.782"/>
    <g transform="translate(25.524 183.055)">
      <path fill="#FFCFCF" d="M0.297131909,13.4648583 C1.8405963,13.2964874 17.1265991,10.2492755 17.1265991,10.2492755 L30.4952829,0.321407947"/>
      <path stroke="#FF7D7D" stroke-width="2.25" d="M0.297131909,13.4648583 C1.8405963,13.2964874 17.1265991,10.2492755 17.1265991,10.2492755 L30.4952829,0.321407947"/>
    </g>
    <g transform="translate(36.034 178.545)">
      <path fill="#FFCFCF" d="M0.117411396,0.418070861 L12.8975368,29.0471305"/>
      <path stroke="#FF7D7D" stroke-width="2.25" d="M0.117411396,0.418070861 L12.8975368,29.0471305"/>
    </g>
    <polyline stroke="#FF7D7D" stroke-width="2.25" points="33.524 226.369 29.736 211.68 39.305 211.782 42.354 223.595"/>
    <polyline stroke="#FF7D7D" stroke-width="2.25" points="70.087 208.409 62.332 197.663 57.969 203.66 63.74 213.278"/>
    <polygon fill="#FFCFCF" points="252.25 180.649 261.457 162.477 247.041 148.094 228.925 157.377 232.143 177.496"/>
    <polygon stroke="#FF7D7D" stroke-width="2.25" points="252.25 180.649 261.457 162.477 247.041 148.094 228.925 157.377 232.143 177.496"/>
    <g transform="translate(228.217 155.996)">
      <path fill="#FFCFCF" d="M0.70837208,1.38109205 C2.10169402,2.06660199 16.6399875,7.69499934 16.6399875,7.69499934 L33.2397368,6.48182715"/>
      <path stroke="#FF7D7D" stroke-width="2.25" d="M0.70837208,1.38109205 C2.10169402,2.06660199 16.6399875,7.69499934 16.6399875,7.69499934 L33.2397368,6.48182715"/>
    </g>
    <g transform="translate(241.73 146.976)">
      <path fill="#FFCFCF" d="M5.31234017,1.11831325 L0.784043875,32.1466576"/>
      <path stroke="#FF7D7D" stroke-width="2.25" d="M5.31234017,1.11831325 L0.784043875,32.1466576"/>
    </g>
    <polyline stroke="#FF7D7D" stroke-width="2.25" points="223.196 186.336 224.117 172.276 232.143 177.497 235.207 188.098"/>
    <polyline stroke="#FF7D7D" stroke-width="2.25" points="264.934 189.108 259.143 177.928 252.25 180.649 256.441 191.238"/>
    <path fill="#FFCFCF" d="M36.9075667,149.521142 L66.2709256,142.887029 L64.7980282,136.353638 L35.4361707,142.987751 L36.9075667,149.521142 Z M29.8493701,117.357797 L58.8523872,110.806367 C66.0081764,109.190307 73.1189228,113.688215 74.7329541,120.852996 L77.6592305,133.832585 C79.2732618,140.99887 74.7809997,148.117049 67.6237091,149.736115 L38.6221934,156.287546 C31.4649028,157.903605 24.3556578,153.405698 22.7401251,146.240917 L19.8153501,133.261327 C18.1998174,126.095042 22.6920795,118.97536 29.8493701,117.357797 Z"/>
    <path stroke="#FF7D7D" stroke-width="2.25" d="M36.9075667 149.521142L66.2709256 142.887029 64.7980282 136.353638 35.4361707 142.987751 36.9075667 149.521142zM29.8493701 117.357797L58.8523872 110.806367C66.0081764 109.190307 73.1189228 113.688215 74.7329541 120.852996L77.6592305 133.832585C79.2732618 140.99887 74.7809997 148.117049 67.6237091 149.736115L38.6221934 156.287546C31.4649028 157.903605 24.3556578 153.405698 22.7401251 146.240917L19.8153501 133.261327C18.1998174 126.095042 22.6920795 118.97536 29.8493701 117.357797zM55.0624915 123.581656L60.7468846 120.020312M38.3972801 127.347301L31.736961 126.573095M58.9912689 126.62496L59.805041 130.23441M36.1538516 131.783723L36.9676236 135.393173"/>
    <polygon fill="#FFCFCF" points="41.437 101.152 48.474 113.15 40.227 115.014"/>
    <polygon stroke="#FF7D7D" stroke-width="2.25" points="41.437 101.152 48.474 113.15 40.227 115.014"/>
    <path fill="#FFCFCF" d="M36.3826687,97.9556113 C35.8691815,95.6750881 37.2985376,93.409598 39.5761986,92.8954656 C41.8538595,92.3813331 44.1150048,93.8124854 44.6299934,96.0915053 C45.1434806,98.3720285 43.7141245,100.637519 41.4364635,101.151651 C39.1588026,101.667287 36.8961558,100.236134 36.3826687,97.9556113"/>
    <path stroke="#FF7D7D" stroke-width="2.25" d="M36.3826687,97.9556113 C35.8691815,95.6750881 37.2985376,93.409598 39.5761986,92.8954656 C41.8538595,92.3813331 44.1150048,93.8124854 44.6299934,96.0915053 C45.1434806,98.3720285 43.7141245,100.637519 41.4364635,101.151651 C39.1588026,101.667287 36.8961558,100.236134 36.3826687,97.9556113 Z"/>
    <polygon fill="#FFCFCF" points="9.051 76.794 1.057 87.087 16.269 85.181 10.849 92.161 30.419 89.709 10.851 74.474"/>
    <polygon stroke="#FF7D7D" stroke-width="2.25" points="9.051 76.794 1.057 87.087 16.269 85.181 10.849 92.161 30.419 89.709 10.851 74.474"/>
    <polygon fill="#FFCFCF" points="28.189 68.002 36.59 62.885 33.851 74.146 39.546 70.677 36.024 85.163 26.297 69.155"/>
    <polygon stroke="#FF7D7D" stroke-width="2.25" points="28.189 68.002 36.59 62.885 33.851 74.146 39.546 70.677 36.024 85.163 26.297 69.155"/>
    <path fill="#FFCFCF" d="M157.484116,202.894554 C157.407543,201.075548 158.817381,199.53766 160.634104,199.460991 C164.467241,199.29713 165.971668,203.076455 167.052694,205.931243 C167.887486,202.993773 169.064603,199.103203 172.899241,198.939342 C176.727874,198.776985 178.232301,202.545786 179.311825,205.400574 C180.143614,202.463104 181.323734,198.581554 185.150865,198.417693 C189.059073,198.252329 190.545483,202.186495 191.629512,205.059323 C191.910278,205.804965 192.348694,206.964018 192.683512,207.560832 C194.025785,207.930647 195.037745,209.131793 195.100805,210.600528 C195.177378,212.419534 193.766039,213.955919 191.949315,214.034091 C188.122184,214.197952 186.617757,210.430654 185.539734,207.575866 C184.706443,210.510329 183.526324,214.391879 179.700694,214.55574 C175.869059,214.718097 174.366133,210.943283 173.286609,208.086991 C172.451817,211.024462 171.271697,214.913528 167.440062,215.077389 C163.528851,215.242753 162.04244,211.308587 160.956911,208.434256 C160.674643,207.688614 160.237728,206.532568 159.901409,205.93425 C158.559136,205.565938 157.547175,204.363289 157.484116,202.894554"/>
    <path stroke="#FF7D7D" stroke-width="2.25" d="M157.484116,202.894554 C157.407543,201.075548 158.817381,199.53766 160.634104,199.460991 C164.467241,199.29713 165.971668,203.076455 167.052694,205.931243 C167.887486,202.993773 169.064603,199.103203 172.899241,198.939342 C176.727874,198.776985 178.232301,202.545786 179.311825,205.400574 C180.143614,202.463104 181.323734,198.581554 185.150865,198.417693 C189.059073,198.252329 190.545483,202.186495 191.629512,205.059323 C191.910278,205.804965 192.348694,206.964018 192.683512,207.560832 C194.025785,207.930647 195.037745,209.131793 195.100805,210.600528 C195.177378,212.419534 193.766039,213.955919 191.949315,214.034091 C188.122184,214.197952 186.617757,210.430654 185.539734,207.575866 C184.706443,210.510329 183.526324,214.391879 179.700694,214.55574 C175.869059,214.718097 174.366133,210.943283 173.286609,208.086991 C172.451817,211.024462 171.271697,214.913528 167.440062,215.077389 C163.528851,215.242753 162.04244,211.308587 160.956911,208.434256 C160.674643,207.688614 160.237728,206.532568 159.901409,205.93425 C158.559136,205.565938 157.547175,204.363289 157.484116,202.894554 Z"/>
    <path fill="#FFCFCF" d="M170.145779,174.148086 C170.069206,172.329079 171.479044,170.792695 173.295767,170.714523 C177.128904,170.550662 178.633331,174.329987 179.714357,177.186278 C180.549149,174.248808 181.727767,170.356735 185.560904,170.192874 C189.389536,170.030517 190.893964,173.800821 191.973488,176.654106 C192.805277,173.718139 193.985397,169.835086 197.812528,169.671225 C201.722237,169.505861 203.207146,173.44153 204.291175,176.314358 C204.571941,177.06 205.010357,178.21755 205.345175,178.814364 C206.687448,179.184179 207.699408,180.386828 207.762468,181.85406 C207.839041,183.673066 206.429203,185.210954 204.612479,185.287623 C200.783847,185.451483 199.280921,181.684185 198.201397,178.829397 C197.368106,181.765364 196.187987,185.645411 192.362357,185.809272 C188.530722,185.971629 187.027796,182.196815 185.948272,179.342026 C185.113479,182.277993 183.93336,186.16706 180.101725,186.330921 C176.190514,186.496285 174.705605,182.562119 173.618574,179.689291 C173.337807,178.942146 172.899391,177.786099 172.563072,177.189285 C171.220799,176.81947 170.208838,175.618325 170.145779,174.148086"/>
    <path stroke="#FF7D7D" stroke-width="2.25" d="M170.145779,174.148086 C170.069206,172.329079 171.479044,170.792695 173.295767,170.714523 C177.128904,170.550662 178.633331,174.329987 179.714357,177.186278 C180.549149,174.248808 181.727767,170.356735 185.560904,170.192874 C189.389536,170.030517 190.893964,173.800821 191.973488,176.654106 C192.805277,173.718139 193.985397,169.835086 197.812528,169.671225 C201.722237,169.505861 203.207146,173.44153 204.291175,176.314358 C204.571941,177.06 205.010357,178.21755 205.345175,178.814364 C206.687448,179.184179 207.699408,180.386828 207.762468,181.85406 C207.839041,183.673066 206.429203,185.210954 204.612479,185.287623 C200.783847,185.451483 199.280921,181.684185 198.201397,178.829397 C197.368106,181.765364 196.187987,185.645411 192.362357,185.809272 C188.530722,185.971629 187.027796,182.196815 185.948272,179.342026 C185.113479,182.277993 183.93336,186.16706 180.101725,186.330921 C176.190514,186.496285 174.705605,182.562119 173.618574,179.689291 C173.337807,178.942146 172.899391,177.786099 172.563072,177.189285 C171.220799,176.81947 170.208838,175.618325 170.145779,174.148086 Z"/>
    <path fill="#FFCFCF" d="M200.828139,195.720001 C200.751566,193.900995 202.162905,192.363107 203.979629,192.286438 C207.811264,192.122577 209.315692,195.900399 210.396717,198.75669 C211.231509,195.81922 212.410128,191.92865 216.244766,191.764789 C220.071897,191.602432 221.576324,195.371233 222.655848,198.224518 C223.487638,195.288551 224.667757,191.407001 228.494888,191.24314 C232.404598,191.077776 233.889507,195.011942 234.973535,197.88477 C235.255803,198.630412 235.692717,199.787962 236.027535,200.386279 C237.37131,200.756094 238.381769,201.95724 238.444828,203.425975 C238.521401,205.244981 237.111564,206.781366 235.29484,206.859538 C231.466207,207.023399 229.963281,203.256101 228.883757,200.401313 C228.050467,203.335776 226.871848,207.217326 223.044717,207.381187 C219.213082,207.543544 217.710156,203.76873 216.630632,200.912438 C215.79584,203.848405 214.617222,207.738975 210.784085,207.902836 C206.872874,208.0682 205.387965,204.132531 204.300934,201.259703 C204.020168,200.514061 203.581752,199.358015 203.246934,198.759697 C201.903159,198.389882 200.891199,197.188736 200.828139,195.720001"/>
    <path stroke="#FF7D7D" stroke-width="2.25" d="M200.828139,195.720001 C200.751566,193.900995 202.162905,192.363107 203.979629,192.286438 C207.811264,192.122577 209.315692,195.900399 210.396717,198.75669 C211.231509,195.81922 212.410128,191.92865 216.244766,191.764789 C220.071897,191.602432 221.576324,195.371233 222.655848,198.224518 C223.487638,195.288551 224.667757,191.407001 228.494888,191.24314 C232.404598,191.077776 233.889507,195.011942 234.973535,197.88477 C235.255803,198.630412 235.692717,199.787962 236.027535,200.386279 C237.37131,200.756094 238.381769,201.95724 238.444828,203.425975 C238.521401,205.244981 237.111564,206.781366 235.29484,206.859538 C231.466207,207.023399 229.963281,203.256101 228.883757,200.401313 C228.050467,203.335776 226.871848,207.217326 223.044717,207.381187 C219.213082,207.543544 217.710156,203.76873 216.630632,200.912438 C215.79584,203.848405 214.617222,207.738975 210.784085,207.902836 C206.872874,208.0682 205.387965,204.132531 204.300934,201.259703 C204.020168,200.514061 203.581752,199.358015 203.246934,198.759697 C201.903159,198.389882 200.891199,197.188736 200.828139,195.720001 Z"/>
    <g transform="translate(82.578 163.512)">
      <path fill="#FFCFCF" d="M21.2591199,2.90499868 C21.0429148,3.00722384 17.03261,0.36590596 13.1799547,0.260674172 C5.29297179,0.0472039735 -3.58645271,13.4101377 3.19698319,28.7213629 C3.19698319,28.7213629 9.23871538,8.88667417 12.3271456,12.1578795"/>
      <path stroke="#FF7D7D" stroke-width="2.25" d="M21.2591199,2.90499868 C21.0429148,3.00722384 17.03261,0.36590596 13.1799547,0.260674172 C5.29297179,0.0472039735 -3.58645271,13.4101377 3.19698319,28.7213629 C3.19698319,28.7213629 9.23871538,8.88667417 12.3271456,12.1578795"/>
    </g>
    <path fill="#FFCFCF" d="M151.654385,178.188235 C153.112268,168.597109 164.33992,163.201725 168.944789,163.3265 C172.804952,163.431732 176.617068,161.328599 176.669618,159.399851 C176.720667,157.471103 175.939926,155.447646 171.929621,153.371573 C167.584499,151.121116 167.22716,148.060374 162.604274,147.935599 C157.981387,147.810825 156.799766,150.594957 155.010068,151.811136 C152.616798,153.436215 141.058832,165.399566 138.197117,165.321394 C135.335402,165.244725 112.266014,164.620851 112.266014,164.620851 C102.110379,164.345745 93.6543561,172.367414 93.3795954,182.537315 L93.3255442,184.550248 L93.2024274,189.108288 L92.6784302,208.541593 L99.2831966,208.72199 C99.2831966,208.72199 99.5369373,199.275182 99.6045014,196.778182 C99.6600541,194.715639 104.102769,192.968791 105.734818,189.446533 L135.467527,190.250805 L134.94353,209.685613 L141.548296,209.864507 C141.548296,209.864507 141.802037,200.419202 141.869601,197.922202 C141.937165,195.423699 148.273177,193.385209 148.595983,188.104076 C148.759638,185.443215 151.253504,180.825043 151.654385,178.188235"/>
    <path stroke="#FF7D7D" stroke-width="2.25" d="M151.654385,178.188235 C153.112268,168.597109 164.33992,163.201725 168.944789,163.3265 C172.804952,163.431732 176.617068,161.328599 176.669618,159.399851 C176.720667,157.471103 175.939926,155.447646 171.929621,153.371573 C167.584499,151.121116 167.22716,148.060374 162.604274,147.935599 C157.981387,147.810825 156.799766,150.594957 155.010068,151.811136 C152.616798,153.436215 141.058832,165.399566 138.197117,165.321394 C135.335402,165.244725 112.266014,164.620851 112.266014,164.620851 C102.110379,164.345745 93.6543561,172.367414 93.3795954,182.537315 L93.3255442,184.550248 L93.2024274,189.108288 L92.6784302,208.541593 L99.2831966,208.72199 C99.2831966,208.72199 99.5369373,199.275182 99.6045014,196.778182 C99.6600541,194.715639 104.102769,192.968791 105.734818,189.446533 L135.467527,190.250805 L134.94353,209.685613 L141.548296,209.864507 C141.548296,209.864507 141.802037,200.419202 141.869601,197.922202 C141.937165,195.423699 148.273177,193.385209 148.595983,188.104076 C148.759638,185.443215 151.253504,180.825043 151.654385,178.188235 Z"/>
    <path fill="#FFCFCF" d="M128.193125,209.503862 C128.344769,203.869452 133.030715,199.42416 138.658054,199.575995 C144.286895,199.727829 148.725105,204.419664 148.573462,210.054074 C148.421818,215.689988 143.735872,220.133776 138.108533,219.983445 C132.479692,219.830107 128.03998,215.138273 128.193125,209.503862"/>
    <path stroke="#FF7D7D" stroke-width="2.25" d="M128.193125,209.503862 C128.344769,203.869452 133.030715,199.42416 138.658054,199.575995 C144.286895,199.727829 148.725105,204.419664 148.573462,210.054074 C148.421818,215.689988 143.735872,220.133776 138.108533,219.983445 C132.479692,219.830107 128.03998,215.138273 128.193125,209.503862 Z"/>
    <path fill="#FFCFCF" d="M85.3409687,208.344058 C85.4926125,202.709647 90.1785584,198.264356 95.8058974,198.41619 C101.434738,198.569528 105.872949,203.261362 105.721305,208.895773 C105.569661,214.530183 100.883715,218.975475 95.2563761,218.82364 C89.6275356,218.670303 85.1878234,213.979972 85.3409687,208.344058"/>
    <path stroke="#FF7D7D" stroke-width="2.25" d="M85.3409687,208.344058 C85.4926125,202.709647 90.1785584,198.264356 95.8058974,198.41619 C101.434738,198.569528 105.872949,203.261362 105.721305,208.895773 C105.569661,214.530183 100.883715,218.975475 95.2563761,218.82364 C89.6275356,218.670303 85.1878234,213.979972 85.3409687,208.344058 Z"/>
    <path fill="#FFCFCF" d="M91.7856832,208.518742 C91.8427373,206.447179 93.5633698,204.814583 95.6323328,204.870206 C97.6997943,204.925828 99.3318427,206.65163 99.27629,208.721689 C99.2192359,210.793252 97.4986034,212.425848 95.4296405,212.370226 C93.3606775,212.3131 91.7301305,210.590305 91.7856832,208.518742"/>
    <path stroke="#FF7D7D" stroke-width="2.25" d="M91.7856832,208.518742 C91.8427373,206.447179 93.5633698,204.814583 95.6323328,204.870206 C97.6997943,204.925828 99.3318427,206.65163 99.27629,208.721689 C99.2192359,210.793252 97.4986034,212.425848 95.4296405,212.370226 C93.3606775,212.3131 91.7301305,210.590305 91.7856832,208.518742 Z"/>
    <path fill="#FFCFCF" d="M134.63799,209.678547 C134.693543,207.606984 136.415677,205.972885 138.48464,206.030011 C140.552101,206.085633 142.18415,207.809931 142.128597,209.881494 C142.071543,211.951554 140.35091,213.585653 138.281947,213.53003 C136.212984,213.472905 134.582437,211.748607 134.63799,209.678547"/>
    <path stroke="#FF7D7D" stroke-width="2.25" d="M134.63799 209.678547C134.693543 207.606984 136.415677 205.972885 138.48464 206.030011 140.552101 206.085633 142.18415 207.809931 142.128597 209.881494 142.071543 211.951554 140.35091 213.585653 138.281947 213.53003 136.212984 213.472905 134.582437 211.748607 134.63799 209.678547zM165.549168 155.129094L165.480102 157.719299"/>
    <polyline stroke="#FF7D7D" stroke-width="2.25" points="158.911 148.653 158.657 158.085 137.122 178.511 137.479 165.303"/>
    <path stroke="#FF7D7D" stroke-width="2.25" d="M166.301982,153.959067 L161.979381,151.174934"/>
    <path fill="#FFCFCF" d="M156.019326,47.5601079 L96.178551,138.400697 L92.1457248,135.73683 L149.327477,48.9341344 C150.79587,46.7047238 153.792713,46.0883662 156.019326,47.5601079"/>
    <path stroke="#FF7D7D" stroke-width="2.25" d="M156.019326 47.5601079L96.178551 138.400697 92.1457248 135.73683 149.327477 48.9341344C150.79587 46.7047238 153.792713 46.0883662 156.019326 47.5601079zM103.257617 118.869076L107.032199 121.923805"/>
    <path fill="#FFCFCF" d="M102.795028,118.825029 C102.969194,115.908605 100.748587,113.404089 97.8343219,113.229705 C94.9215584,113.055321 92.4201852,115.280221 92.2460199,118.195142 C92.0733561,121.111566 94.293963,123.617585 97.2067265,123.79197 C100.11949,123.96485 102.622365,121.741453 102.795028,118.825029"/>
    <path stroke="#FF7D7D" stroke-width="2.25" d="M102.795028,118.825029 C102.969194,115.908605 100.748587,113.404089 97.8343219,113.229705 C94.9215584,113.055321 92.4201852,115.280221 92.2460199,118.195142 C92.0733561,121.111566 94.293963,123.617585 97.2067265,123.79197 C100.11949,123.96485 102.622365,121.741453 102.795028,118.825029 Z"/>
    <path fill="#FFCFCF" d="M99.0722464,118.603441 C99.1232949,117.74505 98.4701752,117.006925 97.6128618,116.955812 C96.7570499,116.906203 96.0198504,117.560143 95.968802,118.418534 C95.9177536,119.275421 96.5708732,120.012044 97.4281866,120.06466 C98.2855,120.115772 99.021198,119.460328 99.0722464,118.603441"/>
    <path stroke="#FF7D7D" stroke-width="2.25" d="M99.0722464 118.603441C99.1232949 117.74505 98.4701752 117.006925 97.6128618 116.955812 96.7570499 116.906203 96.0198504 117.560143 95.968802 118.418534 95.9177536 119.275421 96.5708732 120.012044 97.4281866 120.06466 98.2855 120.115772 99.021198 119.460328 99.0722464 118.603441zM152.169674 52.7630682C152.208711 53.4049821 153.408349 60.2811278 158.21591 62.9870881 161.918423 65.0721808 166.105896 63.9026046 167.634346 63.4756642 171.503517 62.3962868 171.455471 60.7381344 174.434297 60.315704 178.976107 59.6737901 180.504557 63.329843 184.463813 62.7330285 189.46656 61.9798695 192.208161 55.3653 192.332779 55.0541146 194.20956 50.3607768 191.885354 48.4410483 193.712588 42.8397106 194.311656 41.0056709 195.988748 35.8688563 199.176272 35.3081212 203.420799 34.5594722 205.823078 42.7239556 211.034523 42.4172801 214.324144 42.223353 214.354172 38.910055 219.352414 36.9467305 222.939317 35.5396311 228.604192 35.0164788 232.015428 37.8487172 234.500286 39.909757 233.856175 42.1466841 236.964124 45.0555914 238.99405 46.9542735 241.250691 47.8532536 242.801662 48.3132669"/>
    <path fill="#FFCFCF" d="M266.721456,55.8797331 C268.272428,50.9639053 264.17504,45.2858987 257.570274,43.196296 C250.964006,41.1081967 244.353234,43.3977397 242.802263,48.3135675 C241.251291,53.2278921 245.348679,58.907402 251.953445,60.9955013 C258.558211,63.085104 265.170485,60.7955609 266.721456,55.8797331"/>
    <path stroke="#FF7D7D" stroke-width="2.25" d="M266.721456,55.8797331 C268.272428,50.9639053 264.17504,45.2858987 257.570274,43.196296 C250.964006,41.1081967 244.353234,43.3977397 242.802263,48.3135675 C241.251291,53.2278921 245.348679,58.907402 251.953445,60.9955013 C258.558211,63.085104 265.170485,60.7955609 266.721456,55.8797331 Z"/>
    <path fill="#FFCFCF" d="M277.300343,50.3729536 C272.860631,48.9688609 268.123637,51.4342914 266.721306,55.8795828 C265.318976,60.3248742 267.781312,65.0663179 272.221024,66.4704106 L277.300343,50.3729536 Z"/>
    <path stroke="#FF7D7D" stroke-width="2.25" d="M277.300343 50.3729536C272.860631 48.9688609 268.123637 51.4342914 266.721306 55.8795828 265.318976 60.3248742 267.781312 65.0663179 272.221024 66.4704106L277.300343 50.3729536zM242.802113 48.3132669L250.232662 50.6629424M251.282008 46.2441093L254.244319 47.1821755"/>
    <g transform="translate(432.41 79.327)">
      <path fill="#DCFAFF" d="M32.131235,11.5212272 C31.8985142,11.4400483 30.9015684,6.59637947 28.1749815,3.71453179 C22.5926852,-2.1859649 6.42384473,1.06870397 0.236474359,17.1451146 C0.236474359,17.1451146 19.0418162,7.11802848 18.9111923,11.7467238"/>
      <path stroke="#00C8FF" stroke-width="2.25" d="M32.131235,11.5212272 C31.8985142,11.4400483 30.9015684,6.59637947 28.1749815,3.71453179 C22.5926852,-2.1859649 6.42384473,1.06870397 0.236474359,17.1451146 C0.236474359,17.1451146 19.0418162,7.11802848 18.9111923,11.7467238"/>
    </g>
    <path fill="#DCFAFF" d="M490.772428,134.238329 C498.802047,128.322799 501.879967,132.57717 505.138058,136.021256 C507.872152,138.907614 512.17073,140.155362 513.610597,138.788852 C515.048961,137.425349 515.952819,135.383852 514.542981,130.952091 C513.016032,126.152018 514.981397,123.665541 511.708292,120.206422 C508.436688,116.748806 505.553953,117.913872 503.36938,117.492945 C500.446107,116.933713 492.356431,117.217839 490.33101,115.077124 C488.304087,112.936409 471.977597,95.681402 471.977597,95.681402 C464.788776,88.0836669 452.810411,87.760455 445.223713,94.9583093 L443.720787,96.3834483 L440.31856,99.6095543 L425.817802,113.363349 L430.493238,118.30323 C430.493238,118.30323 437.539423,111.619508 439.404192,109.850111 C440.943152,108.391899 445.444423,110.355223 449.188975,108.9827 L470.232941,131.22419 L455.732183,144.980991 L460.406118,149.919369 C460.406118,149.919369 467.453805,143.234144 469.318574,141.46625 C471.181842,139.698356 477.270118,142.831256 481.343483,139.223309 C483.39593,137.407309 488.565334,135.864912 490.772428,134.238329"/>
    <path stroke="#00C8FF" stroke-width="2.25" d="M490.772428,134.238329 C498.802047,128.322799 501.879967,132.57717 505.138058,136.021256 C507.872152,138.907614 512.17073,140.155362 513.610597,138.788852 C515.048961,137.425349 515.952819,135.383852 514.542981,130.952091 C513.016032,126.152018 514.981397,123.665541 511.708292,120.206422 C508.436688,116.748806 505.553953,117.913872 503.36938,117.492945 C500.446107,116.933713 492.356431,117.217839 490.33101,115.077124 C488.304087,112.936409 471.977597,95.681402 471.977597,95.681402 C464.788776,88.0836669 452.810411,87.760455 445.223713,94.9583093 L443.720787,96.3834483 L440.31856,99.6095543 L425.817802,113.363349 L430.493238,118.30323 C430.493238,118.30323 437.539423,111.619508 439.404192,109.850111 C440.943152,108.391899 445.444423,110.355223 449.188975,108.9827 L470.232941,131.22419 L455.732183,144.980991 L460.406118,149.919369 C460.406118,149.919369 467.453805,143.234144 469.318574,141.46625 C471.181842,139.698356 477.270118,142.831256 481.343483,139.223309 C483.39593,137.407309 488.565334,135.864912 490.772428,134.238329 Z"/>
    <path fill="#DCFAFF" d="M450.954651,139.930166 C455.158639,135.941881 461.796437,136.122279 465.779716,140.33155 C469.762995,144.540822 469.584326,132.768391 465.378836,136.758179 C461.174847,140.746464 454.53705,140.566067 450.55377,136.356795 C446.570491,132.146021 446.750662,143.918451 450.954651,139.930166"/>
    <path stroke="#00C8FF" stroke-width="2.25" d="M450.954651,139.930166 C455.158639,135.941881 461.796437,136.122279 465.779716,140.33155 C469.762995,144.540822 469.584326,132.768391 465.378836,136.758179 C461.174847,140.746464 454.53705,140.566067 450.55377,136.356795 C446.570491,132.146021 446.750662,143.918451 450.954651,139.930166 Z"/>
    <path fill="#DCFAFF" d="M420.624825,107.876113 C424.828813,103.887828 431.466611,104.066722 435.44989,108.277497 C439.43317,112.485265 439.2545,119.131404 435.04901,123.121192 C430.845021,127.109477 424.207224,126.929079 420.223944,122.719808 C416.240665,118.509033 416.420836,111.862894 420.624825,107.876113"/>
    <path stroke="#00C8FF" stroke-width="2.25" d="M420.624825,107.876113 C424.828813,103.887828 431.466611,104.066722 435.44989,108.277497 C439.43317,112.485265 439.2545,119.131404 435.04901,123.121192 C430.845021,127.109477 424.207224,126.929079 420.223944,122.719808 C416.240665,118.509033 416.420836,111.862894 420.624825,107.876113 Z"/>
    <path fill="#DCFAFF" d="M425.186303,112.697232 C426.731268,111.23 429.171083,111.296146 430.634972,112.844556 C432.098861,114.391464 432.032798,116.834344 430.487832,118.300073 C428.942867,119.764298 426.503052,119.698152 425.039163,118.152748 C423.575274,116.605841 423.641337,114.16296 425.186303,112.697232"/>
    <path stroke="#00C8FF" stroke-width="2.25" d="M425.186303,112.697232 C426.731268,111.23 429.171083,111.296146 430.634972,112.844556 C432.098861,114.391464 432.032798,116.834344 430.487832,118.300073 C428.942867,119.764298 426.503052,119.698152 425.039163,118.152748 C423.575274,116.605841 423.641337,114.16296 425.186303,112.697232 Z"/>
    <path fill="#DCFAFF" d="M455.516879,144.751285 C457.061845,143.285557 459.50166,143.351703 460.964047,144.89861 C462.429438,146.445517 462.363375,148.888398 460.816908,150.354126 C459.271942,151.819855 456.833628,151.753709 455.36974,150.206802 C453.905851,148.659895 453.971913,146.217014 455.516879,144.751285"/>
    <path stroke="#00C8FF" stroke-width="2.25" d="M455.516879,144.751285 C457.061845,143.285557 459.50166,143.351703 460.964047,144.89861 C462.429438,146.445517 462.363375,148.888398 460.816908,150.354126 C459.271942,151.819855 456.833628,151.753709 455.36974,150.206802 C453.905851,148.659895 453.971913,146.217014 455.516879,144.751285 Z"/>
    <g transform="translate(505.98 127.433)">
      <path fill="#DCFAFF" d="M2.64520969,0.15093245 L0.712876353,1.98497219"/>
      <path stroke="#00C8FF" stroke-width="2.25" d="M2.64520969,0.15093245 L0.712876353,1.98497219"/>
    </g>
    <polyline stroke="#00C8FF" stroke-width="2.25" points="508.5 118.04 501.463 124.714 479.967 123.891 489.822 114.54"/>
    <g transform="translate(507.481 121.42)">
      <path fill="#DCFAFF" d="M2.54041026,5.86321457 L1.41884615,0.69032053"/>
      <path stroke="#00C8FF" stroke-width="2.25" d="M2.54041026,5.86321457 L1.41884615,0.69032053"/>
    </g>
    <path fill="#DCFAFF" d="M468.886013,169.555921 L521.438874,76.1040801 L525.58731,78.8446166 L475.770045,168.142809 C474.259612,170.436862 471.177187,171.069756 468.886013,169.555921"/>
    <path stroke="#00C8FF" stroke-width="2.25" d="M468.886013,169.555921 L521.438874,76.1040801 L525.58731,78.8446166 L475.770045,168.142809 C474.259612,170.436862 471.177187,171.069756 468.886013,169.555921 Z"/>
    <g transform="translate(508.983 92.857)">
      <path fill="#DCFAFF" d="M5.17225726,3.34110927 L1.2895735,0.199188742"/>
      <path stroke="#00C8FF" stroke-width="2.25" d="M5.17225726,3.34110927 L1.2895735,0.199188742"/>
    </g>
    <path fill="#DCFAFF" d="M514.630965,96.2430391 C514.452295,99.2436483 516.737463,101.820324 519.732805,101.999218 C522.73115,102.178112 525.304591,99.8900722 525.483261,96.8894629 C525.66193,93.890357 523.376762,91.3121781 520.379919,91.1332841 C517.383076,90.9543901 514.809634,93.2424298 514.630965,96.2430391"/>
    <path stroke="#00C8FF" stroke-width="2.25" d="M514.630965,96.2430391 C514.452295,99.2436483 516.737463,101.820324 519.732805,101.999218 C522.73115,102.178112 525.304591,99.8900722 525.483261,96.8894629 C525.66193,93.890357 523.376762,91.3121781 520.379919,91.1332841 C517.383076,90.9543901 514.809634,93.2424298 514.630965,96.2430391 Z"/>
    <path fill="#DCFAFF" d="M518.460798,96.4713921 C518.408248,97.3538358 519.080887,98.1115046 519.962223,98.1641205 C520.843559,98.2167364 521.600277,97.543253 521.652827,96.6608093 C521.705377,95.7798689 521.032738,95.0206967 520.151402,94.9680808 C519.270066,94.9154649 518.513348,95.5889483 518.460798,96.4713921"/>
    <path stroke="#00C8FF" stroke-width="2.25" d="M518.460798,96.4713921 C518.408248,97.3538358 519.080887,98.1115046 519.962223,98.1641205 C520.843559,98.2167364 521.600277,97.543253 521.652827,96.6608093 C521.705377,95.7798689 521.032738,95.0206967 520.151402,94.9680808 C519.270066,94.9154649 518.513348,95.5889483 518.460798,96.4713921 Z"/>
    <path fill="#DCFAFF" d="M337.47023,147.49077 L308.341094,147.49077 C303.104125,147.49077 298.859598,151.742134 298.859598,156.985683 L298.859598,203.821346 C298.859598,209.064895 303.104125,213.314756 308.341094,213.314756 L337.47023,213.314756 C342.707199,213.314756 346.953228,209.064895 346.953228,203.821346 L346.953228,156.985683 C346.953228,151.742134 342.707199,147.49077 337.47023,147.49077"/>
    <path stroke="#00C8FF" stroke-width="2.25" d="M337.47023,147.49077 L308.341094,147.49077 C303.104125,147.49077 298.859598,151.742134 298.859598,156.985683 L298.859598,203.821346 C298.859598,209.064895 303.104125,213.314756 308.341094,213.314756 L337.47023,213.314756 C342.707199,213.314756 346.953228,209.064895 346.953228,203.821346 L346.953228,156.985683 C346.953228,151.742134 342.707199,147.49077 337.47023,147.49077 Z"/>
    <path fill="#DCFAFF" d="M338.957692,141.323285 L306.854233,141.323285 C305.169635,141.323285 303.803338,142.691298 303.803338,144.378013 L303.803338,144.435139 C303.803338,146.123358 305.169635,147.491371 306.854233,147.491371 L338.957692,147.491371 C340.64229,147.491371 342.008586,146.123358 342.008586,144.435139 L342.008586,144.378013 C342.008586,142.691298 340.64229,141.323285 338.957692,141.323285"/>
    <path stroke="#00C8FF" stroke-width="2.25" d="M338.957692,141.323285 L306.854233,141.323285 C305.169635,141.323285 303.803338,142.691298 303.803338,144.378013 L303.803338,144.435139 C303.803338,146.123358 305.169635,147.491371 306.854233,147.491371 L338.957692,147.491371 C340.64229,147.491371 342.008586,146.123358 342.008586,144.435139 L342.008586,144.378013 C342.008586,142.691298 340.64229,141.323285 338.957692,141.323285 Z"/>
    <path fill="#DCFAFF" d="M315.879296,201.119595 C315.825244,199.85531 316.805675,198.787959 318.068373,198.73384 C320.728897,198.621091 321.77539,201.245873 322.524601,203.22874 C323.10415,201.188747 323.922427,198.485793 326.585954,198.373045 C329.244977,198.260297 330.289968,200.877562 331.04068,202.858926 C331.618729,200.820436 332.437005,198.123495 335.096028,198.010747 C337.810603,197.894992 338.842082,200.628012 339.595797,202.624409 C339.790982,203.141548 340.095772,203.94582 340.328492,204.360734 C341.260877,204.6178 341.963544,205.453641 342.007085,206.472886 C342.059635,207.735668 341.080706,208.803019 339.818008,208.857138 C337.160487,208.971389 336.115495,206.352621 335.366284,204.371257 C334.786734,206.41125 333.968458,209.105184 331.310937,209.219436 C328.648911,209.332184 327.605421,206.710409 326.854709,204.726038 C326.275159,206.766032 325.455381,209.468985 322.794857,209.581734 C320.077279,209.695985 319.0458,206.962966 318.290583,204.968072 C318.0969,204.450932 317.792111,203.646661 317.55939,203.231747 C316.625504,202.974681 315.922837,202.140343 315.879296,201.119595"/>
    <path stroke="#00C8FF" stroke-width="2.25" d="M315.879296,201.119595 C315.825244,199.85531 316.805675,198.787959 318.068373,198.73384 C320.728897,198.621091 321.77539,201.245873 322.524601,203.22874 C323.10415,201.188747 323.922427,198.485793 326.585954,198.373045 C329.244977,198.260297 330.289968,200.877562 331.04068,202.858926 C331.618729,200.820436 332.437005,198.123495 335.096028,198.010747 C337.810603,197.894992 338.842082,200.628012 339.595797,202.624409 C339.790982,203.141548 340.095772,203.94582 340.328492,204.360734 C341.260877,204.6178 341.963544,205.453641 342.007085,206.472886 C342.059635,207.735668 341.080706,208.803019 339.818008,208.857138 C337.160487,208.971389 336.115495,206.352621 335.366284,204.371257 C334.786734,206.41125 333.968458,209.105184 331.310937,209.219436 C328.648911,209.332184 327.605421,206.710409 326.854709,204.726038 C326.275159,206.766032 325.455381,209.468985 322.794857,209.581734 C320.077279,209.695985 319.0458,206.962966 318.290583,204.968072 C318.0969,204.450932 317.792111,203.646661 317.55939,203.231747 C316.625504,202.974681 315.922837,202.140343 315.879296,201.119595 Z"/>
    <path fill="#DCFAFF" d="M315.879296,186.916009 C315.825244,185.651725 316.805675,184.58287 318.068373,184.530254 C320.728897,184.417506 321.77539,187.042287 322.524601,189.023652 C323.10415,186.985162 323.922427,184.280705 326.585954,184.167956 C329.244977,184.055208 330.289968,186.673976 331.04068,188.65534 C331.618729,186.61685 332.437005,183.91991 335.096028,183.807162 C337.810603,183.689903 338.842082,186.424426 339.595797,188.419321 C339.790982,188.93646 340.095772,189.742234 340.328492,190.155645 C341.260877,190.412711 341.963544,191.248552 342.007085,192.267797 C342.059635,193.530579 341.080706,194.599433 339.818008,194.652049 C337.160487,194.766301 336.115495,192.149036 335.366284,190.167672 C334.786734,192.206162 333.968458,194.901599 331.310937,195.01585 C328.648911,195.128599 327.605421,192.506824 326.854709,190.522453 C326.275159,192.562446 325.455381,195.263897 322.794857,195.376645 C320.077279,195.4924 319.0458,192.75938 318.290583,190.764486 C318.0969,190.245844 317.792111,189.443075 317.55939,189.026658 C316.625504,188.771095 315.922837,187.935254 315.879296,186.916009"/>
    <path stroke="#00C8FF" stroke-width="2.25" d="M315.879296,186.916009 C315.825244,185.651725 316.805675,184.58287 318.068373,184.530254 C320.728897,184.417506 321.77539,187.042287 322.524601,189.023652 C323.10415,186.985162 323.922427,184.280705 326.585954,184.167956 C329.244977,184.055208 330.289968,186.673976 331.04068,188.65534 C331.618729,186.61685 332.437005,183.91991 335.096028,183.807162 C337.810603,183.689903 338.842082,186.424426 339.595797,188.419321 C339.790982,188.93646 340.095772,189.742234 340.328492,190.155645 C341.260877,190.412711 341.963544,191.248552 342.007085,192.267797 C342.059635,193.530579 341.080706,194.599433 339.818008,194.652049 C337.160487,194.766301 336.115495,192.149036 335.366284,190.167672 C334.786734,192.206162 333.968458,194.901599 331.310937,195.01585 C328.648911,195.128599 327.605421,192.506824 326.854709,190.522453 C326.275159,192.562446 325.455381,195.263897 322.794857,195.376645 C320.077279,195.4924 319.0458,192.75938 318.290583,190.764486 C318.0969,190.245844 317.792111,189.443075 317.55939,189.026658 C316.625504,188.771095 315.922837,187.935254 315.879296,186.916009 Z"/>
    <path fill="#DCFAFF" d="M304.807641,208.693427 C303.544943,208.661858 302.547997,207.60954 302.579527,206.345255 C302.648593,203.678381 305.334641,202.812474 307.361564,202.199123 C305.369174,201.48054 302.72967,200.477831 302.798735,197.810957 C302.867801,195.145586 305.546342,194.281182 307.573265,193.667831 C305.580875,192.950752 302.948878,191.948043 303.017943,189.285679 C303.087009,186.564685 305.88116,185.721328 307.920094,185.10497 C308.448596,184.944116 309.271376,184.69607 309.700784,184.490116 C310.020587,183.577606 310.900422,182.931182 311.918388,182.958242 C313.181086,182.989811 314.179533,184.043632 314.146502,185.306414 C314.078938,187.970281 311.400396,188.834685 309.373473,189.448036 C311.365864,190.166619 313.996359,191.167825 313.928795,193.830189 C313.85973,196.497063 311.175183,197.361467 309.14826,197.974818 C311.142151,198.693401 313.777151,199.696109 313.709587,202.36148 C313.63902,205.083977 310.844869,205.928838 308.805935,206.545195 C308.277433,206.70605 307.456154,206.955599 307.026747,207.158546 C306.706943,208.074063 305.827109,208.720487 304.807641,208.693427"/>
    <path stroke="#00C8FF" stroke-width="2.25" d="M304.807641,208.693427 C303.544943,208.661858 302.547997,207.60954 302.579527,206.345255 C302.648593,203.678381 305.334641,202.812474 307.361564,202.199123 C305.369174,201.48054 302.72967,200.477831 302.798735,197.810957 C302.867801,195.145586 305.546342,194.281182 307.573265,193.667831 C305.580875,192.950752 302.948878,191.948043 303.017943,189.285679 C303.087009,186.564685 305.88116,185.721328 307.920094,185.10497 C308.448596,184.944116 309.271376,184.69607 309.700784,184.490116 C310.020587,183.577606 310.900422,182.931182 311.918388,182.958242 C313.181086,182.989811 314.179533,184.043632 314.146502,185.306414 C314.078938,187.970281 311.400396,188.834685 309.373473,189.448036 C311.365864,190.166619 313.996359,191.167825 313.928795,193.830189 C313.85973,196.497063 311.175183,197.361467 309.14826,197.974818 C311.142151,198.693401 313.777151,199.696109 313.709587,202.36148 C313.63902,205.083977 310.844869,205.928838 308.805935,206.545195 C308.277433,206.70605 307.456154,206.955599 307.026747,207.158546 C306.706943,208.074063 305.827109,208.720487 304.807641,208.693427 Z"/>
    <path fill="#DCFAFF" d="M394.104263,147.49077 L364.975126,147.49077 C359.738158,147.49077 355.49363,151.742134 355.49363,156.985683 L355.49363,203.821346 C355.49363,209.064895 359.738158,213.314756 364.975126,213.314756 L394.104263,213.314756 C399.341232,213.314756 403.58726,209.064895 403.58726,203.821346 L403.58726,156.985683 C403.58726,151.742134 399.341232,147.49077 394.104263,147.49077"/>
    <path stroke="#00C8FF" stroke-width="2.25" d="M394.104263,147.49077 L364.975126,147.49077 C359.738158,147.49077 355.49363,151.742134 355.49363,156.985683 L355.49363,203.821346 C355.49363,209.064895 359.738158,213.314756 364.975126,213.314756 L394.104263,213.314756 C399.341232,213.314756 403.58726,209.064895 403.58726,203.821346 L403.58726,156.985683 C403.58726,151.742134 399.341232,147.49077 394.104263,147.49077 Z"/>
    <path fill="#DCFAFF" d="M395.591874,141.323285 L363.488416,141.323285 C361.803817,141.323285 360.437521,142.691298 360.437521,144.378013 L360.437521,144.435139 C360.437521,146.123358 361.803817,147.491371 363.488416,147.491371 L395.591874,147.491371 C397.276473,147.491371 398.642769,146.123358 398.642769,144.435139 L398.642769,144.378013 C398.642769,142.691298 397.276473,141.323285 395.591874,141.323285"/>
    <path stroke="#00C8FF" stroke-width="2.25" d="M395.591874,141.323285 L363.488416,141.323285 C361.803817,141.323285 360.437521,142.691298 360.437521,144.378013 L360.437521,144.435139 C360.437521,146.123358 361.803817,147.491371 363.488416,147.491371 L395.591874,147.491371 C397.276473,147.491371 398.642769,146.123358 398.642769,144.435139 L398.642769,144.378013 C398.642769,142.691298 397.276473,141.323285 395.591874,141.323285 Z"/>
    <polygon fill="#DCFAFF" points="391.662 206.957 394.862 193.171 382.756 185.864 372.075 195.133 377.579 208.17"/>
    <polygon stroke="#00C8FF" stroke-width="2.25" points="391.662 206.957 394.862 193.171 382.756 185.864 372.075 195.133 377.579 208.17"/>
    <g transform="translate(370.852 192.075)">
      <path fill="#DCFAFF" d="M1.22230969,3.0577351 C2.27630969,3.28924503 13.0144977,4.67078808 13.0144977,4.67078808 L24.0109308,1.09591391"/>
      <path stroke="#00C8FF" stroke-width="2.25" d="M1.22230969,3.0577351 C2.27630969,3.28924503 13.0144977,4.67078808 13.0144977,4.67078808 L24.0109308,1.09591391"/>
    </g>
    <g transform="translate(381.362 184.559)">
      <path fill="#DCFAFF" d="M1.39452308,1.30487417 L3.48150313,22.9856291"/>
      <path stroke="#00C8FF" stroke-width="2.25" d="M1.39452308,1.30487417 L3.48150313,22.9856291"/>
    </g>
    <g transform="translate(369.35 202.598)">
      <polyline fill="#DCFAFF" points=".791 .411 1.95 3.384 8.228 5.572 5.844 7.553"/>
      <polyline stroke="#00C8FF" stroke-width="2.25" points=".791 .411 1.95 3.384 8.228 5.572 5.844 7.553"/>
    </g>
    <g transform="translate(390.37 199.592)">
      <polyline fill="#DCFAFF" points="6.287 .886 5.491 4.383 1.291 7.366 6.342 6.652"/>
      <polyline stroke="#00C8FF" stroke-width="2.25" points="6.287 .886 5.491 4.383 1.291 7.366 6.342 6.652"/>
    </g>
    <polygon fill="#DCFAFF" points="360.895 172.57 368.848 184.27 382.419 180.313 382.855 166.166 369.552 161.381"/>
    <polygon stroke="#00C8FF" stroke-width="2.25" points="360.895 172.57 368.848 184.27 382.419 180.313 382.855 166.166 369.552 161.381"/>
    <g transform="translate(367.849 165.015)">
      <path fill="#DCFAFF" d="M15.0056869,1.15063444 C14.1213479,1.76999868 5.82747892,8.73784636 5.82747892,8.73784636 L0.998897721,19.2550119"/>
      <path stroke="#00C8FF" stroke-width="2.25" d="M15.0056869,1.15063444 C14.1213479,1.76999868 5.82747892,8.73784636 5.82747892,8.73784636 L0.998897721,19.2550119"/>
    </g>
    <g transform="translate(364.846 166.519)">
      <path fill="#DCFAFF" d="M17.5729726,13.7952861 L0.240528205,0.633796026"/>
      <path stroke="#00C8FF" stroke-width="2.25" d="M17.5729726,13.7952861 L0.240528205,0.633796026"/>
    </g>
    <g transform="translate(369.35 157.499)">
      <polyline fill="#DCFAFF" points="9.032 1.907 6.063 .745 .202 3.881 .364 .784"/>
      <polyline stroke="#00C8FF" stroke-width="2.25" points="9.032 1.907 6.063 .745 .202 3.881 .364 .784"/>
    </g>
    <g transform="translate(357.339 172.532)">
      <polyline fill="#DCFAFF" points="4.927 8.106 2.898 5.149 3.556 .038 .657 4.238"/>
      <polyline stroke="#00C8FF" stroke-width="2.25" points="4.927 8.106 2.898 5.149 3.556 .038 .657 4.238"/>
    </g>
    <path fill="#DCFAFF" d="M479.7281,126.945015 L457.032567,126.945015 C453.55677,126.945015 450.738596,129.76673 450.738596,133.246895 C450.738596,136.727061 453.55677,139.548776 457.032567,139.548776 L479.7281,139.548776 C483.203898,139.548776 486.02057,136.727061 486.02057,133.246895 C486.02057,129.76673 483.203898,126.945015 479.7281,126.945015 Z M412.126462,212.382703 L515.624157,212.382703 L515.624157,112.535776 L412.126462,112.535776 L412.126462,212.382703 Z"/>
    <path stroke="#00C8FF" stroke-width="2.25" d="M479.7281 126.945015L457.032567 126.945015C453.55677 126.945015 450.738596 129.76673 450.738596 133.246895 450.738596 136.727061 453.55677 139.548776 457.032567 139.548776L479.7281 139.548776C483.203898 139.548776 486.02057 136.727061 486.02057 133.246895 486.02057 129.76673 483.203898 126.945015 479.7281 126.945015zM412.126462 212.382703L515.624157 212.382703 515.624157 112.535776 412.126462 112.535776 412.126462 212.382703zM379.540145 7.62404305L379.540145 108.491719"/>
    <path fill="#00C8FF" d="M375.306428,108.279902 C375.306428,110.622061 377.202727,112.517736 379.540445,112.517736 C381.878163,112.517736 383.774462,110.622061 383.774462,108.279902 C383.774462,105.937743 381.878163,104.040564 379.540445,104.040564 C377.202727,104.040564 375.306428,105.937743 375.306428,108.279902"/>
    <path stroke="#00C8FF" stroke-width="2.25" d="M319.229574,112.312685 L319.229574,7.62359205 L398.548329,7.62359205 L444.196138,7.62359205 C456.453768,7.62359205 466.388694,17.572506 466.388694,29.8440358 L466.388694,41.9081086"/>
    <path fill="#00C8FF" d="M323.464042 112.101319C323.464042 114.441975 321.567743 116.339154 319.230025 116.339154 316.892307 116.339154 314.996008 114.441975 314.996008 112.101319 314.996008 109.75916 316.892307 107.861981 319.230025 107.861981 321.567743 107.861981 323.464042 109.75916 323.464042 112.101319M462.154527 41.6959914C462.154527 44.036647 464.050826 45.9353291 466.388544 45.9353291 468.726262 45.9353291 470.622561 44.036647 470.622561 41.6959914 470.622561 39.3553358 468.726262 37.4566536 466.388544 37.4566536 464.050826 37.4566536 462.154527 39.3553358 462.154527 41.6959914"/>
    <path stroke="#00C8FF" stroke-width="2.25" d="M425.818252,7.62404305 L107.294047,7.62404305 C95.0379188,7.62404305 85.1029929,17.5714536 85.1029929,29.8429834 L85.1029929,42.9187848"/>
  </g>
</svg>
