<svg xmlns="http://www.w3.org/2000/svg" xmlns:xlink="http://www.w3.org/1999/xlink" width="332" height="274" viewBox="0 0 332 274">
    <defs>
        <path id="a" d="M0 273.465h331.115V0H0z"/>
    </defs>
    <g fill="none" fill-rule="evenodd">
        <path fill="#00A4BF" d="M76.893 38.527C76.893 17.25 59.68.002 38.448.002 17.213.002 0 17.25 0 38.527c0 21.277 17.212 38.527 38.447 38.527 21.233 0 38.445-17.25 38.445-38.527M76.893 197.438c0-21.277-17.212-38.527-38.445-38.527C17.213 158.911 0 176.161 0 197.438s17.212 38.527 38.447 38.527c21.233 0 38.445-17.25 38.445-38.527M204.003 234.938c0-21.277-17.212-38.527-38.444-38.527-21.235 0-38.447 17.25-38.447 38.527s17.212 38.527 38.447 38.527c21.232 0 38.444-17.25 38.444-38.527M204.003 117.984c0-21.277-17.212-38.527-38.444-38.527-21.235 0-38.447 17.25-38.447 38.527s17.212 38.525 38.447 38.525c21.232 0 38.444-17.248 38.444-38.525"/>
        <path fill="#5DD8C1" d="M157.084 130.048c-1.9 0-3.441-1.544-3.441-3.446a3.445 3.445 0 0 1 3.44-3.448c1.9 0 3.44 1.544 3.44 3.448a3.443 3.443 0 0 1-3.44 3.446zm17.2-17.237c-1.9 0-3.44-1.544-3.44-3.446a3.445 3.445 0 0 1 3.44-3.448c1.9 0 3.44 1.544 3.44 3.448a3.443 3.443 0 0 1-3.44 3.446zm0 17.237c-1.9 0-3.44-1.544-3.44-3.446a3.445 3.445 0 0 1 3.44-3.448c1.9 0 3.44 1.544 3.44 3.448a3.443 3.443 0 0 1-3.44 3.446zm-17.2-17.237c-1.9 0-3.441-1.544-3.441-3.446a3.445 3.445 0 0 1 3.44-3.448c1.9 0 3.44 1.544 3.44 3.448a3.443 3.443 0 0 1-3.44 3.446zm-4.153 5.173l-3.944-3.953 2.433-2.439 4.907 4.92h4.407a5.186 5.186 0 0 1 3.23-3.406v-4.75l-4.658-4.668 2.433-2.438 3.944 3.954 3.944-3.954 2.433 2.438-4.656 4.668v4.75a5.187 5.187 0 0 1 3.228 3.405h4.406l4.91-4.919 2.433 2.439-4.197 4.203 3.945 3.952-2.433 2.439-4.658-4.666h-4.584a5.172 5.172 0 0 1-3.05 2.9v4.75l4.656 4.668-2.433 2.438-3.944-3.954-3.944 3.954-2.433-2.438 4.657-4.668v-4.75a5.172 5.172 0 0 1-3.049-2.9h-5.09l-4.657 4.666-2.433-2.439 4.197-4.202z"/>
        <path fill="#00A4BF" d="M331.114 197.438c0-21.277-17.212-38.527-38.445-38.527-21.236 0-38.447 17.25-38.447 38.527s17.21 38.527 38.447 38.527c21.233 0 38.445-17.25 38.445-38.527"/>
        <mask id="b" fill="#fff">
            <use xlink:href="#a"/>
        </mask>
        <path fill="#FCFBC8" d="M36.762 40.215h3.368v-10.12h-3.368v10.12zm0 6.747h3.368v-3.374h-3.368v3.374zm1.685 8.434c-9.296 0-16.832-7.552-16.832-16.87 0-9.314 7.536-16.864 16.832-16.864 9.296 0 16.832 7.55 16.832 16.865 0 9.317-7.536 16.87-16.832 16.87z" mask="url(#b)"/>
        <path fill="#00A4BF" d="M106.593 108.178l-2.036-2.04-10.38 10.404H79.29c-23.313 0-42.281 19.006-42.281 42.37h2.878c0-21.772 17.677-39.485 39.403-39.485h15.088l10.376 10.398 2.036-2.04-8.342-8.358h28.663v-2.885H98.247l8.346-8.364zM175.438 169.98l-8.44 8.46v-21.931h-2.878v21.93l-8.247-8.26-2.036 2.038 10.283 10.303v13.89h2.878v-13.89l10.477-10.5zM166.998 79.456c0-23.363-18.969-42.37-42.283-42.37h-18.449l-10.376-10.4-2.034 2.038 8.34 8.361H76.893v2.885h25.503l-8.346 8.36 2.036 2.04 10.38-10.4h18.249c21.727 0 39.404 17.713 39.404 39.486h2.879zM251.825 116.541h-14.888l-10.379-10.402-2.036 2.039 8.344 8.363h-28.863v2.885h28.665l-8.342 8.36 2.034 2.038 10.379-10.398h15.086c21.727 0 39.404 17.713 39.404 39.485h2.879c0-23.362-18.968-42.37-42.283-42.37" mask="url(#b)"/>
        <path fill="#FFF" d="M38.448 195.45a3.844 3.844 0 0 0 3.838-3.847 3.844 3.844 0 0 0-3.838-3.846 3.844 3.844 0 0 0-3.839 3.846 3.844 3.844 0 0 0 3.839 3.846zm0 3.846c-4.43 0-7.677-1.923-7.677-7.693 0-5.769 7.677-7.692 3.838-13.461 7.677 0 11.515 7.692 11.515 13.461 0 5.77-3.247 7.693-7.676 7.693zm-17.272 7.692H32.69v-5.77H21.176v5.77zm0-7.692h7.676v-5.77h-7.676v5.77zm26.867 0h7.676v-5.77h-7.676v5.77zm-3.838 15.384h11.514v-5.769H44.205v5.77zm-9.596-7.692h21.11v-5.77H34.61v5.77zm-13.433 7.692h21.11v-5.769h-21.11v5.77zM168.24 238.382a3.427 3.427 0 0 0 0-4.836 3.41 3.41 0 0 0-4.824 0 3.427 3.427 0 0 0 0 4.837 3.407 3.407 0 0 0 4.824 0zm-15.68 6.045l-3.62-3.627a1.716 1.716 0 0 1 0-2.418l19.3-19.34a1.707 1.707 0 0 1 2.412 0l3.62 3.627v4.835h4.824l3.62 3.627a1.71 1.71 0 0 1 0 2.415l-19.3 19.34a1.7 1.7 0 0 1-2.413 0l-3.617-3.625v-4.834h-4.827z" mask="url(#b)"/>
        <path stroke="#FFF" stroke-width="2.88" d="M147.9 223.819h10.528M153.165 218.541v10.552" mask="url(#b)"/>
        <path fill="#FFF" d="M292.669 202.494a5.052 5.052 0 0 1-5.047-5.056 5.052 5.052 0 0 1 5.047-5.056 5.052 5.052 0 0 1 5.045 5.056 5.052 5.052 0 0 1-5.045 5.056zm11.771-5.056c0 3.256-1.318 6.208-3.448 8.342l-2.378-2.382a8.41 8.41 0 0 0 2.462-5.96 8.41 8.41 0 0 0-2.462-5.96l2.378-2.382a11.778 11.778 0 0 1 3.448 8.342zm-23.545 0c0-3.258 1.319-6.206 3.449-8.342l2.378 2.382a8.41 8.41 0 0 0-2.463 5.96 8.41 8.41 0 0 0 2.463 5.96l-2.378 2.382a11.778 11.778 0 0 1-3.449-8.342zm30.274 0c0 5.12-2.071 9.752-5.422 13.108l-2.377-2.383a15.13 15.13 0 0 0 4.434-10.725c0-4.188-1.694-7.979-4.434-10.725l2.377-2.383a18.486 18.486 0 0 1 5.422 13.108zm-31.58 13.108a18.49 18.49 0 0 1-5.422-13.108c0-5.12 2.07-9.754 5.421-13.108l2.378 2.383a15.134 15.134 0 0 0-4.435 10.725 15.13 15.13 0 0 0 4.435 10.725l-2.378 2.383z" mask="url(#b)"/>
    </g>
</svg>
