<svg xmlns="http://www.w3.org/2000/svg" viewBox="0 0 330.98 169.3"><defs><style>.cls-1,.cls-5{fill:#dcfaff;}.cls-1,.cls-2,.cls-3,.cls-4,.cls-5{stroke:#00c8ff;}.cls-1,.cls-2,.cls-3,.cls-4,.cls-6,.cls-7{stroke-miterlimit:10;}.cls-1,.cls-2,.cls-3,.cls-4,.cls-5,.cls-6,.cls-7{stroke-width:1.5px;}.cls-2,.cls-3,.cls-4,.cls-6{fill:none;}.cls-3{stroke-dasharray:1.95 1.95;}.cls-4{stroke-dasharray:2.03 2.03;}.cls-5{stroke-linejoin:bevel;}.cls-6,.cls-7{stroke:#ff7d7d;}.cls-7{fill:#ffcfcf;}</style></defs><title>mssp</title><g id="Layer_2" data-name="Layer 2"><g id="Layer_1-2" data-name="Layer 1"><polygon class="cls-1" points="98.61 113.42 93.84 118.18 83.44 107.78 82.61 102.19 88.2 103.02 98.61 113.42"/><path class="cls-1" d="M82.61,102.19a18.67,18.67,0,1,1,0-26.41A18.68,18.68,0,0,1,82.61,102.19Zm-3.38-23a13.88,13.88,0,1,0,0,19.63A13.88,13.88,0,0,0,79.23,79.17Z"/><line class="cls-2" x1="146.15" y1="90.45" x2="146.92" y2="91.08"/><line class="cls-3" x1="148.42" y1="92.32" x2="201.71" y2="136.28"/><line class="cls-2" x1="202.46" y1="136.9" x2="203.23" y2="137.54"/><line class="cls-2" x1="203.23" y1="43.36" x2="202.46" y2="44"/><line class="cls-3" x1="200.96" y1="45.24" x2="147.67" y2="89.19"/><line class="cls-2" x1="146.92" y1="89.81" x2="146.15" y2="90.45"/><line class="cls-2" x1="146.15" y1="90.45" x2="147.15" y2="90.45"/><line class="cls-4" x1="149.18" y1="90.45" x2="237.67" y2="90.45"/><line class="cls-2" x1="238.69" y1="90.45" x2="239.69" y2="90.45"/><circle class="cls-1" cx="146.15" cy="90.45" r="28.54"/><polyline class="cls-2" points="204.36 95.58 209.49 90.45 204.36 85.32"/><polyline class="cls-2" points="183.91 66.55 183.91 59.3 176.66 59.3"/><polyline class="cls-2" points="174.86 120.12 182.12 120.12 182.12 112.86"/><polygon class="cls-5" points="209.91 37.95 199.49 36.06 228.73 17.55 209.91 37.95"/><polygon class="cls-5" points="228.73 17.55 209.91 37.95 220.17 47.42 228.73 17.55"/><polygon class="cls-5" points="250.25 87.83 244.22 79.12 277.98 86.72 250.25 87.83"/><polygon class="cls-5" points="277.98 86.72 250.25 87.83 250.81 101.78 277.98 86.72"/><polygon class="cls-5" points="213.03 140.13 214.92 129.71 233.42 158.96 213.03 140.13"/><polygon class="cls-5" points="233.42 158.96 213.03 140.13 203.56 150.39 233.42 158.96"/><polyline class="cls-2" points="106.72 96.17 111.3 91.58 106.8 87.08"/><line class="cls-1" x1="117.3" y1="91.62" x2="94.95" y2="91.62"/><line class="cls-2" x1="120.3" y1="78.33" x2="120.3" y2="78.33"/><path class="cls-1" d="M268.78,27.64V25.32a12.73,12.73,0,1,0-9.32,0v2.32a22,22,0,0,0-17.38,21.54h44.07A22,22,0,0,0,268.78,27.64Z"/><path class="cls-1" d="M259.46,27.64a6.58,6.58,0,0,0,9.32,0"/><path class="cls-1" d="M259,15.47a5.59,5.59,0,0,0,5.59,5.59"/><line class="cls-1" x1="258.99" y1="9.14" x2="258.99" y2="11.89"/><line class="cls-1" x1="269.24" y1="9.14" x2="269.24" y2="11.89"/><path class="cls-1" d="M268.78,147v-2.32a12.73,12.73,0,1,0-9.32,0V147a22,22,0,0,0-17.38,21.54h44.07A22,22,0,0,0,268.78,147Z"/><path class="cls-1" d="M259.46,147a6.58,6.58,0,0,0,9.32,0"/><path class="cls-1" d="M259,134.84a5.59,5.59,0,0,0,5.59,5.59"/><line class="cls-1" x1="258.99" y1="128.51" x2="258.99" y2="131.26"/><line class="cls-1" x1="269.24" y1="128.51" x2="269.24" y2="131.26"/><path class="cls-1" d="M312.85,89.39V87.07a12.73,12.73,0,1,0-9.32,0v2.32a22,22,0,0,0-17.38,21.54h44.08A22,22,0,0,0,312.85,89.39Z"/><path class="cls-1" d="M303.53,89.39a6.58,6.58,0,0,0,9.32,0"/><path class="cls-1" d="M303.07,77.22a5.58,5.58,0,0,0,5.58,5.59"/><line class="cls-1" x1="303.07" y1="70.89" x2="303.07" y2="73.64"/><line class="cls-1" x1="313.32" y1="70.89" x2="313.32" y2="73.64"/><path class="cls-6" d="M17.23,38.29c4-.79,6.58,1.83,5.72,5.83a9.72,9.72,0,0,1-7.07,6.94c-2.57.5-4.21-1.17-3.66-3.73a6.2,6.2,0,0,1,4.52-4.44,1.86,1.86,0,0,1,2.35,2.39,4,4,0,0,1-2.9,2.84"/><path class="cls-7" d="M54.39,61a15.38,15.38,0,1,0-29.47,8.8c1.45,4.87,6.79,6.57,11.34,7A3.3,3.3,0,0,0,42,79.16a3.2,3.2,0,0,0,3.18-1,3.39,3.39,0,0,0,1.73,0A3.34,3.34,0,0,0,49.12,74a3.31,3.31,0,0,0-.46-.92C52.26,70.26,55.85,65.87,54.39,61ZM34.27,70.24c-1.07.32-2.49-1.29-3.18-3.59s-.38-4.43.69-4.75,2.49,1.29,3.18,3.59S35.34,69.92,34.27,70.24ZM47,66.45c-1.07.32-2.49-1.29-3.18-3.59s-.38-4.43.69-4.75S47,59.4,47.65,61.7,48,66.13,47,66.45Z"/><line class="cls-6" x1="42.99" y1="54.72" x2="40.95" y2="58.48"/><line class="cls-6" x1="34.79" y1="60.32" x2="31.02" y2="58.29"/><line class="cls-6" x1="46.79" y1="42.73" x2="48.39" y2="32.05"/><line class="cls-6" x1="19.53" y1="60.79" x2="9.16" y2="57.23"/><polyline class="cls-6" points="34.37 45.32 30.68 38.89 36.18 39.13 31.07 31.12"/><path class="cls-7" d="M90.88,49.52A15.38,15.38,0,0,0,60.2,47.29c-.37,5.06,4,8.55,8.12,10.58a3,3,0,0,0-.26,1,3.31,3.31,0,0,0,3.07,3.55,3.21,3.21,0,0,0,1.69-.34,3.27,3.27,0,0,0,1.62.58,3.31,3.31,0,0,0,1.69-.33,3.37,3.37,0,0,0,1.63.58,3.32,3.32,0,0,0,3.55-3.08,3.16,3.16,0,0,0-.1-1C85.59,57.45,90.51,54.63,90.88,49.52Zm-22.1,1.53c-1.11-.08-1.87-2.09-1.7-4.49s1.22-4.28,2.33-4.2,1.87,2.09,1.7,4.49S69.89,51.13,68.78,51.05ZM82,52c-1.11-.08-1.87-2.09-1.7-4.49s1.22-4.28,2.33-4.19,1.87,2.09,1.7,4.49S83.1,52.09,82,52Z"/><line class="cls-6" x1="84.7" y1="41.8" x2="79.2" y2="42.43"/><line class="cls-6" x1="72.79" y1="41.96" x2="67.63" y2="40.56"/><polyline class="cls-6" points="90.25 29.77 95.53 20.36 89.19 21.33"/><line class="cls-6" x1="70.73" y1="28.59" x2="62.29" y2="21.57"/><polyline class="cls-6" points="77.72 27.79 76.55 20.46 81.61 22.64 79.68 13.34 86.72 14.23"/><path class="cls-7" d="M40.72,100.94A15.38,15.38,0,1,0,26.9,128.41c4.53,2.29,9.44-.42,12.88-3.44a3.48,3.48,0,0,0,.86.65,3.31,3.31,0,0,0,4.8-3.17,3.27,3.27,0,0,0,1.49-3,3.39,3.39,0,0,0,1.16-1.27,3.34,3.34,0,0,0-1.48-4.47,3.53,3.53,0,0,0-1-.3C46,108.86,45.29,103.24,40.72,100.94Zm-10,17.23c2.15,1.09,3.48,2.77,3,3.76s-2.65.93-4.8-.15-3.48-2.76-3-3.76Zm1.15-12c.5-1,2.65-.93,4.8.15s3.48,2.77,3,3.77S37,111,34.81,110Z"/><polyline class="cls-6" points="22.14 99.02 15.48 90.53 13.95 96.77"/><polyline class="cls-6" points="25.38 86.06 24.48 96.81 29.85 93.28"/><line class="cls-6" x1="13.66" y1="111.53" x2="3.95" y2="116.63"/><line class="cls-6" x1="10.97" y1="108.02" x2="0.1" y2="106.55"/><polyline class="cls-6" points="15.6 104.76 10.48 104.09 13.91 99.99 7.23 99.54 10.65 93.32"/></g></g></svg>