<svg xmlns="http://www.w3.org/2000/svg" width="497" height="254" viewBox="0 0 497 254">
  <g fill="none" fill-rule="evenodd">
    <polygon fill="#DCFAFF" points="148.058 170.129 140.907 177.273 125.287 161.667 124.045 153.284 132.439 154.524"/>
    <polygon stroke="#00C8FF" stroke-width="2.25" points="148.058 170.129 140.907 177.273 125.287 161.667 124.045 153.284 132.439 154.524"/>
    <g transform="translate(0 .446)">
      <path fill="#DCFAFF" d="M118.960629,118.3026 C110.817937,110.1666 97.6166559,110.1666 89.473964,118.3026 C81.3312722,126.4371 81.3312722,139.6251 89.473964,147.7596 C97.6166559,155.8941 110.817937,155.8941 118.960629,147.7596 C127.103321,139.6251 127.103321,126.4371 118.960629,118.3026 M124.044744,152.8371 C113.094227,163.7781 95.3403659,163.7781 84.3898492,152.8371 C73.4393326,141.8976 73.4393326,124.1616 84.3898492,113.2221 C95.3403659,102.2826 113.094227,102.2826 124.044744,113.2221 C134.99526,124.1616 134.99526,141.8976 124.044744,152.8371"/>
      <path stroke="#00C8FF" stroke-width="2.25" d="M118.960629 118.3026C110.817937 110.1666 97.6166559 110.1666 89.473964 118.3026 81.3312722 126.4371 81.3312722 139.6251 89.473964 147.7596 97.6166559 155.8941 110.817937 155.8941 118.960629 147.7596 127.103321 139.6251 127.103321 126.4371 118.960629 118.3026zM124.044744 152.8371C113.094227 163.7781 95.3403659 163.7781 84.3898492 152.8371 73.4393326 141.8976 73.4393326 124.1616 84.3898492 113.2221 95.3403659 102.2826 113.094227 102.2826 124.044744 113.2221 134.99526 124.1616 134.99526 141.8976 124.044744 152.8371zM219.439314 135.2274L220.596979 136.1814"/>
      <path stroke="#00C8FF" stroke-dasharray="2.919 2.919" stroke-width="2.25" d="M222.852247,138.0384 L302.870749,203.9739"/>
      <path stroke="#00C8FF" stroke-width="2.25" d="M303.997633 204.9027L305.155297 205.8567M305.155147 64.59705L303.997482 65.55255"/>
      <path stroke="#00C8FF" stroke-dasharray="2.919 2.919" stroke-width="2.25" d="M301.743115,67.40955 L221.724613,133.34355"/>
      <path stroke="#00C8FF" stroke-width="2.25" d="M220.597729 134.27235L219.440065 135.22785M219.439314 135.2274L220.940824 135.2274"/>
      <path stroke="#00C8FF" stroke-dasharray="3.051 3.051" stroke-width="2.25" d="M223.995948,135.2274 L356.870625,135.2274"/>
      <path stroke="#00C8FF" stroke-width="2.25" d="M358.397961,135.2274 L359.899472,135.2274"/>
      <path fill="#DCFAFF" d="M262.297681,135.2274 C262.297681,111.5799 243.109877,92.4114 219.440065,92.4114 C195.770252,92.4114 176.582448,111.5799 176.582448,135.2274 C176.582448,158.8734 195.770252,178.0419 219.440065,178.0419 C243.109877,178.0419 262.297681,158.8734 262.297681,135.2274"/>
      <path stroke="#00C8FF" stroke-width="2.25" d="M262.297681,135.2274 C262.297681,111.5799 243.109877,92.4114 219.440065,92.4114 C195.770252,92.4114 176.582448,111.5799 176.582448,135.2274 C176.582448,158.8734 195.770252,178.0419 219.440065,178.0419 C243.109877,178.0419 262.297681,158.8734 262.297681,135.2274 Z"/>
      <polyline stroke="#00C8FF" stroke-width="2.25" points="306.848 142.921 314.549 135.227 306.848 127.532"/>
      <polyline stroke="#00C8FF" stroke-width="2.25" points="276.148 99.381 276.148 88.5 265.256 88.5"/>
      <polyline stroke="#00C8FF" stroke-width="2.25" points="262.559 179.732 273.451 179.732 273.451 168.851"/>
      <polygon fill="#DCFAFF" points="315.178 56.476 299.532 53.641 343.441 25.885"/>
      <polygon stroke="#00C8FF" stroke-linejoin="bevel" stroke-width="2.25" points="315.178 56.476 299.532 53.641 343.441 25.885"/>
      <polygon fill="#DCFAFF" points="343.442 25.886 315.179 56.477 330.583 70.679"/>
      <polygon stroke="#00C8FF" stroke-linejoin="bevel" stroke-width="2.25" points="343.442 25.886 315.179 56.477 330.583 70.679"/>
      <polygon fill="#DCFAFF" points="375.759 131.293 366.701 118.237 417.396 129.628"/>
      <polygon stroke="#00C8FF" stroke-linejoin="bevel" stroke-width="2.25" points="375.759 131.293 366.701 118.237 417.396 129.628"/>
      <polygon fill="#DCFAFF" points="417.396 129.627 375.759 131.292 376.599 152.219"/>
      <polygon stroke="#00C8FF" stroke-linejoin="bevel" stroke-width="2.25" points="417.396 129.627 375.759 131.292 376.599 152.219"/>
      <polygon fill="#DCFAFF" points="319.865 209.751 322.701 194.121 350.486 237.986"/>
      <polygon stroke="#00C8FF" stroke-linejoin="bevel" stroke-width="2.25" points="319.865 209.751 322.701 194.121 350.486 237.986"/>
      <polygon fill="#DCFAFF" points="350.486 237.986 319.864 209.752 305.646 225.142"/>
      <polygon stroke="#00C8FF" stroke-linejoin="bevel" stroke-width="2.25" points="350.486 237.986 319.864 209.752 305.646 225.142"/>
      <polyline stroke="#00C8FF" stroke-width="2.25" points="160.24 143.804 167.121 136.931 160.364 130.181"/>
      <g transform="translate(141.142 135)">
        <path fill="#DCFAFF" d="M34.9874486,1.9881 L1.42268127,1.9881"/>
        <path stroke="#00C8FF" stroke-width="2.25" d="M34.9874486,1.9881 L1.42268127,1.9881"/>
      </g>
      <path stroke="#00C8FF" stroke-width="2.25"/>
      <path fill="#DCFAFF" d="M403.579616,41.0175 L403.579616,37.5315 C410.668247,34.737 415.692302,27.8505 415.692302,19.776 C415.692302,9.2295 407.135193,0.6795 396.578072,0.6795 C386.020951,0.6795 377.462341,9.2295 377.462341,19.776 C377.462341,27.8505 382.486395,34.737 389.575027,37.5315 L389.575027,41.0175 C374.666528,44.2275 363.490785,57.468 363.490785,73.3215 L429.663857,73.3215 C429.663857,57.468 418.488114,44.2275 403.579616,41.0175"/>
      <path stroke="#00C8FF" stroke-width="2.25" d="M403.579616,41.0175 L403.579616,37.5315 C410.668247,34.737 415.692302,27.8505 415.692302,19.776 C415.692302,9.2295 407.135193,0.6795 396.578072,0.6795 C386.020951,0.6795 377.462341,9.2295 377.462341,19.776 C377.462341,27.8505 382.486395,34.737 389.575027,37.5315 L389.575027,41.0175 C374.666528,44.2275 363.490785,57.468 363.490785,73.3215 L429.663857,73.3215 C429.663857,57.468 418.488114,44.2275 403.579616,41.0175 Z"/>
      <g transform="translate(388.891 40.5)">
        <path fill="#DCFAFF" d="M0.68438852,0.5175 C4.55528278,4.383 10.8180834,4.383 14.6889776,0.5175"/>
        <path stroke="#00C8FF" stroke-width="2.25" d="M0.68438852,0.5175 C4.55528278,4.383 10.8180834,4.383 14.6889776,0.5175"/>
      </g>
      <g transform="translate(387.39 22.5)">
        <path fill="#DCFAFF" d="M1.49310211,0.2625 C1.49310211,4.8945 5.24537704,8.643 9.88054018,8.643"/>
        <path stroke="#00C8FF" stroke-width="2.25" d="M1.49310211,0.2625 C1.49310211,4.8945 5.24537704,8.643 9.88054018,8.643"/>
      </g>
      <g transform="translate(387.39 12)">
        <path fill="#DCFAFF" d="M1.49310211,1.263 L1.49310211,5.388"/>
        <path stroke="#00C8FF" stroke-width="2.25" d="M1.49310211,1.263 L1.49310211,5.388"/>
      </g>
      <g transform="translate(402.405 12)">
        <path fill="#DCFAFF" d="M1.86847976,1.263 L1.86847976,5.388"/>
        <path stroke="#00C8FF" stroke-width="2.25" d="M1.86847976,1.263 L1.86847976,5.388"/>
      </g>
      <path fill="#DCFAFF" d="M403.579616,220.06965 L403.579616,216.58365 C410.668247,213.79065 415.692302,206.90265 415.692302,198.82815 C415.692302,188.28165 407.135193,179.73165 396.578072,179.73165 C386.020951,179.73165 377.462341,188.28165 377.462341,198.82815 C377.462341,206.90265 382.486395,213.79065 389.575027,216.58365 L389.575027,220.06965 C374.666528,223.28115 363.490785,236.52165 363.490785,252.37515 L429.663857,252.37515 C429.663857,236.52165 418.488114,223.28115 403.579616,220.06965"/>
      <path stroke="#00C8FF" stroke-width="2.25" d="M403.579616,220.06965 L403.579616,216.58365 C410.668247,213.79065 415.692302,206.90265 415.692302,198.82815 C415.692302,188.28165 407.135193,179.73165 396.578072,179.73165 C386.020951,179.73165 377.462341,188.28165 377.462341,198.82815 C377.462341,206.90265 382.486395,213.79065 389.575027,216.58365 L389.575027,220.06965 C374.666528,223.28115 363.490785,236.52165 363.490785,252.37515 L429.663857,252.37515 C429.663857,236.52165 418.488114,223.28115 403.579616,220.06965 Z"/>
      <g transform="translate(388.891 219)">
        <path fill="#DCFAFF" d="M0.68438852,1.06965 C4.55528278,4.93665 10.8180834,4.93665 14.6889776,1.06965"/>
        <path stroke="#00C8FF" stroke-width="2.25" d="M0.68438852,1.06965 C4.55528278,4.93665 10.8180834,4.93665 14.6889776,1.06965"/>
      </g>
      <g transform="translate(387.39 201)">
        <path fill="#DCFAFF" d="M1.49310211,0.8148 C1.49310211,5.4468 5.24537704,9.1953 9.88054018,9.1953"/>
        <path stroke="#00C8FF" stroke-width="2.25" d="M1.49310211,0.8148 C1.49310211,5.4468 5.24537704,9.1953 9.88054018,9.1953"/>
      </g>
      <g transform="translate(387.39 192)">
        <path fill="#DCFAFF" d="M1.49310211,0.3153 L1.49310211,4.4403"/>
        <path stroke="#00C8FF" stroke-width="2.25" d="M1.49310211,0.3153 L1.49310211,4.4403"/>
      </g>
      <g transform="translate(402.405 192)">
        <path fill="#DCFAFF" d="M1.86847976,0.3153 L1.86847976,4.4403"/>
        <path stroke="#00C8FF" stroke-width="2.25" d="M1.86847976,0.3153 L1.86847976,4.4403"/>
      </g>
      <path fill="#DCFAFF" d="M469.752388,133.64385 L469.752388,130.15785 C476.842521,127.36335 481.866575,120.47685 481.866575,112.40235 C481.866575,101.85585 473.307965,93.30435 462.750844,93.30435 C452.193723,93.30435 443.635113,101.85585 443.635113,112.40235 C443.635113,120.47685 448.659167,127.36335 455.7493,130.15785 L455.7493,133.64385 C440.8393,136.85385 429.663557,150.09435 429.663557,165.94785 L495.838131,165.94785 C495.838131,150.09435 484.662388,136.85385 469.752388,133.64385"/>
      <path stroke="#00C8FF" stroke-width="2.25" d="M469.752388,133.64385 L469.752388,130.15785 C476.842521,127.36335 481.866575,120.47685 481.866575,112.40235 C481.866575,101.85585 473.307965,93.30435 462.750844,93.30435 C452.193723,93.30435 443.635113,101.85585 443.635113,112.40235 C443.635113,120.47685 448.659167,127.36335 455.7493,130.15785 L455.7493,133.64385 C440.8393,136.85385 429.663557,150.09435 429.663557,165.94785 L495.838131,165.94785 C495.838131,150.09435 484.662388,136.85385 469.752388,133.64385 Z"/>
      <g transform="translate(454.958 133.5)">
        <path fill="#DCFAFF" d="M0.791446224,0.14385 C4.66234048,4.00935 10.9251411,4.00935 14.7945338,0.14385"/>
        <path stroke="#00C8FF" stroke-width="2.25" d="M0.791446224,0.14385 C4.66234048,4.00935 10.9251411,4.00935 14.7945338,0.14385"/>
      </g>
      <g transform="translate(454.958 114)">
        <path fill="#DCFAFF" d="M0.0978984894,1.389 C0.0978984894,6.021 3.85017341,9.7695 8.48683807,9.7695"/>
        <path stroke="#00C8FF" stroke-width="2.25" d="M0.0978984894,1.389 C0.0978984894,6.021 3.85017341,9.7695 8.48683807,9.7695"/>
      </g>
      <g transform="translate(453.456 105)">
        <path fill="#DCFAFF" d="M1.59940906,0.888 L1.59940906,5.013"/>
        <path stroke="#00C8FF" stroke-width="2.25" d="M1.59940906,0.888 L1.59940906,5.013"/>
      </g>
      <g transform="translate(468.471 105)">
        <path fill="#DCFAFF" d="M1.97478671,0.888 L1.97478671,5.013"/>
        <path stroke="#00C8FF" stroke-width="2.25" d="M1.97478671,0.888 L1.97478671,5.013"/>
      </g>
      <path stroke="#FF7D7D" stroke-width="2.25" d="M25.8683245,56.98575 C31.9074,55.81125 35.7557716,59.72925 34.465974,65.73975 C33.4329347,70.54725 28.6791523,75.20475 23.8472912,76.14525 C19.982403,76.89675 17.5184242,74.39025 18.3457565,70.54275 C19.0064211,67.46625 22.0499831,64.48425 25.1415934,63.88425 C27.6145813,63.40125 29.1911674,65.00775 28.6626356,67.46775 C28.2392097,69.43875 26.2917505,71.34525 24.3127595,71.73075"/>
      <path fill="#FFCFCF" d="M70.5127384,99.23475 C68.9091251,99.71325 66.770974,97.29825 65.7379347,93.84075 C64.7048955,90.38475 65.1673607,87.19425 66.770974,86.71575 C68.3745873,86.23725 70.5127384,88.65225 71.5457776,92.10975 C72.5788169,95.56725 72.1163517,98.75775 70.5127384,99.23475 M51.4600707,104.91825 C49.8564574,105.39525 47.7183063,102.98175 46.6852671,99.52425 C45.6522278,96.06825 46.1146931,92.87775 47.7183063,92.39775 C49.3219196,91.92075 51.4600707,94.33425 52.49311,97.79175 C53.5261492,101.24925 53.063684,104.43975 51.4600707,104.91825 M81.6659589,91.01025 C78.0172882,78.80325 65.1538471,71.86275 52.9345541,75.50775 C40.715261,79.15125 33.7677716,92.00175 37.4164423,104.20725 C39.5981372,111.50775 47.6086961,114.06675 54.4495782,114.72075 C54.4300586,115.25025 54.4736024,115.78725 54.6327625,116.32275 C55.4210556,118.95825 58.2003517,120.45825 60.8400073,119.67225 C61.7153879,119.40975 62.4496266,118.91625 63.0322127,118.29675 C63.859545,118.49625 64.7454363,118.50825 65.6208169,118.24575 C66.4946961,117.98475 67.2289347,117.49125 67.8115208,116.87025 C68.6403547,117.07125 69.5247444,117.08025 70.4001251,116.82075 C73.0397807,116.03175 74.5412912,113.25675 73.7529982,110.61975 C73.5998441,110.10525 73.3520949,109.64925 73.0623033,109.23075 C78.4677414,104.93925 83.8641704,98.36625 81.6659589,91.01025"/>
      <path stroke="#FF7D7D" stroke-width="2.25" d="M70.5127384 99.23475C68.9091251 99.71325 66.770974 97.29825 65.7379347 93.84075 64.7048955 90.38475 65.1673607 87.19425 66.770974 86.71575 68.3745873 86.23725 70.5127384 88.65225 71.5457776 92.10975 72.5788169 95.56725 72.1163517 98.75775 70.5127384 99.23475zM51.4600707 104.91825C49.8564574 105.39525 47.7183063 102.98175 46.6852671 99.52425 45.6522278 96.06825 46.1146931 92.87775 47.7183063 92.39775 49.3219196 91.92075 51.4600707 94.33425 52.49311 97.79175 53.5261492 101.24925 53.063684 104.43975 51.4600707 104.91825zM81.6659589 91.01025C78.0172882 78.80325 65.1538471 71.86275 52.9345541 75.50775 40.715261 79.15125 33.7677716 92.00175 37.4164423 104.20725 39.5981372 111.50775 47.6086961 114.06675 54.4495782 114.72075 54.4300586 115.25025 54.4736024 115.78725 54.6327625 116.32275 55.4210556 118.95825 58.2003517 120.45825 60.8400073 119.67225 61.7153879 119.40975 62.4496266 118.91625 63.0322127 118.29675 63.859545 118.49625 64.7454363 118.50825 65.6208169 118.24575 66.4946961 117.98475 67.2289347 117.49125 67.8115208 116.87025 68.6403547 117.07125 69.5247444 117.08025 70.4001251 116.82075 73.0397807 116.03175 74.5412912 113.25675 73.7529982 110.61975 73.5998441 110.10525 73.3520949 109.64925 73.0623033 109.23075 78.4677414 104.93925 83.8641704 98.36625 81.6659589 91.01025zM64.5469366 81.6288L61.4913625 87.2793M52.2393547 90.0384L46.5831644 86.9874M70.2508749 63.64335L72.6532918 47.62785M29.3281051 90.7401L13.7484314 85.3941"/>
      <polyline stroke="#FF7D7D" stroke-width="2.25" points="51.608 67.54 46.06 57.887 54.324 58.25 46.656 46.237"/>
      <path fill="#FFCFCF" d="M123.105098,77.574 C121.435418,77.4525 120.295772,74.436 120.558536,70.839 C120.821301,67.239 122.385875,64.4205 124.055554,64.542 C125.725234,64.665 126.864881,67.68 126.603618,71.2785 C126.340853,74.877 124.774778,77.6955 123.105098,77.574 M103.273147,76.1295 C101.604968,76.008 100.46382,72.9915 100.726585,69.3945 C100.989349,65.7945 102.555424,62.9775 104.225104,63.099 C105.894784,63.2205 107.034431,66.2355 106.771666,69.834 C106.508902,73.4325 104.942826,76.251 103.273147,76.1295 M136.455029,73.8405 C137.381461,61.134 127.822844,50.0835 115.103548,49.158 C102.385754,48.231 91.3226239,57.7815 90.3961918,70.485 C89.8421344,78.084 96.4217538,83.316 102.583953,86.355 C102.379748,86.8425 102.228095,87.3585 102.187554,87.918 C101.987853,90.6615 104.052431,93.048 106.800195,93.249 C107.711612,93.315 108.571977,93.114 109.337748,92.7405 C110.041956,93.222 110.864784,93.5445 111.776201,93.6105 C112.686116,93.6765 113.547983,93.477 114.313754,93.1035 C115.016461,93.5835 115.839289,93.9075 116.750705,93.975 C119.49847,94.173 121.888875,92.1105 122.088576,89.3655 C122.127615,88.8315 122.058545,88.317 121.936923,87.8235 C128.515041,85.728 135.896467,81.4965 136.455029,73.8405"/>
      <path stroke="#FF7D7D" stroke-width="2.25" d="M123.105098 77.574C121.435418 77.4525 120.295772 74.436 120.558536 70.839 120.821301 67.239 122.385875 64.4205 124.055554 64.542 125.725234 64.665 126.864881 67.68 126.603618 71.2785 126.340853 74.877 124.774778 77.6955 123.105098 77.574zM103.273147 76.1295C101.604968 76.008 100.46382 72.9915 100.726585 69.3945 100.989349 65.7945 102.555424 62.9775 104.225104 63.099 105.894784 63.2205 107.034431 66.2355 106.771666 69.834 106.508902 73.4325 104.942826 76.251 103.273147 76.1295zM136.455029 73.8405C137.381461 61.134 127.822844 50.0835 115.103548 49.158 102.385754 48.231 91.3226239 57.7815 90.3961918 70.485 89.8421344 78.084 96.4217538 83.316 102.583953 86.355 102.379748 86.8425 102.228095 87.3585 102.187554 87.918 101.987853 90.6615 104.052431 93.048 106.800195 93.249 107.711612 93.315 108.571977 93.114 109.337748 92.7405 110.041956 93.222 110.864784 93.5445 111.776201 93.6105 112.686116 93.6765 113.547983 93.477 114.313754 93.1035 115.016461 93.5835 115.839289 93.9075 116.750705 93.975 119.49847 94.173 121.888875 92.1105 122.088576 89.3655 122.127615 88.8315 122.058545 88.317 121.936923 87.8235 128.515041 85.728 135.896467 81.4965 136.455029 73.8405zM127.1823 62.26065L118.920989 63.19815M109.289399 62.49645L101.540103 60.39795"/>
      <polyline stroke="#FF7D7D" stroke-width="2.25" points="135.508 44.206 143.445 30.088 133.918 31.554"/>
      <path stroke="#FF7D7D" stroke-width="2.25" d="M106.197038,42.43545 L93.5317964,31.91145"/>
      <polyline stroke="#FF7D7D" stroke-width="2.25" points="116.695 41.24 114.938 30.248 122.536 33.518 119.635 19.568 130.212 20.9"/>
      <path fill="#FFCFCF" d="M47.7957843,158.8392 C48.5480411,157.3467 51.7732858,157.4502 54.9985305,159.0717 C58.2252767,160.6932 60.2312949,163.2192 59.4775366,164.7132 C58.7252798,166.2057 55.5015366,166.1022 52.2747903,164.4807 L47.7957843,158.8392 Z M46.0615396,176.8152 C49.2882858,178.4367 51.2928024,180.9627 50.5405456,182.4567 C49.7882888,183.9492 46.5630441,183.8457 43.3377994,182.2242 C40.1110532,180.6027 38.105035,178.0767 38.8572918,176.5842 L46.0615396,176.8152 Z M61.1442133,150.9642 C49.7522526,145.2387 35.8707873,149.8212 30.1395215,161.2017 C24.4067541,172.5807 28.9953704,186.4482 40.3858296,192.1752 C47.1981831,195.5982 54.5570864,191.5332 59.7297903,187.0122 C60.102165,187.3887 60.5225879,187.7262 61.0225909,187.9782 C63.4820653,189.2142 66.4820834,188.2242 67.7208296,185.7657 C68.130742,184.9512 68.274887,184.0782 68.2223341,183.2292 C68.9370532,182.7642 69.551171,182.1282 69.9625849,181.3137 C70.3724973,180.4992 70.5166423,179.6262 70.4655909,178.7772 C71.1788085,178.3122 71.7944278,177.6777 72.2043402,176.8632 C73.4430864,174.4047 72.4520894,171.4077 69.9911136,170.1717 C69.5106302,169.9302 69.0091257,169.7982 68.5061196,169.7202 C69.0902073,162.8472 68.0091196,154.4157 61.1442133,150.9642 Z"/>
      <path stroke="#FF7D7D" stroke-width="2.25" d="M47.7957843,158.8392 C48.5480411,157.3467 51.7732858,157.4502 54.9985305,159.0717 C58.2252767,160.6932 60.2312949,163.2192 59.4775366,164.7132 C58.7252798,166.2057 55.5015366,166.1022 52.2747903,164.4807 L47.7957843,158.8392 Z M46.0615396,176.8152 C49.2882858,178.4367 51.2928024,180.9627 50.5405456,182.4567 C49.7882888,183.9492 46.5630441,183.8457 43.3377994,182.2242 C40.1110532,180.6027 38.105035,178.0767 38.8572918,176.5842 L46.0615396,176.8152 Z M61.1442133,150.9642 C49.7522526,145.2387 35.8707873,149.8212 30.1395215,161.2017 C24.4067541,172.5807 28.9953704,186.4482 40.3858296,192.1752 C47.1981831,195.5982 54.5570864,191.5332 59.7297903,187.0122 C60.102165,187.3887 60.5225879,187.7262 61.0225909,187.9782 C63.4820653,189.2142 66.4820834,188.2242 67.7208296,185.7657 C68.130742,184.9512 68.274887,184.0782 68.2223341,183.2292 C68.9370532,182.7642 69.551171,182.1282 69.9625849,181.3137 C70.3724973,180.4992 70.5166423,179.6262 70.4655909,178.7772 C71.1788085,178.3122 71.7944278,177.6777 72.2043402,176.8632 C73.4430864,174.4047 72.4520894,171.4077 69.9911136,170.1717 C69.5106302,169.9302 69.0091257,169.7982 68.5061196,169.7202 C69.0902073,162.8472 68.0091196,154.4157 61.1442133,150.9642 Z"/>
      <polyline stroke="#FF7D7D" stroke-width="2.25" points="33.25 148.086 23.239 135.349 20.944 144.702"/>
      <polyline stroke="#FF7D7D" stroke-width="2.25" points="38.105 128.636 36.765 144.774 44.819 139.482"/>
      <path stroke="#FF7D7D" stroke-width="2.25" d="M20.5104843 166.8432L5.92631208 174.4947M16.4751746 161.58735L.150751662 159.37335"/>
      <polyline stroke="#FF7D7D" stroke-width="2.25" points="23.428 156.698 15.741 155.688 20.889 149.537 10.861 148.865 15.984 139.535"/>
    </g>
  </g>
</svg>
