<svg xmlns="http://www.w3.org/2000/svg" width="230" height="222" viewBox="0 0 230 222">
    <g fill="none" fill-rule="evenodd">
        <path fill="#DCFAFF" d="M101.39 19.533l-11.66-5.056L128.959.85z"/>
        <path stroke="#00C8FF" stroke-linejoin="bevel" stroke-width="1.8" d="M101.39 19.533l-11.66-5.056L128.959.85z"/>
        <path fill="#DCFAFF" d="M128.959.85l-27.57 18.683 9.4 13.868z"/>
        <path stroke="#00C8FF" stroke-linejoin="bevel" stroke-width="1.8" d="M128.959.85l-27.57 18.683 9.4 13.868z"/>
        <path fill="#DCFAFF" d="M139.876 35.58l-9.498-8.441 41.52-.702z"/>
        <path stroke="#00C8FF" stroke-linejoin="bevel" stroke-width="1.8" d="M139.876 35.58l-9.498-8.441 41.52-.702z"/>
        <path fill="#DCFAFF" d="M171.898 26.437l-32.023 9.144 4.6 16.11z"/>
        <path stroke="#00C8FF" stroke-linejoin="bevel" stroke-width="1.8" d="M171.898 26.437l-32.023 9.144 4.6 16.11z"/>
        <path fill="#DCFAFF" d="M120.21 70.79l-4.791-11.77 37.557 17.717z"/>
        <path stroke="#00C8FF" stroke-linejoin="bevel" stroke-width="1.8" d="M120.21 70.79l-4.791-11.77 37.557 17.717z"/>
        <path fill="#DCFAFF" d="M152.976 76.737L120.21 70.79l-2.993 16.485z"/>
        <path stroke="#00C8FF" stroke-linejoin="bevel" stroke-width="1.8" d="M152.976 76.737L120.21 70.79l-2.993 16.485z"/>
        <path fill="#DCFAFF" d="M44.452 84.908l11.564 15.254a7.63 7.63 0 0 0 10.573 1.558 1.908 1.908 0 0 0 .386-2.709L55.827 84.597"/>
        <path stroke="#00C8FF" stroke-width="1.926" d="M44.452 84.908l11.564 15.254a7.63 7.63 0 0 0 10.573 1.558 1.908 1.908 0 0 0 .386-2.709L55.827 84.597"/>
        <path fill="#DCFAFF" d="M91.61 85.746l-58.227-.535-6.095-23.946 50.888-28.306a3.529 3.529 0 0 1 5.02 2.274l11.738 46.115a3.53 3.53 0 0 1-3.324 4.398"/>
        <path stroke="#00C8FF" stroke-width="1.8" d="M91.61 85.746l-58.227-.535-6.095-23.946 50.888-28.306a3.529 3.529 0 0 1 5.02 2.274l11.738 46.115a3.53 3.53 0 0 1-3.324 4.398z"/>
        <path fill="#DCFAFF" d="M87.16 50.81l3.894 15.297a7.317 7.317 0 0 0 5.285-8.896l-.283-1.116a7.318 7.318 0 0 0-8.896-5.286"/>
        <path stroke="#00C8FF" stroke-width="1.8" d="M87.16 50.81l3.894 15.297a7.317 7.317 0 0 0 5.285-8.896l-.283-1.116a7.318 7.318 0 0 0-8.896-5.286z"/>
        <path fill="#DCFAFF" d="M27.289 61.265a7.53 7.53 0 0 0-5.44 9.153l2.38 9.353a7.53 7.53 0 0 0 9.154 5.44l-6.094-23.946z"/>
        <path stroke="#00C8FF" stroke-width="1.926" d="M27.289 61.265a7.53 7.53 0 0 0-5.44 9.153l2.38 9.353a7.53 7.53 0 0 0 9.154 5.44l-6.094-23.946z"/>
        <path fill="#CAFFF5" d="M205.286 106.49h-25.015a6.293 6.293 0 0 1-6.293-6.293V75.183a6.292 6.292 0 0 1 6.293-6.293h25.015a6.292 6.292 0 0 1 6.293 6.293v25.014a6.293 6.293 0 0 1-6.293 6.293"/>
        <path stroke="#5DD8C1" stroke-width="1.8" d="M205.286 106.49h-25.015a6.293 6.293 0 0 1-6.293-6.293V75.183a6.292 6.292 0 0 1 6.293-6.293h25.015a6.292 6.292 0 0 1 6.293 6.293v25.014a6.293 6.293 0 0 1-6.293 6.293z"/>
        <path fill="#CAFFF5" d="M183.126 86.78l7.042 7.04 12.264-12.262"/>
        <path stroke="#5DD8C1" stroke-width="1.8" d="M183.126 86.78l7.042 7.04 12.264-12.262"/>
        <path fill="#DCFAFF" d="M197.674 211.297H165.28a6.403 6.403 0 0 1-6.403-6.403v-19.327a6.402 6.402 0 0 1 6.403-6.403h32.394a6.403 6.403 0 0 1 6.403 6.403v19.327a6.404 6.404 0 0 1-6.403 6.403"/>
        <path stroke="#00C8FF" stroke-width="1.8" d="M197.674 211.297H165.28a6.403 6.403 0 0 1-6.403-6.403v-19.327a6.402 6.402 0 0 1 6.403-6.403h32.394a6.403 6.403 0 0 1 6.403 6.403v19.327a6.404 6.404 0 0 1-6.403 6.403z"/>
        <path fill="#DCFAFF" d="M158.877 184.963l22.6 12.7 22.6-12.7"/>
        <path stroke="#00C8FF" stroke-width="1.8" d="M158.877 184.963l22.6 12.7 22.6-12.7"/>
        <path fill="#DCFAFF" d="M187.474 197.684H155.08a6.403 6.403 0 0 1-6.403-6.403v-19.327a6.403 6.403 0 0 1 6.403-6.405h32.394a6.404 6.404 0 0 1 6.403 6.405v19.327a6.404 6.404 0 0 1-6.403 6.403"/>
        <path stroke="#00C8FF" stroke-width="1.8" d="M187.474 197.684H155.08a6.403 6.403 0 0 1-6.403-6.403v-19.327a6.403 6.403 0 0 1 6.403-6.405h32.394a6.404 6.404 0 0 1 6.403 6.405v19.327a6.404 6.404 0 0 1-6.403 6.403z"/>
        <path fill="#DCFAFF" d="M148.677 171.35l22.6 12.7 22.6-12.7"/>
        <path stroke="#00C8FF" stroke-width="1.8" d="M148.677 171.35l22.6 12.7 22.6-12.7"/>
        <path fill="#DCFAFF" d="M199.905 133.78V93.566l27.108 27.108h-17.352z"/>
        <path stroke="#00C8FF" stroke-width="1.8" d="M199.905 133.78V93.566l27.108 27.108h-17.352z"/>
        <path fill="#DCFAFF" d="M54.218 135.69c0-6.727-5.454-12.18-12.182-12.18-6.727 0-12.18 5.453-12.18 12.18 0 6.728 5.453 12.18 12.18 12.18 6.728 0 12.182-5.452 12.182-12.18M42.036 116.8c11.106 0 20.111 9.003 20.111 20.11 0 0 .57 16.088-20.11 30.31-20.681-14.222-20.111-30.31-20.111-30.31 0-11.107 9.004-20.11 20.11-20.11"/>
        <path stroke="#00C8FF" stroke-width="1.8" d="M54.218 135.69c0-6.727-5.454-12.18-12.182-12.18-6.727 0-12.18 5.453-12.18 12.18 0 6.728 5.453 12.18 12.18 12.18 6.728 0 12.182-5.452 12.182-12.18zM42.036 116.8c11.106 0 20.111 9.003 20.111 20.11 0 0 .57 16.088-20.11 30.31-20.681-14.222-20.111-30.31-20.111-30.31 0-11.107 9.004-20.11 20.11-20.11z"/>
        <path fill="#DCFAFF" d="M49.285 181.175a7.249 7.249 0 1 0-14.498 0 7.249 7.249 0 0 0 14.498 0"/>
        <path stroke="#00C8FF" stroke-width="1.8" d="M49.285 181.175a7.249 7.249 0 1 0-14.498 0 7.249 7.249 0 0 0 14.498 0z"/>
        <path fill="#DCFAFF" d="M82.058 213.145a7.249 7.249 0 1 0-14.497 0 7.249 7.249 0 1 0 14.497 0"/>
        <path stroke="#00C8FF" stroke-width="1.8" d="M82.058 213.145a7.249 7.249 0 1 0-14.497 0 7.249 7.249 0 1 0 14.497 0z"/>
        <path fill="#DCFAFF" d="M15.398 213.145a7.25 7.25 0 1 0-14.5.002 7.25 7.25 0 0 0 14.5-.002"/>
        <path stroke="#00C8FF" stroke-width="1.8" d="M15.398 213.145a7.25 7.25 0 1 0-14.5.002 7.25 7.25 0 0 0 14.5-.002z"/>
        <path fill="#DCFAFF" d="M115.459 181.175a7.25 7.25 0 1 0-14.5.001 7.25 7.25 0 0 0 14.5-.001"/>
        <path stroke="#00C8FF" stroke-width="1.8" d="M115.459 181.175a7.25 7.25 0 1 0-14.5.001 7.25 7.25 0 0 0 14.5-.001z"/>
        <path fill="#DCFAFF" d="M46.883 186.556l22.592 22.592"/>
        <path stroke="#00C8FF" stroke-width="1.8" d="M46.883 186.556l22.592 22.592"/>
        <path fill="#DCFAFF" d="M102.922 185.859L80.329 208.45"/>
        <path stroke="#00C8FF" stroke-width="1.8" d="M102.922 185.859L80.329 208.45"/>
        <path fill="#DCFAFF" d="M36.611 185.859L14.02 208.45"/>
        <path stroke="#00C8FF" stroke-width="1.8" d="M36.611 185.859L14.02 208.45M108.21 168.744v-20.82"/>
        <path fill="#DCFAFF" d="M108.332 136.094l15.54 5.872-15.663 5.958z"/>
        <path stroke="#00C8FF" stroke-width="1.8" d="M108.332 136.094l15.54 5.872-15.663 5.958z"/>
        <path fill="#DCFAFF" d="M178.146 184.811h-32.394a6.404 6.404 0 0 1-6.404-6.403v-19.327a6.404 6.404 0 0 1 6.404-6.405h32.394a6.404 6.404 0 0 1 6.403 6.405v19.327a6.404 6.404 0 0 1-6.403 6.403"/>
        <path stroke="#00C8FF" stroke-width="1.8" d="M178.146 184.811h-32.394a6.404 6.404 0 0 1-6.404-6.403v-19.327a6.404 6.404 0 0 1 6.404-6.405h32.394a6.404 6.404 0 0 1 6.403 6.405v19.327a6.404 6.404 0 0 1-6.403 6.403z"/>
        <g>
            <path fill="#DCFAFF" d="M139.348 158.477l22.601 12.7 22.6-12.7"/>
            <path stroke="#00C8FF" stroke-width="1.8" d="M139.348 158.477l22.601 12.7 22.6-12.7"/>
        </g>
    </g>
</svg>
