<svg xmlns="http://www.w3.org/2000/svg" width="568" height="161" viewBox="0 0 568 161">
    <g fill="none" fill-rule="evenodd">
        <path fill="#CAFFF5" d="M533.98 60.138h-35.433c-4.922 0-8.913-3.996-8.913-8.926v-35.48c0-4.93 3.99-8.926 8.913-8.926h35.432c4.923 0 8.913 3.996 8.913 8.926v35.48c0 4.93-3.99 8.926-8.913 8.926"/>
        <path stroke="#5DD8C1" stroke-width="2.55" d="M533.98 60.138h-35.433c-4.922 0-8.913-3.996-8.913-8.926v-35.48c0-4.93 3.99-8.926 8.913-8.926h35.432c4.923 0 8.913 3.996 8.913 8.926v35.48c0 4.93-3.99 8.926-8.913 8.926z"/>
        <path fill="#CAFFF5" d="M502.591 32.18l9.974 9.989 17.37-17.395"/>
        <path stroke="#5DD8C1" stroke-width="2.55" d="M502.591 32.18l9.974 9.989 17.37-17.395"/>
        <path fill="#DCFAFF" d="M492.76 145.858h-45.882c-5.009 0-9.07-4.066-9.07-9.082V109.36c0-5.016 4.061-9.082 9.07-9.082h45.882c5.009 0 9.071 4.066 9.071 9.082v27.415c0 5.016-4.062 9.082-9.071 9.082"/>
        <path stroke="#00C8FF" stroke-width="2.55" d="M492.76 145.858h-45.882c-5.009 0-9.07-4.066-9.07-9.082V109.36c0-5.016 4.061-9.082 9.07-9.082h45.882c5.009 0 9.071 4.066 9.071 9.082v27.415c0 5.016-4.062 9.082-9.071 9.082z"/>
        <path fill="#DCFAFF" d="M437.808 108.505l32.01 18.013 32.013-18.013"/>
        <path stroke="#00C8FF" stroke-width="2.55" d="M437.808 108.505l32.01 18.013 32.013-18.013"/>
        <path fill="#DCFAFF" d="M478.312 126.549h-45.881c-5.01 0-9.07-4.066-9.07-9.083V90.052c0-5.016 4.06-9.083 9.07-9.083h45.881c5.01 0 9.072 4.067 9.072 9.083v27.414c0 5.017-4.063 9.083-9.072 9.083"/>
        <path stroke="#00C8FF" stroke-width="2.55" d="M478.312 126.549h-45.881c-5.01 0-9.07-4.066-9.07-9.083V90.052c0-5.016 4.06-9.083 9.07-9.083h45.881c5.01 0 9.072 4.067 9.072 9.083v27.414c0 5.017-4.063 9.083-9.072 9.083z"/>
        <path fill="#DCFAFF" d="M423.361 89.195l32.01 18.014 32.013-18.014"/>
        <path stroke="#00C8FF" stroke-width="2.55" d="M423.361 89.195l32.01 18.014 32.013-18.014"/>
        <path fill="#DCFAFF" d="M526.357 98.85V41.805l38.396 38.451h-24.577z"/>
        <path stroke="#00C8FF" stroke-width="2.55" d="M526.357 98.85V41.805l38.396 38.451h-24.577z"/>
        <path fill="#DCFAFF" d="M114.36 27.707l-16.515-7.172 55.563-19.329z"/>
        <path stroke="#00C8FF" stroke-linejoin="bevel" stroke-width="2.55" d="M114.36 27.707l-16.515-7.172 55.563-19.329z"/>
        <path fill="#DCFAFF" d="M153.407 1.206l-39.048 26.5 13.312 19.673z"/>
        <path stroke="#00C8FF" stroke-linejoin="bevel" stroke-width="2.55" d="M153.407 1.206l-39.048 26.5 13.312 19.673z"/>
        <path fill="#DCFAFF" d="M168.87 50.47l-13.452-11.976 58.813-.994z"/>
        <path stroke="#00C8FF" stroke-linejoin="bevel" stroke-width="2.55" d="M168.87 50.47l-13.452-11.976 58.813-.994z"/>
        <path fill="#DCFAFF" d="M214.23 37.5l-45.36 12.97 6.515 22.85z"/>
        <path stroke="#00C8FF" stroke-linejoin="bevel" stroke-width="2.55" d="M214.23 37.5l-45.36 12.97 6.515 22.85z"/>
        <path fill="#DCFAFF" d="M141.015 100.412l-6.785-16.696 53.197 25.133z"/>
        <path stroke="#00C8FF" stroke-linejoin="bevel" stroke-width="2.55" d="M141.015 100.412l-6.785-16.696 53.197 25.133z"/>
        <path fill="#DCFAFF" d="M187.426 108.849l-46.412-8.438-4.239 23.382z"/>
        <path stroke="#00C8FF" stroke-linejoin="bevel" stroke-width="2.55" d="M187.426 108.849l-46.412-8.438-4.239 23.382z"/>
        <path fill="#DCFAFF" d="M33.712 120.437l16.378 21.637c3.557 4.701 10.217 5.684 14.976 2.21a2.71 2.71 0 0 0 .547-3.842l-15.79-20.446"/>
        <path stroke="#00C8FF" stroke-width="2.728" d="M33.712 120.437l16.378 21.637c3.557 4.701 10.217 5.684 14.976 2.21a2.71 2.71 0 0 0 .547-3.842l-15.79-20.446"/>
        <path fill="#DCFAFF" d="M100.506 121.626l-82.473-.759L9.4 86.901l72.078-40.15c2.854-1.455 6.321.118 7.111 3.226l16.625 65.41c.789 3.11-1.504 6.152-4.708 6.24"/>
        <path stroke="#00C8FF" stroke-width="2.55" d="M100.506 121.626l-82.473-.759L9.4 86.901l72.078-40.15c2.854-1.455 6.321.118 7.111 3.226l16.625 65.41c.789 3.11-1.504 6.152-4.708 6.24z"/>
        <path fill="#DCFAFF" d="M94.203 72.07l5.516 21.698c5.546-1.413 8.898-7.062 7.485-12.616l-.4-1.583c-1.413-5.554-7.053-8.913-12.6-7.498"/>
        <path stroke="#00C8FF" stroke-width="2.55" d="M94.203 72.07l5.516 21.698c5.546-1.413 8.898-7.062 7.485-12.616l-.4-1.583c-1.413-5.554-7.053-8.913-12.6-7.498z"/>
        <path fill="#DCFAFF" d="M9.401 86.901C3.693 88.355.243 94.17 1.696 99.885l3.37 13.266c1.454 5.716 7.259 9.172 12.966 7.716L9.401 86.901z"/>
        <path stroke="#00C8FF" stroke-width="2.728" d="M9.401 86.901C3.693 88.355.243 94.17 1.696 99.885l3.37 13.266c1.454 5.716 7.259 9.172 12.966 7.716L9.401 86.901z"/>
        <path fill="#DCFAFF" d="M289.566 38.614c0-9.542-7.723-17.276-17.252-17.276-9.528 0-17.253 7.734-17.253 17.276s7.725 17.277 17.253 17.277c9.529 0 17.252-7.735 17.252-17.277m-17.252-26.796c15.73 0 28.484 12.77 28.484 28.525 0 0 .807 22.82-28.484 42.993-29.292-20.174-28.485-42.993-28.485-42.993 0-15.754 12.754-28.525 28.485-28.525"/>
        <path stroke="#00C8FF" stroke-width="2.55" d="M289.566 38.614c0-9.542-7.723-17.276-17.252-17.276-9.528 0-17.253 7.734-17.253 17.276s7.725 17.277 17.253 17.277c9.529 0 17.252-7.735 17.252-17.277zm-17.252-26.796c15.73 0 28.484 12.77 28.484 28.525 0 0 .807 22.82-28.484 42.993-29.292-20.174-28.485-42.993-28.485-42.993 0-15.754 12.754-28.525 28.485-28.525z"/>
        <path fill="#DCFAFF" d="M282.581 103.131c0-5.678-4.596-10.282-10.268-10.282-5.67 0-10.266 4.604-10.266 10.282 0 5.679 4.596 10.283 10.266 10.283 5.672 0 10.268-4.604 10.268-10.283"/>
        <path stroke="#00C8FF" stroke-width="2.55" d="M282.581 103.131c0-5.678-4.596-10.282-10.268-10.282-5.67 0-10.266 4.604-10.266 10.282 0 5.679 4.596 10.283 10.266 10.283 5.672 0 10.268-4.604 10.268-10.283z"/>
        <path fill="#DCFAFF" d="M329.001 148.48c0-5.679-4.596-10.283-10.266-10.283-5.672 0-10.268 4.604-10.268 10.282 0 5.679 4.596 10.283 10.268 10.283 5.67 0 10.266-4.604 10.266-10.283"/>
        <path stroke="#00C8FF" stroke-width="2.55" d="M329.001 148.48c0-5.679-4.596-10.283-10.266-10.283-5.672 0-10.268 4.604-10.268 10.282 0 5.679 4.596 10.283 10.268 10.283 5.67 0 10.266-4.604 10.266-10.283z"/>
        <path fill="#DCFAFF" d="M234.583 148.48c0-5.679-4.598-10.283-10.268-10.283-5.67 0-10.268 4.604-10.268 10.282 0 5.679 4.598 10.283 10.268 10.283 5.67 0 10.268-4.604 10.268-10.283"/>
        <path stroke="#00C8FF" stroke-width="2.55" d="M234.583 148.48c0-5.679-4.598-10.283-10.268-10.283-5.67 0-10.268 4.604-10.268 10.282 0 5.679 4.598 10.283 10.268 10.283 5.67 0 10.268-4.604 10.268-10.283z"/>
        <path fill="#DCFAFF" d="M376.31 103.131c0-5.678-4.597-10.282-10.267-10.282-5.67 0-10.268 4.604-10.268 10.282 0 5.679 4.597 10.283 10.268 10.283 5.67 0 10.267-4.604 10.267-10.283"/>
        <path stroke="#00C8FF" stroke-width="2.55" d="M376.31 103.131c0-5.678-4.597-10.282-10.267-10.282-5.67 0-10.268 4.604-10.268 10.282 0 5.679 4.597 10.283 10.268 10.283 5.67 0 10.267-4.604 10.267-10.283z"/>
        <path fill="#DCFAFF" d="M279.179 110.763l32 32.046"/>
        <path stroke="#00C8FF" stroke-width="2.55" d="M279.179 110.763l32 32.046"/>
        <path fill="#DCFAFF" d="M358.553 109.776l-32 32.046"/>
        <path stroke="#00C8FF" stroke-width="2.55" d="M358.553 109.776l-32 32.046"/>
        <path fill="#DCFAFF" d="M264.63 109.776l-32 32.046"/>
        <path stroke="#00C8FF" stroke-width="2.55" d="M264.63 109.776l-32 32.046M366.043 85.5V55.966"/>
        <path fill="#DCFAFF" d="M366.217 39.187l22.01 8.328-22.185 8.451z"/>
        <path stroke="#00C8FF" stroke-width="2.55" d="M366.217 39.187l22.01 8.328-22.185 8.451z"/>
        <path fill="#DCFAFF" d="M465.1 108.29h-45.882c-5.009 0-9.07-4.067-9.07-9.083V71.792c0-5.018 4.061-9.082 9.07-9.082H465.1c5.009 0 9.071 4.064 9.071 9.082v27.415c0 5.016-4.062 9.082-9.071 9.082"/>
        <path stroke="#00C8FF" stroke-width="2.55" d="M465.1 108.29h-45.882c-5.009 0-9.07-4.067-9.07-9.083V71.792c0-5.018 4.061-9.082 9.07-9.082H465.1c5.009 0 9.071 4.064 9.071 9.082v27.415c0 5.016-4.062 9.082-9.071 9.082z"/>
        <g>
            <path fill="#DCFAFF" d="M410.148 70.935l32.01 18.014 32.013-18.014"/>
            <path stroke="#00C8FF" stroke-width="2.55" d="M410.148 70.935l32.01 18.014 32.013-18.014"/>
        </g>
    </g>
</svg>
