<svg xmlns="http://www.w3.org/2000/svg" xmlns:xlink="http://www.w3.org/1999/xlink" width="90" height="90" viewBox="0 0 90 90">
    <defs>
        <circle id="a" cx="45" cy="45" r="45"/>
    </defs>
    <g fill="none" fill-rule="evenodd">
        <mask id="b" fill="#fff">
            <use xlink:href="#a"/>
        </mask>
        <use fill="#00C8FF" fill-rule="nonzero" opacity=".1" xlink:href="#a"/>
        <g mask="url(#b)">
            <path fill="#DCFAFF" d="M52.984 52.98v-3.454c7.07-2.769 12.081-9.596 12.081-17.599C65.065 21.474 56.529 13 46.001 13c-10.53 0-19.067 8.474-19.067 18.927 0 8.003 5.012 14.83 12.082 17.599v3.455C24.146 56.164 13 69.287 13 85h66c0-15.713-11.147-28.836-26.016-32.02"/>
            <path stroke="#00C8FF" stroke-width="1.5" d="M52.984 52.98v-3.454c7.07-2.769 12.081-9.596 12.081-17.599C65.065 21.474 56.529 13 46.001 13c-10.53 0-19.067 8.474-19.067 18.927 0 8.003 5.012 14.83 12.082 17.599v3.455C24.146 56.164 13 69.287 13 85c14.778 9.667 25.779 14.5 33 14.5 7.445 0 18.445-4.833 33-14.5 0-15.713-11.147-28.836-26.016-32.02z"/>
            <path fill="#DCFAFF" d="M39.183 52.95c3.867 3.438 10.124 3.438 13.99 0"/>
            <path stroke="#00C8FF" stroke-width="1.5" d="M39.183 52.95c3.867 3.438 10.124 3.438 13.99 0"/>
            <path fill="#DCFAFF" d="M38.943 34.776a7.977 7.977 0 0 0 7.981 7.981"/>
            <path stroke="#00C8FF" stroke-width="1.5" d="M38.943 34.776a7.977 7.977 0 0 0 7.981 7.981"/>
            <g>
                <path fill="#DCFAFF" d="M37.99 25.28v3.667"/>
                <path stroke="#00C8FF" stroke-width="1.5" d="M37.99 25.28v3.667"/>
            </g>
            <g>
                <path fill="#DCFAFF" d="M53.365 25.28v3.667"/>
                <path stroke="#00C8FF" stroke-width="1.5" d="M53.365 25.28v3.667"/>
            </g>
        </g>
    </g>
</svg>
