<svg xmlns="http://www.w3.org/2000/svg" viewBox="0 0 230.41 178.21"><defs><style>.cls-1,.cls-3{fill:#dcfaff;}.cls-1,.cls-2,.cls-3,.cls-4{stroke:#00c8ff;}.cls-1,.cls-2,.cls-4,.cls-5{stroke-miterlimit:10;}.cls-1,.cls-2,.cls-3,.cls-4,.cls-5{stroke-width:1.5px;}.cls-2,.cls-4{fill:none;}.cls-3{stroke-linejoin:bevel;}.cls-4{stroke-dasharray:2;}.cls-5{fill:#cafff5;stroke:#5dd8c1;}</style></defs><title>securing</title><g id="Layer_2" data-name="Layer 2"><g id="Layer_1-2" data-name="Layer 1"><path class="cls-1" d="M223,86.93l6.49,1.4-1.27-6.52L210.72,64a2.14,2.14,0,0,0-3,0l-2.16,2.11a2.15,2.15,0,0,0,0,3Z"/><line class="cls-2" x1="226.6" y1="80.19" x2="221.38" y2="85.31"/><line class="cls-2" x1="212.17" y1="65.46" x2="206.95" y2="70.58"/><polygon class="cls-3" points="190.93 33.5 183.27 26.48 217.22 26.44 190.93 33.5"/><polygon class="cls-3" points="217.22 26.44 190.93 33.5 194.48 46.73 217.22 26.44"/><line class="cls-4" x1="200.5" y1="78.35" x2="134.86" y2="78.35"/><line class="cls-4" x1="100.06" y1="77.97" x2="34.39" y2="77.97"/><line class="cls-4" x1="184.96" y1="115.86" x2="129.76" y2="90.66"/><line class="cls-4" x1="105.42" y1="65.78" x2="50.2" y2="40.56"/><line class="cls-4" x1="117.45" y1="109.96" x2="117.45" y2="95.76"/><line class="cls-4" x1="117.83" y1="60.95" x2="117.83" y2="25.29"/><line class="cls-4" x1="49.93" y1="115.86" x2="105.14" y2="90.66"/><line class="cls-4" x1="130.02" y1="66.32" x2="185.23" y2="41.1"/><path class="cls-1" d="M215.3,99.84c-3,.29-4.23,2.66-2.79,5.28a7.1,7.1,0,0,0,6.4,3.38,2.12,2.12,0,0,0,1.79-3.38,4.56,4.56,0,0,0-4.1-2.16,1.36,1.36,0,0,0-1.14,2.16,2.93,2.93,0,0,0,2.62,1.39"/><path class="cls-1" d="M200.57,130.81a2.32,2.32,0,0,0-.13.75,2.43,2.43,0,0,0,2.43,2.43,2.39,2.39,0,0,0,1.21-.34,2.34,2.34,0,0,0,2.43,0,2.41,2.41,0,0,0,3.64-2.09,2.5,2.5,0,0,0-.13-.78c3.1-1.26,6.48-3.57,6.48-7.28a11.25,11.25,0,0,0-22.49,0C194,127.24,197.45,129.56,200.57,130.81Zm8-8.21c0-1.75.66-3.18,1.47-3.18s1.48,1.43,1.48,3.18-.66,3.19-1.48,3.19S208.57,124.36,208.57,122.6Zm-9.68,0c0-1.75.66-3.18,1.47-3.18s1.48,1.43,1.48,3.18-.66,3.19-1.48,3.19S198.89,124.36,198.89,122.6Z"/><line class="cls-1" x1="200.69" y1="116.73" x2="202.9" y2="118.95"/><line class="cls-1" x1="207.61" y1="118.95" x2="209.82" y2="116.73"/><line class="cls-1" x1="195.52" y1="109.13" x2="192.17" y2="101.98"/><line class="cls-1" x1="218.39" y1="116.08" x2="224.92" y2="111.42"/><polyline class="cls-1" points="204.76 108.35 206 103.07 202.2 104.39 204.1 97.71"/><path class="cls-1" d="M17.05,128.47H40.67a2.06,2.06,0,0,0,2.06-2.06V110a2.05,2.05,0,0,0-2.06-2H32.1A2.05,2.05,0,0,0,30,110h0A2.05,2.05,0,0,1,28,112H17.05A2.06,2.06,0,0,0,15,114.08v12.33A2.06,2.06,0,0,0,17.05,128.47Z"/><line class="cls-1" x1="42.73" y1="115.85" x2="14.99" y2="115.85"/><rect class="cls-1" x="102.75" y="0.75" width="29.41" height="20.91" rx="4.17" transform="translate(234.9 22.41) rotate(-180)"/><polyline class="cls-1" points="132.15 4.52 117.45 12.79 102.75 4.52"/><rect class="cls-1" x="30.78" y="15.94" width="16.52" height="26.92" rx="4.78" transform="translate(45.85 77.79) rotate(-135)"/><rect class="cls-1" x="34.2" y="19.72" width="10.98" height="18.04" rx="2.38" transform="translate(47.44 77.13) rotate(-135)"/><line class="cls-1" x1="32.86" y1="38.55" x2="29.88" y2="35.57"/><polygon class="cls-1" points="1.06 90.35 4.01 93.3 10.46 86.85 10.97 83.39 7.51 83.9 1.06 90.35"/><path class="cls-1" d="M11,67a11.58,11.58,0,1,1,0,16.37A11.58,11.58,0,0,1,11,67Zm2.4,14a8.18,8.18,0,1,0,0-11.57A8.17,8.17,0,0,0,13.37,81Z"/><path class="cls-1" d="M123.49,149.54v-3a16.5,16.5,0,1,0-12.08,0v3a28.58,28.58,0,0,0-22.52,27.92H146A28.58,28.58,0,0,0,123.49,149.54Z"/><path class="cls-1" d="M111.41,149.54a8.53,8.53,0,0,0,12.08,0"/><path class="cls-1" d="M110.81,133.77a7.24,7.24,0,0,0,7.24,7.24"/><line class="cls-1" x1="110.81" y1="125.56" x2="110.81" y2="129.12"/><line class="cls-1" x1="124.09" y1="125.56" x2="124.09" y2="129.12"/><path class="cls-5" d="M131.56,65.16,117.75,60,104,65.16V84.07a13.8,13.8,0,0,0,13.8,13.81h0a13.81,13.81,0,0,0,13.81-13.81Z"/><polyline class="cls-5" points="109.67 79.48 115.57 85.38 125.84 75.11"/></g></g></svg>