<svg xmlns="http://www.w3.org/2000/svg" xmlns:xlink="http://www.w3.org/1999/xlink" width="70" height="70" viewBox="0 0 70 70">
  <defs>
    <path id="sensors-a" d="M6.5086475,30.4913525 C3.43979278,27.4224978 1.54166667,23.1829144 1.54166667,18.5 C1.54166667,13.8170856 3.43979278,9.57750223 6.5086475,6.5086475 L8.68889341,8.68889341 C6.17801227,11.1997745 4.625,14.6685245 4.625,18.5 C4.625,22.3314755 6.17801227,25.8002255 8.68889341,28.3111066 L6.5086475,30.4913525 Z M35.4583333,18.5 C35.4583333,23.1829144 33.5602072,27.4224978 30.4913525,30.4913525 L28.3111066,28.3111066 C30.8219877,25.8002255 32.375,22.3314755 32.375,18.5 C32.375,14.6685245 30.8219877,11.1997745 28.3111066,8.68889341 L30.4913525,6.5086475 C33.5602072,9.57750223 35.4583333,13.8170856 35.4583333,18.5 Z M7.70833333,18.5 C7.70833333,15.5199635 8.91623177,12.8220469 10.8691393,10.8691393 L13.0493852,13.0493852 C11.6544513,14.4443192 10.7916667,16.3714025 10.7916667,18.5 C10.7916667,20.6285975 11.6544513,22.5556808 13.0493852,23.9506148 L10.8691393,26.1308607 C8.91623177,24.1779531 7.70833333,21.4800365 7.70833333,18.5 Z M29.2916667,18.5 C29.2916667,21.4800365 28.0837682,24.1779531 26.1308607,26.1308607 L23.9506148,23.9506148 C25.3455487,22.5556808 26.2083333,20.6285975 26.2083333,18.5 C26.2083333,16.3714025 25.3455487,14.4443192 23.9506148,13.0493852 L26.1308607,10.8691393 C28.0837682,12.8220469 29.2916667,15.5199635 29.2916667,18.5 Z M18.5,23.125 C15.945683,23.125 13.875,21.054317 13.875,18.5 C13.875,15.945683 15.945683,13.875 18.5,13.875 C21.054317,13.875 23.125,15.945683 23.125,18.5 C23.125,21.054317 21.054317,23.125 18.5,23.125 Z"/>
    <rect id="sensors-c" width="37" height="37"/>
  </defs>
  <g fill="none" fill-rule="evenodd">
    <circle cx="35" cy="35" r="35" fill="#00C8FF" fill-rule="nonzero" opacity=".1"/>
    <g transform="translate(16.333 16.333)">
      <mask id="sensors-b" fill="#fff">
        <use xlink:href="#sensors-a"/>
      </mask>
      <use fill="#2E2E2E" fill-rule="nonzero" xlink:href="#sensors-a"/>
      <g mask="url(#sensors-b)">
        <use fill="#00A1F2" xlink:href="#sensors-c"/>
      </g>
    </g>
  </g>
</svg>
