<svg xmlns="http://www.w3.org/2000/svg" width="253" height="171" viewBox="0 0 253 171">
    <g fill="none" fill-rule="evenodd">
        <path fill="#00A4BF" d="M78.52 98.255c0-21.134-17.254-38.266-38.54-38.266-21.284 0-38.536 17.132-38.536 38.266 0 21.133 17.252 38.267 38.537 38.267S78.52 119.388 78.52 98.255"/>
        <path stroke="#00A4BF" stroke-width="2.88" d="M78.52 98.255c0-21.134-17.254-38.266-38.54-38.266-21.284 0-38.536 17.132-38.536 38.266 0 21.133 17.252 38.267 38.537 38.267S78.52 119.388 78.52 98.255z"/>
        <path fill="#00A4BF" d="M250.996 98.255c0-21.134-17.256-38.266-38.539-38.266-21.285 0-38.539 17.132-38.539 38.266 0 21.133 17.254 38.267 38.539 38.267 21.283 0 38.539-17.134 38.539-38.267"/>
        <path stroke="#00A4BF" stroke-width="2.88" d="M250.996 98.255c0-21.134-17.256-38.266-38.539-38.266-21.285 0-38.539 17.132-38.539 38.266 0 21.133 17.254 38.267 38.539 38.267 21.283 0 38.539-17.134 38.539-38.267zM120.489 48.232l10.924-10.848-10.728-10.653M131.413 148.298l-10.925 10.85 10.729 10.652M58.753 65.143c37.144-36.883 97.253-36.883 134.395 0M193.149 131.389c-37.144 36.88-97.253 36.88-134.395 0"/>
        <path fill="#00A4BF" d="M54.81 1.807C43.395 3.971 35.908 14.91 38.088 26.245c.794 4.13 2.77 7.73 5.501 10.548l-.511 2.471-1.44 10.619 10.9-5.893 1.828-1.224c2.664.565 5.486.624 8.333.084C74.112 40.685 81.6 29.746 79.42 18.41 77.241 7.079 66.223-.357 54.81 1.807"/>
        <path stroke="#00A4BF" stroke-width="2.88" d="M54.81 1.807C43.395 3.971 35.908 14.91 38.088 26.245c.794 4.13 2.77 7.73 5.501 10.548l-.511 2.471-1.44 10.619 10.9-5.893 1.828-1.224c2.664.565 5.486.624 8.333.084C74.112 40.685 81.6 29.746 79.42 18.41 77.241 7.079 66.223-.357 54.81 1.807z"/>
        <path fill="#FFCFCF" d="M62.749 23.607c-.754 0-1.362-1.306-1.362-2.916 0-1.615.608-2.921 1.362-2.921.752 0 1.362 1.306 1.362 2.92 0 1.61-.61 2.917-1.362 2.917m-8.937 0c-.753 0-1.362-1.306-1.362-2.916 0-1.615.61-2.921 1.362-2.921.752 0 1.362 1.306 1.362 2.92 0 1.61-.61 2.917-1.362 2.917M68.61 21.51c0-5.69-4.645-10.303-10.38-10.303-5.73 0-10.376 4.613-10.376 10.303 0 3.404 3.12 5.522 5.983 6.674a2.194 2.194 0 0 0-.127.712 2.235 2.235 0 0 0 2.243 2.226c.41 0 .788-.119 1.12-.312.332.193.711.312 1.12.312.412 0 .791-.119 1.122-.312.331.193.71.312 1.122.312a2.234 2.234 0 0 0 2.24-2.226c0-.24-.047-.468-.118-.683 2.88-1.148 6.051-3.272 6.051-6.703"/>
        <path fill="#00A4BF" d="M201.405 1.807c11.415 2.164 18.9 13.103 16.72 24.438a20.696 20.696 0 0 1-5.501 10.548l.511 2.471 1.44 10.619-10.9-5.893-1.828-1.224a21.102 21.102 0 0 1-8.333.084c-11.413-2.165-18.9-13.104-16.722-24.44 2.18-11.331 13.198-18.767 24.613-16.603"/>
        <path stroke="#00A4BF" stroke-width="2.88" d="M201.405 1.807c11.415 2.164 18.9 13.103 16.72 24.438a20.696 20.696 0 0 1-5.501 10.548l.511 2.471 1.44 10.619-10.9-5.893-1.828-1.224a21.102 21.102 0 0 1-8.333.084c-11.413-2.165-18.9-13.104-16.722-24.44 2.18-11.331 13.198-18.767 24.613-16.603z"/>
        <path stroke="#5DD8C1" stroke-width="2.88" d="M189.653 21.805l5.695 5.656 9.917-9.847"/>
        <path fill="#5DD8C1" d="M31.487 110.24c-1.904 0-3.449-1.534-3.449-3.425 0-1.89 1.545-3.423 3.45-3.423 1.902 0 3.447 1.534 3.447 3.423 0 1.89-1.545 3.424-3.448 3.424zM48.73 93.12c-1.904 0-3.449-1.535-3.449-3.426 0-1.889 1.545-3.423 3.45-3.423 1.902 0 3.447 1.534 3.447 3.423 0 1.891-1.545 3.425-3.448 3.425zm0 17.12c-1.904 0-3.449-1.534-3.449-3.425 0-1.89 1.545-3.423 3.45-3.423 1.902 0 3.447 1.534 3.447 3.423 0 1.89-1.545 3.424-3.448 3.424zM31.487 93.12c-1.904 0-3.449-1.535-3.449-3.426 0-1.889 1.545-3.423 3.45-3.423 1.902 0 3.447 1.534 3.447 3.423 0 1.891-1.545 3.425-3.448 3.425zm-4.162 5.135L23.37 94.33l2.439-2.422 4.919 4.886h4.418a5.171 5.171 0 0 1 3.238-3.383v-4.718l-4.669-4.635 2.44-2.422 3.952 3.927 3.954-3.927 2.439 2.422-4.669 4.635v4.718a5.171 5.171 0 0 1 3.238 3.383h4.416l4.921-4.886 2.44 2.422-4.208 4.176 3.953 3.925-2.437 2.422-4.669-4.634H44.89a5.178 5.178 0 0 1-3.059 2.88v4.718l4.669 4.636-2.44 2.422-3.953-3.927-3.953 3.927-2.439-2.422 4.669-4.636V103.1a5.178 5.178 0 0 1-3.059-2.88h-5.1l-4.668 4.634-2.44-2.422 4.208-4.176z"/>
        <path fill="#00C8FF" d="M203.962 110.24c-1.905 0-3.448-1.534-3.448-3.425 0-1.89 1.543-3.423 3.448-3.423 1.904 0 3.449 1.534 3.449 3.423 0 1.89-1.545 3.424-3.45 3.424zm17.241-17.12c-1.904 0-3.447-1.535-3.447-3.426 0-1.889 1.543-3.423 3.447-3.423 1.905 0 3.45 1.534 3.45 3.423 0 1.891-1.545 3.425-3.45 3.425zm0 17.12c-1.904 0-3.447-1.534-3.447-3.425 0-1.89 1.543-3.423 3.447-3.423 1.905 0 3.45 1.534 3.45 3.423 0 1.89-1.545 3.424-3.45 3.424zm-17.241-17.12c-1.905 0-3.448-1.535-3.448-3.426 0-1.889 1.543-3.423 3.448-3.423 1.904 0 3.449 1.534 3.449 3.423 0 1.891-1.545 3.425-3.45 3.425zm-4.163 5.135l-3.953-3.925 2.439-2.422 4.919 4.886h4.418a5.168 5.168 0 0 1 3.236-3.383v-4.718l-4.667-4.635 2.44-2.422 3.95 3.927 3.956-3.927 2.439 2.422-4.669 4.635v4.718a5.168 5.168 0 0 1 3.236 3.383h4.416l4.921-4.886 2.44 2.422-4.208 4.176 3.955 3.925-2.439 2.422-4.669-4.634h-4.595a5.17 5.17 0 0 1-3.057 2.88v4.718l4.669 4.636-2.44 2.422-3.954-3.927-3.952 3.927-2.439-2.422 4.667-4.636V103.1a5.17 5.17 0 0 1-3.057-2.88H202.7l-4.669 4.634-2.437-2.422 4.205-4.176z"/>
    </g>
</svg>
