<svg xmlns="http://www.w3.org/2000/svg" xmlns:xlink="http://www.w3.org/1999/xlink" width="70" height="70" viewBox="0 0 70 70">
  <defs>
    <path id="ticketing-a" d="M4.625,15.4166667 L4.625,10.7916667 C4.625,9.94022768 5.31522768,9.25 6.16666667,9.25 L30.8333333,9.25 C31.6847723,9.25 32.375,9.94022768 32.375,10.7916667 L32.375,15.4166667 L29.2916667,18.5 L32.375,21.5833333 L32.375,26.2083333 C32.375,27.0597723 31.6847723,27.75 30.8333333,27.75 L6.16666667,27.75 C5.31522768,27.75 4.625,27.0597723 4.625,26.2083333 L4.625,21.5833333 L7.70833333,18.5 L4.625,15.4166667 Z M18.5,21.5833333 C20.202878,21.5833333 21.5833333,20.202878 21.5833333,18.5 C21.5833333,16.797122 20.202878,15.4166667 18.5,15.4166667 C16.797122,15.4166667 15.4166667,16.797122 15.4166667,18.5 C15.4166667,20.202878 16.797122,21.5833333 18.5,21.5833333 Z"/>
    <rect id="ticketing-c" width="37" height="37"/>
  </defs>
  <g fill="none" fill-rule="evenodd">
    <circle cx="35" cy="35" r="35" fill="#00C8FF" fill-rule="nonzero" opacity=".1"/>
    <g transform="translate(16.333 16.333)">
      <mask id="ticketing-b" fill="#fff">
        <use xlink:href="#ticketing-a"/>
      </mask>
      <use fill="#2E2E2E" fill-rule="nonzero" xlink:href="#ticketing-a"/>
      <g mask="url(#ticketing-b)">
        <use fill="#00A1F2" xlink:href="#ticketing-c"/>
      </g>
    </g>
  </g>
</svg>
