<svg xmlns="http://www.w3.org/2000/svg" width="360" height="226" viewBox="0 0 360 226">
    <g fill="none" fill-rule="evenodd">
        <path stroke="#00A4BF" stroke-width="2.88" d="M178.335 101.925l10.902 10.925-10.706 10.728M178.335 29.058l10.902 10.925-10.706 10.728"/>
        <path fill="#DCFAFF" d="M138.758 112.76H263.55 138.758z"/>
        <path stroke="#00A4BF" stroke-width="2.88" d="M263.551 112.759H138.758M274.345 144.446a139.82 139.82 0 0 1-98.977 41.081h-96.09"/>
        <path stroke="#00A4BF" stroke-width="2.88" d="M178.335 196.452l10.902-10.925-10.706-10.728M274.345 81.064a139.82 139.82 0 0 0-98.977-41.08h-96.09"/>
        <path fill="#00A4BF" d="M358.56 112.751c0-26.29-21.267-47.6-47.503-47.6s-47.505 21.31-47.505 47.6c0 26.29 21.27 47.603 47.505 47.603 26.236 0 47.503-21.313 47.503-47.603"/>
        <path stroke="#00A4BF" stroke-width="2.88" d="M358.56 112.751c0-26.29-21.267-47.6-47.503-47.6s-47.505 21.31-47.505 47.6c0 26.29 21.27 47.603 47.505 47.603 26.236 0 47.503-21.313 47.503-47.603z"/>
        <path fill="#00A4BF" d="M78.362 39.982c0-21.284-17.22-38.54-38.461-38.54-21.243 0-38.461 17.256-38.461 38.54s17.218 38.54 38.46 38.54c21.241 0 38.462-17.256 38.462-38.54"/>
        <path stroke="#00A4BF" stroke-width="2.88" d="M78.362 39.982c0-21.284-17.22-38.54-38.461-38.54-21.243 0-38.461 17.256-38.461 38.54s17.218 38.54 38.46 38.54c21.241 0 38.462-17.256 38.462-38.54z"/>
        <path fill="#00A4BF" d="M138.758 112.759c0-21.284-17.22-38.54-38.461-38.54-21.243 0-38.461 17.256-38.461 38.54s17.218 38.54 38.46 38.54c21.241 0 38.462-17.256 38.462-38.54"/>
        <path stroke="#00A4BF" stroke-width="2.88" d="M138.758 112.759c0-21.284-17.22-38.54-38.461-38.54-21.243 0-38.461 17.256-38.461 38.54s17.218 38.54 38.46 38.54c21.241 0 38.462-17.256 38.462-38.54z"/>
        <path fill="#00A4BF" d="M78.362 185.626c0-21.284-17.22-38.54-38.461-38.54-21.243 0-38.461 17.256-38.461 38.54s17.218 38.54 38.46 38.54c21.241 0 38.462-17.256 38.462-38.54"/>
        <path stroke="#00A4BF" stroke-width="2.88" d="M78.362 185.626c0-21.284-17.22-38.54-38.461-38.54-21.243 0-38.461 17.256-38.461 38.54s17.218 38.54 38.46 38.54c21.241 0 38.462-17.256 38.462-38.54z"/>
        <path fill="#FFF" d="M27.97 55.923a3.981 3.981 0 0 1-3.977-3.984 3.98 3.98 0 0 1 3.978-3.986 3.98 3.98 0 0 1 3.976 3.986 3.98 3.98 0 0 1-3.976 3.984zm0-15.94c6.59 0 11.93 5.351 11.93 11.956h-3.975c0-4.402-3.562-7.972-7.954-7.972v-3.984zm0-3.984v-3.986c10.982 0 19.884 8.92 19.884 19.926h-3.976c0-8.803-7.122-15.94-15.907-15.94zm0-11.956c15.375 0 27.838 12.488 27.838 27.896h-3.976c0-13.207-10.684-23.912-23.861-23.912v-3.984z"/>
        <path fill="#00C8FF" d="M91.819 124.83a3.446 3.446 0 0 1-3.442-3.45 3.446 3.446 0 0 1 3.442-3.45c1.9 0 3.442 1.545 3.442 3.45a3.446 3.446 0 0 1-3.442 3.45zm17.207-17.243a3.446 3.446 0 0 1-3.442-3.45 3.446 3.446 0 0 1 3.442-3.449c1.9 0 3.442 1.545 3.442 3.45a3.446 3.446 0 0 1-3.442 3.449zm0 17.242a3.446 3.446 0 0 1-3.442-3.449 3.446 3.446 0 0 1 3.442-3.45c1.9 0 3.442 1.545 3.442 3.45a3.446 3.446 0 0 1-3.442 3.45zm-17.207-17.242a3.446 3.446 0 0 1-3.442-3.45 3.446 3.446 0 0 1 3.442-3.449c1.9 0 3.442 1.545 3.442 3.45a3.446 3.446 0 0 1-3.442 3.449zm-4.155 5.173l-3.945-3.954 2.434-2.439 4.91 4.921h4.41a5.188 5.188 0 0 1 3.228-3.409v-4.751l-4.657-4.667 2.434-2.44 3.943 3.954 3.947-3.954 2.433 2.44-4.658 4.667v4.751a5.188 5.188 0 0 1 3.23 3.41h4.407l4.911-4.922 2.434 2.44-4.198 4.203 3.947 3.955-2.434 2.44-4.66-4.67h-4.586a5.182 5.182 0 0 1-3.05 2.903v4.752l4.657 4.667-2.433 2.44-3.947-3.954-3.943 3.953-2.434-2.44 4.657-4.666v-4.752a5.182 5.182 0 0 1-3.05-2.903h-5.092l-4.659 4.67-2.434-2.44 4.198-4.205z"/>
        <path fill="#5DD8C1" d="M302.579 124.822a3.446 3.446 0 0 1-3.442-3.45 3.445 3.445 0 0 1 3.442-3.447c1.9 0 3.442 1.543 3.442 3.447a3.446 3.446 0 0 1-3.442 3.45zm17.207-17.243a3.446 3.446 0 0 1-3.442-3.449 3.445 3.445 0 0 1 3.442-3.447c1.9 0 3.442 1.543 3.442 3.447a3.446 3.446 0 0 1-3.442 3.45zm0 17.243a3.446 3.446 0 0 1-3.442-3.45 3.445 3.445 0 0 1 3.442-3.447c1.9 0 3.442 1.543 3.442 3.447a3.446 3.446 0 0 1-3.442 3.45zm-17.207-17.243a3.446 3.446 0 0 1-3.442-3.449 3.445 3.445 0 0 1 3.442-3.447c1.9 0 3.442 1.543 3.442 3.447a3.446 3.446 0 0 1-3.442 3.45zm-4.154 5.173l-3.946-3.953 2.435-2.44 4.909 4.922h4.41a5.183 5.183 0 0 1 3.228-3.41v-4.75l-4.657-4.668 2.432-2.44 3.946 3.954 3.945-3.953 2.434 2.44-4.657 4.666v4.752a5.192 5.192 0 0 1 3.229 3.409h4.408l4.91-4.921 2.435 2.439-4.199 4.205 3.947 3.954-2.434 2.439-4.66-4.67h-4.586a5.182 5.182 0 0 1-3.05 2.904v4.751l4.657 4.667-2.434 2.44-3.945-3.954-3.946 3.954-2.432-2.44 4.657-4.667v-4.751a5.182 5.182 0 0 1-3.05-2.903h-5.091l-4.66 4.669-2.434-2.44 4.199-4.205z"/>
        <path fill="#FFF" d="M41.276 190.683a5.053 5.053 0 0 1-5.047-5.057 5.053 5.053 0 0 1 5.047-5.058 5.054 5.054 0 0 1 5.05 5.058 5.054 5.054 0 0 1-5.05 5.057zm11.778-5.057c0 3.258-1.319 6.21-3.45 8.345l-2.378-2.384a8.414 8.414 0 0 0 2.463-5.961c0-2.328-.94-4.435-2.463-5.96l2.378-2.384a11.777 11.777 0 0 1 3.45 8.344zm-23.554 0c0-3.257 1.32-6.208 3.45-8.344l2.379 2.384a8.409 8.409 0 0 0-2.463 5.96c0 2.327.94 4.436 2.463 5.961l-2.379 2.384a11.778 11.778 0 0 1-3.45-8.345zm30.283 0a18.49 18.49 0 0 1-5.421 13.112l-2.379-2.384a15.135 15.135 0 0 0 4.437-10.728c0-4.19-1.696-7.982-4.437-10.729l2.379-2.384a18.494 18.494 0 0 1 5.421 13.113zm-31.59 13.112a18.492 18.492 0 0 1-5.423-13.112c0-5.121 2.071-9.756 5.423-13.113l2.379 2.384a15.139 15.139 0 0 0-4.437 10.729c0 4.19 1.695 7.983 4.437 10.728l-2.379 2.384z"/>
    </g>
</svg>
